<?xml version="1.0" encoding="utf-8" standalone="no"?>
<!DOCTYPE svg PUBLIC "-//W3C//DTD SVG 1.1//EN"
  "http://www.w3.org/Graphics/SVG/1.1/DTD/svg11.dtd">
<svg xmlns:xlink="http://www.w3.org/1999/xlink" width="234pt" height="90pt" viewBox="0 0 234 90" xmlns="http://www.w3.org/2000/svg" version="1.1">
 <metadata>
  <rdf:RDF xmlns:dc="http://purl.org/dc/elements/1.1/" xmlns:cc="http://creativecommons.org/ns#" xmlns:rdf="http://www.w3.org/1999/02/22-rdf-syntax-ns#">
   <cc:Work>
    <dc:type rdf:resource="http://purl.org/dc/dcmitype/StillImage"/>
    <dc:date>2026-03-12T11:16:16.913908</dc:date>
    <dc:format>image/svg+xml</dc:format>
    <dc:creator>
     <cc:Agent>
      <dc:title>Matplotlib v3.10.7, https://matplotlib.org/</dc:title>
     </cc:Agent>
    </dc:creator>
   </cc:Work>
  </rdf:RDF>
 </metadata>
 <defs>
  <style type="text/css">*{stroke-linejoin: round; stroke-linecap: butt}</style>
 </defs>
 <g id="figure_1">
  <g id="patch_1">
   <path d="M 0 90 
L 234 90 
L 234 0 
L 0 0 
L 0 90 
z
" style="fill: none"/>
  </g>
  <g id="axes_1">
   <g id="patch_2">
    <path d="M 35.775 63 
L 98.775 63 
L 98.775 0 
L 35.775 0 
L 35.775 63 
z
" style="fill: none"/>
   </g>
   <g id="LineCollection_1">
    <path d="M 79.628728 31.150729 
L 84.288563 31.150729 
" clip-path="url(#p6341ca7145)" style="fill: none; stroke: #808080; stroke-opacity: 0.7; stroke-width: 1.2"/>
    <path d="M 80.894339 34.029383 
L 84.829387 34.029383 
" clip-path="url(#p6341ca7145)" style="fill: none; stroke: #808080; stroke-opacity: 0.7; stroke-width: 1.2"/>
    <path d="M 65.052231 31.757312 
L 72.578992 31.757312 
" clip-path="url(#p6341ca7145)" style="fill: none; stroke: #808080; stroke-opacity: 0.7; stroke-width: 1.2"/>
    <path d="M 74.359607 29.677683 
L 86.370415 29.677683 
" clip-path="url(#p6341ca7145)" style="fill: none; stroke: #808080; stroke-opacity: 0.7; stroke-width: 1.2"/>
    <path d="M 82.60871 35.764898 
L 86.406266 35.764898 
" clip-path="url(#p6341ca7145)" style="fill: none; stroke: #808080; stroke-opacity: 0.7; stroke-width: 1.2"/>
    <path d="M 82.841245 30.236797 
L 86.88481 30.236797 
" clip-path="url(#p6341ca7145)" style="fill: none; stroke: #808080; stroke-opacity: 0.7; stroke-width: 1.2"/>
    <path d="M 71.176099 29.415375 
L 78.191008 29.415375 
" clip-path="url(#p6341ca7145)" style="fill: none; stroke: #808080; stroke-opacity: 0.7; stroke-width: 1.2"/>
    <path d="M 76.822751 50.296056 
L 81.771193 50.296056 
" clip-path="url(#p6341ca7145)" style="fill: none; stroke: #808080; stroke-opacity: 0.7; stroke-width: 1.2"/>
    <path d="M 81.297989 27.443474 
L 86.717765 27.443474 
" clip-path="url(#p6341ca7145)" style="fill: none; stroke: #808080; stroke-opacity: 0.7; stroke-width: 1.2"/>
    <path d="M 84.196187 29.238515 
L 86.877098 29.238515 
" clip-path="url(#p6341ca7145)" style="fill: none; stroke: #808080; stroke-opacity: 0.7; stroke-width: 1.2"/>
    <path d="M 82.287506 39.273414 
L 88.01649 39.273414 
" clip-path="url(#p6341ca7145)" style="fill: none; stroke: #808080; stroke-opacity: 0.7; stroke-width: 1.2"/>
    <path d="M 80.414149 24.559177 
L 88.065906 24.559177 
" clip-path="url(#p6341ca7145)" style="fill: none; stroke: #808080; stroke-opacity: 0.7; stroke-width: 1.2"/>
    <path d="M 83.777662 29.80371 
L 88.440431 29.80371 
" clip-path="url(#p6341ca7145)" style="fill: none; stroke: #808080; stroke-opacity: 0.7; stroke-width: 1.2"/>
    <path d="M 83.949215 32.634058 
L 87.182385 32.634058 
" clip-path="url(#p6341ca7145)" style="fill: none; stroke: #808080; stroke-opacity: 0.7; stroke-width: 1.2"/>
    <path d="M 84.950399 40.280747 
L 88.368754 40.280747 
" clip-path="url(#p6341ca7145)" style="fill: none; stroke: #808080; stroke-opacity: 0.7; stroke-width: 1.2"/>
    <path d="M 84.381138 28.463493 
L 87.484629 28.463493 
" clip-path="url(#p6341ca7145)" style="fill: none; stroke: #808080; stroke-opacity: 0.7; stroke-width: 1.2"/>
    <path d="M 92.244018 24.300352 
L 92.793428 24.300352 
" clip-path="url(#p6341ca7145)" style="fill: none; stroke: #808080; stroke-opacity: 0.7; stroke-width: 1.2"/>
    <path d="M 86.890328 27.334458 
L 89.264938 27.334458 
" clip-path="url(#p6341ca7145)" style="fill: none; stroke: #808080; stroke-opacity: 0.7; stroke-width: 1.2"/>
    <path d="M 80.193999 46.353729 
L 86.341401 46.353729 
" clip-path="url(#p6341ca7145)" style="fill: none; stroke: #808080; stroke-opacity: 0.7; stroke-width: 1.2"/>
    <path d="M 77.854678 44.303011 
L 82.011424 44.303011 
" clip-path="url(#p6341ca7145)" style="fill: none; stroke: #808080; stroke-opacity: 0.7; stroke-width: 1.2"/>
    <path d="M 79.987415 17.063059 
L 84.548163 17.063059 
" clip-path="url(#p6341ca7145)" style="fill: none; stroke: #808080; stroke-opacity: 0.7; stroke-width: 1.2"/>
   </g>
   <g id="LineCollection_2">
    <path d="M 81.958645 32.241895 
L 81.958645 30.059563 
" clip-path="url(#p6341ca7145)" style="fill: none; stroke: #808080; stroke-opacity: 0.7; stroke-width: 1.2"/>
    <path d="M 82.861863 35.131528 
L 82.861863 32.927239 
" clip-path="url(#p6341ca7145)" style="fill: none; stroke: #808080; stroke-opacity: 0.7; stroke-width: 1.2"/>
    <path d="M 68.815611 33.690318 
L 68.815611 29.824306 
" clip-path="url(#p6341ca7145)" style="fill: none; stroke: #808080; stroke-opacity: 0.7; stroke-width: 1.2"/>
    <path d="M 80.365011 39.383255 
L 80.365011 19.972111 
" clip-path="url(#p6341ca7145)" style="fill: none; stroke: #808080; stroke-opacity: 0.7; stroke-width: 1.2"/>
    <path d="M 84.507488 41.408946 
L 84.507488 30.12085 
" clip-path="url(#p6341ca7145)" style="fill: none; stroke: #808080; stroke-opacity: 0.7; stroke-width: 1.2"/>
    <path d="M 84.863028 32.805806 
L 84.863028 27.667788 
" clip-path="url(#p6341ca7145)" style="fill: none; stroke: #808080; stroke-opacity: 0.7; stroke-width: 1.2"/>
    <path d="M 74.683553 31.530845 
L 74.683553 27.299905 
" clip-path="url(#p6341ca7145)" style="fill: none; stroke: #808080; stroke-opacity: 0.7; stroke-width: 1.2"/>
    <path d="M 79.296972 51.882149 
L 79.296972 48.709962 
" clip-path="url(#p6341ca7145)" style="fill: none; stroke: #808080; stroke-opacity: 0.7; stroke-width: 1.2"/>
    <path d="M 84.007877 39.147897 
L 84.007877 15.73905 
" clip-path="url(#p6341ca7145)" style="fill: none; stroke: #808080; stroke-opacity: 0.7; stroke-width: 1.2"/>
    <path d="M 85.536642 30.798423 
L 85.536642 27.678606 
" clip-path="url(#p6341ca7145)" style="fill: none; stroke: #808080; stroke-opacity: 0.7; stroke-width: 1.2"/>
    <path d="M 85.151998 40.836759 
L 85.151998 37.710068 
" clip-path="url(#p6341ca7145)" style="fill: none; stroke: #808080; stroke-opacity: 0.7; stroke-width: 1.2"/>
    <path d="M 84.240027 25.830223 
L 84.240027 23.288132 
" clip-path="url(#p6341ca7145)" style="fill: none; stroke: #808080; stroke-opacity: 0.7; stroke-width: 1.2"/>
    <path d="M 86.109046 30.832836 
L 86.109046 28.774584 
" clip-path="url(#p6341ca7145)" style="fill: none; stroke: #808080; stroke-opacity: 0.7; stroke-width: 1.2"/>
    <path d="M 85.5658 39.082788 
L 85.5658 26.185328 
" clip-path="url(#p6341ca7145)" style="fill: none; stroke: #808080; stroke-opacity: 0.7; stroke-width: 1.2"/>
    <path d="M 86.659577 40.909226 
L 86.659577 39.652269 
" clip-path="url(#p6341ca7145)" style="fill: none; stroke: #808080; stroke-opacity: 0.7; stroke-width: 1.2"/>
    <path d="M 85.932883 29.293919 
L 85.932883 27.633067 
" clip-path="url(#p6341ca7145)" style="fill: none; stroke: #808080; stroke-opacity: 0.7; stroke-width: 1.2"/>
    <path d="M 92.518723 24.537527 
L 92.518723 24.063177 
" clip-path="url(#p6341ca7145)" style="fill: none; stroke: #808080; stroke-opacity: 0.7; stroke-width: 1.2"/>
    <path d="M 88.077633 27.957064 
L 88.077633 26.711852 
" clip-path="url(#p6341ca7145)" style="fill: none; stroke: #808080; stroke-opacity: 0.7; stroke-width: 1.2"/>
    <path d="M 83.2677 47.557729 
L 83.2677 45.149729 
" clip-path="url(#p6341ca7145)" style="fill: none; stroke: #808080; stroke-opacity: 0.7; stroke-width: 1.2"/>
    <path d="M 79.933051 45.577256 
L 79.933051 43.028766 
" clip-path="url(#p6341ca7145)" style="fill: none; stroke: #808080; stroke-opacity: 0.7; stroke-width: 1.2"/>
    <path d="M 82.267789 18.505216 
L 82.267789 15.620903 
" clip-path="url(#p6341ca7145)" style="fill: none; stroke: #808080; stroke-opacity: 0.7; stroke-width: 1.2"/>
   </g>
   <g id="line2d_1">
    <defs>
     <path id="mc0921ca58b" d="M 0 2 
L 0 -2 
" style="stroke: #808080; stroke-opacity: 0.7"/>
    </defs>
    <g clip-path="url(#p6341ca7145)">
     <use xlink:href="#mc0921ca58b" x="79.628728" y="31.150729" style="fill: #4c72b0; fill-opacity: 0.7; stroke: #808080; stroke-opacity: 0.7"/>
     <use xlink:href="#mc0921ca58b" x="80.894339" y="34.029383" style="fill: #4c72b0; fill-opacity: 0.7; stroke: #808080; stroke-opacity: 0.7"/>
     <use xlink:href="#mc0921ca58b" x="65.052231" y="31.757312" style="fill: #4c72b0; fill-opacity: 0.7; stroke: #808080; stroke-opacity: 0.7"/>
     <use xlink:href="#mc0921ca58b" x="74.359607" y="29.677683" style="fill: #4c72b0; fill-opacity: 0.7; stroke: #808080; stroke-opacity: 0.7"/>
     <use xlink:href="#mc0921ca58b" x="82.60871" y="35.764898" style="fill: #4c72b0; fill-opacity: 0.7; stroke: #808080; stroke-opacity: 0.7"/>
     <use xlink:href="#mc0921ca58b" x="82.841245" y="30.236797" style="fill: #4c72b0; fill-opacity: 0.7; stroke: #808080; stroke-opacity: 0.7"/>
     <use xlink:href="#mc0921ca58b" x="71.176099" y="29.415375" style="fill: #4c72b0; fill-opacity: 0.7; stroke: #808080; stroke-opacity: 0.7"/>
     <use xlink:href="#mc0921ca58b" x="76.822751" y="50.296056" style="fill: #4c72b0; fill-opacity: 0.7; stroke: #808080; stroke-opacity: 0.7"/>
     <use xlink:href="#mc0921ca58b" x="81.297989" y="27.443474" style="fill: #4c72b0; fill-opacity: 0.7; stroke: #808080; stroke-opacity: 0.7"/>
     <use xlink:href="#mc0921ca58b" x="84.196187" y="29.238515" style="fill: #4c72b0; fill-opacity: 0.7; stroke: #808080; stroke-opacity: 0.7"/>
     <use xlink:href="#mc0921ca58b" x="82.287506" y="39.273414" style="fill: #4c72b0; fill-opacity: 0.7; stroke: #808080; stroke-opacity: 0.7"/>
     <use xlink:href="#mc0921ca58b" x="80.414149" y="24.559177" style="fill: #4c72b0; fill-opacity: 0.7; stroke: #808080; stroke-opacity: 0.7"/>
     <use xlink:href="#mc0921ca58b" x="83.777662" y="29.80371" style="fill: #4c72b0; fill-opacity: 0.7; stroke: #808080; stroke-opacity: 0.7"/>
     <use xlink:href="#mc0921ca58b" x="83.949215" y="32.634058" style="fill: #4c72b0; fill-opacity: 0.7; stroke: #808080; stroke-opacity: 0.7"/>
     <use xlink:href="#mc0921ca58b" x="84.950399" y="40.280747" style="fill: #4c72b0; fill-opacity: 0.7; stroke: #808080; stroke-opacity: 0.7"/>
     <use xlink:href="#mc0921ca58b" x="84.381138" y="28.463493" style="fill: #4c72b0; fill-opacity: 0.7; stroke: #808080; stroke-opacity: 0.7"/>
     <use xlink:href="#mc0921ca58b" x="92.244018" y="24.300352" style="fill: #4c72b0; fill-opacity: 0.7; stroke: #808080; stroke-opacity: 0.7"/>
     <use xlink:href="#mc0921ca58b" x="86.890328" y="27.334458" style="fill: #4c72b0; fill-opacity: 0.7; stroke: #808080; stroke-opacity: 0.7"/>
     <use xlink:href="#mc0921ca58b" x="80.193999" y="46.353729" style="fill: #4c72b0; fill-opacity: 0.7; stroke: #808080; stroke-opacity: 0.7"/>
     <use xlink:href="#mc0921ca58b" x="77.854678" y="44.303011" style="fill: #4c72b0; fill-opacity: 0.7; stroke: #808080; stroke-opacity: 0.7"/>
     <use xlink:href="#mc0921ca58b" x="79.987415" y="17.063059" style="fill: #4c72b0; fill-opacity: 0.7; stroke: #808080; stroke-opacity: 0.7"/>
    </g>
   </g>
   <g id="line2d_2">
    <g clip-path="url(#p6341ca7145)">
     <use xlink:href="#mc0921ca58b" x="84.288563" y="31.150729" style="fill: #4c72b0; fill-opacity: 0.7; stroke: #808080; stroke-opacity: 0.7"/>
     <use xlink:href="#mc0921ca58b" x="84.829387" y="34.029383" style="fill: #4c72b0; fill-opacity: 0.7; stroke: #808080; stroke-opacity: 0.7"/>
     <use xlink:href="#mc0921ca58b" x="72.578992" y="31.757312" style="fill: #4c72b0; fill-opacity: 0.7; stroke: #808080; stroke-opacity: 0.7"/>
     <use xlink:href="#mc0921ca58b" x="86.370415" y="29.677683" style="fill: #4c72b0; fill-opacity: 0.7; stroke: #808080; stroke-opacity: 0.7"/>
     <use xlink:href="#mc0921ca58b" x="86.406266" y="35.764898" style="fill: #4c72b0; fill-opacity: 0.7; stroke: #808080; stroke-opacity: 0.7"/>
     <use xlink:href="#mc0921ca58b" x="86.88481" y="30.236797" style="fill: #4c72b0; fill-opacity: 0.7; stroke: #808080; stroke-opacity: 0.7"/>
     <use xlink:href="#mc0921ca58b" x="78.191008" y="29.415375" style="fill: #4c72b0; fill-opacity: 0.7; stroke: #808080; stroke-opacity: 0.7"/>
     <use xlink:href="#mc0921ca58b" x="81.771193" y="50.296056" style="fill: #4c72b0; fill-opacity: 0.7; stroke: #808080; stroke-opacity: 0.7"/>
     <use xlink:href="#mc0921ca58b" x="86.717765" y="27.443474" style="fill: #4c72b0; fill-opacity: 0.7; stroke: #808080; stroke-opacity: 0.7"/>
     <use xlink:href="#mc0921ca58b" x="86.877098" y="29.238515" style="fill: #4c72b0; fill-opacity: 0.7; stroke: #808080; stroke-opacity: 0.7"/>
     <use xlink:href="#mc0921ca58b" x="88.01649" y="39.273414" style="fill: #4c72b0; fill-opacity: 0.7; stroke: #808080; stroke-opacity: 0.7"/>
     <use xlink:href="#mc0921ca58b" x="88.065906" y="24.559177" style="fill: #4c72b0; fill-opacity: 0.7; stroke: #808080; stroke-opacity: 0.7"/>
     <use xlink:href="#mc0921ca58b" x="88.440431" y="29.80371" style="fill: #4c72b0; fill-opacity: 0.7; stroke: #808080; stroke-opacity: 0.7"/>
     <use xlink:href="#mc0921ca58b" x="87.182385" y="32.634058" style="fill: #4c72b0; fill-opacity: 0.7; stroke: #808080; stroke-opacity: 0.7"/>
     <use xlink:href="#mc0921ca58b" x="88.368754" y="40.280747" style="fill: #4c72b0; fill-opacity: 0.7; stroke: #808080; stroke-opacity: 0.7"/>
     <use xlink:href="#mc0921ca58b" x="87.484629" y="28.463493" style="fill: #4c72b0; fill-opacity: 0.7; stroke: #808080; stroke-opacity: 0.7"/>
     <use xlink:href="#mc0921ca58b" x="92.793428" y="24.300352" style="fill: #4c72b0; fill-opacity: 0.7; stroke: #808080; stroke-opacity: 0.7"/>
     <use xlink:href="#mc0921ca58b" x="89.264938" y="27.334458" style="fill: #4c72b0; fill-opacity: 0.7; stroke: #808080; stroke-opacity: 0.7"/>
     <use xlink:href="#mc0921ca58b" x="86.341401" y="46.353729" style="fill: #4c72b0; fill-opacity: 0.7; stroke: #808080; stroke-opacity: 0.7"/>
     <use xlink:href="#mc0921ca58b" x="82.011424" y="44.303011" style="fill: #4c72b0; fill-opacity: 0.7; stroke: #808080; stroke-opacity: 0.7"/>
     <use xlink:href="#mc0921ca58b" x="84.548163" y="17.063059" style="fill: #4c72b0; fill-opacity: 0.7; stroke: #808080; stroke-opacity: 0.7"/>
    </g>
   </g>
   <g id="line2d_3">
    <defs>
     <path id="m03ec79c28c" d="M 2 0 
L -2 -0 
" style="stroke: #808080; stroke-opacity: 0.7"/>
    </defs>
    <g clip-path="url(#p6341ca7145)">
     <use xlink:href="#m03ec79c28c" x="81.958645" y="32.241895" style="fill: #4c72b0; fill-opacity: 0.7; stroke: #808080; stroke-opacity: 0.7"/>
     <use xlink:href="#m03ec79c28c" x="82.861863" y="35.131528" style="fill: #4c72b0; fill-opacity: 0.7; stroke: #808080; stroke-opacity: 0.7"/>
     <use xlink:href="#m03ec79c28c" x="68.815611" y="33.690318" style="fill: #4c72b0; fill-opacity: 0.7; stroke: #808080; stroke-opacity: 0.7"/>
     <use xlink:href="#m03ec79c28c" x="80.365011" y="39.383255" style="fill: #4c72b0; fill-opacity: 0.7; stroke: #808080; stroke-opacity: 0.7"/>
     <use xlink:href="#m03ec79c28c" x="84.507488" y="41.408946" style="fill: #4c72b0; fill-opacity: 0.7; stroke: #808080; stroke-opacity: 0.7"/>
     <use xlink:href="#m03ec79c28c" x="84.863028" y="32.805806" style="fill: #4c72b0; fill-opacity: 0.7; stroke: #808080; stroke-opacity: 0.7"/>
     <use xlink:href="#m03ec79c28c" x="74.683553" y="31.530845" style="fill: #4c72b0; fill-opacity: 0.7; stroke: #808080; stroke-opacity: 0.7"/>
     <use xlink:href="#m03ec79c28c" x="79.296972" y="51.882149" style="fill: #4c72b0; fill-opacity: 0.7; stroke: #808080; stroke-opacity: 0.7"/>
     <use xlink:href="#m03ec79c28c" x="84.007877" y="39.147897" style="fill: #4c72b0; fill-opacity: 0.7; stroke: #808080; stroke-opacity: 0.7"/>
     <use xlink:href="#m03ec79c28c" x="85.536642" y="30.798423" style="fill: #4c72b0; fill-opacity: 0.7; stroke: #808080; stroke-opacity: 0.7"/>
     <use xlink:href="#m03ec79c28c" x="85.151998" y="40.836759" style="fill: #4c72b0; fill-opacity: 0.7; stroke: #808080; stroke-opacity: 0.7"/>
     <use xlink:href="#m03ec79c28c" x="84.240027" y="25.830223" style="fill: #4c72b0; fill-opacity: 0.7; stroke: #808080; stroke-opacity: 0.7"/>
     <use xlink:href="#m03ec79c28c" x="86.109046" y="30.832836" style="fill: #4c72b0; fill-opacity: 0.7; stroke: #808080; stroke-opacity: 0.7"/>
     <use xlink:href="#m03ec79c28c" x="85.5658" y="39.082788" style="fill: #4c72b0; fill-opacity: 0.7; stroke: #808080; stroke-opacity: 0.7"/>
     <use xlink:href="#m03ec79c28c" x="86.659577" y="40.909226" style="fill: #4c72b0; fill-opacity: 0.7; stroke: #808080; stroke-opacity: 0.7"/>
     <use xlink:href="#m03ec79c28c" x="85.932883" y="29.293919" style="fill: #4c72b0; fill-opacity: 0.7; stroke: #808080; stroke-opacity: 0.7"/>
     <use xlink:href="#m03ec79c28c" x="92.518723" y="24.537527" style="fill: #4c72b0; fill-opacity: 0.7; stroke: #808080; stroke-opacity: 0.7"/>
     <use xlink:href="#m03ec79c28c" x="88.077633" y="27.957064" style="fill: #4c72b0; fill-opacity: 0.7; stroke: #808080; stroke-opacity: 0.7"/>
     <use xlink:href="#m03ec79c28c" x="83.2677" y="47.557729" style="fill: #4c72b0; fill-opacity: 0.7; stroke: #808080; stroke-opacity: 0.7"/>
     <use xlink:href="#m03ec79c28c" x="79.933051" y="45.577256" style="fill: #4c72b0; fill-opacity: 0.7; stroke: #808080; stroke-opacity: 0.7"/>
     <use xlink:href="#m03ec79c28c" x="82.267789" y="18.505216" style="fill: #4c72b0; fill-opacity: 0.7; stroke: #808080; stroke-opacity: 0.7"/>
    </g>
   </g>
   <g id="line2d_4">
    <g clip-path="url(#p6341ca7145)">
     <use xlink:href="#m03ec79c28c" x="81.958645" y="30.059563" style="fill: #4c72b0; fill-opacity: 0.7; stroke: #808080; stroke-opacity: 0.7"/>
     <use xlink:href="#m03ec79c28c" x="82.861863" y="32.927239" style="fill: #4c72b0; fill-opacity: 0.7; stroke: #808080; stroke-opacity: 0.7"/>
     <use xlink:href="#m03ec79c28c" x="68.815611" y="29.824306" style="fill: #4c72b0; fill-opacity: 0.7; stroke: #808080; stroke-opacity: 0.7"/>
     <use xlink:href="#m03ec79c28c" x="80.365011" y="19.972111" style="fill: #4c72b0; fill-opacity: 0.7; stroke: #808080; stroke-opacity: 0.7"/>
     <use xlink:href="#m03ec79c28c" x="84.507488" y="30.12085" style="fill: #4c72b0; fill-opacity: 0.7; stroke: #808080; stroke-opacity: 0.7"/>
     <use xlink:href="#m03ec79c28c" x="84.863028" y="27.667788" style="fill: #4c72b0; fill-opacity: 0.7; stroke: #808080; stroke-opacity: 0.7"/>
     <use xlink:href="#m03ec79c28c" x="74.683553" y="27.299905" style="fill: #4c72b0; fill-opacity: 0.7; stroke: #808080; stroke-opacity: 0.7"/>
     <use xlink:href="#m03ec79c28c" x="79.296972" y="48.709962" style="fill: #4c72b0; fill-opacity: 0.7; stroke: #808080; stroke-opacity: 0.7"/>
     <use xlink:href="#m03ec79c28c" x="84.007877" y="15.73905" style="fill: #4c72b0; fill-opacity: 0.7; stroke: #808080; stroke-opacity: 0.7"/>
     <use xlink:href="#m03ec79c28c" x="85.536642" y="27.678606" style="fill: #4c72b0; fill-opacity: 0.7; stroke: #808080; stroke-opacity: 0.7"/>
     <use xlink:href="#m03ec79c28c" x="85.151998" y="37.710068" style="fill: #4c72b0; fill-opacity: 0.7; stroke: #808080; stroke-opacity: 0.7"/>
     <use xlink:href="#m03ec79c28c" x="84.240027" y="23.288132" style="fill: #4c72b0; fill-opacity: 0.7; stroke: #808080; stroke-opacity: 0.7"/>
     <use xlink:href="#m03ec79c28c" x="86.109046" y="28.774584" style="fill: #4c72b0; fill-opacity: 0.7; stroke: #808080; stroke-opacity: 0.7"/>
     <use xlink:href="#m03ec79c28c" x="85.5658" y="26.185328" style="fill: #4c72b0; fill-opacity: 0.7; stroke: #808080; stroke-opacity: 0.7"/>
     <use xlink:href="#m03ec79c28c" x="86.659577" y="39.652269" style="fill: #4c72b0; fill-opacity: 0.7; stroke: #808080; stroke-opacity: 0.7"/>
     <use xlink:href="#m03ec79c28c" x="85.932883" y="27.633067" style="fill: #4c72b0; fill-opacity: 0.7; stroke: #808080; stroke-opacity: 0.7"/>
     <use xlink:href="#m03ec79c28c" x="92.518723" y="24.063177" style="fill: #4c72b0; fill-opacity: 0.7; stroke: #808080; stroke-opacity: 0.7"/>
     <use xlink:href="#m03ec79c28c" x="88.077633" y="26.711852" style="fill: #4c72b0; fill-opacity: 0.7; stroke: #808080; stroke-opacity: 0.7"/>
     <use xlink:href="#m03ec79c28c" x="83.2677" y="45.149729" style="fill: #4c72b0; fill-opacity: 0.7; stroke: #808080; stroke-opacity: 0.7"/>
     <use xlink:href="#m03ec79c28c" x="79.933051" y="43.028766" style="fill: #4c72b0; fill-opacity: 0.7; stroke: #808080; stroke-opacity: 0.7"/>
     <use xlink:href="#m03ec79c28c" x="82.267789" y="15.620903" style="fill: #4c72b0; fill-opacity: 0.7; stroke: #808080; stroke-opacity: 0.7"/>
    </g>
   </g>
   <g id="matplotlib.axis_1">
    <g id="xtick_1">
     <g id="line2d_5">
      <defs>
       <path id="mf31b0cf6bd" d="M 0 0 
L 0 4.8 
" style="stroke: #262626"/>
      </defs>
      <g>
       <use xlink:href="#mf31b0cf6bd" x="45.467308" y="63" style="fill: #262626; stroke: #262626"/>
      </g>
     </g>
     <g id="text_1">
      <text style="font-size: 8px; font-family: 'Arial'; text-anchor: middle; fill: #262626" x="45.467308" y="77.02625" transform="rotate(-0 45.467308 77.02625)">0</text>
     </g>
    </g>
    <g id="xtick_2">
     <g id="line2d_6">
      <g>
       <use xlink:href="#mf31b0cf6bd" x="93.928846" y="63" style="fill: #262626; stroke: #262626"/>
      </g>
     </g>
     <g id="text_2">
      <text style="font-size: 8px; font-family: 'Arial'; text-anchor: middle; fill: #262626" x="93.928846" y="77.02625" transform="rotate(-0 93.928846 77.02625)">1</text>
     </g>
    </g>
    <g id="text_3">
     <text style="font-size: 9px; font-family: 'Arial'; text-anchor: middle; fill: #262626" x="67.275" y="89.167969" transform="rotate(-0 67.275 89.167969)">within (GP-GP, GPS-GPS)</text>
    </g>
   </g>
   <g id="matplotlib.axis_2">
    <g id="ytick_1">
     <g id="line2d_7">
      <defs>
       <path id="m7a97bce37b" d="M 0 0 
L -4.8 0 
" style="stroke: #262626"/>
      </defs>
      <g>
       <use xlink:href="#m7a97bce37b" x="35.775" y="53.307692" style="fill: #262626; stroke: #262626"/>
      </g>
     </g>
     <g id="text_4">
      <text style="font-size: 8px; font-family: 'Arial'; text-anchor: end; fill: #262626" x="27.475" y="56.170817" transform="rotate(-0 27.475 56.170817)">0</text>
     </g>
    </g>
    <g id="ytick_2">
     <g id="line2d_8">
      <g>
       <use xlink:href="#m7a97bce37b" x="35.775" y="4.846154" style="fill: #262626; stroke: #262626"/>
      </g>
     </g>
     <g id="text_5">
      <text style="font-size: 8px; font-family: 'Arial'; text-anchor: end; fill: #262626" x="27.475" y="7.709279" transform="rotate(-0 27.475 7.709279)">1</text>
     </g>
    </g>
    <g id="text_6">
     <text style="font-size: 9px; font-family: 'Arial'; text-anchor: middle; fill: #262626" x="17.132031" y="31.5" transform="rotate(-90 17.132031 31.5)">across (GP - GPS)</text>
    </g>
   </g>
   <g id="PathCollection_1">
    <path d="M 81.958645 33.550729 
C 82.595133 33.550729 83.205637 33.29785 83.655701 32.847785 
C 84.105766 32.397721 84.358645 31.787216 84.358645 31.150729 
C 84.358645 30.514241 84.105766 29.903737 83.655701 29.453673 
C 83.205637 29.003608 82.595133 28.750729 81.958645 28.750729 
C 81.322158 28.750729 80.711654 29.003608 80.261589 29.453673 
C 79.811524 29.903737 79.558645 30.514241 79.558645 31.150729 
C 79.558645 31.787216 79.811524 32.397721 80.261589 32.847785 
C 80.711654 33.29785 81.322158 33.550729 81.958645 33.550729 
z
" clip-path="url(#p6341ca7145)" style="fill: #90d0df; stroke: #ffffff; stroke-width: 0.384"/>
    <path d="M 82.861863 36.429383 
C 83.498351 36.429383 84.108855 36.176504 84.55892 35.72644 
C 85.008984 35.276375 85.261863 34.665871 85.261863 34.029383 
C 85.261863 33.392896 85.008984 32.782392 84.55892 32.332327 
C 84.108855 31.882262 83.498351 31.629383 82.861863 31.629383 
C 82.225376 31.629383 81.614872 31.882262 81.164807 32.332327 
C 80.714742 32.782392 80.461863 33.392896 80.461863 34.029383 
C 80.461863 34.665871 80.714742 35.276375 81.164807 35.72644 
C 81.614872 36.176504 82.225376 36.429383 82.861863 36.429383 
z
" clip-path="url(#p6341ca7145)" style="fill: #90d0df; stroke: #ffffff; stroke-width: 0.384"/>
    <path d="M 68.815611 34.157312 
C 69.452099 34.157312 70.062603 33.904433 70.512668 33.454369 
C 70.962732 33.004304 71.215611 32.3938 71.215611 31.757312 
C 71.215611 31.120825 70.962732 30.510321 70.512668 30.060256 
C 70.062603 29.610192 69.452099 29.357312 68.815611 29.357312 
C 68.179124 29.357312 67.56862 29.610192 67.118555 30.060256 
C 66.668491 30.510321 66.415611 31.120825 66.415611 31.757312 
C 66.415611 32.3938 66.668491 33.004304 67.118555 33.454369 
C 67.56862 33.904433 68.179124 34.157312 68.815611 34.157312 
z
" clip-path="url(#p6341ca7145)" style="fill: #90d0df; stroke: #ffffff; stroke-width: 0.384"/>
    <path d="M 77.965011 32.077683 
L 82.765011 32.077683 
L 82.765011 27.277683 
L 77.965011 27.277683 
z
" clip-path="url(#p6341ca7145)" style="fill: #227fb1; stroke: #ffffff; stroke-width: 0.384"/>
    <path d="M 82.107488 38.164898 
L 86.907488 38.164898 
L 86.907488 33.364898 
L 82.107488 33.364898 
z
" clip-path="url(#p6341ca7145)" style="fill: #227fb1; stroke: #ffffff; stroke-width: 0.384"/>
    <path d="M 82.463028 32.636797 
L 87.263028 32.636797 
L 87.263028 27.836797 
L 82.463028 27.836797 
z
" clip-path="url(#p6341ca7145)" style="fill: #227fb1; stroke: #ffffff; stroke-width: 0.384"/>
    <path d="M 74.683553 31.815375 
C 75.320041 31.815375 75.930545 31.562496 76.38061 31.112431 
C 76.830674 30.662367 77.083553 30.051862 77.083553 29.415375 
C 77.083553 28.778887 76.830674 28.168383 76.38061 27.718319 
C 75.930545 27.268254 75.320041 27.015375 74.683553 27.015375 
C 74.047066 27.015375 73.436562 27.268254 72.986497 27.718319 
C 72.536433 28.168383 72.283553 28.778887 72.283553 29.415375 
C 72.283553 30.051862 72.536433 30.662367 72.986497 31.112431 
C 73.436562 31.562496 74.047066 31.815375 74.683553 31.815375 
z
" clip-path="url(#p6341ca7145)" style="fill: #90d0df; stroke: #ffffff; stroke-width: 0.384"/>
    <path d="M 79.296972 52.696056 
C 79.933459 52.696056 80.543963 52.443177 80.994028 51.993112 
C 81.444093 51.543048 81.696972 50.932543 81.696972 50.296056 
C 81.696972 49.659568 81.444093 49.049064 80.994028 48.599 
C 80.543963 48.148935 79.933459 47.896056 79.296972 47.896056 
C 78.660484 47.896056 78.04998 48.148935 77.599915 48.599 
C 77.149851 49.049064 76.896972 49.659568 76.896972 50.296056 
C 76.896972 50.932543 77.149851 51.543048 77.599915 51.993112 
C 78.04998 52.443177 78.660484 52.696056 79.296972 52.696056 
z
" clip-path="url(#p6341ca7145)" style="fill: #90d0df; stroke: #ffffff; stroke-width: 0.384"/>
    <path d="M 81.607877 29.843474 
L 86.407877 29.843474 
L 86.407877 25.043474 
L 81.607877 25.043474 
z
" clip-path="url(#p6341ca7145)" style="fill: #227fb1; stroke: #ffffff; stroke-width: 0.384"/>
    <path d="M 85.536642 31.638515 
C 86.17313 31.638515 86.783634 31.385635 87.233699 30.935571 
C 87.683763 30.485506 87.936642 29.875002 87.936642 29.238515 
C 87.936642 28.602027 87.683763 27.991523 87.233699 27.541458 
C 86.783634 27.091394 86.17313 26.838515 85.536642 26.838515 
C 84.900155 26.838515 84.289651 27.091394 83.839586 27.541458 
C 83.389522 27.991523 83.136642 28.602027 83.136642 29.238515 
C 83.136642 29.875002 83.389522 30.485506 83.839586 30.935571 
C 84.289651 31.385635 84.900155 31.638515 85.536642 31.638515 
z
" clip-path="url(#p6341ca7145)" style="fill: #90d0df; stroke: #ffffff; stroke-width: 0.384"/>
    <path d="M 82.751998 41.673414 
L 87.551998 41.673414 
L 87.551998 36.873414 
L 82.751998 36.873414 
z
" clip-path="url(#p6341ca7145)" style="fill: #227fb1; stroke: #ffffff; stroke-width: 0.384"/>
    <path d="M 81.840027 26.959177 
L 86.640027 26.959177 
L 86.640027 22.159177 
L 81.840027 22.159177 
z
" clip-path="url(#p6341ca7145)" style="fill: #227fb1; stroke: #ffffff; stroke-width: 0.384"/>
    <path d="M 83.709046 32.20371 
L 88.509046 32.20371 
L 88.509046 27.40371 
L 83.709046 27.40371 
z
" clip-path="url(#p6341ca7145)" style="fill: #227fb1; stroke: #ffffff; stroke-width: 0.384"/>
    <path d="M 83.1658 35.034058 
L 87.9658 35.034058 
L 87.9658 30.234058 
L 83.1658 30.234058 
z
" clip-path="url(#p6341ca7145)" style="fill: #227fb1; stroke: #ffffff; stroke-width: 0.384"/>
    <path d="M 84.259577 42.680747 
L 89.059577 42.680747 
L 89.059577 37.880747 
L 84.259577 37.880747 
z
" clip-path="url(#p6341ca7145)" style="fill: #227fb1; stroke: #ffffff; stroke-width: 0.384"/>
    <path d="M 83.532883 30.863493 
L 88.332883 30.863493 
L 88.332883 26.063493 
L 83.532883 26.063493 
z
" clip-path="url(#p6341ca7145)" style="fill: #227fb1; stroke: #ffffff; stroke-width: 0.384"/>
    <path d="M 92.518723 26.700352 
C 93.15521 26.700352 93.765715 26.447473 94.215779 25.997409 
C 94.665844 25.547344 94.918723 24.93684 94.918723 24.300352 
C 94.918723 23.663865 94.665844 23.053361 94.215779 22.603296 
C 93.765715 22.153231 93.15521 21.900352 92.518723 21.900352 
C 91.882235 21.900352 91.271731 22.153231 90.821667 22.603296 
C 90.371602 23.053361 90.118723 23.663865 90.118723 24.300352 
C 90.118723 24.93684 90.371602 25.547344 90.821667 25.997409 
C 91.271731 26.447473 91.882235 26.700352 92.518723 26.700352 
z
" clip-path="url(#p6341ca7145)" style="fill: #90d0df; stroke: #ffffff; stroke-width: 0.384"/>
    <path d="M 88.077633 29.734458 
C 88.714121 29.734458 89.324625 29.481579 89.774689 29.031515 
C 90.224754 28.58145 90.477633 27.970946 90.477633 27.334458 
C 90.477633 26.697971 90.224754 26.087467 89.774689 25.637402 
C 89.324625 25.187337 88.714121 24.934458 88.077633 24.934458 
C 87.441146 24.934458 86.830641 25.187337 86.380577 25.637402 
C 85.930512 26.087467 85.677633 26.697971 85.677633 27.334458 
C 85.677633 27.970946 85.930512 28.58145 86.380577 29.031515 
C 86.830641 29.481579 87.441146 29.734458 88.077633 29.734458 
z
" clip-path="url(#p6341ca7145)" style="fill: #90d0df; stroke: #ffffff; stroke-width: 0.384"/>
    <path d="M 80.8677 48.753729 
L 85.6677 48.753729 
L 85.6677 43.953729 
L 80.8677 43.953729 
z
" clip-path="url(#p6341ca7145)" style="fill: #227fb1; stroke: #ffffff; stroke-width: 0.384"/>
    <path d="M 79.933051 46.703011 
C 80.569539 46.703011 81.180043 46.450132 81.630108 46.000067 
C 82.080172 45.550003 82.333051 44.939499 82.333051 44.303011 
C 82.333051 43.666524 82.080172 43.056019 81.630108 42.605955 
C 81.180043 42.15589 80.569539 41.903011 79.933051 41.903011 
C 79.296564 41.903011 78.68606 42.15589 78.235995 42.605955 
C 77.78593 43.056019 77.533051 43.666524 77.533051 44.303011 
C 77.533051 44.939499 77.78593 45.550003 78.235995 46.000067 
C 78.68606 46.450132 79.296564 46.703011 79.933051 46.703011 
z
" clip-path="url(#p6341ca7145)" style="fill: #90d0df; stroke: #ffffff; stroke-width: 0.384"/>
    <path d="M 82.267789 19.463059 
C 82.904276 19.463059 83.51478 19.21018 83.964845 18.760116 
C 84.414909 18.310051 84.667789 17.699547 84.667789 17.063059 
C 84.667789 16.426572 84.414909 15.816068 83.964845 15.366003 
C 83.51478 14.915939 82.904276 14.663059 82.267789 14.663059 
C 81.631301 14.663059 81.020797 14.915939 80.570732 15.366003 
C 80.120668 15.816068 79.867789 16.426572 79.867789 17.063059 
C 79.867789 17.699547 80.120668 18.310051 80.570732 18.760116 
C 81.020797 19.21018 81.631301 19.463059 82.267789 19.463059 
z
" clip-path="url(#p6341ca7145)" style="fill: #90d0df; stroke: #ffffff; stroke-width: 0.384"/>
   </g>
   <g id="line2d_9">
    <path d="M 40.621154 58.153846 
L 41.159615 57.615385 
L 41.698077 57.076923 
L 42.236538 56.538462 
L 42.775 56 
L 43.313462 55.461538 
L 43.851923 54.923077 
L 44.390385 54.384615 
L 44.928846 53.846154 
L 45.467308 53.307692 
L 46.005769 52.769231 
L 46.544231 52.230769 
L 47.082692 51.692308 
L 47.621154 51.153846 
L 48.159615 50.615385 
L 48.698077 50.076923 
L 49.236538 49.538462 
L 49.775 49 
L 50.313462 48.461538 
L 50.851923 47.923077 
L 51.390385 47.384615 
L 51.928846 46.846154 
L 52.467308 46.307692 
L 53.005769 45.769231 
L 53.544231 45.230769 
L 54.082692 44.692308 
L 54.621154 44.153846 
L 55.159615 43.615385 
L 55.698077 43.076923 
L 56.236538 42.538462 
L 56.775 42 
L 57.313462 41.461538 
L 57.851923 40.923077 
L 58.390385 40.384615 
L 58.928846 39.846154 
L 59.467308 39.307692 
L 60.005769 38.769231 
L 60.544231 38.230769 
L 61.082692 37.692308 
L 61.621154 37.153846 
L 62.159615 36.615385 
L 62.698077 36.076923 
L 63.236538 35.538462 
L 63.775 35 
L 64.313462 34.461538 
L 64.851923 33.923077 
L 65.390385 33.384615 
L 65.928846 32.846154 
L 66.467308 32.307692 
L 67.005769 31.769231 
L 67.544231 31.230769 
L 68.082692 30.692308 
L 68.621154 30.153846 
L 69.159615 29.615385 
L 69.698077 29.076923 
L 70.236538 28.538462 
L 70.775 28 
L 71.313462 27.461538 
L 71.851923 26.923077 
L 72.390385 26.384615 
L 72.928846 25.846154 
L 73.467308 25.307692 
L 74.005769 24.769231 
L 74.544231 24.230769 
L 75.082692 23.692308 
L 75.621154 23.153846 
L 76.159615 22.615385 
L 76.698077 22.076923 
L 77.236538 21.538462 
L 77.775 21 
L 78.313462 20.461538 
L 78.851923 19.923077 
L 79.390385 19.384615 
L 79.928846 18.846154 
L 80.467308 18.307692 
L 81.005769 17.769231 
L 81.544231 17.230769 
L 82.082692 16.692308 
L 82.621154 16.153846 
L 83.159615 15.615385 
L 83.698077 15.076923 
L 84.236538 14.538462 
L 84.775 14 
L 85.313462 13.461538 
L 85.851923 12.923077 
L 86.390385 12.384615 
L 86.928846 11.846154 
L 87.467308 11.307692 
L 88.005769 10.769231 
L 88.544231 10.230769 
L 89.082692 9.692308 
L 89.621154 9.153846 
L 90.159615 8.615385 
L 90.698077 8.076923 
L 91.236538 7.538462 
L 91.775 7 
L 92.313462 6.461538 
L 92.851923 5.923077 
L 93.390385 5.384615 
L 93.928846 4.846154 
" clip-path="url(#p6341ca7145)" style="fill: none; stroke-dasharray: 3.7,1.6; stroke-dashoffset: 0; stroke: #1a1a1a"/>
   </g>
   <g id="patch_3">
    <path d="M 35.775 63 
L 35.775 -0 
" style="fill: none; stroke: #262626; stroke-linejoin: miter; stroke-linecap: square"/>
   </g>
   <g id="patch_4">
    <path d="M 35.775 63 
L 98.775 63 
" style="fill: none; stroke: #262626; stroke-linejoin: miter; stroke-linecap: square"/>
   </g>
  </g>
  <g id="axes_2">
   <g id="patch_5">
    <path d="M 146.25 63 
L 234 63 
L 234 0 
L 146.25 0 
L 146.25 63 
z
" style="fill: none"/>
   </g>
   <g id="matplotlib.axis_3">
    <g id="xtick_3">
     <g id="line2d_10">
      <g>
       <use xlink:href="#mf31b0cf6bd" x="147.102114" y="63" style="fill: #262626; stroke: #262626"/>
      </g>
     </g>
     <g id="text_7">
      <text style="font-size: 8px; font-family: 'Arial'; text-anchor: middle; fill: #262626" x="147.102114" y="77.02625" transform="rotate(-0 147.102114 77.02625)">0.0</text>
     </g>
    </g>
    <g id="xtick_4">
     <g id="line2d_11">
      <g>
       <use xlink:href="#mf31b0cf6bd" x="182.277644" y="63" style="fill: #262626; stroke: #262626"/>
      </g>
     </g>
     <g id="text_8">
      <text style="font-size: 8px; font-family: 'Arial'; text-anchor: middle; fill: #262626" x="182.277644" y="77.02625" transform="rotate(-0 182.277644 77.02625)">0.3</text>
     </g>
    </g>
    <g id="xtick_5">
     <g id="line2d_12">
      <g>
       <use xlink:href="#mf31b0cf6bd" x="217.453175" y="63" style="fill: #262626; stroke: #262626"/>
      </g>
     </g>
     <g id="text_9">
      <text style="font-size: 8px; font-family: 'Arial'; text-anchor: middle; fill: #262626" x="217.453175" y="77.02625" transform="rotate(-0 217.453175 77.02625)">0.6</text>
     </g>
    </g>
    <g id="text_10">
     <!-- mean response ($\sigma$) -->
     <g style="fill: #262626" transform="translate(151.965 89.18625)">
      <text>
       <tspan x="0" y="-0.453125" style="font-size: 9px; font-family: 'Arial'; fill: #262626">m</tspan>
       <tspan x="7.49707" y="-0.453125" style="font-size: 9px; font-family: 'Arial'; fill: #262626">e</tspan>
       <tspan x="12.502441" y="-0.453125" style="font-size: 9px; font-family: 'Arial'; fill: #262626">a</tspan>
       <tspan x="17.507812" y="-0.453125" style="font-size: 9px; font-family: 'Arial'; fill: #262626">n</tspan>
       <tspan x="22.513184" y="-0.453125" style="font-size: 9px; font-family: 'Arial'; fill: #262626"> </tspan>
       <tspan x="25.013672" y="-0.453125" style="font-size: 9px; font-family: 'Arial'; fill: #262626">r</tspan>
       <tspan x="28.010742" y="-0.453125" style="font-size: 9px; font-family: 'Arial'; fill: #262626">e</tspan>
       <tspan x="33.016113" y="-0.453125" style="font-size: 9px; font-family: 'Arial'; fill: #262626">s</tspan>
       <tspan x="37.516113" y="-0.453125" style="font-size: 9px; font-family: 'Arial'; fill: #262626">p</tspan>
       <tspan x="42.521484" y="-0.453125" style="font-size: 9px; font-family: 'Arial'; fill: #262626">o</tspan>
       <tspan x="47.526855" y="-0.453125" style="font-size: 9px; font-family: 'Arial'; fill: #262626">n</tspan>
       <tspan x="52.532227" y="-0.453125" style="font-size: 9px; font-family: 'Arial'; fill: #262626">s</tspan>
       <tspan x="57.032227" y="-0.453125" style="font-size: 9px; font-family: 'Arial'; fill: #262626">e</tspan>
       <tspan x="62.037598" y="-0.453125" style="font-size: 9px; font-family: 'Arial'; fill: #262626"> </tspan>
       <tspan x="64.538086" y="-0.453125" style="font-size: 9px; font-family: 'Arial'; fill: #262626">(</tspan>
       <tspan x="73.239258" y="-0.453125" style="font-size: 9px; font-family: 'Arial'; fill: #262626">)</tspan>
       <tspan x="67.535156" y="-0.453125" style="font-style: oblique; font-size: 9px; font-family: 'DejaVu Sans'; fill: #262626">σ</tspan>
      </text>
     </g>
     <text style="font-size: 9px; font-family: 'Arial'; fill: #262626" transform="translate(168.630469 99.028312)">(from stim)</text>
    </g>
   </g>
   <g id="matplotlib.axis_4">
    <g id="ytick_3">
     <g id="line2d_13">
      <g>
       <use xlink:href="#m7a97bce37b" x="146.25" y="55.785996" style="fill: #262626; stroke: #262626"/>
      </g>
     </g>
     <g id="text_11">
      <text style="font-size: 8px; font-family: 'Arial'; text-anchor: end; fill: #262626" x="137.95" y="58.649121" transform="rotate(-0 137.95 58.649121)">0</text>
     </g>
    </g>
    <g id="ytick_4">
     <g id="line2d_14">
      <g>
       <use xlink:href="#m7a97bce37b" x="146.25" y="21.415982" style="fill: #262626; stroke: #262626"/>
      </g>
     </g>
     <g id="text_12">
      <text style="font-size: 8px; font-family: 'Arial'; text-anchor: end; fill: #262626" x="137.95" y="24.279107" transform="rotate(-0 137.95 24.279107)">1</text>
     </g>
    </g>
    <g id="text_13">
     <text style="font-size: 9px; font-family: 'Arial'; text-anchor: middle; fill: #262626" x="127.7125" y="31.5" transform="rotate(-90 127.7125 31.5)">correlation</text>
    </g>
   </g>
   <g id="PathCollection_2">
    <defs>
     <path id="mc4cd7e6da2" d="M 0 1.414214 
C 0.375054 1.414214 0.734797 1.265203 1 1 
C 1.265203 0.734797 1.414214 0.375054 1.414214 0 
C 1.414214 -0.375054 1.265203 -0.734797 1 -1 
C 0.734797 -1.265203 0.375054 -1.414214 0 -1.414214 
C -0.375054 -1.414214 -0.734797 -1.265203 -1 -1 
C -1.265203 -0.734797 -1.414214 -0.375054 -1.414214 0 
C -1.414214 0.375054 -1.265203 0.734797 -1 1 
C -0.734797 1.265203 -0.375054 1.414214 0 1.414214 
z
" style="stroke: #e873c9; stroke-opacity: 0.8"/>
    </defs>
    <g clip-path="url(#p79da9e9327)">
     <use xlink:href="#mc4cd7e6da2" x="166.287752" y="50.100602" style="fill: #e873c9; fill-opacity: 0.8; stroke: #e873c9; stroke-opacity: 0.8"/>
     <use xlink:href="#mc4cd7e6da2" x="157.832193" y="45.294538" style="fill: #e873c9; fill-opacity: 0.8; stroke: #e873c9; stroke-opacity: 0.8"/>
     <use xlink:href="#mc4cd7e6da2" x="173.105369" y="36.316074" style="fill: #e873c9; fill-opacity: 0.8; stroke: #e873c9; stroke-opacity: 0.8"/>
     <use xlink:href="#mc4cd7e6da2" x="151.481857" y="51.189798" style="fill: #e873c9; fill-opacity: 0.8; stroke: #e873c9; stroke-opacity: 0.8"/>
     <use xlink:href="#mc4cd7e6da2" x="151.35145" y="49.49296" style="fill: #e873c9; fill-opacity: 0.8; stroke: #e873c9; stroke-opacity: 0.8"/>
     <use xlink:href="#mc4cd7e6da2" x="161.464648" y="44.775224" style="fill: #e873c9; fill-opacity: 0.8; stroke: #e873c9; stroke-opacity: 0.8"/>
     <use xlink:href="#mc4cd7e6da2" x="164.118038" y="46.475164" style="fill: #e873c9; fill-opacity: 0.8; stroke: #e873c9; stroke-opacity: 0.8"/>
     <use xlink:href="#mc4cd7e6da2" x="165.435159" y="43.891481" style="fill: #e873c9; fill-opacity: 0.8; stroke: #e873c9; stroke-opacity: 0.8"/>
     <use xlink:href="#mc4cd7e6da2" x="174.46812" y="35.036999" style="fill: #e873c9; fill-opacity: 0.8; stroke: #e873c9; stroke-opacity: 0.8"/>
     <use xlink:href="#mc4cd7e6da2" x="157.558685" y="50.228637" style="fill: #e873c9; fill-opacity: 0.8; stroke: #e873c9; stroke-opacity: 0.8"/>
     <use xlink:href="#mc4cd7e6da2" x="162.744851" y="42.858991" style="fill: #e873c9; fill-opacity: 0.8; stroke: #e873c9; stroke-opacity: 0.8"/>
     <use xlink:href="#mc4cd7e6da2" x="178.245103" y="55.941326" style="fill: #e873c9; fill-opacity: 0.8; stroke: #e873c9; stroke-opacity: 0.8"/>
     <use xlink:href="#mc4cd7e6da2" x="178.321934" y="45.241055" style="fill: #e873c9; fill-opacity: 0.8; stroke: #e873c9; stroke-opacity: 0.8"/>
     <use xlink:href="#mc4cd7e6da2" x="154.815388" y="54.412704" style="fill: #e873c9; fill-opacity: 0.8; stroke: #e873c9; stroke-opacity: 0.8"/>
     <use xlink:href="#mc4cd7e6da2" x="150.914999" y="54.133583" style="fill: #e873c9; fill-opacity: 0.8; stroke: #e873c9; stroke-opacity: 0.8"/>
     <use xlink:href="#mc4cd7e6da2" x="185.378288" y="35.42164" style="fill: #e873c9; fill-opacity: 0.8; stroke: #e873c9; stroke-opacity: 0.8"/>
     <use xlink:href="#mc4cd7e6da2" x="230.011364" y="34.327482" style="fill: #e873c9; fill-opacity: 0.8; stroke: #e873c9; stroke-opacity: 0.8"/>
     <use xlink:href="#mc4cd7e6da2" x="156.385181" y="55.020408" style="fill: #e873c9; fill-opacity: 0.8; stroke: #e873c9; stroke-opacity: 0.8"/>
     <use xlink:href="#mc4cd7e6da2" x="191.347117" y="26.762484" style="fill: #e873c9; fill-opacity: 0.8; stroke: #e873c9; stroke-opacity: 0.8"/>
     <use xlink:href="#mc4cd7e6da2" x="161.257128" y="36.121946" style="fill: #e873c9; fill-opacity: 0.8; stroke: #e873c9; stroke-opacity: 0.8"/>
     <use xlink:href="#mc4cd7e6da2" x="171.699526" y="33.606289" style="fill: #e873c9; fill-opacity: 0.8; stroke: #e873c9; stroke-opacity: 0.8"/>
     <use xlink:href="#mc4cd7e6da2" x="162.460835" y="38.047317" style="fill: #e873c9; fill-opacity: 0.8; stroke: #e873c9; stroke-opacity: 0.8"/>
     <use xlink:href="#mc4cd7e6da2" x="163.380005" y="55.952738" style="fill: #e873c9; fill-opacity: 0.8; stroke: #e873c9; stroke-opacity: 0.8"/>
     <use xlink:href="#mc4cd7e6da2" x="161.117347" y="57.56179" style="fill: #e873c9; fill-opacity: 0.8; stroke: #e873c9; stroke-opacity: 0.8"/>
     <use xlink:href="#mc4cd7e6da2" x="174.655766" y="38.159418" style="fill: #e873c9; fill-opacity: 0.8; stroke: #e873c9; stroke-opacity: 0.8"/>
     <use xlink:href="#mc4cd7e6da2" x="169.651727" y="50.245906" style="fill: #e873c9; fill-opacity: 0.8; stroke: #e873c9; stroke-opacity: 0.8"/>
     <use xlink:href="#mc4cd7e6da2" x="162.884857" y="48.283559" style="fill: #e873c9; fill-opacity: 0.8; stroke: #e873c9; stroke-opacity: 0.8"/>
     <use xlink:href="#mc4cd7e6da2" x="150.238636" y="54.634254" style="fill: #e873c9; fill-opacity: 0.8; stroke: #e873c9; stroke-opacity: 0.8"/>
    </g>
   </g>
   <g id="FillBetweenPolyCollection_1">
    <defs>
     <path id="mcec4243f4a" d="M 150.238636 -42.245324 
L 150.238636 -34.334734 
L 151.044421 -34.893907 
L 151.850207 -35.443043 
L 152.655992 -35.914207 
L 153.461777 -36.383787 
L 154.267562 -36.854933 
L 155.073347 -37.32334 
L 155.879132 -37.797081 
L 156.684917 -38.176671 
L 157.490702 -38.618109 
L 158.296488 -39.031935 
L 159.102273 -39.464595 
L 159.908058 -39.780312 
L 160.713843 -40.144896 
L 161.519628 -40.534856 
L 162.325413 -40.758264 
L 163.131198 -41.024915 
L 163.936983 -41.280201 
L 164.742769 -41.522204 
L 165.548554 -41.765392 
L 166.354339 -41.960551 
L 167.160124 -42.158906 
L 167.965909 -42.442398 
L 168.771694 -42.680482 
L 169.577479 -42.940613 
L 170.383264 -43.091425 
L 171.18905 -43.308473 
L 171.994835 -43.570608 
L 172.80062 -43.826039 
L 173.606405 -44.033649 
L 174.41219 -44.235241 
L 175.217975 -44.413821 
L 176.02376 -44.579117 
L 176.829545 -44.777661 
L 177.635331 -44.980776 
L 178.441116 -45.151077 
L 179.246901 -45.321218 
L 180.052686 -45.543294 
L 180.858471 -45.720684 
L 181.664256 -45.937473 
L 182.470041 -46.132514 
L 183.275826 -46.323647 
L 184.081612 -46.531493 
L 184.887397 -46.734494 
L 185.693182 -46.918904 
L 186.498967 -47.119533 
L 187.304752 -47.323856 
L 188.110537 -47.518131 
L 188.916322 -47.702031 
L 189.722107 -47.890512 
L 190.527893 -48.070825 
L 191.333678 -48.267899 
L 192.139463 -48.441021 
L 192.945248 -48.614356 
L 193.751033 -48.772453 
L 194.556818 -48.942395 
L 195.362603 -49.119512 
L 196.168388 -49.279649 
L 196.974174 -49.439962 
L 197.779959 -49.60038 
L 198.585744 -49.760799 
L 199.391529 -49.921223 
L 200.197314 -50.085796 
L 201.003099 -50.261415 
L 201.808884 -50.413151 
L 202.614669 -50.597221 
L 203.420455 -50.7886 
L 204.22624 -50.950685 
L 205.032025 -51.140966 
L 205.83781 -51.280964 
L 206.643595 -51.429682 
L 207.44938 -51.598021 
L 208.255165 -51.77785 
L 209.06095 -51.960534 
L 209.866736 -52.120306 
L 210.672521 -52.280125 
L 211.478306 -52.46527 
L 212.284091 -52.633652 
L 213.089876 -52.791172 
L 213.895661 -52.948692 
L 214.701446 -53.11423 
L 215.507231 -53.282401 
L 216.313017 -53.450573 
L 217.118802 -53.618744 
L 217.924587 -53.786916 
L 218.730372 -53.955087 
L 219.536157 -54.123259 
L 220.341942 -54.29143 
L 221.147727 -54.459602 
L 221.953512 -54.627773 
L 222.759298 -54.795945 
L 223.565083 -54.964116 
L 224.370868 -55.132448 
L 225.176653 -55.301013 
L 225.982438 -55.469579 
L 226.788223 -55.638144 
L 227.594008 -55.80671 
L 228.399793 -55.975275 
L 229.205579 -56.14384 
L 230.011364 -56.312406 
L 230.011364 -87.136364 
L 230.011364 -87.136364 
L 229.205579 -86.592075 
L 228.399793 -86.047787 
L 227.594008 -85.503498 
L 226.788223 -84.95921 
L 225.982438 -84.414921 
L 225.176653 -83.870633 
L 224.370868 -83.326345 
L 223.565083 -82.785845 
L 222.759298 -82.279355 
L 221.953512 -81.772866 
L 221.147727 -81.266376 
L 220.341942 -80.759887 
L 219.536157 -80.253397 
L 218.730372 -79.746908 
L 217.924587 -79.240418 
L 217.118802 -78.733929 
L 216.313017 -78.221668 
L 215.507231 -77.695805 
L 214.701446 -77.169906 
L 213.895661 -76.643426 
L 213.089876 -76.116945 
L 212.284091 -75.590465 
L 211.478306 -75.063985 
L 210.672521 -74.537505 
L 209.866736 -74.011024 
L 209.06095 -73.484544 
L 208.255165 -72.958064 
L 207.44938 -72.437577 
L 206.643595 -71.90809 
L 205.83781 -71.379327 
L 205.032025 -70.85321 
L 204.22624 -70.327092 
L 203.420455 -69.800974 
L 202.614669 -69.274642 
L 201.808884 -68.758725 
L 201.003099 -68.245991 
L 200.197314 -67.711225 
L 199.391529 -67.208841 
L 198.585744 -66.678554 
L 197.779959 -66.130868 
L 196.974174 -65.600814 
L 196.168388 -65.104173 
L 195.362603 -64.607398 
L 194.556818 -64.110392 
L 193.751033 -63.613385 
L 192.945248 -63.116378 
L 192.139463 -62.619371 
L 191.333678 -62.114893 
L 190.527893 -61.599241 
L 189.722107 -61.083589 
L 188.916322 -60.567936 
L 188.110537 -60.051309 
L 187.304752 -59.556556 
L 186.498967 -59.026812 
L 185.693182 -58.510349 
L 184.887397 -58.049037 
L 184.081612 -57.540802 
L 183.275826 -56.995679 
L 182.470041 -56.495227 
L 181.664256 -55.992699 
L 180.858471 -55.49017 
L 180.052686 -54.979412 
L 179.246901 -54.424161 
L 178.441116 -53.902943 
L 177.635331 -53.346899 
L 176.829545 -52.859864 
L 176.02376 -52.399324 
L 175.217975 -51.939727 
L 174.41219 -51.458669 
L 173.606405 -51.018723 
L 172.80062 -50.559511 
L 171.994835 -50.105794 
L 171.18905 -49.655975 
L 170.383264 -49.154324 
L 169.577479 -48.653563 
L 168.771694 -48.217439 
L 167.965909 -47.772998 
L 167.160124 -47.433032 
L 166.354339 -47.117432 
L 165.548554 -46.720966 
L 164.742769 -46.35222 
L 163.936983 -46.036585 
L 163.131198 -45.668817 
L 162.325413 -45.371715 
L 161.519628 -45.078161 
L 160.713843 -44.815856 
L 159.908058 -44.610379 
L 159.102273 -44.450983 
L 158.296488 -44.285957 
L 157.490702 -44.052982 
L 156.684917 -43.845074 
L 155.879132 -43.570001 
L 155.073347 -43.3061 
L 154.267562 -43.109533 
L 153.461777 -42.898228 
L 152.655992 -42.743805 
L 151.850207 -42.563897 
L 151.044421 -42.429464 
L 150.238636 -42.245324 
z
" style="stroke: #ffffff; stroke-opacity: 0.15; stroke-width: 0.8"/>
    </defs>
    <g clip-path="url(#p79da9e9327)">
     <use xlink:href="#mcec4243f4a" x="0" y="90" style="fill: #e873c9; fill-opacity: 0.15; stroke: #ffffff; stroke-opacity: 0.15; stroke-width: 0.8"/>
    </g>
   </g>
   <g id="PathCollection_3">
    <defs>
     <path id="m75ee763248" d="M -1.414214 1.414214 
L 1.414214 1.414214 
L 1.414214 -1.414214 
L -1.414214 -1.414214 
z
" style="stroke: #9d8ec9; stroke-opacity: 0.8"/>
    </defs>
    <g clip-path="url(#p79da9e9327)">
     <use xlink:href="#m75ee763248" x="166.287752" y="51.198395" style="fill: #9d8ec9; fill-opacity: 0.8; stroke: #9d8ec9; stroke-opacity: 0.8"/>
     <use xlink:href="#m75ee763248" x="157.832193" y="44.738482" style="fill: #9d8ec9; fill-opacity: 0.8; stroke: #9d8ec9; stroke-opacity: 0.8"/>
     <use xlink:href="#m75ee763248" x="173.105369" y="39.956036" style="fill: #9d8ec9; fill-opacity: 0.8; stroke: #9d8ec9; stroke-opacity: 0.8"/>
     <use xlink:href="#m75ee763248" x="151.481857" y="54.582313" style="fill: #9d8ec9; fill-opacity: 0.8; stroke: #9d8ec9; stroke-opacity: 0.8"/>
     <use xlink:href="#m75ee763248" x="151.35145" y="51.577042" style="fill: #9d8ec9; fill-opacity: 0.8; stroke: #9d8ec9; stroke-opacity: 0.8"/>
     <use xlink:href="#m75ee763248" x="161.464648" y="51.348676" style="fill: #9d8ec9; fill-opacity: 0.8; stroke: #9d8ec9; stroke-opacity: 0.8"/>
     <use xlink:href="#m75ee763248" x="164.118038" y="49.300876" style="fill: #9d8ec9; fill-opacity: 0.8; stroke: #9d8ec9; stroke-opacity: 0.8"/>
     <use xlink:href="#m75ee763248" x="165.435159" y="49.259356" style="fill: #9d8ec9; fill-opacity: 0.8; stroke: #9d8ec9; stroke-opacity: 0.8"/>
     <use xlink:href="#m75ee763248" x="174.46812" y="43.324203" style="fill: #9d8ec9; fill-opacity: 0.8; stroke: #9d8ec9; stroke-opacity: 0.8"/>
     <use xlink:href="#m75ee763248" x="157.558685" y="54.555773" style="fill: #9d8ec9; fill-opacity: 0.8; stroke: #9d8ec9; stroke-opacity: 0.8"/>
     <use xlink:href="#m75ee763248" x="162.744851" y="53.531381" style="fill: #9d8ec9; fill-opacity: 0.8; stroke: #9d8ec9; stroke-opacity: 0.8"/>
     <use xlink:href="#m75ee763248" x="178.245103" y="57.418507" style="fill: #9d8ec9; fill-opacity: 0.8; stroke: #9d8ec9; stroke-opacity: 0.8"/>
     <use xlink:href="#m75ee763248" x="178.321934" y="54.731122" style="fill: #9d8ec9; fill-opacity: 0.8; stroke: #9d8ec9; stroke-opacity: 0.8"/>
     <use xlink:href="#m75ee763248" x="154.815388" y="55.236546" style="fill: #9d8ec9; fill-opacity: 0.8; stroke: #9d8ec9; stroke-opacity: 0.8"/>
     <use xlink:href="#m75ee763248" x="150.914999" y="53.63853" style="fill: #9d8ec9; fill-opacity: 0.8; stroke: #9d8ec9; stroke-opacity: 0.8"/>
     <use xlink:href="#m75ee763248" x="185.378288" y="54.911247" style="fill: #9d8ec9; fill-opacity: 0.8; stroke: #9d8ec9; stroke-opacity: 0.8"/>
     <use xlink:href="#m75ee763248" x="230.011364" y="47.36897" style="fill: #9d8ec9; fill-opacity: 0.8; stroke: #9d8ec9; stroke-opacity: 0.8"/>
     <use xlink:href="#m75ee763248" x="156.385181" y="60.101583" style="fill: #9d8ec9; fill-opacity: 0.8; stroke: #9d8ec9; stroke-opacity: 0.8"/>
     <use xlink:href="#m75ee763248" x="191.347117" y="55.694714" style="fill: #9d8ec9; fill-opacity: 0.8; stroke: #9d8ec9; stroke-opacity: 0.8"/>
     <use xlink:href="#m75ee763248" x="161.257128" y="52.904071" style="fill: #9d8ec9; fill-opacity: 0.8; stroke: #9d8ec9; stroke-opacity: 0.8"/>
     <use xlink:href="#m75ee763248" x="171.699526" y="44.321629" style="fill: #9d8ec9; fill-opacity: 0.8; stroke: #9d8ec9; stroke-opacity: 0.8"/>
     <use xlink:href="#m75ee763248" x="162.460835" y="48.17436" style="fill: #9d8ec9; fill-opacity: 0.8; stroke: #9d8ec9; stroke-opacity: 0.8"/>
     <use xlink:href="#m75ee763248" x="163.380005" y="57.979264" style="fill: #9d8ec9; fill-opacity: 0.8; stroke: #9d8ec9; stroke-opacity: 0.8"/>
     <use xlink:href="#m75ee763248" x="161.117347" y="60.136364" style="fill: #9d8ec9; fill-opacity: 0.8; stroke: #9d8ec9; stroke-opacity: 0.8"/>
     <use xlink:href="#m75ee763248" x="174.655766" y="50.523469" style="fill: #9d8ec9; fill-opacity: 0.8; stroke: #9d8ec9; stroke-opacity: 0.8"/>
     <use xlink:href="#m75ee763248" x="169.651727" y="52.692811" style="fill: #9d8ec9; fill-opacity: 0.8; stroke: #9d8ec9; stroke-opacity: 0.8"/>
     <use xlink:href="#m75ee763248" x="162.884857" y="57.171025" style="fill: #9d8ec9; fill-opacity: 0.8; stroke: #9d8ec9; stroke-opacity: 0.8"/>
     <use xlink:href="#m75ee763248" x="150.238636" y="56.88634" style="fill: #9d8ec9; fill-opacity: 0.8; stroke: #9d8ec9; stroke-opacity: 0.8"/>
    </g>
   </g>
   <g id="FillBetweenPolyCollection_2">
    <defs>
     <path id="m373f0feae0" d="M 150.238636 -38.550035 
L 150.238636 -33.92021 
L 151.044421 -34.105222 
L 151.850207 -34.333686 
L 152.655992 -34.418139 
L 153.461777 -34.618376 
L 154.267562 -34.714039 
L 155.073347 -34.850518 
L 155.879132 -34.947604 
L 156.684917 -35.038493 
L 157.490702 -35.132082 
L 158.296488 -35.196738 
L 159.102273 -35.279799 
L 159.908058 -35.396011 
L 160.713843 -35.445661 
L 161.519628 -35.495562 
L 162.325413 -35.554058 
L 163.131198 -35.62376 
L 163.936983 -35.701866 
L 164.742769 -35.773464 
L 165.548554 -35.832404 
L 166.354339 -35.869265 
L 167.160124 -35.908612 
L 167.965909 -35.972639 
L 168.771694 -36.013866 
L 169.577479 -36.072848 
L 170.383264 -36.131322 
L 171.18905 -36.166519 
L 171.994835 -36.20894 
L 172.80062 -36.242692 
L 173.606405 -36.229763 
L 174.41219 -36.239462 
L 175.217975 -36.259389 
L 176.02376 -36.250484 
L 176.829545 -36.251962 
L 177.635331 -36.289214 
L 178.441116 -36.307541 
L 179.246901 -36.299659 
L 180.052686 -36.304865 
L 180.858471 -36.342896 
L 181.664256 -36.313999 
L 182.470041 -36.283752 
L 183.275826 -36.280859 
L 184.081612 -36.283573 
L 184.887397 -36.284893 
L 185.693182 -36.313791 
L 186.498967 -36.300718 
L 187.304752 -36.287811 
L 188.110537 -36.272964 
L 188.916322 -36.261995 
L 189.722107 -36.261022 
L 190.527893 -36.250656 
L 191.333678 -36.236251 
L 192.139463 -36.229421 
L 192.945248 -36.23141 
L 193.751033 -36.233398 
L 194.556818 -36.229789 
L 195.362603 -36.207648 
L 196.168388 -36.222271 
L 196.974174 -36.20062 
L 197.779959 -36.17875 
L 198.585744 -36.153067 
L 199.391529 -36.127419 
L 200.197314 -36.101771 
L 201.003099 -36.076123 
L 201.808884 -36.053433 
L 202.614669 -36.040281 
L 203.420455 -36.026524 
L 204.22624 -36.008539 
L 205.032025 -35.989141 
L 205.83781 -35.974421 
L 206.643595 -35.959701 
L 207.44938 -35.944981 
L 208.255165 -35.930261 
L 209.06095 -35.915807 
L 209.866736 -35.9015 
L 210.672521 -35.887193 
L 211.478306 -35.875493 
L 212.284091 -35.870303 
L 213.089876 -35.848929 
L 213.895661 -35.829083 
L 214.701446 -35.814307 
L 215.507231 -35.799531 
L 216.313017 -35.784838 
L 217.118802 -35.77036 
L 217.924587 -35.755882 
L 218.730372 -35.741403 
L 219.536157 -35.726925 
L 220.341942 -35.712447 
L 221.147727 -35.697969 
L 221.953512 -35.683491 
L 222.759298 -35.669013 
L 223.565083 -35.654535 
L 224.370868 -35.640057 
L 225.176653 -35.627605 
L 225.982438 -35.615732 
L 226.788223 -35.60386 
L 227.594008 -35.592077 
L 228.399793 -35.584873 
L 229.205579 -35.584111 
L 230.011364 -35.583349 
L 230.011364 -55.056319 
L 230.011364 -55.056319 
L 229.205579 -54.845929 
L 228.399793 -54.626836 
L 227.594008 -54.407743 
L 226.788223 -54.188651 
L 225.982438 -53.969558 
L 225.176653 -53.750465 
L 224.370868 -53.531372 
L 223.565083 -53.317071 
L 222.759298 -53.11005 
L 221.953512 -52.903029 
L 221.147727 -52.696009 
L 220.341942 -52.488988 
L 219.536157 -52.281967 
L 218.730372 -52.074947 
L 217.924587 -51.867926 
L 217.118802 -51.660905 
L 216.313017 -51.453885 
L 215.507231 -51.246819 
L 214.701446 -51.03952 
L 213.895661 -50.847066 
L 213.089876 -50.659568 
L 212.284091 -50.47207 
L 211.478306 -50.284572 
L 210.672521 -50.097073 
L 209.866736 -49.882895 
L 209.06095 -49.668718 
L 208.255165 -49.45454 
L 207.44938 -49.240363 
L 206.643595 -49.025774 
L 205.83781 -48.811172 
L 205.032025 -48.59657 
L 204.22624 -48.381968 
L 203.420455 -48.167366 
L 202.614669 -47.952764 
L 201.808884 -47.738162 
L 201.003099 -47.52356 
L 200.197314 -47.313471 
L 199.391529 -47.106451 
L 198.585744 -46.89943 
L 197.779959 -46.692409 
L 196.974174 -46.485389 
L 196.168388 -46.278368 
L 195.362603 -46.071347 
L 194.556818 -45.864327 
L 193.751033 -45.657306 
L 192.945248 -45.450285 
L 192.139463 -45.242463 
L 191.333678 -45.03461 
L 190.527893 -44.826758 
L 189.722107 -44.618906 
L 188.916322 -44.411054 
L 188.110537 -44.203202 
L 187.304752 -43.99535 
L 186.498967 -43.787426 
L 185.693182 -43.551144 
L 184.887397 -43.314863 
L 184.081612 -43.106475 
L 183.275826 -42.933834 
L 182.470041 -42.752217 
L 181.664256 -42.545996 
L 180.858471 -42.339776 
L 180.052686 -42.133556 
L 179.246901 -41.92706 
L 178.441116 -41.830966 
L 177.635331 -41.60147 
L 176.829545 -41.436713 
L 176.02376 -41.303944 
L 175.217975 -41.143447 
L 174.41219 -40.996856 
L 173.606405 -40.793927 
L 172.80062 -40.689655 
L 171.994835 -40.523665 
L 171.18905 -40.357836 
L 170.383264 -40.259722 
L 169.577479 -40.146541 
L 168.771694 -39.987478 
L 167.965909 -39.85372 
L 167.160124 -39.75521 
L 166.354339 -39.683351 
L 165.548554 -39.569332 
L 164.742769 -39.473276 
L 163.936983 -39.392806 
L 163.131198 -39.220898 
L 162.325413 -39.159462 
L 161.519628 -39.089163 
L 160.713843 -39.0605 
L 159.908058 -39.027009 
L 159.102273 -38.995861 
L 158.296488 -38.944504 
L 157.490702 -38.900781 
L 156.684917 -38.864012 
L 155.879132 -38.795503 
L 155.073347 -38.77911 
L 154.267562 -38.758433 
L 153.461777 -38.695824 
L 152.655992 -38.619031 
L 151.850207 -38.586392 
L 151.044421 -38.602632 
L 150.238636 -38.550035 
z
" style="stroke: #ffffff; stroke-opacity: 0.15; stroke-width: 0.8"/>
    </defs>
    <g clip-path="url(#p79da9e9327)">
     <use xlink:href="#m373f0feae0" x="0" y="90" style="fill: #9d8ec9; fill-opacity: 0.15; stroke: #ffffff; stroke-opacity: 0.15; stroke-width: 0.8"/>
    </g>
   </g>
   <g id="line2d_15">
    <path d="M 150.238636 50.721688 
L 151.044421 50.469764 
L 151.850207 50.217841 
L 152.655992 49.965917 
L 153.461777 49.713993 
L 154.267562 49.462069 
L 155.073347 49.210146 
L 155.879132 48.958222 
L 156.684917 48.706298 
L 157.490702 48.454375 
L 158.296488 48.202451 
L 159.102273 47.950527 
L 159.908058 47.698603 
L 160.713843 47.44668 
L 161.519628 47.194756 
L 162.325413 46.942832 
L 163.131198 46.690908 
L 163.936983 46.438985 
L 164.742769 46.187061 
L 165.548554 45.935137 
L 166.354339 45.683214 
L 167.160124 45.43129 
L 167.965909 45.179366 
L 168.771694 44.927442 
L 169.577479 44.675519 
L 170.383264 44.423595 
L 171.18905 44.171671 
L 171.994835 43.919747 
L 172.80062 43.667824 
L 173.606405 43.4159 
L 174.41219 43.163976 
L 175.217975 42.912052 
L 176.02376 42.660129 
L 176.829545 42.408205 
L 177.635331 42.156281 
L 178.441116 41.904358 
L 179.246901 41.652434 
L 180.052686 41.40051 
L 180.858471 41.148586 
L 181.664256 40.896663 
L 182.470041 40.644739 
L 183.275826 40.392815 
L 184.081612 40.140891 
L 184.887397 39.888968 
L 185.693182 39.637044 
L 186.498967 39.38512 
L 187.304752 39.133197 
L 188.110537 38.881273 
L 188.916322 38.629349 
L 189.722107 38.377425 
L 190.527893 38.125502 
L 191.333678 37.873578 
L 192.139463 37.621654 
L 192.945248 37.36973 
L 193.751033 37.117807 
L 194.556818 36.865883 
L 195.362603 36.613959 
L 196.168388 36.362035 
L 196.974174 36.110112 
L 197.779959 35.858188 
L 198.585744 35.606264 
L 199.391529 35.354341 
L 200.197314 35.102417 
L 201.003099 34.850493 
L 201.808884 34.598569 
L 202.614669 34.346646 
L 203.420455 34.094722 
L 204.22624 33.842798 
L 205.032025 33.590874 
L 205.83781 33.338951 
L 206.643595 33.087027 
L 207.44938 32.835103 
L 208.255165 32.58318 
L 209.06095 32.331256 
L 209.866736 32.079332 
L 210.672521 31.827408 
L 211.478306 31.575485 
L 212.284091 31.323561 
L 213.089876 31.071637 
L 213.895661 30.819713 
L 214.701446 30.56779 
L 215.507231 30.315866 
L 216.313017 30.063942 
L 217.118802 29.812018 
L 217.924587 29.560095 
L 218.730372 29.308171 
L 219.536157 29.056247 
L 220.341942 28.804324 
L 221.147727 28.5524 
L 221.953512 28.300476 
L 222.759298 28.048552 
L 223.565083 27.796629 
L 224.370868 27.544705 
L 225.176653 27.292781 
L 225.982438 27.040857 
L 226.788223 26.788934 
L 227.594008 26.53701 
L 228.399793 26.285086 
L 229.205579 26.033162 
L 230.011364 25.781239 
" clip-path="url(#p79da9e9327)" style="fill: none; stroke: #e873c9; stroke-width: 1.8; stroke-linecap: round"/>
   </g>
   <g id="line2d_16">
    <path d="M 150.238636 53.586307 
L 151.044421 53.524186 
L 151.850207 53.462066 
L 152.655992 53.399946 
L 153.461777 53.337826 
L 154.267562 53.275705 
L 155.073347 53.213585 
L 155.879132 53.151465 
L 156.684917 53.089344 
L 157.490702 53.027224 
L 158.296488 52.965104 
L 159.102273 52.902983 
L 159.908058 52.840863 
L 160.713843 52.778743 
L 161.519628 52.716622 
L 162.325413 52.654502 
L 163.131198 52.592382 
L 163.936983 52.530261 
L 164.742769 52.468141 
L 165.548554 52.406021 
L 166.354339 52.3439 
L 167.160124 52.28178 
L 167.965909 52.21966 
L 168.771694 52.157539 
L 169.577479 52.095419 
L 170.383264 52.033299 
L 171.18905 51.971178 
L 171.994835 51.909058 
L 172.80062 51.846938 
L 173.606405 51.784817 
L 174.41219 51.722697 
L 175.217975 51.660577 
L 176.02376 51.598456 
L 176.829545 51.536336 
L 177.635331 51.474216 
L 178.441116 51.412095 
L 179.246901 51.349975 
L 180.052686 51.287855 
L 180.858471 51.225734 
L 181.664256 51.163614 
L 182.470041 51.101494 
L 183.275826 51.039373 
L 184.081612 50.977253 
L 184.887397 50.915133 
L 185.693182 50.853012 
L 186.498967 50.790892 
L 187.304752 50.728772 
L 188.110537 50.666651 
L 188.916322 50.604531 
L 189.722107 50.542411 
L 190.527893 50.48029 
L 191.333678 50.41817 
L 192.139463 50.35605 
L 192.945248 50.293929 
L 193.751033 50.231809 
L 194.556818 50.169689 
L 195.362603 50.107569 
L 196.168388 50.045448 
L 196.974174 49.983328 
L 197.779959 49.921208 
L 198.585744 49.859087 
L 199.391529 49.796967 
L 200.197314 49.734847 
L 201.003099 49.672726 
L 201.808884 49.610606 
L 202.614669 49.548486 
L 203.420455 49.486365 
L 204.22624 49.424245 
L 205.032025 49.362125 
L 205.83781 49.300004 
L 206.643595 49.237884 
L 207.44938 49.175764 
L 208.255165 49.113643 
L 209.06095 49.051523 
L 209.866736 48.989403 
L 210.672521 48.927282 
L 211.478306 48.865162 
L 212.284091 48.803042 
L 213.089876 48.740921 
L 213.895661 48.678801 
L 214.701446 48.616681 
L 215.507231 48.55456 
L 216.313017 48.49244 
L 217.118802 48.43032 
L 217.924587 48.368199 
L 218.730372 48.306079 
L 219.536157 48.243959 
L 220.341942 48.181838 
L 221.147727 48.119718 
L 221.953512 48.057598 
L 222.759298 47.995477 
L 223.565083 47.933357 
L 224.370868 47.871237 
L 225.176653 47.809116 
L 225.982438 47.746996 
L 226.788223 47.684876 
L 227.594008 47.622755 
L 228.399793 47.560635 
L 229.205579 47.498515 
L 230.011364 47.436394 
" clip-path="url(#p79da9e9327)" style="fill: none; stroke: #9d8ec9; stroke-width: 1.8; stroke-linecap: round"/>
   </g>
   <g id="patch_6">
    <path d="M 146.25 63 
L 146.25 0 
" style="fill: none; stroke: #262626; stroke-linejoin: miter; stroke-linecap: square"/>
   </g>
   <g id="patch_7">
    <path d="M 146.25 63 
L 234 63 
" style="fill: none; stroke: #262626; stroke-linejoin: miter; stroke-linecap: square"/>
   </g>
   <g id="text_14">
    <!-- $R^2 = 0.593, p = 0.001$ -->
    <g style="fill: #e873c9" transform="translate(158.82729 17.97898)">
     <text>
      <tspan x="0" y="-0.873438" style="font-style: oblique; font-size: 9px; font-family: 'DejaVu Sans'; fill: #e873c9">R</tspan>
      <tspan x="52.06665" y="-0.873438" style="font-style: oblique; font-size: 9px; font-family: 'DejaVu Sans'; fill: #e873c9">p</tspan>
      <tspan x="6.885059" y="-4.31875" style="font-size: 6.3px; font-family: 'DejaVu Sans'; fill: #e873c9">2</tspan>
      <tspan x="12.892822" y="-0.873438" style="font-size: 9px; font-family: 'DejaVu Sans'; fill: #e873c9">=</tspan>
      <tspan x="22.187256" y="-0.873438" style="font-size: 9px; font-family: 'DejaVu Sans'; fill: #e873c9">0</tspan>
      <tspan x="27.91333" y="-0.873438" style="font-size: 9px; font-family: 'DejaVu Sans'; fill: #e873c9">.</tspan>
      <tspan x="30.77417" y="-0.873438" style="font-size: 9px; font-family: 'DejaVu Sans'; fill: #e873c9">5</tspan>
      <tspan x="36.000244" y="-0.873438" style="font-size: 9px; font-family: 'DejaVu Sans'; fill: #e873c9">9</tspan>
      <tspan x="41.726318" y="-0.873438" style="font-size: 9px; font-family: 'DejaVu Sans'; fill: #e873c9">3</tspan>
      <tspan x="47.452393" y="-0.873438" style="font-size: 9px; font-family: 'DejaVu Sans'; fill: #e873c9">,</tspan>
      <tspan x="59.532959" y="-0.873438" style="font-size: 9px; font-family: 'DejaVu Sans'; fill: #e873c9">=</tspan>
      <tspan x="68.827393" y="-0.873438" style="font-size: 9px; font-family: 'DejaVu Sans'; fill: #e873c9">0</tspan>
      <tspan x="74.553467" y="-0.873438" style="font-size: 9px; font-family: 'DejaVu Sans'; fill: #e873c9">.</tspan>
      <tspan x="77.414307" y="-0.873438" style="font-size: 9px; font-family: 'DejaVu Sans'; fill: #e873c9">0</tspan>
      <tspan x="83.140381" y="-0.873438" style="font-size: 9px; font-family: 'DejaVu Sans'; fill: #e873c9">0</tspan>
      <tspan x="88.866455" y="-0.873438" style="font-size: 9px; font-family: 'DejaVu Sans'; fill: #e873c9">1</tspan>
     </text>
    </g>
   </g>
   <g id="text_15">
    <!-- $R^2 = 0.245, p = 0.209$ -->
    <g style="fill: #9d8ec9" transform="translate(158.82729 24.852983)">
     <text>
      <tspan x="0" y="-0.873438" style="font-style: oblique; font-size: 9px; font-family: 'DejaVu Sans'; fill: #9d8ec9">R</tspan>
      <tspan x="52.06665" y="-0.873438" style="font-style: oblique; font-size: 9px; font-family: 'DejaVu Sans'; fill: #9d8ec9">p</tspan>
      <tspan x="6.885059" y="-4.31875" style="font-size: 6.3px; font-family: 'DejaVu Sans'; fill: #9d8ec9">2</tspan>
      <tspan x="12.892822" y="-0.873438" style="font-size: 9px; font-family: 'DejaVu Sans'; fill: #9d8ec9">=</tspan>
      <tspan x="22.187256" y="-0.873438" style="font-size: 9px; font-family: 'DejaVu Sans'; fill: #9d8ec9">0</tspan>
      <tspan x="27.91333" y="-0.873438" style="font-size: 9px; font-family: 'DejaVu Sans'; fill: #9d8ec9">.</tspan>
      <tspan x="30.27417" y="-0.873438" style="font-size: 9px; font-family: 'DejaVu Sans'; fill: #9d8ec9">2</tspan>
      <tspan x="36.000244" y="-0.873438" style="font-size: 9px; font-family: 'DejaVu Sans'; fill: #9d8ec9">4</tspan>
      <tspan x="41.726318" y="-0.873438" style="font-size: 9px; font-family: 'DejaVu Sans'; fill: #9d8ec9">5</tspan>
      <tspan x="47.452393" y="-0.873438" style="font-size: 9px; font-family: 'DejaVu Sans'; fill: #9d8ec9">,</tspan>
      <tspan x="59.532959" y="-0.873438" style="font-size: 9px; font-family: 'DejaVu Sans'; fill: #9d8ec9">=</tspan>
      <tspan x="68.827393" y="-0.873438" style="font-size: 9px; font-family: 'DejaVu Sans'; fill: #9d8ec9">0</tspan>
      <tspan x="74.553467" y="-0.873438" style="font-size: 9px; font-family: 'DejaVu Sans'; fill: #9d8ec9">.</tspan>
      <tspan x="76.914307" y="-0.873438" style="font-size: 9px; font-family: 'DejaVu Sans'; fill: #9d8ec9">2</tspan>
      <tspan x="82.640381" y="-0.873438" style="font-size: 9px; font-family: 'DejaVu Sans'; fill: #9d8ec9">0</tspan>
      <tspan x="88.366455" y="-0.873438" style="font-size: 9px; font-family: 'DejaVu Sans'; fill: #9d8ec9">9</tspan>
     </text>
    </g>
   </g>
  </g>
 </g>
 <defs>
  <clipPath id="p6341ca7145">
   <rect x="35.775" y="0" width="63" height="63"/>
  </clipPath>
  <clipPath id="p79da9e9327">
   <rect x="146.25" y="0" width="87.75" height="63"/>
  </clipPath>
 </defs>
</svg>
