<?xml version="1.0" encoding="utf-8" standalone="no"?>
<!DOCTYPE svg PUBLIC "-//W3C//DTD SVG 1.1//EN"
  "http://www.w3.org/Graphics/SVG/1.1/DTD/svg11.dtd">
<svg xmlns:xlink="http://www.w3.org/1999/xlink" width="144pt" height="126pt" viewBox="0 0 144 126" xmlns="http://www.w3.org/2000/svg" version="1.1">
 <metadata>
  <rdf:RDF xmlns:dc="http://purl.org/dc/elements/1.1/" xmlns:cc="http://creativecommons.org/ns#" xmlns:rdf="http://www.w3.org/1999/02/22-rdf-syntax-ns#">
   <cc:Work>
    <dc:type rdf:resource="http://purl.org/dc/dcmitype/StillImage"/>
    <dc:date>2026-01-15T09:34:54.779667</dc:date>
    <dc:format>image/svg+xml</dc:format>
    <dc:creator>
     <cc:Agent>
      <dc:title>Matplotlib v3.10.7, https://matplotlib.org/</dc:title>
     </cc:Agent>
    </dc:creator>
   </cc:Work>
  </rdf:RDF>
 </metadata>
 <defs>
  <style type="text/css">*{stroke-linejoin: round; stroke-linecap: butt}</style>
 </defs>
 <g id="figure_1">
  <g id="patch_1">
   <path d="M 0 126 
L 144 126 
L 144 0 
L 0 0 
L 0 126 
z
" style="fill: none"/>
  </g>
  <g id="axes_1">
   <g id="patch_2">
    <path d="M 14.4 88.2 
L 144 88.2 
L 144 0 
L 14.4 0 
L 14.4 88.2 
z
" style="fill: none"/>
   </g>
   <g id="matplotlib.axis_1">
    <g id="xtick_1">
     <g id="line2d_1">
      <defs>
       <path id="m345a4af908" d="M 0 0 
L 0 4.8 
" style="stroke: #262626"/>
      </defs>
      <g>
       <use xlink:href="#m345a4af908" x="36" y="88.2" style="fill: #262626; stroke: #262626"/>
      </g>
     </g>
     <g id="text_1">
      <text style="font-size: 8px; font-family: 'Arial'; text-anchor: middle; fill: #262626" x="36" y="102.22625" transform="rotate(-0 36 102.22625)">SLIC-GPS</text>
     </g>
    </g>
    <g id="xtick_2">
     <g id="line2d_2">
      <g>
       <use xlink:href="#m345a4af908" x="79.2" y="88.2" style="fill: #262626; stroke: #262626"/>
      </g>
     </g>
     <g id="text_2">
      <text style="font-size: 8px; font-family: 'Arial'; text-anchor: middle; fill: #262626" x="79.2" y="102.22625" transform="rotate(-0 79.2 102.22625)">SLIC-GP</text>
     </g>
    </g>
    <g id="xtick_3">
     <g id="line2d_3">
      <g>
       <use xlink:href="#m345a4af908" x="122.4" y="88.2" style="fill: #262626; stroke: #262626"/>
      </g>
     </g>
     <g id="text_3">
      <text style="font-size: 8px; font-family: 'Arial'; text-anchor: middle; fill: #262626" x="122.4" y="102.22625" transform="rotate(-0 122.4 102.22625)">GPS-GP</text>
     </g>
    </g>
    <g id="text_4">
     <text style="font-size: 9px; font-family: 'Arial'; text-anchor: middle; fill: #262626" x="79.2" y="114.152812" transform="rotate(-0 79.2 114.152812)">group</text>
    </g>
   </g>
   <g id="matplotlib.axis_2">
    <g id="ytick_1">
     <g id="line2d_4">
      <defs>
       <path id="mefde2c3921" d="M 0 0 
L -4.8 0 
" style="stroke: #262626"/>
      </defs>
      <g>
       <use xlink:href="#mefde2c3921" x="14.4" y="64.985363" style="fill: #262626; stroke: #262626"/>
      </g>
     </g>
     <g id="text_5">
      <text style="font-size: 8px; font-family: 'Arial'; text-anchor: end; fill: #262626" x="6.1" y="67.848488" transform="rotate(-0 6.1 67.848488)">0.0</text>
     </g>
    </g>
    <g id="ytick_2">
     <g id="line2d_5">
      <g>
       <use xlink:href="#mefde2c3921" x="14.4" y="35.141611" style="fill: #262626; stroke: #262626"/>
      </g>
     </g>
     <g id="text_6">
      <text style="font-size: 8px; font-family: 'Arial'; text-anchor: end; fill: #262626" x="6.1" y="38.004736" transform="rotate(-0 6.1 38.004736)">0.5</text>
     </g>
    </g>
    <g id="ytick_3">
     <g id="line2d_6">
      <g>
       <use xlink:href="#mefde2c3921" x="14.4" y="5.29786" style="fill: #262626; stroke: #262626"/>
      </g>
     </g>
     <g id="text_7">
      <text style="font-size: 8px; font-family: 'Arial'; text-anchor: end; fill: #262626" x="6.1" y="8.160985" transform="rotate(-0 6.1 8.160985)">1.0</text>
     </g>
    </g>
    <g id="text_8">
     <text style="font-size: 9px; font-family: 'Arial'; text-anchor: middle; fill: #262626" x="-10.80875" y="44.1" transform="rotate(-90 -10.80875 44.1)">correlation</text>
    </g>
   </g>
   <g id="FillBetweenPolyCollection_1">
    <defs>
     <path id="md16f32de79" d="M 27.37387 -57.370543 
L 27.34613 -57.370543 
L 27.339382 -57.85405 
L 27.329781 -58.337558 
L 27.31626 -58.821065 
L 27.297393 -59.304573 
L 27.271284 -59.78808 
L 27.235452 -60.271588 
L 27.186707 -60.755095 
L 27.12105 -61.238602 
L 27.033615 -61.72211 
L 26.918691 -62.205617 
L 26.76986 -62.689125 
L 26.580281 -63.172632 
L 26.343153 -63.65614 
L 26.05234 -64.139647 
L 25.70315 -64.623154 
L 25.293205 -65.106662 
L 24.823311 -65.590169 
L 24.298213 -66.073677 
L 23.727107 -66.557184 
L 23.123774 -67.040692 
L 22.506239 -67.524199 
L 21.895909 -68.007706 
L 21.3162 -68.491214 
L 20.790752 -68.974721 
L 20.341402 -69.458229 
L 19.986146 -69.941736 
L 19.737325 -70.425244 
L 19.600286 -70.908751 
L 19.572701 -71.392258 
L 19.644639 -71.875766 
L 19.799402 -72.359273 
L 20.01503 -72.842781 
L 20.266303 -73.326288 
L 20.526989 -73.809796 
L 20.772122 -74.293303 
L 20.980031 -74.77681 
L 21.133973 -75.260318 
L 21.223203 -75.743825 
L 21.243457 -76.227333 
L 21.196848 -76.71084 
L 21.091256 -77.194348 
L 20.939337 -77.677855 
L 20.757278 -78.161363 
L 20.563463 -78.64487 
L 20.377138 -79.128377 
L 20.217188 -79.611885 
L 20.101061 -80.095392 
L 20.043868 -80.5789 
L 20.057644 -81.062407 
L 20.150774 -81.545915 
L 20.327577 -82.029422 
L 20.588057 -82.512929 
L 20.927866 -82.996437 
L 21.338485 -83.479944 
L 21.807667 -83.963452 
L 22.320127 -84.446959 
L 22.858444 -84.930467 
L 23.4041 -85.413974 
L 23.938565 -85.897481 
L 24.444316 -86.380989 
L 24.905686 -86.864496 
L 25.309486 -87.348004 
L 25.645369 -87.831511 
L 25.905959 -88.315019 
L 26.0868 -88.798526 
L 26.186215 -89.282033 
L 26.205153 -89.765541 
L 26.147088 -90.249048 
L 26.017985 -90.732556 
L 25.826318 -91.216063 
L 25.583082 -91.699571 
L 25.301691 -92.183078 
L 24.997704 -92.666585 
L 24.688284 -93.150093 
L 24.3914 -93.6336 
L 24.124785 -94.117108 
L 23.904757 -94.600615 
L 23.745027 -95.084123 
L 23.655645 -95.56763 
L 23.642228 -96.051137 
L 23.70557 -96.534645 
L 23.841696 -97.018152 
L 24.042349 -97.50166 
L 24.295853 -97.985167 
L 24.588231 -98.468675 
L 24.904459 -98.952182 
L 25.229695 -99.435689 
L 25.550368 -99.919197 
L 25.855019 -100.402704 
L 26.13484 -100.886212 
L 26.383897 -101.369719 
L 26.599054 -101.853227 
L 26.779669 -102.336734 
L 26.92712 -102.820241 
L 27.044259 -103.303749 
L 27.134851 -103.787256 
L 27.203077 -104.270764 
L 27.253123 -104.754271 
L 27.288884 -105.237779 
L 27.431116 -105.237779 
L 27.431116 -105.237779 
L 27.466877 -104.754271 
L 27.516923 -104.270764 
L 27.585149 -103.787256 
L 27.675741 -103.303749 
L 27.79288 -102.820241 
L 27.940331 -102.336734 
L 28.120946 -101.853227 
L 28.336103 -101.369719 
L 28.58516 -100.886212 
L 28.864981 -100.402704 
L 29.169632 -99.919197 
L 29.490305 -99.435689 
L 29.815541 -98.952182 
L 30.131769 -98.468675 
L 30.424147 -97.985167 
L 30.677651 -97.50166 
L 30.878304 -97.018152 
L 31.01443 -96.534645 
L 31.077772 -96.051137 
L 31.064355 -95.56763 
L 30.974973 -95.084123 
L 30.815243 -94.600615 
L 30.595215 -94.117108 
L 30.3286 -93.6336 
L 30.031716 -93.150093 
L 29.722296 -92.666585 
L 29.418309 -92.183078 
L 29.136918 -91.699571 
L 28.893682 -91.216063 
L 28.702015 -90.732556 
L 28.572912 -90.249048 
L 28.514847 -89.765541 
L 28.533785 -89.282033 
L 28.6332 -88.798526 
L 28.814041 -88.315019 
L 29.074631 -87.831511 
L 29.410514 -87.348004 
L 29.814314 -86.864496 
L 30.275684 -86.380989 
L 30.781435 -85.897481 
L 31.3159 -85.413974 
L 31.861556 -84.930467 
L 32.399873 -84.446959 
L 32.912333 -83.963452 
L 33.381515 -83.479944 
L 33.792134 -82.996437 
L 34.131943 -82.512929 
L 34.392423 -82.029422 
L 34.569226 -81.545915 
L 34.662356 -81.062407 
L 34.676132 -80.5789 
L 34.618939 -80.095392 
L 34.502812 -79.611885 
L 34.342862 -79.128377 
L 34.156537 -78.64487 
L 33.962722 -78.161363 
L 33.780663 -77.677855 
L 33.628744 -77.194348 
L 33.523152 -76.71084 
L 33.476543 -76.227333 
L 33.496797 -75.743825 
L 33.586027 -75.260318 
L 33.739969 -74.77681 
L 33.947878 -74.293303 
L 34.193011 -73.809796 
L 34.453697 -73.326288 
L 34.70497 -72.842781 
L 34.920598 -72.359273 
L 35.075361 -71.875766 
L 35.147299 -71.392258 
L 35.119714 -70.908751 
L 34.982675 -70.425244 
L 34.733854 -69.941736 
L 34.378598 -69.458229 
L 33.929248 -68.974721 
L 33.4038 -68.491214 
L 32.824091 -68.007706 
L 32.213761 -67.524199 
L 31.596226 -67.040692 
L 30.992893 -66.557184 
L 30.421787 -66.073677 
L 29.896689 -65.590169 
L 29.426795 -65.106662 
L 29.01685 -64.623154 
L 28.66766 -64.139647 
L 28.376847 -63.65614 
L 28.139719 -63.172632 
L 27.95014 -62.689125 
L 27.801309 -62.205617 
L 27.686385 -61.72211 
L 27.59895 -61.238602 
L 27.533293 -60.755095 
L 27.484548 -60.271588 
L 27.448716 -59.78808 
L 27.422607 -59.304573 
L 27.40374 -58.821065 
L 27.390219 -58.337558 
L 27.380618 -57.85405 
L 27.37387 -57.370543 
z
" style="stroke: #5c5c5c"/>
    </defs>
    <g clip-path="url(#p2b1819c5b1)">
     <use xlink:href="#md16f32de79" x="0" y="126" style="fill: #9acad5; stroke: #5c5c5c"/>
    </g>
   </g>
   <g id="FillBetweenPolyCollection_2">
    <defs>
     <path id="m23b0285b43" d="M 44.683372 -43.862561 
L 44.596628 -43.862561 
L 44.57509 -44.651737 
L 44.544777 -45.440912 
L 44.503025 -46.230087 
L 44.446736 -47.019262 
L 44.372453 -47.808437 
L 44.276487 -48.597613 
L 44.155125 -49.386788 
L 44.004902 -50.175963 
L 43.822948 -50.965138 
L 43.607372 -51.754314 
L 43.357686 -52.543489 
L 43.07519 -53.332664 
L 42.763307 -54.121839 
L 42.427783 -54.911015 
L 42.076707 -55.70019 
L 41.720316 -56.489365 
L 41.370545 -57.27854 
L 41.040336 -58.067715 
L 40.742754 -58.856891 
L 40.489967 -59.646066 
L 40.292222 -60.435241 
L 40.15692 -61.224416 
L 40.087928 -62.013592 
L 40.085218 -62.802767 
L 40.144895 -63.591942 
L 40.259621 -64.381117 
L 40.419387 -65.170293 
L 40.612529 -65.959468 
L 40.826851 -66.748643 
L 41.050727 -67.537818 
L 41.274027 -68.326993 
L 41.488788 -69.116169 
L 41.689556 -69.905344 
L 41.873422 -70.694519 
L 42.039759 -71.483694 
L 42.189767 -72.27287 
L 42.325887 -73.062045 
L 42.451191 -73.85122 
L 42.568814 -74.640395 
L 42.681473 -75.429571 
L 42.791107 -76.218746 
L 42.898643 -77.007921 
L 43.003865 -77.797096 
L 43.105388 -78.586271 
L 43.200716 -79.375447 
L 43.286376 -80.164622 
L 43.358125 -80.953797 
L 43.41123 -81.742972 
L 43.440826 -82.532148 
L 43.442317 -83.321323 
L 43.411816 -84.110498 
L 43.346579 -84.899673 
L 43.245391 -85.688849 
L 43.108859 -86.478024 
L 42.939579 -87.267199 
L 42.74215 -88.056374 
L 42.523038 -88.845549 
L 42.290294 -89.634725 
L 42.05317 -90.4239 
L 41.821654 -91.213075 
L 41.605962 -92.00225 
L 41.416026 -92.791426 
L 41.260985 -93.580601 
L 41.148697 -94.369776 
L 41.085279 -95.158951 
L 41.074696 -95.948127 
L 41.118425 -96.737302 
L 41.215226 -97.526477 
L 41.361074 -98.315652 
L 41.549281 -99.104827 
L 41.770852 -99.894003 
L 42.015056 -100.683178 
L 42.270195 -101.472353 
L 42.524494 -102.261528 
L 42.767034 -103.050704 
L 42.988608 -103.839879 
L 43.182418 -104.629054 
L 43.344518 -105.418229 
L 43.473963 -106.207404 
L 43.572637 -106.99658 
L 43.644805 -107.785755 
L 43.696435 -108.57493 
L 43.734393 -109.364105 
L 43.765605 -110.153281 
L 43.796289 -110.942456 
L 43.831362 -111.731631 
L 43.874054 -112.520806 
L 43.925788 -113.309982 
L 43.986293 -114.099157 
L 44.053909 -114.888332 
L 44.126031 -115.677507 
L 44.199589 -116.466682 
L 44.271511 -117.255858 
L 44.339096 -118.045033 
L 44.400268 -118.834208 
L 44.453698 -119.623383 
L 44.498798 -120.412559 
L 44.535638 -121.201734 
L 44.564786 -121.990909 
L 44.715214 -121.990909 
L 44.715214 -121.990909 
L 44.744362 -121.201734 
L 44.781202 -120.412559 
L 44.826302 -119.623383 
L 44.879732 -118.834208 
L 44.940904 -118.045033 
L 45.008489 -117.255858 
L 45.080411 -116.466682 
L 45.153969 -115.677507 
L 45.226091 -114.888332 
L 45.293707 -114.099157 
L 45.354212 -113.309982 
L 45.405946 -112.520806 
L 45.448638 -111.731631 
L 45.483711 -110.942456 
L 45.514395 -110.153281 
L 45.545607 -109.364105 
L 45.583565 -108.57493 
L 45.635195 -107.785755 
L 45.707363 -106.99658 
L 45.806037 -106.207404 
L 45.935482 -105.418229 
L 46.097582 -104.629054 
L 46.291392 -103.839879 
L 46.512966 -103.050704 
L 46.755506 -102.261528 
L 47.009805 -101.472353 
L 47.264944 -100.683178 
L 47.509148 -99.894003 
L 47.730719 -99.104827 
L 47.918926 -98.315652 
L 48.064774 -97.526477 
L 48.161575 -96.737302 
L 48.205304 -95.948127 
L 48.194721 -95.158951 
L 48.131303 -94.369776 
L 48.019015 -93.580601 
L 47.863974 -92.791426 
L 47.674038 -92.00225 
L 47.458346 -91.213075 
L 47.22683 -90.4239 
L 46.989706 -89.634725 
L 46.756962 -88.845549 
L 46.53785 -88.056374 
L 46.340421 -87.267199 
L 46.171141 -86.478024 
L 46.034609 -85.688849 
L 45.933421 -84.899673 
L 45.868184 -84.110498 
L 45.837683 -83.321323 
L 45.839174 -82.532148 
L 45.86877 -81.742972 
L 45.921875 -80.953797 
L 45.993624 -80.164622 
L 46.079284 -79.375447 
L 46.174612 -78.586271 
L 46.276135 -77.797096 
L 46.381357 -77.007921 
L 46.488893 -76.218746 
L 46.598527 -75.429571 
L 46.711186 -74.640395 
L 46.828809 -73.85122 
L 46.954113 -73.062045 
L 47.090233 -72.27287 
L 47.240241 -71.483694 
L 47.406578 -70.694519 
L 47.590444 -69.905344 
L 47.791212 -69.116169 
L 48.005973 -68.326993 
L 48.229273 -67.537818 
L 48.453149 -66.748643 
L 48.667471 -65.959468 
L 48.860613 -65.170293 
L 49.020379 -64.381117 
L 49.135105 -63.591942 
L 49.194782 -62.802767 
L 49.192072 -62.013592 
L 49.12308 -61.224416 
L 48.987778 -60.435241 
L 48.790033 -59.646066 
L 48.537246 -58.856891 
L 48.239664 -58.067715 
L 47.909455 -57.27854 
L 47.559684 -56.489365 
L 47.203293 -55.70019 
L 46.852217 -54.911015 
L 46.516693 -54.121839 
L 46.20481 -53.332664 
L 45.922314 -52.543489 
L 45.672628 -51.754314 
L 45.457052 -50.965138 
L 45.275098 -50.175963 
L 45.124875 -49.386788 
L 45.003513 -48.597613 
L 44.907547 -47.808437 
L 44.833264 -47.019262 
L 44.776975 -46.230087 
L 44.735223 -45.440912 
L 44.70491 -44.651737 
L 44.683372 -43.862561 
z
" style="stroke: #5c5c5c"/>
    </defs>
    <g clip-path="url(#p2b1819c5b1)">
     <use xlink:href="#m23b0285b43" x="0" y="126" style="fill: #66aace; stroke: #5c5c5c"/>
    </g>
   </g>
   <g id="FillBetweenPolyCollection_3">
    <defs>
     <path id="m5217a03e39" d="M 70.573717 -50.582445 
L 70.546283 -50.582445 
L 70.539645 -51.049873 
L 70.530373 -51.517301 
L 70.517616 -51.984729 
L 70.500282 -52.452157 
L 70.476962 -52.919585 
L 70.445843 -53.387013 
L 70.404601 -53.854441 
L 70.350312 -54.321869 
L 70.279371 -54.789297 
L 70.18747 -55.256724 
L 70.069651 -55.724152 
L 69.92045 -56.19158 
L 69.734163 -56.659008 
L 69.505218 -57.126436 
L 69.228654 -57.593864 
L 68.900675 -58.061292 
L 68.519228 -58.52872 
L 68.084571 -58.996148 
L 67.599741 -59.463576 
L 67.070878 -59.931004 
L 66.507323 -60.398432 
L 65.921426 -60.86586 
L 65.328037 -61.333288 
L 64.743662 -61.800716 
L 64.185331 -62.268144 
L 63.669276 -62.735571 
L 63.209563 -63.202999 
L 62.816864 -63.670427 
L 62.497559 -64.137855 
L 62.253329 -64.605283 
L 62.081311 -65.072711 
L 61.974826 -65.540139 
L 61.924561 -66.007567 
L 61.92 -66.474995 
L 61.950893 -66.942423 
L 62.008506 -67.409851 
L 62.08649 -67.877279 
L 62.181271 -68.344707 
L 62.291962 -68.812135 
L 62.419884 -69.279563 
L 62.567829 -69.746991 
L 62.739215 -70.214418 
L 62.937274 -70.681846 
L 63.164372 -71.149274 
L 63.421496 -71.616702 
L 63.707948 -72.08413 
L 64.021196 -72.551558 
L 64.356881 -73.018986 
L 64.708934 -73.486414 
L 65.069791 -73.953842 
L 65.430698 -74.42127 
L 65.782105 -74.888698 
L 66.114148 -75.356126 
L 66.417205 -75.823554 
L 66.682502 -76.290982 
L 66.902732 -76.75841 
L 67.072627 -77.225838 
L 67.189441 -77.693265 
L 67.253285 -78.160693 
L 67.26728 -78.628121 
L 67.237498 -79.095549 
L 67.172667 -79.562977 
L 67.083649 -80.030405 
L 66.982693 -80.497833 
L 66.882507 -80.965261 
L 66.795209 -81.432689 
L 66.731263 -81.900117 
L 66.698519 -82.367545 
L 66.701501 -82.834973 
L 66.741054 -83.302401 
L 66.814454 -83.769829 
L 66.915969 -84.237257 
L 67.037847 -84.704685 
L 67.171571 -85.172112 
L 67.309191 -85.63954 
L 67.444529 -86.106968 
L 67.574037 -86.574396 
L 67.697167 -87.041824 
L 67.816195 -87.509252 
L 67.935533 -87.97668 
L 68.060669 -88.444108 
L 68.196946 -88.911536 
L 68.348407 -89.378964 
L 68.516927 -89.846392 
L 68.701779 -90.31382 
L 68.899682 -90.781248 
L 69.10529 -91.248676 
L 69.311985 -91.716104 
L 69.512812 -92.183532 
L 69.701365 -92.650959 
L 69.872487 -93.118387 
L 70.02269 -93.585815 
L 70.15029 -94.053243 
L 70.25527 -94.520671 
L 70.338971 -94.988099 
L 70.403685 -95.455527 
L 70.452226 -95.922955 
L 70.487569 -96.390383 
L 70.512556 -96.857811 
L 70.607444 -96.857811 
L 70.607444 -96.857811 
L 70.632431 -96.390383 
L 70.667774 -95.922955 
L 70.716315 -95.455527 
L 70.781029 -94.988099 
L 70.86473 -94.520671 
L 70.96971 -94.053243 
L 71.09731 -93.585815 
L 71.247513 -93.118387 
L 71.418635 -92.650959 
L 71.607188 -92.183532 
L 71.808015 -91.716104 
L 72.01471 -91.248676 
L 72.220318 -90.781248 
L 72.418221 -90.31382 
L 72.603073 -89.846392 
L 72.771593 -89.378964 
L 72.923054 -88.911536 
L 73.059331 -88.444108 
L 73.184467 -87.97668 
L 73.303805 -87.509252 
L 73.422833 -87.041824 
L 73.545963 -86.574396 
L 73.675471 -86.106968 
L 73.810809 -85.63954 
L 73.948429 -85.172112 
L 74.082153 -84.704685 
L 74.204031 -84.237257 
L 74.305546 -83.769829 
L 74.378946 -83.302401 
L 74.418499 -82.834973 
L 74.421481 -82.367545 
L 74.388737 -81.900117 
L 74.324791 -81.432689 
L 74.237493 -80.965261 
L 74.137307 -80.497833 
L 74.036351 -80.030405 
L 73.947333 -79.562977 
L 73.882502 -79.095549 
L 73.85272 -78.628121 
L 73.866715 -78.160693 
L 73.930559 -77.693265 
L 74.047373 -77.225838 
L 74.217268 -76.75841 
L 74.437498 -76.290982 
L 74.702795 -75.823554 
L 75.005852 -75.356126 
L 75.337895 -74.888698 
L 75.689302 -74.42127 
L 76.050209 -73.953842 
L 76.411066 -73.486414 
L 76.763119 -73.018986 
L 77.098804 -72.551558 
L 77.412052 -72.08413 
L 77.698504 -71.616702 
L 77.955628 -71.149274 
L 78.182726 -70.681846 
L 78.380785 -70.214418 
L 78.552171 -69.746991 
L 78.700116 -69.279563 
L 78.828038 -68.812135 
L 78.938729 -68.344707 
L 79.03351 -67.877279 
L 79.111494 -67.409851 
L 79.169107 -66.942423 
L 79.2 -66.474995 
L 79.195439 -66.007567 
L 79.145174 -65.540139 
L 79.038689 -65.072711 
L 78.866671 -64.605283 
L 78.622441 -64.137855 
L 78.303136 -63.670427 
L 77.910437 -63.202999 
L 77.450724 -62.735571 
L 76.934669 -62.268144 
L 76.376338 -61.800716 
L 75.791963 -61.333288 
L 75.198574 -60.86586 
L 74.612677 -60.398432 
L 74.049122 -59.931004 
L 73.520259 -59.463576 
L 73.035429 -58.996148 
L 72.600772 -58.52872 
L 72.219325 -58.061292 
L 71.891346 -57.593864 
L 71.614782 -57.126436 
L 71.385837 -56.659008 
L 71.19955 -56.19158 
L 71.050349 -55.724152 
L 70.93253 -55.256724 
L 70.840629 -54.789297 
L 70.769688 -54.321869 
L 70.715399 -53.854441 
L 70.674157 -53.387013 
L 70.643038 -52.919585 
L 70.619718 -52.452157 
L 70.602384 -51.984729 
L 70.589627 -51.517301 
L 70.580355 -51.049873 
L 70.573717 -50.582445 
z
" style="stroke: #5c5c5c"/>
    </defs>
    <g clip-path="url(#p2b1819c5b1)">
     <use xlink:href="#m5217a03e39" x="0" y="126" style="fill: #9acad5; stroke: #5c5c5c"/>
    </g>
   </g>
   <g id="FillBetweenPolyCollection_4">
    <defs>
     <path id="m29396f36c9" d="M 87.847938 -41.809091 
L 87.832062 -41.809091 
L 87.827569 -42.300955 
L 87.82119 -42.792818 
L 87.81237 -43.284682 
L 87.800388 -43.776546 
L 87.784232 -44.268409 
L 87.762448 -44.760273 
L 87.732965 -45.252137 
L 87.692983 -45.744 
L 87.638974 -46.235864 
L 87.56686 -46.727728 
L 87.472375 -47.219591 
L 87.351544 -47.711455 
L 87.201181 -48.203319 
L 87.019268 -48.695182 
L 86.805142 -49.187046 
L 86.55947 -49.67891 
L 86.284069 -50.170774 
L 85.981678 -50.662637 
L 85.655737 -51.154501 
L 85.310185 -51.646365 
L 84.949232 -52.138228 
L 84.577033 -52.630092 
L 84.197281 -53.121956 
L 83.812787 -53.613819 
L 83.425189 -54.105683 
L 83.034924 -54.597547 
L 82.641539 -55.08941 
L 82.244326 -55.581274 
L 81.843193 -56.073138 
L 81.439657 -56.565001 
L 81.037802 -57.056865 
L 80.645004 -57.548729 
L 80.272165 -58.040592 
L 79.93319 -58.532456 
L 79.643561 -59.02432 
L 79.41809 -59.516184 
L 79.268284 -60.008047 
L 79.2 -60.499911 
L 79.212161 -60.991775 
L 79.297032 -61.483638 
L 79.442099 -61.975502 
L 79.633025 -62.467366 
L 79.856773 -62.959229 
L 80.103904 -63.451093 
L 80.369401 -63.942957 
L 80.651879 -64.43482 
L 80.951657 -64.926684 
L 81.268529 -65.418548 
L 81.600069 -65.910411 
L 81.941053 -66.402275 
L 82.284057 -66.894139 
L 82.620878 -67.386003 
L 82.94412 -67.877866 
L 83.24832 -68.36973 
L 83.530213 -68.861594 
L 83.788155 -69.353457 
L 84.021046 -69.845321 
L 84.227329 -70.337185 
L 84.40462 -70.829048 
L 84.550221 -71.320912 
L 84.662401 -71.812776 
L 84.74196 -72.304639 
L 84.793403 -72.796503 
L 84.825157 -73.288367 
L 84.848589 -73.78023 
L 84.876018 -74.272094 
L 84.918269 -74.763958 
L 84.982472 -75.255821 
L 85.070722 -75.747685 
L 85.179959 -76.239549 
L 85.303061 -76.731413 
L 85.43087 -77.223276 
L 85.55463 -77.71514 
L 85.66823 -78.207004 
L 85.769705 -78.698867 
L 85.861602 -79.190731 
L 85.950109 -79.682595 
L 86.043191 -80.174458 
L 86.148268 -80.666322 
L 86.270113 -81.158186 
L 86.409561 -81.650049 
L 86.563367 -82.141913 
L 86.725144 -82.633777 
L 86.886996 -83.12564 
L 87.041294 -83.617504 
L 87.182084 -84.109368 
L 87.305819 -84.601231 
L 87.411377 -85.093095 
L 87.499542 -85.584959 
L 87.572235 -86.076823 
L 87.631778 -86.568686 
L 87.680368 -87.06055 
L 87.719816 -87.552414 
L 87.751521 -88.044277 
L 87.776575 -88.536141 
L 87.795899 -89.028005 
L 87.810351 -89.519868 
L 87.82078 -90.011732 
L 87.828012 -90.503596 
L 87.851988 -90.503596 
L 87.851988 -90.503596 
L 87.85922 -90.011732 
L 87.869649 -89.519868 
L 87.884101 -89.028005 
L 87.903425 -88.536141 
L 87.928479 -88.044277 
L 87.960184 -87.552414 
L 87.999632 -87.06055 
L 88.048222 -86.568686 
L 88.107765 -86.076823 
L 88.180458 -85.584959 
L 88.268623 -85.093095 
L 88.374181 -84.601231 
L 88.497916 -84.109368 
L 88.638706 -83.617504 
L 88.793004 -83.12564 
L 88.954856 -82.633777 
L 89.116633 -82.141913 
L 89.270439 -81.650049 
L 89.409887 -81.158186 
L 89.531732 -80.666322 
L 89.636809 -80.174458 
L 89.729891 -79.682595 
L 89.818398 -79.190731 
L 89.910295 -78.698867 
L 90.01177 -78.207004 
L 90.12537 -77.71514 
L 90.24913 -77.223276 
L 90.376939 -76.731413 
L 90.500041 -76.239549 
L 90.609278 -75.747685 
L 90.697528 -75.255821 
L 90.761731 -74.763958 
L 90.803982 -74.272094 
L 90.831411 -73.78023 
L 90.854843 -73.288367 
L 90.886597 -72.796503 
L 90.93804 -72.304639 
L 91.017599 -71.812776 
L 91.129779 -71.320912 
L 91.27538 -70.829048 
L 91.452671 -70.337185 
L 91.658954 -69.845321 
L 91.891845 -69.353457 
L 92.149787 -68.861594 
L 92.43168 -68.36973 
L 92.73588 -67.877866 
L 93.059122 -67.386003 
L 93.395943 -66.894139 
L 93.738947 -66.402275 
L 94.079931 -65.910411 
L 94.411471 -65.418548 
L 94.728343 -64.926684 
L 95.028121 -64.43482 
L 95.310599 -63.942957 
L 95.576096 -63.451093 
L 95.823227 -62.959229 
L 96.046975 -62.467366 
L 96.237901 -61.975502 
L 96.382968 -61.483638 
L 96.467839 -60.991775 
L 96.48 -60.499911 
L 96.411716 -60.008047 
L 96.26191 -59.516184 
L 96.036439 -59.02432 
L 95.74681 -58.532456 
L 95.407835 -58.040592 
L 95.034996 -57.548729 
L 94.642198 -57.056865 
L 94.240343 -56.565001 
L 93.836807 -56.073138 
L 93.435674 -55.581274 
L 93.038461 -55.08941 
L 92.645076 -54.597547 
L 92.254811 -54.105683 
L 91.867213 -53.613819 
L 91.482719 -53.121956 
L 91.102967 -52.630092 
L 90.730768 -52.138228 
L 90.369815 -51.646365 
L 90.024263 -51.154501 
L 89.698322 -50.662637 
L 89.395931 -50.170774 
L 89.12053 -49.67891 
L 88.874858 -49.187046 
L 88.660732 -48.695182 
L 88.478819 -48.203319 
L 88.328456 -47.711455 
L 88.207625 -47.219591 
L 88.11314 -46.727728 
L 88.041026 -46.235864 
L 87.987017 -45.744 
L 87.947035 -45.252137 
L 87.917552 -44.760273 
L 87.895768 -44.268409 
L 87.879612 -43.776546 
L 87.86763 -43.284682 
L 87.85881 -42.792818 
L 87.852431 -42.300955 
L 87.847938 -41.809091 
z
" style="stroke: #5c5c5c"/>
    </defs>
    <g clip-path="url(#p2b1819c5b1)">
     <use xlink:href="#m29396f36c9" x="0" y="126" style="fill: #66aace; stroke: #5c5c5c"/>
    </g>
   </g>
   <g id="FillBetweenPolyCollection_5">
    <defs>
     <path id="md242c97cec" d="M 113.807369 -59.912464 
L 113.712631 -59.912464 
L 113.688674 -60.480752 
L 113.655295 -61.049039 
L 113.610106 -61.617327 
L 113.550677 -62.185614 
L 113.47477 -62.753902 
L 113.38064 -63.322189 
L 113.267348 -63.890476 
L 113.135064 -64.458764 
L 112.985263 -65.027051 
L 112.820761 -65.595339 
L 112.645515 -66.163626 
L 112.464148 -66.731914 
L 112.281196 -67.300201 
L 112.100142 -67.868489 
L 111.922367 -68.436776 
L 111.746206 -69.005063 
L 111.566342 -69.573351 
L 111.373769 -70.141638 
L 111.156502 -70.709926 
L 110.901097 -71.278213 
L 110.594901 -71.846501 
L 110.228775 -72.414788 
L 109.799858 -72.983076 
L 109.313876 -73.551363 
L 108.786456 -74.11965 
L 108.243037 -74.687938 
L 107.717165 -75.256225 
L 107.247254 -75.824513 
L 106.872207 -76.3928 
L 106.626507 -76.961088 
L 106.535582 -77.529375 
L 106.612172 -78.097663 
L 106.854315 -78.66595 
L 107.245238 -79.234237 
L 107.755114 -79.802525 
L 108.344321 -80.370812 
L 108.96761 -80.9391 
L 109.578511 -81.507387 
L 110.133358 -82.075675 
L 110.594491 -82.643962 
L 110.93245 -83.21225 
L 111.127161 -83.780537 
L 111.168318 -84.348825 
L 111.055209 -84.917112 
L 110.796216 -85.485399 
L 110.408097 -86.053687 
L 109.915096 -86.621974 
L 109.347753 -87.190262 
L 108.741332 -87.758549 
L 108.133783 -88.326837 
L 107.563264 -88.895124 
L 107.065412 -89.463412 
L 106.670643 -90.031699 
L 106.401834 -90.599986 
L 106.272736 -91.168274 
L 106.287351 -91.736561 
L 106.440344 -92.304849 
L 106.718392 -92.873136 
L 107.102196 -93.441424 
L 107.568807 -94.009711 
L 108.093896 -94.577999 
L 108.653658 -95.146286 
L 109.226184 -95.714573 
L 109.792248 -96.282861 
L 110.335578 -96.851148 
L 110.842788 -97.419436 
L 111.303111 -97.987723 
L 111.708118 -98.556011 
L 112.051505 -99.124298 
L 112.329007 -99.692586 
L 112.538432 -100.260873 
L 112.679785 -100.82916 
L 112.755433 -101.397448 
L 112.770243 -101.965735 
L 112.731648 -102.534023 
L 112.649557 -103.10231 
L 112.536067 -103.670598 
L 112.404925 -104.238885 
L 112.270735 -104.807173 
L 112.147944 -105.37546 
L 112.049697 -105.943747 
L 111.986702 -106.512035 
L 111.966274 -107.080322 
L 111.991699 -107.64861 
L 112.062067 -108.216897 
L 112.172576 -108.785185 
L 112.315305 -109.353472 
L 112.480301 -109.92176 
L 112.656819 -110.490047 
L 112.83453 -111.058334 
L 113.004503 -111.626622 
L 113.159877 -112.194909 
L 113.296156 -112.763197 
L 113.411169 -113.331484 
L 113.504753 -113.899772 
L 113.57828 -114.468059 
L 113.634127 -115.036347 
L 113.67517 -115.604634 
L 113.704379 -116.172922 
L 113.815621 -116.172922 
L 113.815621 -116.172922 
L 113.84483 -115.604634 
L 113.885873 -115.036347 
L 113.94172 -114.468059 
L 114.015247 -113.899772 
L 114.108831 -113.331484 
L 114.223844 -112.763197 
L 114.360123 -112.194909 
L 114.515497 -111.626622 
L 114.68547 -111.058334 
L 114.863181 -110.490047 
L 115.039699 -109.92176 
L 115.204695 -109.353472 
L 115.347424 -108.785185 
L 115.457933 -108.216897 
L 115.528301 -107.64861 
L 115.553726 -107.080322 
L 115.533298 -106.512035 
L 115.470303 -105.943747 
L 115.372056 -105.37546 
L 115.249265 -104.807173 
L 115.115075 -104.238885 
L 114.983933 -103.670598 
L 114.870443 -103.10231 
L 114.788352 -102.534023 
L 114.749757 -101.965735 
L 114.764567 -101.397448 
L 114.840215 -100.82916 
L 114.981568 -100.260873 
L 115.190993 -99.692586 
L 115.468495 -99.124298 
L 115.811882 -98.556011 
L 116.216889 -97.987723 
L 116.677212 -97.419436 
L 117.184422 -96.851148 
L 117.727752 -96.282861 
L 118.293816 -95.714573 
L 118.866342 -95.146286 
L 119.426104 -94.577999 
L 119.951193 -94.009711 
L 120.417804 -93.441424 
L 120.801608 -92.873136 
L 121.079656 -92.304849 
L 121.232649 -91.736561 
L 121.247264 -91.168274 
L 121.118166 -90.599986 
L 120.849357 -90.031699 
L 120.454588 -89.463412 
L 119.956736 -88.895124 
L 119.386217 -88.326837 
L 118.778668 -87.758549 
L 118.172247 -87.190262 
L 117.604904 -86.621974 
L 117.111903 -86.053687 
L 116.723784 -85.485399 
L 116.464791 -84.917112 
L 116.351682 -84.348825 
L 116.392839 -83.780537 
L 116.58755 -83.21225 
L 116.925509 -82.643962 
L 117.386642 -82.075675 
L 117.941489 -81.507387 
L 118.55239 -80.9391 
L 119.175679 -80.370812 
L 119.764886 -79.802525 
L 120.274762 -79.234237 
L 120.665685 -78.66595 
L 120.907828 -78.097663 
L 120.984418 -77.529375 
L 120.893493 -76.961088 
L 120.647793 -76.3928 
L 120.272746 -75.824513 
L 119.802835 -75.256225 
L 119.276963 -74.687938 
L 118.733544 -74.11965 
L 118.206124 -73.551363 
L 117.720142 -72.983076 
L 117.291225 -72.414788 
L 116.925099 -71.846501 
L 116.618903 -71.278213 
L 116.363498 -70.709926 
L 116.146231 -70.141638 
L 115.953658 -69.573351 
L 115.773794 -69.005063 
L 115.597633 -68.436776 
L 115.419858 -67.868489 
L 115.238804 -67.300201 
L 115.055852 -66.731914 
L 114.874485 -66.163626 
L 114.699239 -65.595339 
L 114.534737 -65.027051 
L 114.384936 -64.458764 
L 114.252652 -63.890476 
L 114.13936 -63.322189 
L 114.04523 -62.753902 
L 113.969323 -62.185614 
L 113.909894 -61.617327 
L 113.864705 -61.049039 
L 113.831326 -60.480752 
L 113.807369 -59.912464 
z
" style="stroke: #5c5c5c"/>
    </defs>
    <g clip-path="url(#p2b1819c5b1)">
     <use xlink:href="#md242c97cec" x="0" y="126" style="fill: #9acad5; stroke: #5c5c5c"/>
    </g>
   </g>
   <g id="FillBetweenPolyCollection_6">
    <defs>
     <path id="m4dbdd03504" d="M 131.068798 -55.166384 
L 131.011202 -55.166384 
L 130.994678 -55.777661 
L 130.971031 -56.388938 
L 130.93845 -57.000215 
L 130.895222 -57.611492 
L 130.839992 -58.22277 
L 130.772059 -58.834047 
L 130.691654 -59.445324 
L 130.600157 -60.056601 
L 130.500181 -60.667878 
L 130.395492 -61.279155 
L 130.290715 -61.890433 
L 130.190841 -62.50171 
L 130.100589 -63.112987 
L 130.023685 -63.724264 
L 129.962205 -64.335541 
L 129.916092 -64.946818 
L 129.88298 -65.558095 
L 129.858374 -66.169373 
L 129.836202 -66.78065 
L 129.809635 -67.391927 
L 129.772031 -68.003204 
L 129.717823 -68.614481 
L 129.643194 -69.225758 
L 129.54643 -69.837036 
L 129.42794 -70.448313 
L 129.289995 -71.05959 
L 129.136286 -71.670867 
L 128.97143 -72.282144 
L 128.800515 -72.893421 
L 128.62873 -73.504699 
L 128.461108 -74.115976 
L 128.30234 -74.727253 
L 128.156634 -75.33853 
L 128.027546 -75.949807 
L 127.917758 -76.561084 
L 127.828752 -77.172361 
L 127.760387 -77.783639 
L 127.710446 -78.394916 
L 127.674263 -79.006193 
L 127.644606 -79.61747 
L 127.611985 -80.228747 
L 127.565498 -80.840024 
L 127.49418 -81.451302 
L 127.388674 -82.062579 
L 127.242902 -82.673856 
L 127.055365 -83.285133 
L 126.82975 -83.89641 
L 126.574688 -84.507687 
L 126.302683 -85.118965 
L 126.028436 -85.730242 
L 125.766881 -86.341519 
L 125.531308 -86.952796 
L 125.331855 -87.564073 
L 125.174621 -88.17535 
L 125.061472 -88.786627 
L 124.990544 -89.397905 
L 124.957311 -90.009182 
L 124.955998 -90.620459 
L 124.981091 -91.231736 
L 125.028626 -91.843013 
L 125.097053 -92.45429 
L 125.187478 -93.065568 
L 125.303251 -93.676845 
L 125.448963 -94.288122 
L 125.629029 -94.899399 
L 125.846128 -95.510676 
L 126.099827 -96.121953 
L 126.385705 -96.733231 
L 126.695235 -97.344508 
L 127.016532 -97.955785 
L 127.335862 -98.567062 
L 127.639643 -99.178339 
L 127.916507 -99.789616 
L 128.158966 -100.400893 
L 128.364352 -101.012171 
L 128.534858 -101.623448 
L 128.676743 -102.234725 
L 128.798937 -102.846002 
L 128.911382 -103.457279 
L 129.023427 -104.068556 
L 129.142553 -104.679834 
L 129.27355 -105.291111 
L 129.418216 -105.902388 
L 129.575509 -106.513665 
L 129.742054 -107.124942 
L 129.912894 -107.736219 
L 130.08232 -108.347497 
L 130.244679 -108.958774 
L 130.395046 -109.570051 
L 130.529695 -110.181328 
L 130.646329 -110.792605 
L 130.744098 -111.403882 
L 130.823435 -112.01516 
L 130.885769 -112.626437 
L 130.93319 -113.237714 
L 130.968118 -113.848991 
L 130.993023 -114.460268 
L 131.010208 -115.071545 
L 131.021679 -115.682822 
L 131.058321 -115.682822 
L 131.058321 -115.682822 
L 131.069792 -115.071545 
L 131.086977 -114.460268 
L 131.111882 -113.848991 
L 131.14681 -113.237714 
L 131.194231 -112.626437 
L 131.256565 -112.01516 
L 131.335902 -111.403882 
L 131.433671 -110.792605 
L 131.550305 -110.181328 
L 131.684954 -109.570051 
L 131.835321 -108.958774 
L 131.99768 -108.347497 
L 132.167106 -107.736219 
L 132.337946 -107.124942 
L 132.504491 -106.513665 
L 132.661784 -105.902388 
L 132.80645 -105.291111 
L 132.937447 -104.679834 
L 133.056573 -104.068556 
L 133.168618 -103.457279 
L 133.281063 -102.846002 
L 133.403257 -102.234725 
L 133.545142 -101.623448 
L 133.715648 -101.012171 
L 133.921034 -100.400893 
L 134.163493 -99.789616 
L 134.440357 -99.178339 
L 134.744138 -98.567062 
L 135.063468 -97.955785 
L 135.384765 -97.344508 
L 135.694295 -96.733231 
L 135.980173 -96.121953 
L 136.233872 -95.510676 
L 136.450971 -94.899399 
L 136.631037 -94.288122 
L 136.776749 -93.676845 
L 136.892522 -93.065568 
L 136.982947 -92.45429 
L 137.051374 -91.843013 
L 137.098909 -91.231736 
L 137.124002 -90.620459 
L 137.122689 -90.009182 
L 137.089456 -89.397905 
L 137.018528 -88.786627 
L 136.905379 -88.17535 
L 136.748145 -87.564073 
L 136.548692 -86.952796 
L 136.313119 -86.341519 
L 136.051564 -85.730242 
L 135.777317 -85.118965 
L 135.505312 -84.507687 
L 135.25025 -83.89641 
L 135.024635 -83.285133 
L 134.837098 -82.673856 
L 134.691326 -82.062579 
L 134.58582 -81.451302 
L 134.514502 -80.840024 
L 134.468015 -80.228747 
L 134.435394 -79.61747 
L 134.405737 -79.006193 
L 134.369554 -78.394916 
L 134.319613 -77.783639 
L 134.251248 -77.172361 
L 134.162242 -76.561084 
L 134.052454 -75.949807 
L 133.923366 -75.33853 
L 133.77766 -74.727253 
L 133.618892 -74.115976 
L 133.45127 -73.504699 
L 133.279485 -72.893421 
L 133.10857 -72.282144 
L 132.943714 -71.670867 
L 132.790005 -71.05959 
L 132.65206 -70.448313 
L 132.53357 -69.837036 
L 132.436806 -69.225758 
L 132.362177 -68.614481 
L 132.307969 -68.003204 
L 132.270365 -67.391927 
L 132.243798 -66.78065 
L 132.221626 -66.169373 
L 132.19702 -65.558095 
L 132.163908 -64.946818 
L 132.117795 -64.335541 
L 132.056315 -63.724264 
L 131.979411 -63.112987 
L 131.889159 -62.50171 
L 131.789285 -61.890433 
L 131.684508 -61.279155 
L 131.579819 -60.667878 
L 131.479843 -60.056601 
L 131.388346 -59.445324 
L 131.307941 -58.834047 
L 131.240008 -58.22277 
L 131.184778 -57.611492 
L 131.14155 -57.000215 
L 131.108969 -56.388938 
L 131.085322 -55.777661 
L 131.068798 -55.166384 
z
" style="stroke: #5c5c5c"/>
    </defs>
    <g clip-path="url(#p2b1819c5b1)">
     <use xlink:href="#m4dbdd03504" x="0" y="126" style="fill: #66aace; stroke: #5c5c5c"/>
    </g>
   </g>
   <g id="patch_3">
    <path d="M 36 64.985363 
L 36 64.985363 
L 36 64.985363 
L 36 64.985363 
z
" clip-path="url(#p2b1819c5b1)" style="fill: #9acad5; stroke: #5c5c5c; stroke-linejoin: miter"/>
   </g>
   <g id="patch_4">
    <path d="M 36 64.985363 
L 36 64.985363 
L 36 64.985363 
L 36 64.985363 
z
" clip-path="url(#p2b1819c5b1)" style="fill: #66aace; stroke: #5c5c5c; stroke-linejoin: miter"/>
   </g>
   <g id="LineCollection_1">
    <path d="M -1 64.985363 
L 145 64.985363 
" clip-path="url(#p2b1819c5b1)" style="fill: none; stroke-dasharray: 4.44,1.92; stroke-dashoffset: 0; stroke: #1a1a1a; stroke-width: 1.2"/>
   </g>
   <g id="line2d_7">
    <path d="M 27.36 62.845601 
L 27.36 26.546077 
" clip-path="url(#p2b1819c5b1)" style="fill: none; stroke: #5c5c5c; stroke-width: 1.5; stroke-linecap: round"/>
   </g>
   <g id="line2d_8">
    <path d="M 27.36 54.514862 
L 27.36 42.460268 
" clip-path="url(#p2b1819c5b1)" style="fill: none; stroke: #5c5c5c; stroke-width: 4.5; stroke-linecap: round"/>
   </g>
   <g id="line2d_9">
    <path d="M 27.36 46.975811 
" clip-path="url(#p2b1819c5b1)" style="fill: none; stroke: #5c5c5c; stroke-width: 1.2; stroke-linecap: round"/>
    <defs>
     <path id="m96fbbcab4e" d="M 1.875 0 
L -1.875 -0 
" style="stroke: #ffffff; stroke-width: 0.9"/>
    </defs>
    <g clip-path="url(#p2b1819c5b1)">
     <use xlink:href="#m96fbbcab4e" x="27.36" y="46.975811" style="fill: #ffffff; stroke: #ffffff; stroke-width: 0.9"/>
    </g>
   </g>
   <g id="line2d_10">
    <path d="M 44.64 72.25558 
L 44.64 13.890949 
" clip-path="url(#p2b1819c5b1)" style="fill: none; stroke: #5c5c5c; stroke-width: 1.5; stroke-linecap: round"/>
   </g>
   <g id="line2d_11">
    <path d="M 44.64 63.413325 
L 44.64 30.40487 
" clip-path="url(#p2b1819c5b1)" style="fill: none; stroke: #5c5c5c; stroke-width: 4.5; stroke-linecap: round"/>
   </g>
   <g id="line2d_12">
    <path d="M 44.64 51.975995 
" clip-path="url(#p2b1819c5b1)" style="fill: none; stroke: #5c5c5c; stroke-width: 1.2; stroke-linecap: round"/>
    <g clip-path="url(#p2b1819c5b1)">
     <use xlink:href="#m96fbbcab4e" x="44.64" y="51.975995" style="fill: #ffffff; stroke: #ffffff; stroke-width: 0.9"/>
    </g>
   </g>
   <g id="line2d_13">
    <path d="M 70.56 70.123745 
L 70.56 34.435999 
" clip-path="url(#p2b1819c5b1)" style="fill: none; stroke: #5c5c5c; stroke-width: 1.5; stroke-linecap: round"/>
   </g>
   <g id="line2d_14">
    <path d="M 70.56 60.978265 
L 70.56 47.202898 
" clip-path="url(#p2b1819c5b1)" style="fill: none; stroke: #5c5c5c; stroke-width: 4.5; stroke-linecap: round"/>
   </g>
   <g id="line2d_15">
    <path d="M 70.56 55.717828 
" clip-path="url(#p2b1819c5b1)" style="fill: none; stroke: #5c5c5c; stroke-width: 1.2; stroke-linecap: round"/>
    <g clip-path="url(#p2b1819c5b1)">
     <use xlink:href="#m96fbbcab4e" x="70.56" y="55.717828" style="fill: #ffffff; stroke: #ffffff; stroke-width: 0.9"/>
    </g>
   </g>
   <g id="line2d_16">
    <path d="M 87.84 79.697362 
L 87.84 42.773407 
" clip-path="url(#p2b1819c5b1)" style="fill: none; stroke: #5c5c5c; stroke-width: 1.5; stroke-linecap: round"/>
   </g>
   <g id="line2d_17">
    <path d="M 87.84 67.535409 
L 87.84 57.460525 
" clip-path="url(#p2b1819c5b1)" style="fill: none; stroke: #5c5c5c; stroke-width: 4.5; stroke-linecap: round"/>
   </g>
   <g id="line2d_18">
    <path d="M 87.84 63.616204 
" clip-path="url(#p2b1819c5b1)" style="fill: none; stroke: #5c5c5c; stroke-width: 1.2; stroke-linecap: round"/>
    <g clip-path="url(#p2b1819c5b1)">
     <use xlink:href="#m96fbbcab4e" x="87.84" y="63.616204" style="fill: #ffffff; stroke: #ffffff; stroke-width: 0.9"/>
    </g>
   </g>
   <g id="line2d_19">
    <path d="M 113.76 59.538596 
L 113.76 16.376018 
" clip-path="url(#p2b1819c5b1)" style="fill: none; stroke: #5c5c5c; stroke-width: 1.5; stroke-linecap: round"/>
   </g>
   <g id="line2d_20">
    <path d="M 113.76 48.450842 
L 113.76 33.816064 
" clip-path="url(#p2b1819c5b1)" style="fill: none; stroke: #5c5c5c; stroke-width: 4.5; stroke-linecap: round"/>
   </g>
   <g id="line2d_21">
    <path d="M 113.76 36.993766 
" clip-path="url(#p2b1819c5b1)" style="fill: none; stroke: #5c5c5c; stroke-width: 1.2; stroke-linecap: round"/>
    <g clip-path="url(#p2b1819c5b1)">
     <use xlink:href="#m96fbbcab4e" x="113.76" y="36.993766" style="fill: #ffffff; stroke: #ffffff; stroke-width: 0.9"/>
    </g>
   </g>
   <g id="line2d_22">
    <path d="M 131.04 64.762811 
L 131.04 16.387983 
" clip-path="url(#p2b1819c5b1)" style="fill: none; stroke: #5c5c5c; stroke-width: 1.5; stroke-linecap: round"/>
   </g>
   <g id="line2d_23">
    <path d="M 131.04 45.85199 
L 131.04 30.922103 
" clip-path="url(#p2b1819c5b1)" style="fill: none; stroke: #5c5c5c; stroke-width: 4.5; stroke-linecap: round"/>
   </g>
   <g id="line2d_24">
    <path d="M 131.04 37.322103 
" clip-path="url(#p2b1819c5b1)" style="fill: none; stroke: #5c5c5c; stroke-width: 1.2; stroke-linecap: round"/>
    <g clip-path="url(#p2b1819c5b1)">
     <use xlink:href="#m96fbbcab4e" x="131.04" y="37.322103" style="fill: #ffffff; stroke: #ffffff; stroke-width: 0.9"/>
    </g>
   </g>
   <g id="patch_5">
    <path d="M 14.4 88.2 
L 14.4 0 
" style="fill: none; stroke: #262626; stroke-linejoin: miter; stroke-linecap: square"/>
   </g>
   <g id="patch_6">
    <path d="M 14.4 88.2 
L 144 88.2 
" style="fill: none; stroke: #262626; stroke-linejoin: miter; stroke-linecap: square"/>
   </g>
   <g id="legend_1">
    <g id="patch_7">
     <path d="M 150.16 45.330875 
L 207.188125 45.330875 
Q 208.948125 45.330875 208.948125 43.570875 
L 208.948125 6.16 
Q 208.948125 4.4 207.188125 4.4 
L 150.16 4.4 
Q 148.4 4.4 148.4 6.16 
L 148.4 43.570875 
Q 148.4 45.330875 150.16 45.330875 
z
" style="fill: #ffffff; opacity: 0.8; stroke: #cccccc; stroke-width: 0.8; stroke-linejoin: miter"/>
    </g>
    <g id="text_9">
     <text style="font-size: 9.6px; font-family: 'Arial'; text-anchor: start; fill: #262626" x="163.466313" y="14.7915" transform="rotate(-0 163.466313 14.7915)">subject</text>
    </g>
    <g id="patch_8">
     <path d="M 151.92 27.510875 
L 169.52 27.510875 
L 169.52 21.350875 
L 151.92 21.350875 
z
" style="fill: #9acad5; stroke: #5c5c5c; stroke-linejoin: miter"/>
    </g>
    <g id="text_10">
     <text style="font-size: 8.8px; font-family: 'Arial'; text-anchor: start; fill: #262626" x="176.56" y="27.510875" transform="rotate(-0 176.56 27.510875)">affi</text>
    </g>
    <g id="patch_9">
     <path d="M 151.92 39.95875 
L 169.52 39.95875 
L 169.52 33.79875 
L 151.92 33.79875 
z
" style="fill: #66aace; stroke: #5c5c5c; stroke-linejoin: miter"/>
    </g>
    <g id="text_11">
     <text style="font-size: 8.8px; font-family: 'Arial'; text-anchor: start; fill: #262626" x="176.56" y="39.95875" transform="rotate(-0 176.56 39.95875)">beignet</text>
    </g>
   </g>
  </g>
 </g>
 <defs>
  <clipPath id="p2b1819c5b1">
   <rect x="14.4" y="0" width="129.6" height="88.2"/>
  </clipPath>
 </defs>
</svg>
