<?xml version="1.0" encoding="utf-8" standalone="no"?>
<!DOCTYPE svg PUBLIC "-//W3C//DTD SVG 1.1//EN"
  "http://www.w3.org/Graphics/SVG/1.1/DTD/svg11.dtd">
<svg xmlns:xlink="http://www.w3.org/1999/xlink" width="234pt" height="90pt" viewBox="0 0 234 90" xmlns="http://www.w3.org/2000/svg" version="1.1">
 <metadata>
  <rdf:RDF xmlns:dc="http://purl.org/dc/elements/1.1/" xmlns:cc="http://creativecommons.org/ns#" xmlns:rdf="http://www.w3.org/1999/02/22-rdf-syntax-ns#">
   <cc:Work>
    <dc:type rdf:resource="http://purl.org/dc/dcmitype/StillImage"/>
    <dc:date>2026-03-19T12:42:38.449453</dc:date>
    <dc:format>image/svg+xml</dc:format>
    <dc:creator>
     <cc:Agent>
      <dc:title>Matplotlib v3.10.7, https://matplotlib.org/</dc:title>
     </cc:Agent>
    </dc:creator>
   </cc:Work>
  </rdf:RDF>
 </metadata>
 <defs>
  <style type="text/css">*{stroke-linejoin: round; stroke-linecap: butt}</style>
 </defs>
 <g id="figure_1">
  <g id="patch_1">
   <path d="M 0 90 
L 234 90 
L 234 0 
L 0 0 
L 0 90 
z
" style="fill: none"/>
  </g>
  <g id="axes_1">
   <g id="patch_2">
    <path d="M 35.775 63 
L 98.775 63 
L 98.775 0 
L 35.775 0 
L 35.775 63 
z
" style="fill: none"/>
   </g>
   <g id="LineCollection_1">
    <path d="M 79.628728 31.150729 
L 84.288563 31.150729 
" clip-path="url(#p1d2b16c346)" style="fill: none; stroke: #808080; stroke-opacity: 0.7; stroke-width: 1.2"/>
    <path d="M 80.894339 34.029383 
L 84.829387 34.029383 
" clip-path="url(#p1d2b16c346)" style="fill: none; stroke: #808080; stroke-opacity: 0.7; stroke-width: 1.2"/>
    <path d="M 65.052231 31.757312 
L 72.578992 31.757312 
" clip-path="url(#p1d2b16c346)" style="fill: none; stroke: #808080; stroke-opacity: 0.7; stroke-width: 1.2"/>
    <path d="M 74.359607 29.677683 
L 86.370415 29.677683 
" clip-path="url(#p1d2b16c346)" style="fill: none; stroke: #808080; stroke-opacity: 0.7; stroke-width: 1.2"/>
    <path d="M 82.60871 35.764898 
L 86.406266 35.764898 
" clip-path="url(#p1d2b16c346)" style="fill: none; stroke: #808080; stroke-opacity: 0.7; stroke-width: 1.2"/>
    <path d="M 82.841245 30.236797 
L 86.88481 30.236797 
" clip-path="url(#p1d2b16c346)" style="fill: none; stroke: #808080; stroke-opacity: 0.7; stroke-width: 1.2"/>
    <path d="M 71.176099 29.415375 
L 78.191008 29.415375 
" clip-path="url(#p1d2b16c346)" style="fill: none; stroke: #808080; stroke-opacity: 0.7; stroke-width: 1.2"/>
    <path d="M 76.822751 50.296056 
L 81.771193 50.296056 
" clip-path="url(#p1d2b16c346)" style="fill: none; stroke: #808080; stroke-opacity: 0.7; stroke-width: 1.2"/>
    <path d="M 81.297989 27.443474 
L 86.717765 27.443474 
" clip-path="url(#p1d2b16c346)" style="fill: none; stroke: #808080; stroke-opacity: 0.7; stroke-width: 1.2"/>
    <path d="M 84.196187 29.238515 
L 86.877098 29.238515 
" clip-path="url(#p1d2b16c346)" style="fill: none; stroke: #808080; stroke-opacity: 0.7; stroke-width: 1.2"/>
    <path d="M 82.287506 39.273414 
L 88.01649 39.273414 
" clip-path="url(#p1d2b16c346)" style="fill: none; stroke: #808080; stroke-opacity: 0.7; stroke-width: 1.2"/>
    <path d="M 80.414149 24.559177 
L 88.065906 24.559177 
" clip-path="url(#p1d2b16c346)" style="fill: none; stroke: #808080; stroke-opacity: 0.7; stroke-width: 1.2"/>
    <path d="M 83.777662 29.80371 
L 88.440431 29.80371 
" clip-path="url(#p1d2b16c346)" style="fill: none; stroke: #808080; stroke-opacity: 0.7; stroke-width: 1.2"/>
    <path d="M 83.949215 32.634058 
L 87.182385 32.634058 
" clip-path="url(#p1d2b16c346)" style="fill: none; stroke: #808080; stroke-opacity: 0.7; stroke-width: 1.2"/>
    <path d="M 84.950399 40.280747 
L 88.368754 40.280747 
" clip-path="url(#p1d2b16c346)" style="fill: none; stroke: #808080; stroke-opacity: 0.7; stroke-width: 1.2"/>
    <path d="M 84.381138 28.463493 
L 87.484629 28.463493 
" clip-path="url(#p1d2b16c346)" style="fill: none; stroke: #808080; stroke-opacity: 0.7; stroke-width: 1.2"/>
    <path d="M 92.244018 24.300352 
L 92.793428 24.300352 
" clip-path="url(#p1d2b16c346)" style="fill: none; stroke: #808080; stroke-opacity: 0.7; stroke-width: 1.2"/>
    <path d="M 86.890328 27.334458 
L 89.264938 27.334458 
" clip-path="url(#p1d2b16c346)" style="fill: none; stroke: #808080; stroke-opacity: 0.7; stroke-width: 1.2"/>
    <path d="M 80.193999 46.353729 
L 86.341401 46.353729 
" clip-path="url(#p1d2b16c346)" style="fill: none; stroke: #808080; stroke-opacity: 0.7; stroke-width: 1.2"/>
    <path d="M 77.854678 44.303011 
L 82.011424 44.303011 
" clip-path="url(#p1d2b16c346)" style="fill: none; stroke: #808080; stroke-opacity: 0.7; stroke-width: 1.2"/>
    <path d="M 79.987415 17.063059 
L 84.548163 17.063059 
" clip-path="url(#p1d2b16c346)" style="fill: none; stroke: #808080; stroke-opacity: 0.7; stroke-width: 1.2"/>
   </g>
   <g id="LineCollection_2">
    <path d="M 81.958645 32.241895 
L 81.958645 30.059563 
" clip-path="url(#p1d2b16c346)" style="fill: none; stroke: #808080; stroke-opacity: 0.7; stroke-width: 1.2"/>
    <path d="M 82.861863 35.131528 
L 82.861863 32.927239 
" clip-path="url(#p1d2b16c346)" style="fill: none; stroke: #808080; stroke-opacity: 0.7; stroke-width: 1.2"/>
    <path d="M 68.815611 33.690318 
L 68.815611 29.824306 
" clip-path="url(#p1d2b16c346)" style="fill: none; stroke: #808080; stroke-opacity: 0.7; stroke-width: 1.2"/>
    <path d="M 80.365011 39.383255 
L 80.365011 19.972111 
" clip-path="url(#p1d2b16c346)" style="fill: none; stroke: #808080; stroke-opacity: 0.7; stroke-width: 1.2"/>
    <path d="M 84.507488 41.408946 
L 84.507488 30.12085 
" clip-path="url(#p1d2b16c346)" style="fill: none; stroke: #808080; stroke-opacity: 0.7; stroke-width: 1.2"/>
    <path d="M 84.863028 32.805806 
L 84.863028 27.667788 
" clip-path="url(#p1d2b16c346)" style="fill: none; stroke: #808080; stroke-opacity: 0.7; stroke-width: 1.2"/>
    <path d="M 74.683553 31.530845 
L 74.683553 27.299905 
" clip-path="url(#p1d2b16c346)" style="fill: none; stroke: #808080; stroke-opacity: 0.7; stroke-width: 1.2"/>
    <path d="M 79.296972 51.882149 
L 79.296972 48.709962 
" clip-path="url(#p1d2b16c346)" style="fill: none; stroke: #808080; stroke-opacity: 0.7; stroke-width: 1.2"/>
    <path d="M 84.007877 39.147897 
L 84.007877 15.73905 
" clip-path="url(#p1d2b16c346)" style="fill: none; stroke: #808080; stroke-opacity: 0.7; stroke-width: 1.2"/>
    <path d="M 85.536642 30.798423 
L 85.536642 27.678606 
" clip-path="url(#p1d2b16c346)" style="fill: none; stroke: #808080; stroke-opacity: 0.7; stroke-width: 1.2"/>
    <path d="M 85.151998 40.836759 
L 85.151998 37.710068 
" clip-path="url(#p1d2b16c346)" style="fill: none; stroke: #808080; stroke-opacity: 0.7; stroke-width: 1.2"/>
    <path d="M 84.240027 25.830223 
L 84.240027 23.288132 
" clip-path="url(#p1d2b16c346)" style="fill: none; stroke: #808080; stroke-opacity: 0.7; stroke-width: 1.2"/>
    <path d="M 86.109046 30.832836 
L 86.109046 28.774584 
" clip-path="url(#p1d2b16c346)" style="fill: none; stroke: #808080; stroke-opacity: 0.7; stroke-width: 1.2"/>
    <path d="M 85.5658 39.082788 
L 85.5658 26.185328 
" clip-path="url(#p1d2b16c346)" style="fill: none; stroke: #808080; stroke-opacity: 0.7; stroke-width: 1.2"/>
    <path d="M 86.659577 40.909226 
L 86.659577 39.652269 
" clip-path="url(#p1d2b16c346)" style="fill: none; stroke: #808080; stroke-opacity: 0.7; stroke-width: 1.2"/>
    <path d="M 85.932883 29.293919 
L 85.932883 27.633067 
" clip-path="url(#p1d2b16c346)" style="fill: none; stroke: #808080; stroke-opacity: 0.7; stroke-width: 1.2"/>
    <path d="M 92.518723 24.537527 
L 92.518723 24.063177 
" clip-path="url(#p1d2b16c346)" style="fill: none; stroke: #808080; stroke-opacity: 0.7; stroke-width: 1.2"/>
    <path d="M 88.077633 27.957064 
L 88.077633 26.711852 
" clip-path="url(#p1d2b16c346)" style="fill: none; stroke: #808080; stroke-opacity: 0.7; stroke-width: 1.2"/>
    <path d="M 83.2677 47.557729 
L 83.2677 45.149729 
" clip-path="url(#p1d2b16c346)" style="fill: none; stroke: #808080; stroke-opacity: 0.7; stroke-width: 1.2"/>
    <path d="M 79.933051 45.577256 
L 79.933051 43.028766 
" clip-path="url(#p1d2b16c346)" style="fill: none; stroke: #808080; stroke-opacity: 0.7; stroke-width: 1.2"/>
    <path d="M 82.267789 18.505216 
L 82.267789 15.620903 
" clip-path="url(#p1d2b16c346)" style="fill: none; stroke: #808080; stroke-opacity: 0.7; stroke-width: 1.2"/>
   </g>
   <g id="line2d_1">
    <defs>
     <path id="m7c1367b191" d="M 0 2 
L 0 -2 
" style="stroke: #808080; stroke-opacity: 0.7"/>
    </defs>
    <g clip-path="url(#p1d2b16c346)">
     <use xlink:href="#m7c1367b191" x="79.628728" y="31.150729" style="fill: #4c72b0; fill-opacity: 0.7; stroke: #808080; stroke-opacity: 0.7"/>
     <use xlink:href="#m7c1367b191" x="80.894339" y="34.029383" style="fill: #4c72b0; fill-opacity: 0.7; stroke: #808080; stroke-opacity: 0.7"/>
     <use xlink:href="#m7c1367b191" x="65.052231" y="31.757312" style="fill: #4c72b0; fill-opacity: 0.7; stroke: #808080; stroke-opacity: 0.7"/>
     <use xlink:href="#m7c1367b191" x="74.359607" y="29.677683" style="fill: #4c72b0; fill-opacity: 0.7; stroke: #808080; stroke-opacity: 0.7"/>
     <use xlink:href="#m7c1367b191" x="82.60871" y="35.764898" style="fill: #4c72b0; fill-opacity: 0.7; stroke: #808080; stroke-opacity: 0.7"/>
     <use xlink:href="#m7c1367b191" x="82.841245" y="30.236797" style="fill: #4c72b0; fill-opacity: 0.7; stroke: #808080; stroke-opacity: 0.7"/>
     <use xlink:href="#m7c1367b191" x="71.176099" y="29.415375" style="fill: #4c72b0; fill-opacity: 0.7; stroke: #808080; stroke-opacity: 0.7"/>
     <use xlink:href="#m7c1367b191" x="76.822751" y="50.296056" style="fill: #4c72b0; fill-opacity: 0.7; stroke: #808080; stroke-opacity: 0.7"/>
     <use xlink:href="#m7c1367b191" x="81.297989" y="27.443474" style="fill: #4c72b0; fill-opacity: 0.7; stroke: #808080; stroke-opacity: 0.7"/>
     <use xlink:href="#m7c1367b191" x="84.196187" y="29.238515" style="fill: #4c72b0; fill-opacity: 0.7; stroke: #808080; stroke-opacity: 0.7"/>
     <use xlink:href="#m7c1367b191" x="82.287506" y="39.273414" style="fill: #4c72b0; fill-opacity: 0.7; stroke: #808080; stroke-opacity: 0.7"/>
     <use xlink:href="#m7c1367b191" x="80.414149" y="24.559177" style="fill: #4c72b0; fill-opacity: 0.7; stroke: #808080; stroke-opacity: 0.7"/>
     <use xlink:href="#m7c1367b191" x="83.777662" y="29.80371" style="fill: #4c72b0; fill-opacity: 0.7; stroke: #808080; stroke-opacity: 0.7"/>
     <use xlink:href="#m7c1367b191" x="83.949215" y="32.634058" style="fill: #4c72b0; fill-opacity: 0.7; stroke: #808080; stroke-opacity: 0.7"/>
     <use xlink:href="#m7c1367b191" x="84.950399" y="40.280747" style="fill: #4c72b0; fill-opacity: 0.7; stroke: #808080; stroke-opacity: 0.7"/>
     <use xlink:href="#m7c1367b191" x="84.381138" y="28.463493" style="fill: #4c72b0; fill-opacity: 0.7; stroke: #808080; stroke-opacity: 0.7"/>
     <use xlink:href="#m7c1367b191" x="92.244018" y="24.300352" style="fill: #4c72b0; fill-opacity: 0.7; stroke: #808080; stroke-opacity: 0.7"/>
     <use xlink:href="#m7c1367b191" x="86.890328" y="27.334458" style="fill: #4c72b0; fill-opacity: 0.7; stroke: #808080; stroke-opacity: 0.7"/>
     <use xlink:href="#m7c1367b191" x="80.193999" y="46.353729" style="fill: #4c72b0; fill-opacity: 0.7; stroke: #808080; stroke-opacity: 0.7"/>
     <use xlink:href="#m7c1367b191" x="77.854678" y="44.303011" style="fill: #4c72b0; fill-opacity: 0.7; stroke: #808080; stroke-opacity: 0.7"/>
     <use xlink:href="#m7c1367b191" x="79.987415" y="17.063059" style="fill: #4c72b0; fill-opacity: 0.7; stroke: #808080; stroke-opacity: 0.7"/>
    </g>
   </g>
   <g id="line2d_2">
    <g clip-path="url(#p1d2b16c346)">
     <use xlink:href="#m7c1367b191" x="84.288563" y="31.150729" style="fill: #4c72b0; fill-opacity: 0.7; stroke: #808080; stroke-opacity: 0.7"/>
     <use xlink:href="#m7c1367b191" x="84.829387" y="34.029383" style="fill: #4c72b0; fill-opacity: 0.7; stroke: #808080; stroke-opacity: 0.7"/>
     <use xlink:href="#m7c1367b191" x="72.578992" y="31.757312" style="fill: #4c72b0; fill-opacity: 0.7; stroke: #808080; stroke-opacity: 0.7"/>
     <use xlink:href="#m7c1367b191" x="86.370415" y="29.677683" style="fill: #4c72b0; fill-opacity: 0.7; stroke: #808080; stroke-opacity: 0.7"/>
     <use xlink:href="#m7c1367b191" x="86.406266" y="35.764898" style="fill: #4c72b0; fill-opacity: 0.7; stroke: #808080; stroke-opacity: 0.7"/>
     <use xlink:href="#m7c1367b191" x="86.88481" y="30.236797" style="fill: #4c72b0; fill-opacity: 0.7; stroke: #808080; stroke-opacity: 0.7"/>
     <use xlink:href="#m7c1367b191" x="78.191008" y="29.415375" style="fill: #4c72b0; fill-opacity: 0.7; stroke: #808080; stroke-opacity: 0.7"/>
     <use xlink:href="#m7c1367b191" x="81.771193" y="50.296056" style="fill: #4c72b0; fill-opacity: 0.7; stroke: #808080; stroke-opacity: 0.7"/>
     <use xlink:href="#m7c1367b191" x="86.717765" y="27.443474" style="fill: #4c72b0; fill-opacity: 0.7; stroke: #808080; stroke-opacity: 0.7"/>
     <use xlink:href="#m7c1367b191" x="86.877098" y="29.238515" style="fill: #4c72b0; fill-opacity: 0.7; stroke: #808080; stroke-opacity: 0.7"/>
     <use xlink:href="#m7c1367b191" x="88.01649" y="39.273414" style="fill: #4c72b0; fill-opacity: 0.7; stroke: #808080; stroke-opacity: 0.7"/>
     <use xlink:href="#m7c1367b191" x="88.065906" y="24.559177" style="fill: #4c72b0; fill-opacity: 0.7; stroke: #808080; stroke-opacity: 0.7"/>
     <use xlink:href="#m7c1367b191" x="88.440431" y="29.80371" style="fill: #4c72b0; fill-opacity: 0.7; stroke: #808080; stroke-opacity: 0.7"/>
     <use xlink:href="#m7c1367b191" x="87.182385" y="32.634058" style="fill: #4c72b0; fill-opacity: 0.7; stroke: #808080; stroke-opacity: 0.7"/>
     <use xlink:href="#m7c1367b191" x="88.368754" y="40.280747" style="fill: #4c72b0; fill-opacity: 0.7; stroke: #808080; stroke-opacity: 0.7"/>
     <use xlink:href="#m7c1367b191" x="87.484629" y="28.463493" style="fill: #4c72b0; fill-opacity: 0.7; stroke: #808080; stroke-opacity: 0.7"/>
     <use xlink:href="#m7c1367b191" x="92.793428" y="24.300352" style="fill: #4c72b0; fill-opacity: 0.7; stroke: #808080; stroke-opacity: 0.7"/>
     <use xlink:href="#m7c1367b191" x="89.264938" y="27.334458" style="fill: #4c72b0; fill-opacity: 0.7; stroke: #808080; stroke-opacity: 0.7"/>
     <use xlink:href="#m7c1367b191" x="86.341401" y="46.353729" style="fill: #4c72b0; fill-opacity: 0.7; stroke: #808080; stroke-opacity: 0.7"/>
     <use xlink:href="#m7c1367b191" x="82.011424" y="44.303011" style="fill: #4c72b0; fill-opacity: 0.7; stroke: #808080; stroke-opacity: 0.7"/>
     <use xlink:href="#m7c1367b191" x="84.548163" y="17.063059" style="fill: #4c72b0; fill-opacity: 0.7; stroke: #808080; stroke-opacity: 0.7"/>
    </g>
   </g>
   <g id="line2d_3">
    <defs>
     <path id="m59e603684e" d="M 2 0 
L -2 -0 
" style="stroke: #808080; stroke-opacity: 0.7"/>
    </defs>
    <g clip-path="url(#p1d2b16c346)">
     <use xlink:href="#m59e603684e" x="81.958645" y="32.241895" style="fill: #4c72b0; fill-opacity: 0.7; stroke: #808080; stroke-opacity: 0.7"/>
     <use xlink:href="#m59e603684e" x="82.861863" y="35.131528" style="fill: #4c72b0; fill-opacity: 0.7; stroke: #808080; stroke-opacity: 0.7"/>
     <use xlink:href="#m59e603684e" x="68.815611" y="33.690318" style="fill: #4c72b0; fill-opacity: 0.7; stroke: #808080; stroke-opacity: 0.7"/>
     <use xlink:href="#m59e603684e" x="80.365011" y="39.383255" style="fill: #4c72b0; fill-opacity: 0.7; stroke: #808080; stroke-opacity: 0.7"/>
     <use xlink:href="#m59e603684e" x="84.507488" y="41.408946" style="fill: #4c72b0; fill-opacity: 0.7; stroke: #808080; stroke-opacity: 0.7"/>
     <use xlink:href="#m59e603684e" x="84.863028" y="32.805806" style="fill: #4c72b0; fill-opacity: 0.7; stroke: #808080; stroke-opacity: 0.7"/>
     <use xlink:href="#m59e603684e" x="74.683553" y="31.530845" style="fill: #4c72b0; fill-opacity: 0.7; stroke: #808080; stroke-opacity: 0.7"/>
     <use xlink:href="#m59e603684e" x="79.296972" y="51.882149" style="fill: #4c72b0; fill-opacity: 0.7; stroke: #808080; stroke-opacity: 0.7"/>
     <use xlink:href="#m59e603684e" x="84.007877" y="39.147897" style="fill: #4c72b0; fill-opacity: 0.7; stroke: #808080; stroke-opacity: 0.7"/>
     <use xlink:href="#m59e603684e" x="85.536642" y="30.798423" style="fill: #4c72b0; fill-opacity: 0.7; stroke: #808080; stroke-opacity: 0.7"/>
     <use xlink:href="#m59e603684e" x="85.151998" y="40.836759" style="fill: #4c72b0; fill-opacity: 0.7; stroke: #808080; stroke-opacity: 0.7"/>
     <use xlink:href="#m59e603684e" x="84.240027" y="25.830223" style="fill: #4c72b0; fill-opacity: 0.7; stroke: #808080; stroke-opacity: 0.7"/>
     <use xlink:href="#m59e603684e" x="86.109046" y="30.832836" style="fill: #4c72b0; fill-opacity: 0.7; stroke: #808080; stroke-opacity: 0.7"/>
     <use xlink:href="#m59e603684e" x="85.5658" y="39.082788" style="fill: #4c72b0; fill-opacity: 0.7; stroke: #808080; stroke-opacity: 0.7"/>
     <use xlink:href="#m59e603684e" x="86.659577" y="40.909226" style="fill: #4c72b0; fill-opacity: 0.7; stroke: #808080; stroke-opacity: 0.7"/>
     <use xlink:href="#m59e603684e" x="85.932883" y="29.293919" style="fill: #4c72b0; fill-opacity: 0.7; stroke: #808080; stroke-opacity: 0.7"/>
     <use xlink:href="#m59e603684e" x="92.518723" y="24.537527" style="fill: #4c72b0; fill-opacity: 0.7; stroke: #808080; stroke-opacity: 0.7"/>
     <use xlink:href="#m59e603684e" x="88.077633" y="27.957064" style="fill: #4c72b0; fill-opacity: 0.7; stroke: #808080; stroke-opacity: 0.7"/>
     <use xlink:href="#m59e603684e" x="83.2677" y="47.557729" style="fill: #4c72b0; fill-opacity: 0.7; stroke: #808080; stroke-opacity: 0.7"/>
     <use xlink:href="#m59e603684e" x="79.933051" y="45.577256" style="fill: #4c72b0; fill-opacity: 0.7; stroke: #808080; stroke-opacity: 0.7"/>
     <use xlink:href="#m59e603684e" x="82.267789" y="18.505216" style="fill: #4c72b0; fill-opacity: 0.7; stroke: #808080; stroke-opacity: 0.7"/>
    </g>
   </g>
   <g id="line2d_4">
    <g clip-path="url(#p1d2b16c346)">
     <use xlink:href="#m59e603684e" x="81.958645" y="30.059563" style="fill: #4c72b0; fill-opacity: 0.7; stroke: #808080; stroke-opacity: 0.7"/>
     <use xlink:href="#m59e603684e" x="82.861863" y="32.927239" style="fill: #4c72b0; fill-opacity: 0.7; stroke: #808080; stroke-opacity: 0.7"/>
     <use xlink:href="#m59e603684e" x="68.815611" y="29.824306" style="fill: #4c72b0; fill-opacity: 0.7; stroke: #808080; stroke-opacity: 0.7"/>
     <use xlink:href="#m59e603684e" x="80.365011" y="19.972111" style="fill: #4c72b0; fill-opacity: 0.7; stroke: #808080; stroke-opacity: 0.7"/>
     <use xlink:href="#m59e603684e" x="84.507488" y="30.12085" style="fill: #4c72b0; fill-opacity: 0.7; stroke: #808080; stroke-opacity: 0.7"/>
     <use xlink:href="#m59e603684e" x="84.863028" y="27.667788" style="fill: #4c72b0; fill-opacity: 0.7; stroke: #808080; stroke-opacity: 0.7"/>
     <use xlink:href="#m59e603684e" x="74.683553" y="27.299905" style="fill: #4c72b0; fill-opacity: 0.7; stroke: #808080; stroke-opacity: 0.7"/>
     <use xlink:href="#m59e603684e" x="79.296972" y="48.709962" style="fill: #4c72b0; fill-opacity: 0.7; stroke: #808080; stroke-opacity: 0.7"/>
     <use xlink:href="#m59e603684e" x="84.007877" y="15.73905" style="fill: #4c72b0; fill-opacity: 0.7; stroke: #808080; stroke-opacity: 0.7"/>
     <use xlink:href="#m59e603684e" x="85.536642" y="27.678606" style="fill: #4c72b0; fill-opacity: 0.7; stroke: #808080; stroke-opacity: 0.7"/>
     <use xlink:href="#m59e603684e" x="85.151998" y="37.710068" style="fill: #4c72b0; fill-opacity: 0.7; stroke: #808080; stroke-opacity: 0.7"/>
     <use xlink:href="#m59e603684e" x="84.240027" y="23.288132" style="fill: #4c72b0; fill-opacity: 0.7; stroke: #808080; stroke-opacity: 0.7"/>
     <use xlink:href="#m59e603684e" x="86.109046" y="28.774584" style="fill: #4c72b0; fill-opacity: 0.7; stroke: #808080; stroke-opacity: 0.7"/>
     <use xlink:href="#m59e603684e" x="85.5658" y="26.185328" style="fill: #4c72b0; fill-opacity: 0.7; stroke: #808080; stroke-opacity: 0.7"/>
     <use xlink:href="#m59e603684e" x="86.659577" y="39.652269" style="fill: #4c72b0; fill-opacity: 0.7; stroke: #808080; stroke-opacity: 0.7"/>
     <use xlink:href="#m59e603684e" x="85.932883" y="27.633067" style="fill: #4c72b0; fill-opacity: 0.7; stroke: #808080; stroke-opacity: 0.7"/>
     <use xlink:href="#m59e603684e" x="92.518723" y="24.063177" style="fill: #4c72b0; fill-opacity: 0.7; stroke: #808080; stroke-opacity: 0.7"/>
     <use xlink:href="#m59e603684e" x="88.077633" y="26.711852" style="fill: #4c72b0; fill-opacity: 0.7; stroke: #808080; stroke-opacity: 0.7"/>
     <use xlink:href="#m59e603684e" x="83.2677" y="45.149729" style="fill: #4c72b0; fill-opacity: 0.7; stroke: #808080; stroke-opacity: 0.7"/>
     <use xlink:href="#m59e603684e" x="79.933051" y="43.028766" style="fill: #4c72b0; fill-opacity: 0.7; stroke: #808080; stroke-opacity: 0.7"/>
     <use xlink:href="#m59e603684e" x="82.267789" y="15.620903" style="fill: #4c72b0; fill-opacity: 0.7; stroke: #808080; stroke-opacity: 0.7"/>
    </g>
   </g>
   <g id="matplotlib.axis_1">
    <g id="xtick_1">
     <g id="line2d_5">
      <defs>
       <path id="m24bbb1f3a9" d="M 0 0 
L 0 4.8 
" style="stroke: #262626"/>
      </defs>
      <g>
       <use xlink:href="#m24bbb1f3a9" x="45.467308" y="63" style="fill: #262626; stroke: #262626"/>
      </g>
     </g>
     <g id="text_1">
      <text style="font-size: 8px; font-family: 'Arial'; text-anchor: middle; fill: #262626" x="45.467308" y="77.02625" transform="rotate(-0 45.467308 77.02625)">0</text>
     </g>
    </g>
    <g id="xtick_2">
     <g id="line2d_6">
      <g>
       <use xlink:href="#m24bbb1f3a9" x="93.928846" y="63" style="fill: #262626; stroke: #262626"/>
      </g>
     </g>
     <g id="text_2">
      <text style="font-size: 8px; font-family: 'Arial'; text-anchor: middle; fill: #262626" x="93.928846" y="77.02625" transform="rotate(-0 93.928846 77.02625)">1</text>
     </g>
    </g>
    <g id="text_3">
     <text style="font-size: 9px; font-family: 'Arial'; text-anchor: middle; fill: #262626" x="67.275" y="89.167969" transform="rotate(-0 67.275 89.167969)">within (GP-GP, GPS-GPS)</text>
    </g>
   </g>
   <g id="matplotlib.axis_2">
    <g id="ytick_1">
     <g id="line2d_7">
      <defs>
       <path id="mc204262b0d" d="M 0 0 
L -4.8 0 
" style="stroke: #262626"/>
      </defs>
      <g>
       <use xlink:href="#mc204262b0d" x="35.775" y="53.307692" style="fill: #262626; stroke: #262626"/>
      </g>
     </g>
     <g id="text_4">
      <text style="font-size: 8px; font-family: 'Arial'; text-anchor: end; fill: #262626" x="27.475" y="56.170817" transform="rotate(-0 27.475 56.170817)">0</text>
     </g>
    </g>
    <g id="ytick_2">
     <g id="line2d_8">
      <g>
       <use xlink:href="#mc204262b0d" x="35.775" y="4.846154" style="fill: #262626; stroke: #262626"/>
      </g>
     </g>
     <g id="text_5">
      <text style="font-size: 8px; font-family: 'Arial'; text-anchor: end; fill: #262626" x="27.475" y="7.709279" transform="rotate(-0 27.475 7.709279)">1</text>
     </g>
    </g>
    <g id="text_6">
     <text style="font-size: 9px; font-family: 'Arial'; text-anchor: middle; fill: #262626" x="17.132031" y="31.5" transform="rotate(-90 17.132031 31.5)">across (GP - GPS)</text>
    </g>
   </g>
   <g id="PathCollection_1">
    <path d="M 81.958645 33.550729 
C 82.595133 33.550729 83.205637 33.29785 83.655701 32.847785 
C 84.105766 32.397721 84.358645 31.787216 84.358645 31.150729 
C 84.358645 30.514241 84.105766 29.903737 83.655701 29.453673 
C 83.205637 29.003608 82.595133 28.750729 81.958645 28.750729 
C 81.322158 28.750729 80.711654 29.003608 80.261589 29.453673 
C 79.811524 29.903737 79.558645 30.514241 79.558645 31.150729 
C 79.558645 31.787216 79.811524 32.397721 80.261589 32.847785 
C 80.711654 33.29785 81.322158 33.550729 81.958645 33.550729 
z
" clip-path="url(#p1d2b16c346)" style="fill: #90d0df; stroke: #ffffff; stroke-width: 0.384"/>
    <path d="M 82.861863 36.429383 
C 83.498351 36.429383 84.108855 36.176504 84.55892 35.72644 
C 85.008984 35.276375 85.261863 34.665871 85.261863 34.029383 
C 85.261863 33.392896 85.008984 32.782392 84.55892 32.332327 
C 84.108855 31.882262 83.498351 31.629383 82.861863 31.629383 
C 82.225376 31.629383 81.614872 31.882262 81.164807 32.332327 
C 80.714742 32.782392 80.461863 33.392896 80.461863 34.029383 
C 80.461863 34.665871 80.714742 35.276375 81.164807 35.72644 
C 81.614872 36.176504 82.225376 36.429383 82.861863 36.429383 
z
" clip-path="url(#p1d2b16c346)" style="fill: #90d0df; stroke: #ffffff; stroke-width: 0.384"/>
    <path d="M 68.815611 34.157312 
C 69.452099 34.157312 70.062603 33.904433 70.512668 33.454369 
C 70.962732 33.004304 71.215611 32.3938 71.215611 31.757312 
C 71.215611 31.120825 70.962732 30.510321 70.512668 30.060256 
C 70.062603 29.610192 69.452099 29.357312 68.815611 29.357312 
C 68.179124 29.357312 67.56862 29.610192 67.118555 30.060256 
C 66.668491 30.510321 66.415611 31.120825 66.415611 31.757312 
C 66.415611 32.3938 66.668491 33.004304 67.118555 33.454369 
C 67.56862 33.904433 68.179124 34.157312 68.815611 34.157312 
z
" clip-path="url(#p1d2b16c346)" style="fill: #90d0df; stroke: #ffffff; stroke-width: 0.384"/>
    <path d="M 77.965011 32.077683 
L 82.765011 32.077683 
L 82.765011 27.277683 
L 77.965011 27.277683 
z
" clip-path="url(#p1d2b16c346)" style="fill: #227fb1; stroke: #ffffff; stroke-width: 0.384"/>
    <path d="M 82.107488 38.164898 
L 86.907488 38.164898 
L 86.907488 33.364898 
L 82.107488 33.364898 
z
" clip-path="url(#p1d2b16c346)" style="fill: #227fb1; stroke: #ffffff; stroke-width: 0.384"/>
    <path d="M 82.463028 32.636797 
L 87.263028 32.636797 
L 87.263028 27.836797 
L 82.463028 27.836797 
z
" clip-path="url(#p1d2b16c346)" style="fill: #227fb1; stroke: #ffffff; stroke-width: 0.384"/>
    <path d="M 74.683553 31.815375 
C 75.320041 31.815375 75.930545 31.562496 76.38061 31.112431 
C 76.830674 30.662367 77.083553 30.051862 77.083553 29.415375 
C 77.083553 28.778887 76.830674 28.168383 76.38061 27.718319 
C 75.930545 27.268254 75.320041 27.015375 74.683553 27.015375 
C 74.047066 27.015375 73.436562 27.268254 72.986497 27.718319 
C 72.536433 28.168383 72.283553 28.778887 72.283553 29.415375 
C 72.283553 30.051862 72.536433 30.662367 72.986497 31.112431 
C 73.436562 31.562496 74.047066 31.815375 74.683553 31.815375 
z
" clip-path="url(#p1d2b16c346)" style="fill: #90d0df; stroke: #ffffff; stroke-width: 0.384"/>
    <path d="M 79.296972 52.696056 
C 79.933459 52.696056 80.543963 52.443177 80.994028 51.993112 
C 81.444093 51.543048 81.696972 50.932543 81.696972 50.296056 
C 81.696972 49.659568 81.444093 49.049064 80.994028 48.599 
C 80.543963 48.148935 79.933459 47.896056 79.296972 47.896056 
C 78.660484 47.896056 78.04998 48.148935 77.599915 48.599 
C 77.149851 49.049064 76.896972 49.659568 76.896972 50.296056 
C 76.896972 50.932543 77.149851 51.543048 77.599915 51.993112 
C 78.04998 52.443177 78.660484 52.696056 79.296972 52.696056 
z
" clip-path="url(#p1d2b16c346)" style="fill: #90d0df; stroke: #ffffff; stroke-width: 0.384"/>
    <path d="M 81.607877 29.843474 
L 86.407877 29.843474 
L 86.407877 25.043474 
L 81.607877 25.043474 
z
" clip-path="url(#p1d2b16c346)" style="fill: #227fb1; stroke: #ffffff; stroke-width: 0.384"/>
    <path d="M 85.536642 31.638515 
C 86.17313 31.638515 86.783634 31.385635 87.233699 30.935571 
C 87.683763 30.485506 87.936642 29.875002 87.936642 29.238515 
C 87.936642 28.602027 87.683763 27.991523 87.233699 27.541458 
C 86.783634 27.091394 86.17313 26.838515 85.536642 26.838515 
C 84.900155 26.838515 84.289651 27.091394 83.839586 27.541458 
C 83.389522 27.991523 83.136642 28.602027 83.136642 29.238515 
C 83.136642 29.875002 83.389522 30.485506 83.839586 30.935571 
C 84.289651 31.385635 84.900155 31.638515 85.536642 31.638515 
z
" clip-path="url(#p1d2b16c346)" style="fill: #90d0df; stroke: #ffffff; stroke-width: 0.384"/>
    <path d="M 82.751998 41.673414 
L 87.551998 41.673414 
L 87.551998 36.873414 
L 82.751998 36.873414 
z
" clip-path="url(#p1d2b16c346)" style="fill: #227fb1; stroke: #ffffff; stroke-width: 0.384"/>
    <path d="M 81.840027 26.959177 
L 86.640027 26.959177 
L 86.640027 22.159177 
L 81.840027 22.159177 
z
" clip-path="url(#p1d2b16c346)" style="fill: #227fb1; stroke: #ffffff; stroke-width: 0.384"/>
    <path d="M 83.709046 32.20371 
L 88.509046 32.20371 
L 88.509046 27.40371 
L 83.709046 27.40371 
z
" clip-path="url(#p1d2b16c346)" style="fill: #227fb1; stroke: #ffffff; stroke-width: 0.384"/>
    <path d="M 83.1658 35.034058 
L 87.9658 35.034058 
L 87.9658 30.234058 
L 83.1658 30.234058 
z
" clip-path="url(#p1d2b16c346)" style="fill: #227fb1; stroke: #ffffff; stroke-width: 0.384"/>
    <path d="M 84.259577 42.680747 
L 89.059577 42.680747 
L 89.059577 37.880747 
L 84.259577 37.880747 
z
" clip-path="url(#p1d2b16c346)" style="fill: #227fb1; stroke: #ffffff; stroke-width: 0.384"/>
    <path d="M 83.532883 30.863493 
L 88.332883 30.863493 
L 88.332883 26.063493 
L 83.532883 26.063493 
z
" clip-path="url(#p1d2b16c346)" style="fill: #227fb1; stroke: #ffffff; stroke-width: 0.384"/>
    <path d="M 92.518723 26.700352 
C 93.15521 26.700352 93.765715 26.447473 94.215779 25.997409 
C 94.665844 25.547344 94.918723 24.93684 94.918723 24.300352 
C 94.918723 23.663865 94.665844 23.053361 94.215779 22.603296 
C 93.765715 22.153231 93.15521 21.900352 92.518723 21.900352 
C 91.882235 21.900352 91.271731 22.153231 90.821667 22.603296 
C 90.371602 23.053361 90.118723 23.663865 90.118723 24.300352 
C 90.118723 24.93684 90.371602 25.547344 90.821667 25.997409 
C 91.271731 26.447473 91.882235 26.700352 92.518723 26.700352 
z
" clip-path="url(#p1d2b16c346)" style="fill: #90d0df; stroke: #ffffff; stroke-width: 0.384"/>
    <path d="M 88.077633 29.734458 
C 88.714121 29.734458 89.324625 29.481579 89.774689 29.031515 
C 90.224754 28.58145 90.477633 27.970946 90.477633 27.334458 
C 90.477633 26.697971 90.224754 26.087467 89.774689 25.637402 
C 89.324625 25.187337 88.714121 24.934458 88.077633 24.934458 
C 87.441146 24.934458 86.830641 25.187337 86.380577 25.637402 
C 85.930512 26.087467 85.677633 26.697971 85.677633 27.334458 
C 85.677633 27.970946 85.930512 28.58145 86.380577 29.031515 
C 86.830641 29.481579 87.441146 29.734458 88.077633 29.734458 
z
" clip-path="url(#p1d2b16c346)" style="fill: #90d0df; stroke: #ffffff; stroke-width: 0.384"/>
    <path d="M 80.8677 48.753729 
L 85.6677 48.753729 
L 85.6677 43.953729 
L 80.8677 43.953729 
z
" clip-path="url(#p1d2b16c346)" style="fill: #227fb1; stroke: #ffffff; stroke-width: 0.384"/>
    <path d="M 79.933051 46.703011 
C 80.569539 46.703011 81.180043 46.450132 81.630108 46.000067 
C 82.080172 45.550003 82.333051 44.939499 82.333051 44.303011 
C 82.333051 43.666524 82.080172 43.056019 81.630108 42.605955 
C 81.180043 42.15589 80.569539 41.903011 79.933051 41.903011 
C 79.296564 41.903011 78.68606 42.15589 78.235995 42.605955 
C 77.78593 43.056019 77.533051 43.666524 77.533051 44.303011 
C 77.533051 44.939499 77.78593 45.550003 78.235995 46.000067 
C 78.68606 46.450132 79.296564 46.703011 79.933051 46.703011 
z
" clip-path="url(#p1d2b16c346)" style="fill: #90d0df; stroke: #ffffff; stroke-width: 0.384"/>
    <path d="M 82.267789 19.463059 
C 82.904276 19.463059 83.51478 19.21018 83.964845 18.760116 
C 84.414909 18.310051 84.667789 17.699547 84.667789 17.063059 
C 84.667789 16.426572 84.414909 15.816068 83.964845 15.366003 
C 83.51478 14.915939 82.904276 14.663059 82.267789 14.663059 
C 81.631301 14.663059 81.020797 14.915939 80.570732 15.366003 
C 80.120668 15.816068 79.867789 16.426572 79.867789 17.063059 
C 79.867789 17.699547 80.120668 18.310051 80.570732 18.760116 
C 81.020797 19.21018 81.631301 19.463059 82.267789 19.463059 
z
" clip-path="url(#p1d2b16c346)" style="fill: #90d0df; stroke: #ffffff; stroke-width: 0.384"/>
   </g>
   <g id="line2d_9">
    <path d="M 40.621154 58.153846 
L 41.159615 57.615385 
L 41.698077 57.076923 
L 42.236538 56.538462 
L 42.775 56 
L 43.313462 55.461538 
L 43.851923 54.923077 
L 44.390385 54.384615 
L 44.928846 53.846154 
L 45.467308 53.307692 
L 46.005769 52.769231 
L 46.544231 52.230769 
L 47.082692 51.692308 
L 47.621154 51.153846 
L 48.159615 50.615385 
L 48.698077 50.076923 
L 49.236538 49.538462 
L 49.775 49 
L 50.313462 48.461538 
L 50.851923 47.923077 
L 51.390385 47.384615 
L 51.928846 46.846154 
L 52.467308 46.307692 
L 53.005769 45.769231 
L 53.544231 45.230769 
L 54.082692 44.692308 
L 54.621154 44.153846 
L 55.159615 43.615385 
L 55.698077 43.076923 
L 56.236538 42.538462 
L 56.775 42 
L 57.313462 41.461538 
L 57.851923 40.923077 
L 58.390385 40.384615 
L 58.928846 39.846154 
L 59.467308 39.307692 
L 60.005769 38.769231 
L 60.544231 38.230769 
L 61.082692 37.692308 
L 61.621154 37.153846 
L 62.159615 36.615385 
L 62.698077 36.076923 
L 63.236538 35.538462 
L 63.775 35 
L 64.313462 34.461538 
L 64.851923 33.923077 
L 65.390385 33.384615 
L 65.928846 32.846154 
L 66.467308 32.307692 
L 67.005769 31.769231 
L 67.544231 31.230769 
L 68.082692 30.692308 
L 68.621154 30.153846 
L 69.159615 29.615385 
L 69.698077 29.076923 
L 70.236538 28.538462 
L 70.775 28 
L 71.313462 27.461538 
L 71.851923 26.923077 
L 72.390385 26.384615 
L 72.928846 25.846154 
L 73.467308 25.307692 
L 74.005769 24.769231 
L 74.544231 24.230769 
L 75.082692 23.692308 
L 75.621154 23.153846 
L 76.159615 22.615385 
L 76.698077 22.076923 
L 77.236538 21.538462 
L 77.775 21 
L 78.313462 20.461538 
L 78.851923 19.923077 
L 79.390385 19.384615 
L 79.928846 18.846154 
L 80.467308 18.307692 
L 81.005769 17.769231 
L 81.544231 17.230769 
L 82.082692 16.692308 
L 82.621154 16.153846 
L 83.159615 15.615385 
L 83.698077 15.076923 
L 84.236538 14.538462 
L 84.775 14 
L 85.313462 13.461538 
L 85.851923 12.923077 
L 86.390385 12.384615 
L 86.928846 11.846154 
L 87.467308 11.307692 
L 88.005769 10.769231 
L 88.544231 10.230769 
L 89.082692 9.692308 
L 89.621154 9.153846 
L 90.159615 8.615385 
L 90.698077 8.076923 
L 91.236538 7.538462 
L 91.775 7 
L 92.313462 6.461538 
L 92.851923 5.923077 
L 93.390385 5.384615 
L 93.928846 4.846154 
" clip-path="url(#p1d2b16c346)" style="fill: none; stroke-dasharray: 3.7,1.6; stroke-dashoffset: 0; stroke: #1a1a1a"/>
   </g>
   <g id="patch_3">
    <path d="M 35.775 63 
L 35.775 -0 
" style="fill: none; stroke: #262626; stroke-linejoin: miter; stroke-linecap: square"/>
   </g>
   <g id="patch_4">
    <path d="M 35.775 63 
L 98.775 63 
" style="fill: none; stroke: #262626; stroke-linejoin: miter; stroke-linecap: square"/>
   </g>
  </g>
  <g id="axes_2">
   <g id="patch_5">
    <path d="M 146.25 63 
L 234 63 
L 234 0 
L 146.25 0 
L 146.25 63 
z
" style="fill: none"/>
   </g>
   <g id="matplotlib.axis_3">
    <g id="xtick_3">
     <g id="line2d_10">
      <g>
       <use xlink:href="#m24bbb1f3a9" x="147.102114" y="63" style="fill: #262626; stroke: #262626"/>
      </g>
     </g>
     <g id="text_7">
      <text style="font-size: 8px; font-family: 'Arial'; text-anchor: middle; fill: #262626" x="147.102114" y="77.02625" transform="rotate(-0 147.102114 77.02625)">0.0</text>
     </g>
    </g>
    <g id="xtick_4">
     <g id="line2d_11">
      <g>
       <use xlink:href="#m24bbb1f3a9" x="182.277644" y="63" style="fill: #262626; stroke: #262626"/>
      </g>
     </g>
     <g id="text_8">
      <text style="font-size: 8px; font-family: 'Arial'; text-anchor: middle; fill: #262626" x="182.277644" y="77.02625" transform="rotate(-0 182.277644 77.02625)">0.3</text>
     </g>
    </g>
    <g id="xtick_5">
     <g id="line2d_12">
      <g>
       <use xlink:href="#m24bbb1f3a9" x="217.453175" y="63" style="fill: #262626; stroke: #262626"/>
      </g>
     </g>
     <g id="text_9">
      <text style="font-size: 8px; font-family: 'Arial'; text-anchor: middle; fill: #262626" x="217.453175" y="77.02625" transform="rotate(-0 217.453175 77.02625)">0.6</text>
     </g>
    </g>
    <g id="text_10">
     <!-- mean response ($\sigma$) -->
     <g style="fill: #262626" transform="translate(151.965 89.18625)">
      <text>
       <tspan x="0" y="-0.453125" style="font-size: 9px; font-family: 'Arial'; fill: #262626">m</tspan>
       <tspan x="7.49707" y="-0.453125" style="font-size: 9px; font-family: 'Arial'; fill: #262626">e</tspan>
       <tspan x="12.502441" y="-0.453125" style="font-size: 9px; font-family: 'Arial'; fill: #262626">a</tspan>
       <tspan x="17.507812" y="-0.453125" style="font-size: 9px; font-family: 'Arial'; fill: #262626">n</tspan>
       <tspan x="22.513184" y="-0.453125" style="font-size: 9px; font-family: 'Arial'; fill: #262626"> </tspan>
       <tspan x="25.013672" y="-0.453125" style="font-size: 9px; font-family: 'Arial'; fill: #262626">r</tspan>
       <tspan x="28.010742" y="-0.453125" style="font-size: 9px; font-family: 'Arial'; fill: #262626">e</tspan>
       <tspan x="33.016113" y="-0.453125" style="font-size: 9px; font-family: 'Arial'; fill: #262626">s</tspan>
       <tspan x="37.516113" y="-0.453125" style="font-size: 9px; font-family: 'Arial'; fill: #262626">p</tspan>
       <tspan x="42.521484" y="-0.453125" style="font-size: 9px; font-family: 'Arial'; fill: #262626">o</tspan>
       <tspan x="47.526855" y="-0.453125" style="font-size: 9px; font-family: 'Arial'; fill: #262626">n</tspan>
       <tspan x="52.532227" y="-0.453125" style="font-size: 9px; font-family: 'Arial'; fill: #262626">s</tspan>
       <tspan x="57.032227" y="-0.453125" style="font-size: 9px; font-family: 'Arial'; fill: #262626">e</tspan>
       <tspan x="62.037598" y="-0.453125" style="font-size: 9px; font-family: 'Arial'; fill: #262626"> </tspan>
       <tspan x="64.538086" y="-0.453125" style="font-size: 9px; font-family: 'Arial'; fill: #262626">(</tspan>
       <tspan x="73.239258" y="-0.453125" style="font-size: 9px; font-family: 'Arial'; fill: #262626">)</tspan>
       <tspan x="67.535156" y="-0.453125" style="font-style: oblique; font-size: 9px; font-family: 'DejaVu Sans'; fill: #262626">σ</tspan>
      </text>
     </g>
     <text style="font-size: 9px; font-family: 'Arial'; fill: #262626" transform="translate(168.630469 99.028312)">(from stim)</text>
    </g>
   </g>
   <g id="matplotlib.axis_4">
    <g id="ytick_3">
     <g id="line2d_13">
      <g>
       <use xlink:href="#mc204262b0d" x="146.25" y="55.768338" style="fill: #262626; stroke: #262626"/>
      </g>
     </g>
     <g id="text_11">
      <text style="font-size: 8px; font-family: 'Arial'; text-anchor: end; fill: #262626" x="137.95" y="58.631463" transform="rotate(-0 137.95 58.631463)">0</text>
     </g>
    </g>
    <g id="ytick_4">
     <g id="line2d_14">
      <g>
       <use xlink:href="#mc204262b0d" x="146.25" y="21.258815" style="fill: #262626; stroke: #262626"/>
      </g>
     </g>
     <g id="text_12">
      <text style="font-size: 8px; font-family: 'Arial'; text-anchor: end; fill: #262626" x="137.95" y="24.12194" transform="rotate(-0 137.95 24.12194)">1</text>
     </g>
    </g>
    <g id="text_13">
     <text style="font-size: 9px; font-family: 'Arial'; text-anchor: middle; fill: #262626" x="127.7125" y="31.5" transform="rotate(-90 127.7125 31.5)">correlation</text>
    </g>
   </g>
   <g id="PathCollection_2">
    <defs>
     <path id="m4833defe48" d="M 0 1.414214 
C 0.375054 1.414214 0.734797 1.265203 1 1 
C 1.265203 0.734797 1.414214 0.375054 1.414214 0 
C 1.414214 -0.375054 1.265203 -0.734797 1 -1 
C 0.734797 -1.265203 0.375054 -1.414214 0 -1.414214 
C -0.375054 -1.414214 -0.734797 -1.265203 -1 -1 
C -1.265203 -0.734797 -1.414214 -0.375054 -1.414214 0 
C -1.414214 0.375054 -1.265203 0.734797 -1 1 
C -0.734797 1.265203 -0.375054 1.414214 0 1.414214 
z
" style="stroke: #e873c9; stroke-opacity: 0.8"/>
    </defs>
    <g clip-path="url(#p9d17840e34)">
     <use xlink:href="#m4833defe48" x="166.287752" y="50.059867" style="fill: #e873c9; fill-opacity: 0.8; stroke: #e873c9; stroke-opacity: 0.8"/>
     <use xlink:href="#m4833defe48" x="157.832193" y="45.234294" style="fill: #e873c9; fill-opacity: 0.8; stroke: #e873c9; stroke-opacity: 0.8"/>
     <use xlink:href="#m4833defe48" x="173.105369" y="36.219387" style="fill: #e873c9; fill-opacity: 0.8; stroke: #e873c9; stroke-opacity: 0.8"/>
     <use xlink:href="#m4833defe48" x="151.481857" y="51.153484" style="fill: #e873c9; fill-opacity: 0.8; stroke: #e873c9; stroke-opacity: 0.8"/>
     <use xlink:href="#m4833defe48" x="151.35145" y="49.449758" style="fill: #e873c9; fill-opacity: 0.8; stroke: #e873c9; stroke-opacity: 0.8"/>
     <use xlink:href="#m4833defe48" x="161.464648" y="44.712873" style="fill: #e873c9; fill-opacity: 0.8; stroke: #e873c9; stroke-opacity: 0.8"/>
     <use xlink:href="#m4833defe48" x="164.118038" y="46.419713" style="fill: #e873c9; fill-opacity: 0.8; stroke: #e873c9; stroke-opacity: 0.8"/>
     <use xlink:href="#m4833defe48" x="165.435159" y="43.825543" style="fill: #e873c9; fill-opacity: 0.8; stroke: #e873c9; stroke-opacity: 0.8"/>
     <use xlink:href="#m4833defe48" x="174.46812" y="34.935121" style="fill: #e873c9; fill-opacity: 0.8; stroke: #e873c9; stroke-opacity: 0.8"/>
     <use xlink:href="#m4833defe48" x="157.558685" y="50.188422" style="fill: #e873c9; fill-opacity: 0.8; stroke: #e873c9; stroke-opacity: 0.8"/>
     <use xlink:href="#m4833defe48" x="162.744851" y="42.788862" style="fill: #e873c9; fill-opacity: 0.8; stroke: #e873c9; stroke-opacity: 0.8"/>
     <use xlink:href="#m4833defe48" x="178.245103" y="55.924298" style="fill: #e873c9; fill-opacity: 0.8; stroke: #e873c9; stroke-opacity: 0.8"/>
     <use xlink:href="#m4833defe48" x="178.321934" y="45.180595" style="fill: #e873c9; fill-opacity: 0.8; stroke: #e873c9; stroke-opacity: 0.8"/>
     <use xlink:href="#m4833defe48" x="154.815388" y="54.389472" style="fill: #e873c9; fill-opacity: 0.8; stroke: #e873c9; stroke-opacity: 0.8"/>
     <use xlink:href="#m4833defe48" x="150.914999" y="54.109217" style="fill: #e873c9; fill-opacity: 0.8; stroke: #e873c9; stroke-opacity: 0.8"/>
     <use xlink:href="#m4833defe48" x="185.378288" y="35.321323" style="fill: #e873c9; fill-opacity: 0.8; stroke: #e873c9; stroke-opacity: 0.8"/>
     <use xlink:href="#m4833defe48" x="230.011364" y="34.222723" style="fill: #e873c9; fill-opacity: 0.8; stroke: #e873c9; stroke-opacity: 0.8"/>
     <use xlink:href="#m4833defe48" x="156.385181" y="54.999642" style="fill: #e873c9; fill-opacity: 0.8; stroke: #e873c9; stroke-opacity: 0.8"/>
     <use xlink:href="#m4833defe48" x="191.347117" y="26.627019" style="fill: #e873c9; fill-opacity: 0.8; stroke: #e873c9; stroke-opacity: 0.8"/>
     <use xlink:href="#m4833defe48" x="161.257128" y="36.024471" style="fill: #e873c9; fill-opacity: 0.8; stroke: #e873c9; stroke-opacity: 0.8"/>
     <use xlink:href="#m4833defe48" x="171.699526" y="33.498603" style="fill: #e873c9; fill-opacity: 0.8; stroke: #e873c9; stroke-opacity: 0.8"/>
     <use xlink:href="#m4833defe48" x="162.460835" y="37.957658" style="fill: #e873c9; fill-opacity: 0.8; stroke: #e873c9; stroke-opacity: 0.8"/>
     <use xlink:href="#m4833defe48" x="163.380005" y="55.935756" style="fill: #e873c9; fill-opacity: 0.8; stroke: #e873c9; stroke-opacity: 0.8"/>
     <use xlink:href="#m4833defe48" x="161.117347" y="57.55134" style="fill: #e873c9; fill-opacity: 0.8; stroke: #e873c9; stroke-opacity: 0.8"/>
     <use xlink:href="#m4833defe48" x="174.655766" y="38.070213" style="fill: #e873c9; fill-opacity: 0.8; stroke: #e873c9; stroke-opacity: 0.8"/>
     <use xlink:href="#m4833defe48" x="169.651727" y="50.205761" style="fill: #e873c9; fill-opacity: 0.8; stroke: #e873c9; stroke-opacity: 0.8"/>
     <use xlink:href="#m4833defe48" x="162.884857" y="48.235448" style="fill: #e873c9; fill-opacity: 0.8; stroke: #e873c9; stroke-opacity: 0.8"/>
     <use xlink:href="#m4833defe48" x="150.238636" y="54.611921" style="fill: #e873c9; fill-opacity: 0.8; stroke: #e873c9; stroke-opacity: 0.8"/>
    </g>
   </g>
   <g id="FillBetweenPolyCollection_1">
    <defs>
     <path id="mde5b230ee3" d="M 150.238636 -42.125974 
L 150.238636 -34.654032 
L 151.044421 -35.123123 
L 151.850207 -35.579499 
L 152.655992 -36.064384 
L 153.461777 -36.488539 
L 154.267562 -36.976144 
L 155.073347 -37.422554 
L 155.879132 -37.828734 
L 156.684917 -38.289831 
L 157.490702 -38.735577 
L 158.296488 -39.092798 
L 159.102273 -39.453174 
L 159.908058 -39.805743 
L 160.713843 -40.119592 
L 161.519628 -40.419835 
L 162.325413 -40.755365 
L 163.131198 -41.048318 
L 163.936983 -41.355114 
L 164.742769 -41.653472 
L 165.548554 -41.85202 
L 166.354339 -42.112153 
L 167.160124 -42.321478 
L 167.965909 -42.518773 
L 168.771694 -42.749949 
L 169.577479 -42.945078 
L 170.383264 -43.140208 
L 171.18905 -43.335685 
L 171.994835 -43.554951 
L 172.80062 -43.732768 
L 173.606405 -43.923774 
L 174.41219 -44.133719 
L 175.217975 -44.343288 
L 176.02376 -44.536911 
L 176.829545 -44.722513 
L 177.635331 -44.908131 
L 178.441116 -45.095113 
L 179.246901 -45.293084 
L 180.052686 -45.505116 
L 180.858471 -45.724917 
L 181.664256 -45.900753 
L 182.470041 -46.084891 
L 183.275826 -46.283234 
L 184.081612 -46.481632 
L 184.887397 -46.679294 
L 185.693182 -46.87536 
L 186.498967 -47.02045 
L 187.304752 -47.149778 
L 188.110537 -47.333511 
L 188.916322 -47.559786 
L 189.722107 -47.766514 
L 190.527893 -47.92743 
L 191.333678 -48.133683 
L 192.139463 -48.308993 
L 192.945248 -48.475611 
L 193.751033 -48.642228 
L 194.556818 -48.809077 
L 195.362603 -48.986045 
L 196.168388 -49.164813 
L 196.974174 -49.324535 
L 197.779959 -49.484378 
L 198.585744 -49.66281 
L 199.391529 -49.85287 
L 200.197314 -50.042929 
L 201.003099 -50.22191 
L 201.808884 -50.366908 
L 202.614669 -50.520308 
L 203.420455 -50.692776 
L 204.22624 -50.864825 
L 205.032025 -51.037127 
L 205.83781 -51.20954 
L 206.643595 -51.362649 
L 207.44938 -51.515758 
L 208.255165 -51.697251 
L 209.06095 -51.896594 
L 209.866736 -52.079807 
L 210.672521 -52.270539 
L 211.478306 -52.450812 
L 212.284091 -52.616751 
L 213.089876 -52.78269 
L 213.895661 -52.948629 
L 214.701446 -53.114567 
L 215.507231 -53.285204 
L 216.313017 -53.457859 
L 217.118802 -53.630759 
L 217.924587 -53.800388 
L 218.730372 -53.976287 
L 219.536157 -54.149179 
L 220.341942 -54.322071 
L 221.147727 -54.494962 
L 221.953512 -54.667854 
L 222.759298 -54.840746 
L 223.565083 -55.013638 
L 224.370868 -55.188585 
L 225.176653 -55.363763 
L 225.982438 -55.53894 
L 226.788223 -55.714117 
L 227.594008 -55.87778 
L 228.399793 -56.050258 
L 229.205579 -56.222736 
L 230.011364 -56.39529 
L 230.011364 -87.136364 
L 230.011364 -87.136364 
L 229.205579 -86.629453 
L 228.399793 -86.122542 
L 227.594008 -85.610149 
L 226.788223 -85.103098 
L 225.982438 -84.596047 
L 225.176653 -84.088996 
L 224.370868 -83.581945 
L 223.565083 -83.074894 
L 222.759298 -82.567843 
L 221.953512 -82.060792 
L 221.147727 -81.553741 
L 220.341942 -81.04669 
L 219.536157 -80.539639 
L 218.730372 -80.032588 
L 217.924587 -79.525537 
L 217.118802 -79.01306 
L 216.313017 -78.511322 
L 215.507231 -77.998129 
L 214.701446 -77.472183 
L 213.895661 -76.946237 
L 213.089876 -76.419925 
L 212.284091 -75.89341 
L 211.478306 -75.366778 
L 210.672521 -74.863798 
L 209.866736 -74.348251 
L 209.06095 -73.807062 
L 208.255165 -73.266524 
L 207.44938 -72.734794 
L 206.643595 -72.22208 
L 205.83781 -71.723979 
L 205.032025 -71.206591 
L 204.22624 -70.699231 
L 203.420455 -70.191871 
L 202.614669 -69.684511 
L 201.808884 -69.17629 
L 201.003099 -68.667745 
L 200.197314 -68.143498 
L 199.391529 -67.633898 
L 198.585744 -67.141904 
L 197.779959 -66.636811 
L 196.974174 -66.129498 
L 196.168388 -65.622186 
L 195.362603 -65.114873 
L 194.556818 -64.607561 
L 193.751033 -64.100249 
L 192.945248 -63.592936 
L 192.139463 -63.085624 
L 191.333678 -62.578311 
L 190.527893 -62.070999 
L 189.722107 -61.56349 
L 188.916322 -61.054879 
L 188.110537 -60.546267 
L 187.304752 -60.037656 
L 186.498967 -59.529045 
L 185.693182 -58.985989 
L 184.887397 -58.465901 
L 184.081612 -57.923756 
L 183.275826 -57.380742 
L 182.470041 -56.836203 
L 181.664256 -56.314968 
L 180.858471 -55.854378 
L 180.052686 -55.396174 
L 179.246901 -54.852247 
L 178.441116 -54.368295 
L 177.635331 -53.894647 
L 176.829545 -53.421833 
L 176.02376 -52.911359 
L 175.217975 -52.346399 
L 174.41219 -51.871609 
L 173.606405 -51.351945 
L 172.80062 -50.832233 
L 171.994835 -50.319372 
L 171.18905 -49.853112 
L 170.383264 -49.374435 
L 169.577479 -48.92068 
L 168.771694 -48.454449 
L 167.965909 -47.950478 
L 167.160124 -47.521987 
L 166.354339 -47.124468 
L 165.548554 -46.71098 
L 164.742769 -46.337594 
L 163.936983 -46.018951 
L 163.131198 -45.773803 
L 162.325413 -45.442196 
L 161.519628 -45.173719 
L 160.713843 -44.96885 
L 159.908058 -44.688983 
L 159.102273 -44.476675 
L 158.296488 -44.259884 
L 157.490702 -44.023562 
L 156.684917 -43.748815 
L 155.879132 -43.533658 
L 155.073347 -43.32359 
L 154.267562 -43.112417 
L 153.461777 -42.962578 
L 152.655992 -42.733654 
L 151.850207 -42.505923 
L 151.044421 -42.329902 
L 150.238636 -42.125974 
z
" style="stroke: #ffffff; stroke-opacity: 0.15; stroke-width: 0.8"/>
    </defs>
    <g clip-path="url(#p9d17840e34)">
     <use xlink:href="#mde5b230ee3" x="0" y="90" style="fill: #e873c9; fill-opacity: 0.15; stroke: #ffffff; stroke-opacity: 0.15; stroke-width: 0.8"/>
    </g>
   </g>
   <g id="PathCollection_3">
    <defs>
     <path id="ma877ab45d3" d="M -1.414214 1.414214 
L 1.414214 1.414214 
L 1.414214 -1.414214 
L -1.414214 -1.414214 
z
" style="stroke: #9d8ec9; stroke-opacity: 0.8"/>
    </defs>
    <g clip-path="url(#p9d17840e34)">
     <use xlink:href="#ma877ab45d3" x="166.287752" y="51.162115" style="fill: #9d8ec9; fill-opacity: 0.8; stroke: #9d8ec9; stroke-opacity: 0.8"/>
     <use xlink:href="#ma877ab45d3" x="157.832193" y="44.675982" style="fill: #9d8ec9; fill-opacity: 0.8; stroke: #9d8ec9; stroke-opacity: 0.8"/>
     <use xlink:href="#ma877ab45d3" x="173.105369" y="39.874123" style="fill: #9d8ec9; fill-opacity: 0.8; stroke: #9d8ec9; stroke-opacity: 0.8"/>
     <use xlink:href="#ma877ab45d3" x="151.481857" y="54.559769" style="fill: #9d8ec9; fill-opacity: 0.8; stroke: #9d8ec9; stroke-opacity: 0.8"/>
     <use xlink:href="#ma877ab45d3" x="151.35145" y="51.542299" style="fill: #9d8ec9; fill-opacity: 0.8; stroke: #9d8ec9; stroke-opacity: 0.8"/>
     <use xlink:href="#ma877ab45d3" x="161.464648" y="51.313007" style="fill: #9d8ec9; fill-opacity: 0.8; stroke: #9d8ec9; stroke-opacity: 0.8"/>
     <use xlink:href="#ma877ab45d3" x="164.118038" y="49.256895" style="fill: #9d8ec9; fill-opacity: 0.8; stroke: #9d8ec9; stroke-opacity: 0.8"/>
     <use xlink:href="#ma877ab45d3" x="165.435159" y="49.215206" style="fill: #9d8ec9; fill-opacity: 0.8; stroke: #9d8ec9; stroke-opacity: 0.8"/>
     <use xlink:href="#ma877ab45d3" x="174.46812" y="43.255963" style="fill: #9d8ec9; fill-opacity: 0.8; stroke: #9d8ec9; stroke-opacity: 0.8"/>
     <use xlink:href="#ma877ab45d3" x="157.558685" y="54.533122" style="fill: #9d8ec9; fill-opacity: 0.8; stroke: #9d8ec9; stroke-opacity: 0.8"/>
     <use xlink:href="#ma877ab45d3" x="162.744851" y="53.504571" style="fill: #9d8ec9; fill-opacity: 0.8; stroke: #9d8ec9; stroke-opacity: 0.8"/>
     <use xlink:href="#ma877ab45d3" x="178.245103" y="57.407475" style="fill: #9d8ec9; fill-opacity: 0.8; stroke: #9d8ec9; stroke-opacity: 0.8"/>
     <use xlink:href="#ma877ab45d3" x="178.321934" y="54.709182" style="fill: #9d8ec9; fill-opacity: 0.8; stroke: #9d8ec9; stroke-opacity: 0.8"/>
     <use xlink:href="#ma877ab45d3" x="154.815388" y="55.216657" style="fill: #9d8ec9; fill-opacity: 0.8; stroke: #9d8ec9; stroke-opacity: 0.8"/>
     <use xlink:href="#ma877ab45d3" x="150.914999" y="53.612155" style="fill: #9d8ec9; fill-opacity: 0.8; stroke: #9d8ec9; stroke-opacity: 0.8"/>
     <use xlink:href="#ma877ab45d3" x="185.378288" y="54.890038" style="fill: #9d8ec9; fill-opacity: 0.8; stroke: #9d8ec9; stroke-opacity: 0.8"/>
     <use xlink:href="#ma877ab45d3" x="230.011364" y="47.317147" style="fill: #9d8ec9; fill-opacity: 0.8; stroke: #9d8ec9; stroke-opacity: 0.8"/>
     <use xlink:href="#ma877ab45d3" x="156.385181" y="60.101442" style="fill: #9d8ec9; fill-opacity: 0.8; stroke: #9d8ec9; stroke-opacity: 0.8"/>
     <use xlink:href="#ma877ab45d3" x="191.347117" y="55.676685" style="fill: #9d8ec9; fill-opacity: 0.8; stroke: #9d8ec9; stroke-opacity: 0.8"/>
     <use xlink:href="#ma877ab45d3" x="161.257128" y="52.874715" style="fill: #9d8ec9; fill-opacity: 0.8; stroke: #9d8ec9; stroke-opacity: 0.8"/>
     <use xlink:href="#ma877ab45d3" x="171.699526" y="44.257437" style="fill: #9d8ec9; fill-opacity: 0.8; stroke: #9d8ec9; stroke-opacity: 0.8"/>
     <use xlink:href="#ma877ab45d3" x="162.460835" y="48.125806" style="fill: #9d8ec9; fill-opacity: 0.8; stroke: #9d8ec9; stroke-opacity: 0.8"/>
     <use xlink:href="#ma877ab45d3" x="163.380005" y="57.970509" style="fill: #9d8ec9; fill-opacity: 0.8; stroke: #9d8ec9; stroke-opacity: 0.8"/>
     <use xlink:href="#ma877ab45d3" x="161.117347" y="60.136364" style="fill: #9d8ec9; fill-opacity: 0.8; stroke: #9d8ec9; stroke-opacity: 0.8"/>
     <use xlink:href="#ma877ab45d3" x="174.655766" y="50.48445" style="fill: #9d8ec9; fill-opacity: 0.8; stroke: #9d8ec9; stroke-opacity: 0.8"/>
     <use xlink:href="#ma877ab45d3" x="169.651727" y="52.662597" style="fill: #9d8ec9; fill-opacity: 0.8; stroke: #9d8ec9; stroke-opacity: 0.8"/>
     <use xlink:href="#ma877ab45d3" x="162.884857" y="57.158988" style="fill: #9d8ec9; fill-opacity: 0.8; stroke: #9d8ec9; stroke-opacity: 0.8"/>
     <use xlink:href="#ma877ab45d3" x="150.238636" y="56.873148" style="fill: #9d8ec9; fill-opacity: 0.8; stroke: #9d8ec9; stroke-opacity: 0.8"/>
    </g>
   </g>
   <g id="FillBetweenPolyCollection_2">
    <defs>
     <path id="m5616a2c2ec" d="M 150.238636 -38.584305 
L 150.238636 -34.191884 
L 151.044421 -34.3877 
L 151.850207 -34.507668 
L 152.655992 -34.63468 
L 153.461777 -34.737383 
L 154.267562 -34.834459 
L 155.073347 -34.971069 
L 155.879132 -35.130012 
L 156.684917 -35.220932 
L 157.490702 -35.297339 
L 158.296488 -35.411083 
L 159.102273 -35.513377 
L 159.908058 -35.587146 
L 160.713843 -35.63887 
L 161.519628 -35.679071 
L 162.325413 -35.720277 
L 163.131198 -35.796654 
L 163.936983 -35.861355 
L 164.742769 -35.931058 
L 165.548554 -35.993774 
L 166.354339 -36.061662 
L 167.160124 -36.094429 
L 167.965909 -36.148352 
L 168.771694 -36.221904 
L 169.577479 -36.291134 
L 170.383264 -36.290683 
L 171.18905 -36.296524 
L 171.994835 -36.30923 
L 172.80062 -36.310485 
L 173.606405 -36.339047 
L 174.41219 -36.350805 
L 175.217975 -36.357261 
L 176.02376 -36.363819 
L 176.829545 -36.392426 
L 177.635331 -36.382617 
L 178.441116 -36.410194 
L 179.246901 -36.426224 
L 180.052686 -36.4669 
L 180.858471 -36.508361 
L 181.664256 -36.50231 
L 182.470041 -36.477244 
L 183.275826 -36.498189 
L 184.081612 -36.511984 
L 184.887397 -36.439577 
L 185.693182 -36.455864 
L 186.498967 -36.481809 
L 187.304752 -36.496325 
L 188.110537 -36.514005 
L 188.916322 -36.498275 
L 189.722107 -36.482764 
L 190.527893 -36.481868 
L 191.333678 -36.48842 
L 192.139463 -36.479947 
L 192.945248 -36.485705 
L 193.751033 -36.492078 
L 194.556818 -36.498451 
L 195.362603 -36.48463 
L 196.168388 -36.459133 
L 196.974174 -36.439437 
L 197.779959 -36.427573 
L 198.585744 -36.403822 
L 199.391529 -36.388285 
L 200.197314 -36.362695 
L 201.003099 -36.333537 
L 201.808884 -36.326016 
L 202.614669 -36.299199 
L 203.420455 -36.272383 
L 204.22624 -36.245566 
L 205.032025 -36.218749 
L 205.83781 -36.191932 
L 206.643595 -36.165116 
L 207.44938 -36.139786 
L 208.255165 -36.115803 
L 209.06095 -36.099582 
L 209.866736 -36.083415 
L 210.672521 -36.043427 
L 211.478306 -36.019326 
L 212.284091 -35.995235 
L 213.089876 -35.971143 
L 213.895661 -35.947051 
L 214.701446 -35.923412 
L 215.507231 -35.911174 
L 216.313017 -35.907994 
L 217.118802 -35.904814 
L 217.924587 -35.901634 
L 218.730372 -35.898454 
L 219.536157 -35.8912 
L 220.341942 -35.875378 
L 221.147727 -35.859556 
L 221.953512 -35.843734 
L 222.759298 -35.827913 
L 223.565083 -35.812091 
L 224.370868 -35.796269 
L 225.176653 -35.779184 
L 225.982438 -35.763441 
L 226.788223 -35.747244 
L 227.594008 -35.731432 
L 228.399793 -35.71562 
L 229.205579 -35.699808 
L 230.011364 -35.683995 
L 230.011364 -54.91733 
L 230.011364 -54.91733 
L 229.205579 -54.723782 
L 228.399793 -54.530235 
L 227.594008 -54.336687 
L 226.788223 -54.143139 
L 225.982438 -53.949591 
L 225.176653 -53.756043 
L 224.370868 -53.562495 
L 223.565083 -53.368947 
L 222.759298 -53.175399 
L 221.953512 -52.981851 
L 221.147727 -52.788303 
L 220.341942 -52.594755 
L 219.536157 -52.401207 
L 218.730372 -52.207659 
L 217.924587 -52.014111 
L 217.118802 -51.820564 
L 216.313017 -51.627016 
L 215.507231 -51.433468 
L 214.701446 -51.23992 
L 213.895661 -51.046372 
L 213.089876 -50.852824 
L 212.284091 -50.659276 
L 211.478306 -50.465728 
L 210.672521 -50.27218 
L 209.866736 -50.078632 
L 209.06095 -49.885084 
L 208.255165 -49.691536 
L 207.44938 -49.497988 
L 206.643595 -49.304441 
L 205.83781 -49.110893 
L 205.032025 -48.917345 
L 204.22624 -48.723797 
L 203.420455 -48.530249 
L 202.614669 -48.321875 
L 201.808884 -48.102736 
L 201.003099 -47.883597 
L 200.197314 -47.664458 
L 199.391529 -47.44769 
L 198.585744 -47.227575 
L 197.779959 -47.008679 
L 196.974174 -46.790344 
L 196.168388 -46.572008 
L 195.362603 -46.353673 
L 194.556818 -46.135337 
L 193.751033 -45.940766 
L 192.945248 -45.754287 
L 192.139463 -45.567807 
L 191.333678 -45.381328 
L 190.527893 -45.194848 
L 189.722107 -45.008369 
L 188.916322 -44.82189 
L 188.110537 -44.63541 
L 187.304752 -44.448931 
L 186.498967 -44.262451 
L 185.693182 -44.075972 
L 184.887397 -43.88821 
L 184.081612 -43.700323 
L 183.275826 -43.509436 
L 182.470041 -43.265819 
L 181.664256 -43.022201 
L 180.858471 -42.778444 
L 180.052686 -42.534074 
L 179.246901 -42.289705 
L 178.441116 -42.045335 
L 177.635331 -41.895797 
L 176.829545 -41.780611 
L 176.02376 -41.648715 
L 175.217975 -41.382255 
L 174.41219 -41.160114 
L 173.606405 -40.983638 
L 172.80062 -40.825756 
L 171.994835 -40.636798 
L 171.18905 -40.492375 
L 170.383264 -40.326737 
L 169.577479 -40.163743 
L 168.771694 -40.122445 
L 167.965909 -39.971127 
L 167.160124 -39.800916 
L 166.354339 -39.675529 
L 165.548554 -39.523114 
L 164.742769 -39.443284 
L 163.936983 -39.36906 
L 163.131198 -39.292278 
L 162.325413 -39.207639 
L 161.519628 -39.131786 
L 160.713843 -39.062334 
L 159.908058 -39.043347 
L 159.102273 -38.986299 
L 158.296488 -38.9565 
L 157.490702 -38.889826 
L 156.684917 -38.856716 
L 155.879132 -38.854413 
L 155.073347 -38.809952 
L 154.267562 -38.739059 
L 153.461777 -38.668931 
L 152.655992 -38.631415 
L 151.850207 -38.626435 
L 151.044421 -38.614306 
L 150.238636 -38.584305 
z
" style="stroke: #ffffff; stroke-opacity: 0.15; stroke-width: 0.8"/>
    </defs>
    <g clip-path="url(#p9d17840e34)">
     <use xlink:href="#m5616a2c2ec" x="0" y="90" style="fill: #9d8ec9; fill-opacity: 0.15; stroke: #ffffff; stroke-opacity: 0.15; stroke-width: 0.8"/>
    </g>
   </g>
   <g id="line2d_15">
    <path d="M 150.238636 50.683474 
L 151.044421 50.430528 
L 151.850207 50.177581 
L 152.655992 49.924635 
L 153.461777 49.671689 
L 154.267562 49.418742 
L 155.073347 49.165796 
L 155.879132 48.91285 
L 156.684917 48.659904 
L 157.490702 48.406957 
L 158.296488 48.154011 
L 159.102273 47.901065 
L 159.908058 47.648118 
L 160.713843 47.395172 
L 161.519628 47.142226 
L 162.325413 46.889279 
L 163.131198 46.636333 
L 163.936983 46.383387 
L 164.742769 46.130441 
L 165.548554 45.877494 
L 166.354339 45.624548 
L 167.160124 45.371602 
L 167.965909 45.118655 
L 168.771694 44.865709 
L 169.577479 44.612763 
L 170.383264 44.359817 
L 171.18905 44.10687 
L 171.994835 43.853924 
L 172.80062 43.600978 
L 173.606405 43.348031 
L 174.41219 43.095085 
L 175.217975 42.842139 
L 176.02376 42.589193 
L 176.829545 42.336246 
L 177.635331 42.0833 
L 178.441116 41.830354 
L 179.246901 41.577407 
L 180.052686 41.324461 
L 180.858471 41.071515 
L 181.664256 40.818568 
L 182.470041 40.565622 
L 183.275826 40.312676 
L 184.081612 40.05973 
L 184.887397 39.806783 
L 185.693182 39.553837 
L 186.498967 39.300891 
L 187.304752 39.047944 
L 188.110537 38.794998 
L 188.916322 38.542052 
L 189.722107 38.289106 
L 190.527893 38.036159 
L 191.333678 37.783213 
L 192.139463 37.530267 
L 192.945248 37.27732 
L 193.751033 37.024374 
L 194.556818 36.771428 
L 195.362603 36.518482 
L 196.168388 36.265535 
L 196.974174 36.012589 
L 197.779959 35.759643 
L 198.585744 35.506696 
L 199.391529 35.25375 
L 200.197314 35.000804 
L 201.003099 34.747857 
L 201.808884 34.494911 
L 202.614669 34.241965 
L 203.420455 33.989019 
L 204.22624 33.736072 
L 205.032025 33.483126 
L 205.83781 33.23018 
L 206.643595 32.977233 
L 207.44938 32.724287 
L 208.255165 32.471341 
L 209.06095 32.218395 
L 209.866736 31.965448 
L 210.672521 31.712502 
L 211.478306 31.459556 
L 212.284091 31.206609 
L 213.089876 30.953663 
L 213.895661 30.700717 
L 214.701446 30.44777 
L 215.507231 30.194824 
L 216.313017 29.941878 
L 217.118802 29.688932 
L 217.924587 29.435985 
L 218.730372 29.183039 
L 219.536157 28.930093 
L 220.341942 28.677146 
L 221.147727 28.4242 
L 221.953512 28.171254 
L 222.759298 27.918308 
L 223.565083 27.665361 
L 224.370868 27.412415 
L 225.176653 27.159469 
L 225.982438 26.906522 
L 226.788223 26.653576 
L 227.594008 26.40063 
L 228.399793 26.147684 
L 229.205579 25.894737 
L 230.011364 25.641791 
" clip-path="url(#p9d17840e34)" style="fill: none; stroke: #e873c9; stroke-width: 1.8; stroke-linecap: round"/>
   </g>
   <g id="line2d_16">
    <path d="M 150.238636 53.55972 
L 151.044421 53.497348 
L 151.850207 53.434975 
L 152.655992 53.372603 
L 153.461777 53.31023 
L 154.267562 53.247858 
L 155.073347 53.185485 
L 155.879132 53.123113 
L 156.684917 53.06074 
L 157.490702 52.998368 
L 158.296488 52.935995 
L 159.102273 52.873623 
L 159.908058 52.81125 
L 160.713843 52.748878 
L 161.519628 52.686505 
L 162.325413 52.624133 
L 163.131198 52.56176 
L 163.936983 52.499388 
L 164.742769 52.437016 
L 165.548554 52.374643 
L 166.354339 52.312271 
L 167.160124 52.249898 
L 167.965909 52.187526 
L 168.771694 52.125153 
L 169.577479 52.062781 
L 170.383264 52.000408 
L 171.18905 51.938036 
L 171.994835 51.875663 
L 172.80062 51.813291 
L 173.606405 51.750918 
L 174.41219 51.688546 
L 175.217975 51.626173 
L 176.02376 51.563801 
L 176.829545 51.501428 
L 177.635331 51.439056 
L 178.441116 51.376683 
L 179.246901 51.314311 
L 180.052686 51.251939 
L 180.858471 51.189566 
L 181.664256 51.127194 
L 182.470041 51.064821 
L 183.275826 51.002449 
L 184.081612 50.940076 
L 184.887397 50.877704 
L 185.693182 50.815331 
L 186.498967 50.752959 
L 187.304752 50.690586 
L 188.110537 50.628214 
L 188.916322 50.565841 
L 189.722107 50.503469 
L 190.527893 50.441096 
L 191.333678 50.378724 
L 192.139463 50.316351 
L 192.945248 50.253979 
L 193.751033 50.191606 
L 194.556818 50.129234 
L 195.362603 50.066862 
L 196.168388 50.004489 
L 196.974174 49.942117 
L 197.779959 49.879744 
L 198.585744 49.817372 
L 199.391529 49.754999 
L 200.197314 49.692627 
L 201.003099 49.630254 
L 201.808884 49.567882 
L 202.614669 49.505509 
L 203.420455 49.443137 
L 204.22624 49.380764 
L 205.032025 49.318392 
L 205.83781 49.256019 
L 206.643595 49.193647 
L 207.44938 49.131274 
L 208.255165 49.068902 
L 209.06095 49.006529 
L 209.866736 48.944157 
L 210.672521 48.881785 
L 211.478306 48.819412 
L 212.284091 48.75704 
L 213.089876 48.694667 
L 213.895661 48.632295 
L 214.701446 48.569922 
L 215.507231 48.50755 
L 216.313017 48.445177 
L 217.118802 48.382805 
L 217.924587 48.320432 
L 218.730372 48.25806 
L 219.536157 48.195687 
L 220.341942 48.133315 
L 221.147727 48.070942 
L 221.953512 48.00857 
L 222.759298 47.946197 
L 223.565083 47.883825 
L 224.370868 47.821452 
L 225.176653 47.75908 
L 225.982438 47.696707 
L 226.788223 47.634335 
L 227.594008 47.571963 
L 228.399793 47.50959 
L 229.205579 47.447218 
L 230.011364 47.384845 
" clip-path="url(#p9d17840e34)" style="fill: none; stroke: #9d8ec9; stroke-width: 1.8; stroke-linecap: round"/>
   </g>
   <g id="patch_6">
    <path d="M 146.25 63 
L 146.25 0 
" style="fill: none; stroke: #262626; stroke-linejoin: miter; stroke-linecap: square"/>
   </g>
   <g id="patch_7">
    <path d="M 146.25 63 
L 234 63 
" style="fill: none; stroke: #262626; stroke-linejoin: miter; stroke-linecap: square"/>
   </g>
   <g id="text_14">
    <!-- $r = 0.593, p = 0.001$ -->
    <g style="fill: #e873c9" transform="translate(158.82729 17.807863)">
     <text>
      <tspan x="0" y="-0.3125" style="font-style: oblique; font-size: 9px; font-family: 'DejaVu Sans'; fill: #e873c9">r</tspan>
      <tspan x="44.627441" y="-0.3125" style="font-style: oblique; font-size: 9px; font-family: 'DejaVu Sans'; fill: #e873c9">p</tspan>
      <tspan x="5.453613" y="-0.3125" style="font-size: 9px; font-family: 'DejaVu Sans'; fill: #e873c9">=</tspan>
      <tspan x="14.748047" y="-0.3125" style="font-size: 9px; font-family: 'DejaVu Sans'; fill: #e873c9">0</tspan>
      <tspan x="20.474121" y="-0.3125" style="font-size: 9px; font-family: 'DejaVu Sans'; fill: #e873c9">.</tspan>
      <tspan x="23.334961" y="-0.3125" style="font-size: 9px; font-family: 'DejaVu Sans'; fill: #e873c9">5</tspan>
      <tspan x="28.561035" y="-0.3125" style="font-size: 9px; font-family: 'DejaVu Sans'; fill: #e873c9">9</tspan>
      <tspan x="34.287109" y="-0.3125" style="font-size: 9px; font-family: 'DejaVu Sans'; fill: #e873c9">3</tspan>
      <tspan x="40.013184" y="-0.3125" style="font-size: 9px; font-family: 'DejaVu Sans'; fill: #e873c9">,</tspan>
      <tspan x="52.09375" y="-0.3125" style="font-size: 9px; font-family: 'DejaVu Sans'; fill: #e873c9">=</tspan>
      <tspan x="61.388184" y="-0.3125" style="font-size: 9px; font-family: 'DejaVu Sans'; fill: #e873c9">0</tspan>
      <tspan x="67.114258" y="-0.3125" style="font-size: 9px; font-family: 'DejaVu Sans'; fill: #e873c9">.</tspan>
      <tspan x="69.975098" y="-0.3125" style="font-size: 9px; font-family: 'DejaVu Sans'; fill: #e873c9">0</tspan>
      <tspan x="75.701172" y="-0.3125" style="font-size: 9px; font-family: 'DejaVu Sans'; fill: #e873c9">0</tspan>
      <tspan x="81.427246" y="-0.3125" style="font-size: 9px; font-family: 'DejaVu Sans'; fill: #e873c9">1</tspan>
     </text>
    </g>
   </g>
   <g id="text_15">
    <!-- $r = 0.245, p = 0.209$ -->
    <g style="fill: #9d8ec9" transform="translate(158.82729 24.709767)">
     <text>
      <tspan x="0" y="-0.3125" style="font-style: oblique; font-size: 9px; font-family: 'DejaVu Sans'; fill: #9d8ec9">r</tspan>
      <tspan x="44.627441" y="-0.3125" style="font-style: oblique; font-size: 9px; font-family: 'DejaVu Sans'; fill: #9d8ec9">p</tspan>
      <tspan x="5.453613" y="-0.3125" style="font-size: 9px; font-family: 'DejaVu Sans'; fill: #9d8ec9">=</tspan>
      <tspan x="14.748047" y="-0.3125" style="font-size: 9px; font-family: 'DejaVu Sans'; fill: #9d8ec9">0</tspan>
      <tspan x="20.474121" y="-0.3125" style="font-size: 9px; font-family: 'DejaVu Sans'; fill: #9d8ec9">.</tspan>
      <tspan x="22.834961" y="-0.3125" style="font-size: 9px; font-family: 'DejaVu Sans'; fill: #9d8ec9">2</tspan>
      <tspan x="28.561035" y="-0.3125" style="font-size: 9px; font-family: 'DejaVu Sans'; fill: #9d8ec9">4</tspan>
      <tspan x="34.287109" y="-0.3125" style="font-size: 9px; font-family: 'DejaVu Sans'; fill: #9d8ec9">5</tspan>
      <tspan x="40.013184" y="-0.3125" style="font-size: 9px; font-family: 'DejaVu Sans'; fill: #9d8ec9">,</tspan>
      <tspan x="52.09375" y="-0.3125" style="font-size: 9px; font-family: 'DejaVu Sans'; fill: #9d8ec9">=</tspan>
      <tspan x="61.388184" y="-0.3125" style="font-size: 9px; font-family: 'DejaVu Sans'; fill: #9d8ec9">0</tspan>
      <tspan x="67.114258" y="-0.3125" style="font-size: 9px; font-family: 'DejaVu Sans'; fill: #9d8ec9">.</tspan>
      <tspan x="69.475098" y="-0.3125" style="font-size: 9px; font-family: 'DejaVu Sans'; fill: #9d8ec9">2</tspan>
      <tspan x="75.201172" y="-0.3125" style="font-size: 9px; font-family: 'DejaVu Sans'; fill: #9d8ec9">0</tspan>
      <tspan x="80.927246" y="-0.3125" style="font-size: 9px; font-family: 'DejaVu Sans'; fill: #9d8ec9">9</tspan>
     </text>
    </g>
   </g>
  </g>
 </g>
 <defs>
  <clipPath id="p1d2b16c346">
   <rect x="35.775" y="0" width="63" height="63"/>
  </clipPath>
  <clipPath id="p9d17840e34">
   <rect x="146.25" y="0" width="87.75" height="63"/>
  </clipPath>
 </defs>
</svg>
