<?xml version="1.0" encoding="utf-8" standalone="no"?>
<!DOCTYPE svg PUBLIC "-//W3C//DTD SVG 1.1//EN"
  "http://www.w3.org/Graphics/SVG/1.1/DTD/svg11.dtd">
<svg xmlns:xlink="http://www.w3.org/1999/xlink" width="180pt" height="180pt" viewBox="0 0 180 180" xmlns="http://www.w3.org/2000/svg" version="1.1">
 <metadata>
  <rdf:RDF xmlns:dc="http://purl.org/dc/elements/1.1/" xmlns:cc="http://creativecommons.org/ns#" xmlns:rdf="http://www.w3.org/1999/02/22-rdf-syntax-ns#">
   <cc:Work>
    <dc:type rdf:resource="http://purl.org/dc/dcmitype/StillImage"/>
    <dc:date>2025-12-17T09:52:32.720454</dc:date>
    <dc:format>image/svg+xml</dc:format>
    <dc:creator>
     <cc:Agent>
      <dc:title>Matplotlib v3.10.7, https://matplotlib.org/</dc:title>
     </cc:Agent>
    </dc:creator>
   </cc:Work>
  </rdf:RDF>
 </metadata>
 <defs>
  <style type="text/css">*{stroke-linejoin: round; stroke-linecap: butt}</style>
 </defs>
 <g id="figure_1">
  <g id="patch_1">
   <path d="M 0 180 
L 180 180 
L 180 0 
L 0 0 
L 0 180 
z
" style="fill: none"/>
  </g>
  <g id="axes_1">
   <g id="patch_2">
    <path d="M 36 57.6 
L 93.6 57.6 
L 93.6 0 
L 36 0 
L 36 57.6 
z
" style="fill: none"/>
   </g>
   <g id="matplotlib.axis_1">
    <g id="xtick_1">
     <g id="line2d_1">
      <defs>
       <path id="m221a674976" d="M 0 0 
L 0 4.8 
" style="stroke: #262626"/>
      </defs>
      <g>
       <use xlink:href="#m221a674976" x="36" y="57.6" style="fill: #262626; stroke: #262626"/>
      </g>
     </g>
     <g id="text_1">
      <text style="font-size: 8px; font-family: 'Arial'; text-anchor: middle; fill: #262626" x="36" y="71.62625" transform="rotate(-0 36 71.62625)">0</text>
     </g>
    </g>
    <g id="xtick_2">
     <g id="line2d_2">
      <g>
       <use xlink:href="#m221a674976" x="84" y="57.6" style="fill: #262626; stroke: #262626"/>
      </g>
     </g>
     <g id="text_2">
      <text style="font-size: 8px; font-family: 'Arial'; text-anchor: middle; fill: #262626" x="84" y="71.62625" transform="rotate(-0 84 71.62625)">10</text>
     </g>
    </g>
    <g id="text_3">
     <text style="font-size: 9px; font-family: 'Arial'; text-anchor: middle; fill: #262626" x="64.8" y="83.767969" transform="rotate(-0 64.8 83.767969)">distance (mm)</text>
    </g>
   </g>
   <g id="matplotlib.axis_2">
    <g id="ytick_1">
     <g id="line2d_3">
      <defs>
       <path id="m5ff115b9f7" d="M 0 0 
L -4.8 0 
" style="stroke: #262626"/>
      </defs>
      <g>
       <use xlink:href="#m5ff115b9f7" x="36" y="57.6" style="fill: #262626; stroke: #262626"/>
      </g>
     </g>
     <g id="text_4">
      <text style="font-size: 8px; font-family: 'Arial'; text-anchor: end; fill: #262626" x="27.7" y="60.463125" transform="rotate(-0 27.7 60.463125)">0.0</text>
     </g>
    </g>
    <g id="ytick_2">
     <g id="line2d_4">
      <g>
       <use xlink:href="#m5ff115b9f7" x="36" y="28.8" style="fill: #262626; stroke: #262626"/>
      </g>
     </g>
     <g id="text_5">
      <text style="font-size: 8px; font-family: 'Arial'; text-anchor: end; fill: #262626" x="27.7" y="31.663125" transform="rotate(-0 27.7 31.663125)">0.2</text>
     </g>
    </g>
    <g id="ytick_3">
     <g id="line2d_5">
      <g>
       <use xlink:href="#m5ff115b9f7" x="36" y="-0" style="fill: #262626; stroke: #262626"/>
      </g>
     </g>
     <g id="text_6">
      <text style="font-size: 8px; font-family: 'Arial'; text-anchor: end; fill: #262626" x="27.7" y="2.863125" transform="rotate(-0 27.7 2.863125)">0.4</text>
     </g>
    </g>
    <g id="text_7">
     <text style="font-size: 9px; font-family: 'Arial'; fill: #262626" transform="translate(1.166594 40.301719) rotate(-90)">norm.</text>
     <text style="font-size: 9px; font-family: 'Arial'; fill: #262626" transform="translate(10.685781 52.309688) rotate(-90)">connectivity</text>
    </g>
   </g>
   <g id="line2d_6">
    <path d="M 46.979154 57.6 
L 52.601533 52.56875 
M 63.846292 37.263749 
L 69.468672 33.557799 
L 75.091051 34.363216 
L 80.713431 30.492786 
L 86.33581 43.389144 
L 91.95819 27.564555 
" clip-path="url(#p17aba60816)" style="fill: none; stroke: #66c2a5; stroke-width: 1.2; stroke-linecap: round"/>
   </g>
   <g id="line2d_7">
    <path d="M 41.356774 50.596832 
L 46.979154 35.408978 
L 52.601533 27.104754 
L 58.223913 57.6 
L 63.846292 43.41008 
L 69.468672 35.852875 
L 75.091051 41.714462 
L 80.713431 46.815334 
L 86.33581 49.039357 
L 91.95819 44.45733 
" clip-path="url(#p17aba60816)" style="fill: none; stroke: #fc8d62; stroke-width: 1.2; stroke-linecap: round"/>
   </g>
   <g id="patch_3">
    <path d="M 36 57.6 
L 36 -0 
" style="fill: none; stroke: #262626; stroke-linejoin: miter; stroke-linecap: square"/>
   </g>
   <g id="patch_4">
    <path d="M 36 57.6 
L 93.6 57.6 
" style="fill: none; stroke: #262626; stroke-linejoin: miter; stroke-linecap: square"/>
   </g>
  </g>
  <g id="axes_2">
   <g id="patch_5">
    <path d="M 93.6 115.2 
C 93.6 111.418019 92.855032 107.672812 91.407731 104.178717 
C 89.960429 100.684622 87.83894 97.509589 85.164675 94.835325 
C 82.490411 92.16106 79.315378 90.039571 75.821283 88.592269 
C 72.327188 87.144968 68.581981 86.4 64.8 86.4 
C 61.018019 86.4 57.272812 87.144968 53.778717 88.592269 
C 50.284622 90.039571 47.109589 92.16106 44.435325 94.835325 
C 41.76106 97.509589 39.639571 100.684622 38.192269 104.178717 
C 36.744968 107.672812 36 111.418019 36 115.2 
C 36 118.981981 36.744968 122.727188 38.192269 126.221283 
C 39.639571 129.715378 41.76106 132.890411 44.435325 135.564675 
C 47.109589 138.23894 50.284622 140.360429 53.778717 141.807731 
C 57.272812 143.255032 61.018019 144 64.8 144 
C 68.581981 144 72.327188 143.255032 75.821283 141.807731 
C 79.315378 140.360429 82.490411 138.23894 85.164675 135.564675 
C 87.83894 132.890411 89.960429 129.715378 91.407731 126.221283 
C 92.855032 122.727188 93.6 118.981981 93.6 115.2 
M 64.8 115.2 
C 64.8 115.2 64.8 115.2 64.8 115.2 
C 64.8 115.2 64.8 115.2 64.8 115.2 
C 64.8 115.2 64.8 115.2 64.8 115.2 
C 64.8 115.2 64.8 115.2 64.8 115.2 
C 64.8 115.2 64.8 115.2 64.8 115.2 
C 64.8 115.2 64.8 115.2 64.8 115.2 
C 64.8 115.2 64.8 115.2 64.8 115.2 
C 64.8 115.2 64.8 115.2 64.8 115.2 
C 64.8 115.2 64.8 115.2 64.8 115.2 
C 64.8 115.2 64.8 115.2 64.8 115.2 
C 64.8 115.2 64.8 115.2 64.8 115.2 
C 64.8 115.2 64.8 115.2 64.8 115.2 
C 64.8 115.2 64.8 115.2 64.8 115.2 
C 64.8 115.2 64.8 115.2 64.8 115.2 
C 64.8 115.2 64.8 115.2 64.8 115.2 
C 64.8 115.2 64.8 115.2 64.8 115.2 
L 64.8 115.2 
z
" style="fill: none"/>
   </g>
   <g id="matplotlib.axis_3">
    <g id="xtick_3">
     <g id="line2d_8">
      <path d="M 64.8 115.2 
L 93.6 115.2 
" clip-path="url(#paaffa81ebc)" style="fill: none; stroke: #cccccc; stroke-width: 0.8; stroke-linecap: round"/>
     </g>
     <g id="text_8">
      <text style="font-size: 8px; font-family: 'Arial'; text-anchor: middle; fill: #262626" x="102.4" y="117.268125" transform="rotate(-0 102.4 117.268125)">0°</text>
     </g>
    </g>
    <g id="xtick_4">
     <g id="line2d_9">
      <path d="M 64.8 115.2 
L 64.8 86.4 
" clip-path="url(#paaffa81ebc)" style="fill: none; stroke: #cccccc; stroke-width: 0.8; stroke-linecap: round"/>
     </g>
     <g id="text_9">
      <text style="font-size: 8px; font-family: 'Arial'; text-anchor: middle; fill: #262626" x="64.8" y="79.668125" transform="rotate(-0 64.8 79.668125)">90°</text>
     </g>
    </g>
    <g id="xtick_5">
     <g id="line2d_10">
      <path d="M 64.8 115.2 
L 36 115.2 
" clip-path="url(#paaffa81ebc)" style="fill: none; stroke: #cccccc; stroke-width: 0.8; stroke-linecap: round"/>
     </g>
     <g id="text_10">
      <text style="font-size: 8px; font-family: 'Arial'; text-anchor: middle; fill: #262626" x="27.2" y="117.268125" transform="rotate(-0 27.2 117.268125)">180°</text>
     </g>
    </g>
    <g id="xtick_6">
     <g id="line2d_11">
      <path d="M 64.8 115.2 
L 64.8 144 
" clip-path="url(#paaffa81ebc)" style="fill: none; stroke: #cccccc; stroke-width: 0.8; stroke-linecap: round"/>
     </g>
     <g id="text_11">
      <text style="font-size: 8px; font-family: 'Arial'; text-anchor: middle; fill: #262626" x="64.8" y="154.868125" transform="rotate(-0 64.8 154.868125)">270°</text>
     </g>
    </g>
   </g>
   <g id="matplotlib.axis_4">
    <g id="ytick_4">
     <g id="line2d_12">
      <path d="M 74.4 115.2 
C 74.4 113.93934 74.151677 112.690937 73.669244 111.526239 
C 73.18681 110.361541 72.479647 109.303196 71.588225 108.411775 
C 70.696804 107.520353 69.638459 106.81319 68.473761 106.330756 
C 67.309063 105.848323 66.06066 105.6 64.8 105.6 
C 63.53934 105.6 62.290937 105.848323 61.126239 106.330756 
C 59.961541 106.81319 58.903196 107.520353 58.011775 108.411775 
C 57.120353 109.303196 56.41319 110.361541 55.930756 111.526239 
C 55.448323 112.690937 55.2 113.93934 55.2 115.2 
C 55.2 116.46066 55.448323 117.709063 55.930756 118.873761 
C 56.41319 120.038459 57.120353 121.096804 58.011775 121.988225 
C 58.903196 122.879647 59.961541 123.58681 61.126239 124.069244 
C 62.290937 124.551677 63.53934 124.8 64.8 124.8 
C 66.06066 124.8 67.309063 124.551677 68.473761 124.069244 
C 69.638459 123.58681 70.696804 122.879647 71.588225 121.988225 
C 72.479647 121.096804 73.18681 120.038459 73.669244 118.873761 
C 74.151677 117.709063 74.4 116.46066 74.4 115.2 
" clip-path="url(#paaffa81ebc)" style="fill: none; stroke: #cccccc; stroke-width: 0.8; stroke-linecap: round"/>
     </g>
     <g id="text_12">
      <text style="font-size: 8px; font-family: 'Arial'; text-anchor: start; fill: #262626" x="73.669244" y="109.936239" transform="rotate(-0 73.669244 109.936239)">0.1</text>
     </g>
    </g>
    <g id="ytick_5">
     <g id="line2d_13">
      <path d="M 84 115.2 
C 84 112.678679 83.503355 110.181875 82.538487 107.852478 
C 81.573619 105.523081 80.159293 103.406393 78.37645 101.62355 
C 76.593607 99.840707 74.476919 98.426381 72.147522 97.461513 
C 69.818125 96.496645 67.321321 96 64.8 96 
C 62.278679 96 59.781875 96.496645 57.452478 97.461513 
C 55.123081 98.426381 53.006393 99.840707 51.22355 101.62355 
C 49.440707 103.406393 48.026381 105.523081 47.061513 107.852478 
C 46.096645 110.181875 45.6 112.678679 45.6 115.2 
C 45.6 117.721321 46.096645 120.218125 47.061513 122.547522 
C 48.026381 124.876919 49.440707 126.993607 51.22355 128.77645 
C 53.006393 130.559293 55.123081 131.973619 57.452478 132.938487 
C 59.781875 133.903355 62.278679 134.4 64.8 134.4 
C 67.321321 134.4 69.818125 133.903355 72.147522 132.938487 
C 74.476919 131.973619 76.593607 130.559293 78.37645 128.77645 
C 80.159293 126.993607 81.573619 124.876919 82.538487 122.547522 
C 83.503355 120.218125 84 117.721321 84 115.2 
" clip-path="url(#paaffa81ebc)" style="fill: none; stroke: #cccccc; stroke-width: 0.8; stroke-linecap: round"/>
     </g>
     <g id="text_13">
      <text style="font-size: 8px; font-family: 'Arial'; text-anchor: start; fill: #262626" x="82.538487" y="106.262478" transform="rotate(-0 82.538487 106.262478)">0.2</text>
     </g>
    </g>
    <g id="ytick_6">
     <g id="line2d_14">
      <path d="M 93.6 115.2 
C 93.6 111.418019 92.855032 107.672812 91.407731 104.178717 
C 89.960429 100.684622 87.83894 97.509589 85.164675 94.835325 
C 82.490411 92.16106 79.315378 90.039571 75.821283 88.592269 
C 72.327188 87.144968 68.581981 86.4 64.8 86.4 
C 61.018019 86.4 57.272812 87.144968 53.778717 88.592269 
C 50.284622 90.039571 47.109589 92.16106 44.435325 94.835325 
C 41.76106 97.509589 39.639571 100.684622 38.192269 104.178717 
C 36.744968 107.672812 36 111.418019 36 115.2 
C 36 118.981981 36.744968 122.727188 38.192269 126.221283 
C 39.639571 129.715378 41.76106 132.890411 44.435325 135.564675 
C 47.109589 138.23894 50.284622 140.360429 53.778717 141.807731 
C 57.272812 143.255032 61.018019 144 64.8 144 
C 68.581981 144 72.327188 143.255032 75.821283 141.807731 
C 79.315378 140.360429 82.490411 138.23894 85.164675 135.564675 
C 87.83894 132.890411 89.960429 129.715378 91.407731 126.221283 
C 92.855032 122.727188 93.6 118.981981 93.6 115.2 
" clip-path="url(#paaffa81ebc)" style="fill: none; stroke: #cccccc; stroke-width: 0.8; stroke-linecap: round"/>
     </g>
     <g id="text_14">
      <text style="font-size: 8px; font-family: 'Arial'; text-anchor: start; fill: #262626" x="91.407731" y="102.588717" transform="rotate(-0 91.407731 102.588717)">0.3</text>
     </g>
    </g>
   </g>
   <g id="FillBetweenPolyCollection_1">
    <defs>
     <path id="m40dfd2acb3" d="M 64.8 -64.8 
L 64.8 -64.8 
L 48.882785 -41.55051 
L 66.155664 3.010281 
L 66.155664 3.010281 
L 66.155664 3.010281 
L 48.882785 -41.55051 
L 64.8 -64.8 
z
" style="stroke: #ffffff; stroke-opacity: 0.5; stroke-width: 0.8"/>
    </defs>
    <g clip-path="url(#paaffa81ebc)">
     <use xlink:href="#m40dfd2acb3" x="0" y="180" style="fill: #66c2a5; fill-opacity: 0.5; stroke: #ffffff; stroke-opacity: 0.5; stroke-width: 0.8"/>
    </g>
   </g>
   <g id="FillBetweenPolyCollection_2">
    <path d="M 64.8 115.2 
L 64.8 115.2 
L 64.8 115.2 
L 64.8 115.2 
z
" clip-path="url(#paaffa81ebc)" style="fill: #fc8d62; fill-opacity: 0.5; stroke: #ffffff; stroke-opacity: 0.5; stroke-width: 0.8"/>
    <path d="M 65.163523 97.016594 
L 65.163523 97.016594 
L 57.30413 104.251153 
L 41.377602 106.646439 
L 51.643287 120.004664 
L 61.009368 120.736789 
L 64.976777 124.042399 
L 65.964362 116.762841 
L 72.512499 117.671898 
L 64.8 115.2 
L 64.8 115.2 
L 64.8 115.2 
L 72.512499 117.671898 
L 65.964362 116.762841 
L 64.976777 124.042399 
L 61.009368 120.736789 
L 51.643287 120.004664 
L 41.377602 106.646439 
L 57.30413 104.251153 
L 65.163523 97.016594 
z
" clip-path="url(#paaffa81ebc)" style="fill: #fc8d62; fill-opacity: 0.5; stroke: #ffffff; stroke-opacity: 0.5; stroke-width: 0.8"/>
   </g>
   <g id="line2d_15">
    <path d="M 64.8 115.2 
L 48.882785 138.44949 
L 65.376428 181 
" clip-path="url(#paaffa81ebc)" style="fill: none; stroke: #66c2a5; stroke-width: 1.2; stroke-linecap: round"/>
   </g>
   <g id="line2d_16">
    <path d="M 64.8 115.2 
M 65.163523 97.016594 
L 57.30413 104.251153 
L 41.377602 106.646439 
L 51.643287 120.004664 
L 61.009368 120.736789 
L 64.976777 124.042399 
L 65.964362 116.762841 
L 72.512499 117.671898 
L 64.8 115.2 
" clip-path="url(#paaffa81ebc)" style="fill: none; stroke: #fc8d62; stroke-width: 1.2; stroke-linecap: round"/>
   </g>
   <g id="patch_6">
    <path d="M 93.6 115.2 
C 93.6 111.418019 92.855032 107.672812 91.407731 104.178717 
C 89.960429 100.684622 87.83894 97.509589 85.164675 94.835325 
C 82.490411 92.16106 79.315378 90.039571 75.821283 88.592269 
C 72.327188 87.144968 68.581981 86.4 64.8 86.4 
C 61.018019 86.4 57.272812 87.144968 53.778717 88.592269 
C 50.284622 90.039571 47.109589 92.16106 44.435325 94.835325 
C 41.76106 97.509589 39.639571 100.684622 38.192269 104.178717 
C 36.744968 107.672812 36 111.418019 36 115.2 
C 36 118.981981 36.744968 122.727188 38.192269 126.221283 
C 39.639571 129.715378 41.76106 132.890411 44.435325 135.564675 
C 47.109589 138.23894 50.284622 140.360429 53.778717 141.807731 
C 57.272812 143.255032 61.018019 144 64.8 144 
C 68.581981 144 72.327188 143.255032 75.821283 141.807731 
C 79.315378 140.360429 82.490411 138.23894 85.164675 135.564675 
C 87.83894 132.890411 89.960429 129.715378 91.407731 126.221283 
C 92.855032 122.727188 93.6 118.981981 93.6 115.2 
" style="fill: none; stroke: #262626; stroke-linejoin: miter; stroke-linecap: square"/>
   </g>
  </g>
  <g id="axes_3">
   <g id="patch_7">
    <path d="M 122.4 57.6 
L 180 57.6 
L 180 0 
L 122.4 0 
L 122.4 57.6 
z
" style="fill: none"/>
   </g>
   <g id="matplotlib.axis_5">
    <g id="xtick_7">
     <g id="line2d_17">
      <g>
       <use xlink:href="#m221a674976" x="122.4" y="57.6" style="fill: #262626; stroke: #262626"/>
      </g>
     </g>
     <g id="text_15">
      <text style="font-size: 8px; font-family: 'Arial'; text-anchor: middle; fill: #262626" x="122.4" y="71.62625" transform="rotate(-0 122.4 71.62625)">0</text>
     </g>
    </g>
    <g id="xtick_8">
     <g id="line2d_18">
      <g>
       <use xlink:href="#m221a674976" x="170.4" y="57.6" style="fill: #262626; stroke: #262626"/>
      </g>
     </g>
     <g id="text_16">
      <text style="font-size: 8px; font-family: 'Arial'; text-anchor: middle; fill: #262626" x="170.4" y="71.62625" transform="rotate(-0 170.4 71.62625)">10</text>
     </g>
    </g>
    <g id="text_17">
     <text style="font-size: 9px; font-family: 'Arial'; text-anchor: middle; fill: #262626" x="151.2" y="83.767969" transform="rotate(-0 151.2 83.767969)">distance (mm)</text>
    </g>
   </g>
   <g id="matplotlib.axis_6">
    <g id="ytick_7">
     <g id="line2d_19">
      <g>
       <use xlink:href="#m5ff115b9f7" x="122.4" y="57.6" style="fill: #262626; stroke: #262626"/>
      </g>
     </g>
     <g id="text_18">
      <text style="font-size: 8px; font-family: 'Arial'; text-anchor: end; fill: #262626" x="114.1" y="60.463125" transform="rotate(-0 114.1 60.463125)">0.0</text>
     </g>
    </g>
    <g id="ytick_8">
     <g id="line2d_20">
      <g>
       <use xlink:href="#m5ff115b9f7" x="122.4" y="28.8" style="fill: #262626; stroke: #262626"/>
      </g>
     </g>
     <g id="text_19">
      <text style="font-size: 8px; font-family: 'Arial'; text-anchor: end; fill: #262626" x="114.1" y="31.663125" transform="rotate(-0 114.1 31.663125)">0.2</text>
     </g>
    </g>
    <g id="ytick_9">
     <g id="line2d_21">
      <g>
       <use xlink:href="#m5ff115b9f7" x="122.4" y="-0" style="fill: #262626; stroke: #262626"/>
      </g>
     </g>
     <g id="text_20">
      <text style="font-size: 8px; font-family: 'Arial'; text-anchor: end; fill: #262626" x="114.1" y="2.863125" transform="rotate(-0 114.1 2.863125)">0.4</text>
     </g>
    </g>
   </g>
   <g id="line2d_22">
    <path d="M 127.756774 16.254015 
L 133.379154 15.912378 
L 139.001533 33.324581 
L 144.623913 44.039948 
L 150.246292 48.923612 
L 155.868672 54.510122 
L 161.491051 54.249316 
L 167.113431 53.352259 
L 172.73581 53.83377 
L 178.35819 57.6 
" clip-path="url(#p5aa2def99c)" style="fill: none; stroke: #66c2a5; stroke-width: 1.2; stroke-linecap: round"/>
   </g>
   <g id="line2d_23">
    <path d="M 127.756774 3.95313 
L 133.379154 25.092267 
L 139.001533 45.402241 
L 144.623913 44.743283 
L 150.246292 42.212786 
L 155.868672 49.831109 
L 161.491051 53.174886 
L 167.113431 55.955467 
L 172.73581 54.034831 
L 178.35819 57.6 
" clip-path="url(#p5aa2def99c)" style="fill: none; stroke: #fc8d62; stroke-width: 1.2; stroke-linecap: round"/>
   </g>
   <g id="patch_8">
    <path d="M 122.4 57.6 
L 122.4 -0 
" style="fill: none; stroke: #262626; stroke-linejoin: miter; stroke-linecap: square"/>
   </g>
   <g id="patch_9">
    <path d="M 122.4 57.6 
L 180 57.6 
" style="fill: none; stroke: #262626; stroke-linejoin: miter; stroke-linecap: square"/>
   </g>
  </g>
  <g id="axes_4">
   <g id="patch_10">
    <path d="M 180 115.2 
C 180 111.418019 179.255032 107.672812 177.807731 104.178717 
C 176.360429 100.684622 174.23894 97.509589 171.564675 94.835325 
C 168.890411 92.16106 165.715378 90.039571 162.221283 88.592269 
C 158.727188 87.144968 154.981981 86.4 151.2 86.4 
C 147.418019 86.4 143.672812 87.144968 140.178717 88.592269 
C 136.684622 90.039571 133.509589 92.16106 130.835325 94.835325 
C 128.16106 97.509589 126.039571 100.684622 124.592269 104.178717 
C 123.144968 107.672812 122.4 111.418019 122.4 115.2 
C 122.4 118.981981 123.144968 122.727188 124.592269 126.221283 
C 126.039571 129.715378 128.16106 132.890411 130.835325 135.564675 
C 133.509589 138.23894 136.684622 140.360429 140.178717 141.807731 
C 143.672812 143.255032 147.418019 144 151.2 144 
C 154.981981 144 158.727188 143.255032 162.221283 141.807731 
C 165.715378 140.360429 168.890411 138.23894 171.564675 135.564675 
C 174.23894 132.890411 176.360429 129.715378 177.807731 126.221283 
C 179.255032 122.727188 180 118.981981 180 115.2 
M 151.2 115.2 
C 151.2 115.2 151.2 115.2 151.2 115.2 
C 151.2 115.2 151.2 115.2 151.2 115.2 
C 151.2 115.2 151.2 115.2 151.2 115.2 
C 151.2 115.2 151.2 115.2 151.2 115.2 
C 151.2 115.2 151.2 115.2 151.2 115.2 
C 151.2 115.2 151.2 115.2 151.2 115.2 
C 151.2 115.2 151.2 115.2 151.2 115.2 
C 151.2 115.2 151.2 115.2 151.2 115.2 
C 151.2 115.2 151.2 115.2 151.2 115.2 
C 151.2 115.2 151.2 115.2 151.2 115.2 
C 151.2 115.2 151.2 115.2 151.2 115.2 
C 151.2 115.2 151.2 115.2 151.2 115.2 
C 151.2 115.2 151.2 115.2 151.2 115.2 
C 151.2 115.2 151.2 115.2 151.2 115.2 
C 151.2 115.2 151.2 115.2 151.2 115.2 
C 151.2 115.2 151.2 115.2 151.2 115.2 
L 151.2 115.2 
z
" style="fill: none"/>
   </g>
   <g id="matplotlib.axis_7">
    <g id="xtick_9">
     <g id="line2d_24">
      <path d="M 151.2 115.2 
L 180 115.2 
" clip-path="url(#pf1543ab111)" style="fill: none; stroke: #cccccc; stroke-width: 0.8; stroke-linecap: round"/>
     </g>
     <g id="text_21">
      <text style="font-size: 8px; font-family: 'Arial'; text-anchor: middle; fill: #262626" x="188.8" y="117.268125" transform="rotate(-0 188.8 117.268125)">0°</text>
     </g>
    </g>
    <g id="xtick_10">
     <g id="line2d_25">
      <path d="M 151.2 115.2 
L 151.2 86.4 
" clip-path="url(#pf1543ab111)" style="fill: none; stroke: #cccccc; stroke-width: 0.8; stroke-linecap: round"/>
     </g>
     <g id="text_22">
      <text style="font-size: 8px; font-family: 'Arial'; text-anchor: middle; fill: #262626" x="151.2" y="79.668125" transform="rotate(-0 151.2 79.668125)">90°</text>
     </g>
    </g>
    <g id="xtick_11">
     <g id="line2d_26">
      <path d="M 151.2 115.2 
L 122.4 115.2 
" clip-path="url(#pf1543ab111)" style="fill: none; stroke: #cccccc; stroke-width: 0.8; stroke-linecap: round"/>
     </g>
     <g id="text_23">
      <text style="font-size: 8px; font-family: 'Arial'; text-anchor: middle; fill: #262626" x="113.6" y="117.268125" transform="rotate(-0 113.6 117.268125)">180°</text>
     </g>
    </g>
    <g id="xtick_12">
     <g id="line2d_27">
      <path d="M 151.2 115.2 
L 151.2 144 
" clip-path="url(#pf1543ab111)" style="fill: none; stroke: #cccccc; stroke-width: 0.8; stroke-linecap: round"/>
     </g>
     <g id="text_24">
      <text style="font-size: 8px; font-family: 'Arial'; text-anchor: middle; fill: #262626" x="151.2" y="154.868125" transform="rotate(-0 151.2 154.868125)">270°</text>
     </g>
    </g>
   </g>
   <g id="matplotlib.axis_8">
    <g id="ytick_10">
     <g id="line2d_28">
      <path d="M 160.8 115.2 
C 160.8 113.93934 160.551677 112.690937 160.069244 111.526239 
C 159.58681 110.361541 158.879647 109.303196 157.988225 108.411775 
C 157.096804 107.520353 156.038459 106.81319 154.873761 106.330756 
C 153.709063 105.848323 152.46066 105.6 151.2 105.6 
C 149.93934 105.6 148.690937 105.848323 147.526239 106.330756 
C 146.361541 106.81319 145.303196 107.520353 144.411775 108.411775 
C 143.520353 109.303196 142.81319 110.361541 142.330756 111.526239 
C 141.848323 112.690937 141.6 113.93934 141.6 115.2 
C 141.6 116.46066 141.848323 117.709063 142.330756 118.873761 
C 142.81319 120.038459 143.520353 121.096804 144.411775 121.988225 
C 145.303196 122.879647 146.361541 123.58681 147.526239 124.069244 
C 148.690937 124.551677 149.93934 124.8 151.2 124.8 
C 152.46066 124.8 153.709063 124.551677 154.873761 124.069244 
C 156.038459 123.58681 157.096804 122.879647 157.988225 121.988225 
C 158.879647 121.096804 159.58681 120.038459 160.069244 118.873761 
C 160.551677 117.709063 160.8 116.46066 160.8 115.2 
" clip-path="url(#pf1543ab111)" style="fill: none; stroke: #cccccc; stroke-width: 0.8; stroke-linecap: round"/>
     </g>
     <g id="text_25">
      <text style="font-size: 8px; font-family: 'Arial'; text-anchor: start; fill: #262626" x="160.069244" y="109.936239" transform="rotate(-0 160.069244 109.936239)">0.1</text>
     </g>
    </g>
    <g id="ytick_11">
     <g id="line2d_29">
      <path d="M 170.4 115.2 
C 170.4 112.678679 169.903355 110.181875 168.938487 107.852478 
C 167.973619 105.523081 166.559293 103.406393 164.77645 101.62355 
C 162.993607 99.840707 160.876919 98.426381 158.547522 97.461513 
C 156.218125 96.496645 153.721321 96 151.2 96 
C 148.678679 96 146.181875 96.496645 143.852478 97.461513 
C 141.523081 98.426381 139.406393 99.840707 137.62355 101.62355 
C 135.840707 103.406393 134.426381 105.523081 133.461513 107.852478 
C 132.496645 110.181875 132 112.678679 132 115.2 
C 132 117.721321 132.496645 120.218125 133.461513 122.547522 
C 134.426381 124.876919 135.840707 126.993607 137.62355 128.77645 
C 139.406393 130.559293 141.523081 131.973619 143.852478 132.938487 
C 146.181875 133.903355 148.678679 134.4 151.2 134.4 
C 153.721321 134.4 156.218125 133.903355 158.547522 132.938487 
C 160.876919 131.973619 162.993607 130.559293 164.77645 128.77645 
C 166.559293 126.993607 167.973619 124.876919 168.938487 122.547522 
C 169.903355 120.218125 170.4 117.721321 170.4 115.2 
" clip-path="url(#pf1543ab111)" style="fill: none; stroke: #cccccc; stroke-width: 0.8; stroke-linecap: round"/>
     </g>
     <g id="text_26">
      <text style="font-size: 8px; font-family: 'Arial'; text-anchor: start; fill: #262626" x="168.938487" y="106.262478" transform="rotate(-0 168.938487 106.262478)">0.2</text>
     </g>
    </g>
    <g id="ytick_12">
     <g id="line2d_30">
      <path d="M 180 115.2 
C 180 111.418019 179.255032 107.672812 177.807731 104.178717 
C 176.360429 100.684622 174.23894 97.509589 171.564675 94.835325 
C 168.890411 92.16106 165.715378 90.039571 162.221283 88.592269 
C 158.727188 87.144968 154.981981 86.4 151.2 86.4 
C 147.418019 86.4 143.672812 87.144968 140.178717 88.592269 
C 136.684622 90.039571 133.509589 92.16106 130.835325 94.835325 
C 128.16106 97.509589 126.039571 100.684622 124.592269 104.178717 
C 123.144968 107.672812 122.4 111.418019 122.4 115.2 
C 122.4 118.981981 123.144968 122.727188 124.592269 126.221283 
C 126.039571 129.715378 128.16106 132.890411 130.835325 135.564675 
C 133.509589 138.23894 136.684622 140.360429 140.178717 141.807731 
C 143.672812 143.255032 147.418019 144 151.2 144 
C 154.981981 144 158.727188 143.255032 162.221283 141.807731 
C 165.715378 140.360429 168.890411 138.23894 171.564675 135.564675 
C 174.23894 132.890411 176.360429 129.715378 177.807731 126.221283 
C 179.255032 122.727188 180 118.981981 180 115.2 
" clip-path="url(#pf1543ab111)" style="fill: none; stroke: #cccccc; stroke-width: 0.8; stroke-linecap: round"/>
     </g>
     <g id="text_27">
      <text style="font-size: 8px; font-family: 'Arial'; text-anchor: start; fill: #262626" x="177.807731" y="102.588717" transform="rotate(-0 177.807731 102.588717)">0.3</text>
     </g>
    </g>
   </g>
   <g id="FillBetweenPolyCollection_3">
    <defs>
     <path id="maf9dc785a0" d="M 153.551566 -65.55369 
L 153.551566 -65.55369 
L 162.492665 -79.957348 
L 151.450738 -77.341905 
L 128.76843 -97.564686 
L 138.974857 -69.264467 
L 148.422302 -63.78562 
L 151.2 -64.8 
L 151.222669 -63.666103 
L 153.836361 -61.261398 
L 152.017204 -64.538082 
L 153.551566 -65.55369 
L 153.551566 -65.55369 
L 153.551566 -65.55369 
L 152.017204 -64.538082 
L 153.836361 -61.261398 
L 151.222669 -63.666103 
L 151.2 -64.8 
L 148.422302 -63.78562 
L 138.974857 -69.264467 
L 128.76843 -97.564686 
L 151.450738 -77.341905 
L 162.492665 -79.957348 
L 153.551566 -65.55369 
z
" style="stroke: #ffffff; stroke-opacity: 0.5; stroke-width: 0.8"/>
    </defs>
    <g clip-path="url(#pf1543ab111)">
     <use xlink:href="#maf9dc785a0" x="0" y="180" style="fill: #66c2a5; fill-opacity: 0.5; stroke: #ffffff; stroke-opacity: 0.5; stroke-width: 0.8"/>
    </g>
   </g>
   <g id="FillBetweenPolyCollection_4">
    <defs>
     <path id="mc68904d5dd" d="M 159.310753 -67.399541 
L 159.310753 -67.399541 
L 166.922968 -85.903831 
L 151.382136 -73.910418 
L 136.482207 -86.297553 
L 149.109722 -65.563343 
L 150.79853 -64.653388 
L 151.131549 -64.700017 
L 151.2 -64.8 
L 157.722483 -56.045331 
L 162.92213 -61.042993 
L 159.310753 -67.399541 
L 159.310753 -67.399541 
L 159.310753 -67.399541 
L 162.92213 -61.042993 
L 157.722483 -56.045331 
L 151.2 -64.8 
L 151.131549 -64.700017 
L 150.79853 -64.653388 
L 149.109722 -65.563343 
L 136.482207 -86.297553 
L 151.382136 -73.910418 
L 166.922968 -85.903831 
L 159.310753 -67.399541 
z
" style="stroke: #ffffff; stroke-opacity: 0.5; stroke-width: 0.8"/>
    </defs>
    <g clip-path="url(#pf1543ab111)">
     <use xlink:href="#mc68904d5dd" x="0" y="180" style="fill: #fc8d62; fill-opacity: 0.5; stroke: #ffffff; stroke-opacity: 0.5; stroke-width: 0.8"/>
    </g>
   </g>
   <g id="line2d_31">
    <path d="M 153.551566 114.44631 
L 162.492665 100.042652 
L 151.450738 102.658095 
L 128.76843 82.435314 
L 138.974857 110.735533 
L 148.422302 116.21438 
L 151.2 115.2 
L 151.222669 116.333897 
L 153.836361 118.738602 
L 152.017204 115.461918 
L 153.551566 114.44631 
" clip-path="url(#pf1543ab111)" style="fill: none; stroke: #66c2a5; stroke-width: 1.2; stroke-linecap: round"/>
   </g>
   <g id="line2d_32">
    <path d="M 159.310753 112.600459 
L 166.922968 94.096169 
L 151.382136 106.089582 
L 136.482207 93.702447 
L 149.109722 114.436657 
L 150.79853 115.346612 
L 151.131549 115.299983 
L 151.2 115.2 
L 157.722483 123.954669 
L 162.92213 118.957007 
L 159.310753 112.600459 
" clip-path="url(#pf1543ab111)" style="fill: none; stroke: #fc8d62; stroke-width: 1.2; stroke-linecap: round"/>
   </g>
   <g id="patch_11">
    <path d="M 180 115.2 
C 180 111.418019 179.255032 107.672812 177.807731 104.178717 
C 176.360429 100.684622 174.23894 97.509589 171.564675 94.835325 
C 168.890411 92.16106 165.715378 90.039571 162.221283 88.592269 
C 158.727188 87.144968 154.981981 86.4 151.2 86.4 
C 147.418019 86.4 143.672812 87.144968 140.178717 88.592269 
C 136.684622 90.039571 133.509589 92.16106 130.835325 94.835325 
C 128.16106 97.509589 126.039571 100.684622 124.592269 104.178717 
C 123.144968 107.672812 122.4 111.418019 122.4 115.2 
C 122.4 118.981981 123.144968 122.727188 124.592269 126.221283 
C 126.039571 129.715378 128.16106 132.890411 130.835325 135.564675 
C 133.509589 138.23894 136.684622 140.360429 140.178717 141.807731 
C 143.672812 143.255032 147.418019 144 151.2 144 
C 154.981981 144 158.727188 143.255032 162.221283 141.807731 
C 165.715378 140.360429 168.890411 138.23894 171.564675 135.564675 
C 174.23894 132.890411 176.360429 129.715378 177.807731 126.221283 
C 179.255032 122.727188 180 118.981981 180 115.2 
" style="fill: none; stroke: #262626; stroke-linejoin: miter; stroke-linecap: square"/>
   </g>
  </g>
 </g>
 <defs>
  <clipPath id="p17aba60816">
   <rect x="36" y="0" width="57.6" height="57.6"/>
  </clipPath>
  <clipPath id="paaffa81ebc">
   <path d="M 93.6 115.2 
C 93.6 111.418019 92.855032 107.672812 91.407731 104.178717 
C 89.960429 100.684622 87.83894 97.509589 85.164675 94.835325 
C 82.490411 92.16106 79.315378 90.039571 75.821283 88.592269 
C 72.327188 87.144968 68.581981 86.4 64.8 86.4 
C 61.018019 86.4 57.272812 87.144968 53.778717 88.592269 
C 50.284622 90.039571 47.109589 92.16106 44.435325 94.835325 
C 41.76106 97.509589 39.639571 100.684622 38.192269 104.178717 
C 36.744968 107.672812 36 111.418019 36 115.2 
C 36 118.981981 36.744968 122.727188 38.192269 126.221283 
C 39.639571 129.715378 41.76106 132.890411 44.435325 135.564675 
C 47.109589 138.23894 50.284622 140.360429 53.778717 141.807731 
C 57.272812 143.255032 61.018019 144 64.8 144 
C 68.581981 144 72.327188 143.255032 75.821283 141.807731 
C 79.315378 140.360429 82.490411 138.23894 85.164675 135.564675 
C 87.83894 132.890411 89.960429 129.715378 91.407731 126.221283 
C 92.855032 122.727188 93.6 118.981981 93.6 115.2 
M 64.8 115.2 
C 64.8 115.2 64.8 115.2 64.8 115.2 
C 64.8 115.2 64.8 115.2 64.8 115.2 
C 64.8 115.2 64.8 115.2 64.8 115.2 
C 64.8 115.2 64.8 115.2 64.8 115.2 
C 64.8 115.2 64.8 115.2 64.8 115.2 
C 64.8 115.2 64.8 115.2 64.8 115.2 
C 64.8 115.2 64.8 115.2 64.8 115.2 
C 64.8 115.2 64.8 115.2 64.8 115.2 
C 64.8 115.2 64.8 115.2 64.8 115.2 
C 64.8 115.2 64.8 115.2 64.8 115.2 
C 64.8 115.2 64.8 115.2 64.8 115.2 
C 64.8 115.2 64.8 115.2 64.8 115.2 
C 64.8 115.2 64.8 115.2 64.8 115.2 
C 64.8 115.2 64.8 115.2 64.8 115.2 
C 64.8 115.2 64.8 115.2 64.8 115.2 
C 64.8 115.2 64.8 115.2 64.8 115.2 
z
"/>
  </clipPath>
  <clipPath id="p5aa2def99c">
   <rect x="122.4" y="0" width="57.6" height="57.6"/>
  </clipPath>
  <clipPath id="pf1543ab111">
   <path d="M 180 115.2 
C 180 111.418019 179.255032 107.672812 177.807731 104.178717 
C 176.360429 100.684622 174.23894 97.509589 171.564675 94.835325 
C 168.890411 92.16106 165.715378 90.039571 162.221283 88.592269 
C 158.727188 87.144968 154.981981 86.4 151.2 86.4 
C 147.418019 86.4 143.672812 87.144968 140.178717 88.592269 
C 136.684622 90.039571 133.509589 92.16106 130.835325 94.835325 
C 128.16106 97.509589 126.039571 100.684622 124.592269 104.178717 
C 123.144968 107.672812 122.4 111.418019 122.4 115.2 
C 122.4 118.981981 123.144968 122.727188 124.592269 126.221283 
C 126.039571 129.715378 128.16106 132.890411 130.835325 135.564675 
C 133.509589 138.23894 136.684622 140.360429 140.178717 141.807731 
C 143.672812 143.255032 147.418019 144 151.2 144 
C 154.981981 144 158.727188 143.255032 162.221283 141.807731 
C 165.715378 140.360429 168.890411 138.23894 171.564675 135.564675 
C 174.23894 132.890411 176.360429 129.715378 177.807731 126.221283 
C 179.255032 122.727188 180 118.981981 180 115.2 
M 151.2 115.2 
C 151.2 115.2 151.2 115.2 151.2 115.2 
C 151.2 115.2 151.2 115.2 151.2 115.2 
C 151.2 115.2 151.2 115.2 151.2 115.2 
C 151.2 115.2 151.2 115.2 151.2 115.2 
C 151.2 115.2 151.2 115.2 151.2 115.2 
C 151.2 115.2 151.2 115.2 151.2 115.2 
C 151.2 115.2 151.2 115.2 151.2 115.2 
C 151.2 115.2 151.2 115.2 151.2 115.2 
C 151.2 115.2 151.2 115.2 151.2 115.2 
C 151.2 115.2 151.2 115.2 151.2 115.2 
C 151.2 115.2 151.2 115.2 151.2 115.2 
C 151.2 115.2 151.2 115.2 151.2 115.2 
C 151.2 115.2 151.2 115.2 151.2 115.2 
C 151.2 115.2 151.2 115.2 151.2 115.2 
C 151.2 115.2 151.2 115.2 151.2 115.2 
C 151.2 115.2 151.2 115.2 151.2 115.2 
z
"/>
  </clipPath>
 </defs>
</svg>
