<?xml version="1.0" encoding="utf-8" standalone="no"?>
<!DOCTYPE svg PUBLIC "-//W3C//DTD SVG 1.1//EN"
  "http://www.w3.org/Graphics/SVG/1.1/DTD/svg11.dtd">
<svg xmlns:xlink="http://www.w3.org/1999/xlink" width="180pt" height="180pt" viewBox="0 0 180 180" xmlns="http://www.w3.org/2000/svg" version="1.1">
 <metadata>
  <rdf:RDF xmlns:dc="http://purl.org/dc/elements/1.1/" xmlns:cc="http://creativecommons.org/ns#" xmlns:rdf="http://www.w3.org/1999/02/22-rdf-syntax-ns#">
   <cc:Work>
    <dc:type rdf:resource="http://purl.org/dc/dcmitype/StillImage"/>
    <dc:date>2025-10-30T10:51:22.150636</dc:date>
    <dc:format>image/svg+xml</dc:format>
    <dc:creator>
     <cc:Agent>
      <dc:title>Matplotlib v3.10.6, https://matplotlib.org/</dc:title>
     </cc:Agent>
    </dc:creator>
   </cc:Work>
  </rdf:RDF>
 </metadata>
 <defs>
  <style type="text/css">*{stroke-linejoin: round; stroke-linecap: butt}</style>
 </defs>
 <g id="figure_1">
  <g id="patch_1">
   <path d="M 0 180 
L 180 180 
L 180 0 
L 0 0 
L 0 180 
z
" style="fill: none"/>
  </g>
  <g id="axes_1">
   <g id="patch_2">
    <path d="M 22.5 67.8 
L 78.3 67.8 
L 78.3 21.6 
L 22.5 21.6 
L 22.5 67.8 
z
" style="fill: none"/>
   </g>
   <g id="matplotlib.axis_1">
    <g id="xtick_1">
     <g id="line2d_1">
      <defs>
       <path id="m7eb1e2d82e" d="M 0 0 
L 0 4.8 
" style="stroke: #262626"/>
      </defs>
      <g>
       <use xlink:href="#m7eb1e2d82e" x="22.5" y="67.8" style="fill: #262626; stroke: #262626"/>
      </g>
     </g>
     <g id="text_1">
      <text style="font-size: 8px; font-family: 'Arial'; text-anchor: middle; fill: #262626" x="22.5" y="81.82625" transform="rotate(-0 22.5 81.82625)">0</text>
     </g>
    </g>
    <g id="xtick_2">
     <g id="line2d_2">
      <g>
       <use xlink:href="#m7eb1e2d82e" x="69" y="67.8" style="fill: #262626; stroke: #262626"/>
      </g>
     </g>
     <g id="text_2">
      <text style="font-size: 8px; font-family: 'Arial'; text-anchor: middle; fill: #262626" x="69" y="81.82625" transform="rotate(-0 69 81.82625)">10</text>
     </g>
    </g>
    <g id="text_3">
     <text style="font-size: 9px; font-family: 'Arial'; text-anchor: middle; fill: #262626" x="50.4" y="93.967969" transform="rotate(-0 50.4 93.967969)">distance (mm)</text>
    </g>
   </g>
   <g id="matplotlib.axis_2">
    <g id="ytick_1">
     <g id="line2d_3">
      <defs>
       <path id="m3f705653f0" d="M 0 0 
L -4.8 0 
" style="stroke: #262626"/>
      </defs>
      <g>
       <use xlink:href="#m3f705653f0" x="22.5" y="67.8" style="fill: #262626; stroke: #262626"/>
      </g>
     </g>
     <g id="text_4">
      <text style="font-size: 8px; font-family: 'Arial'; text-anchor: end; fill: #262626" x="14.2" y="70.663125" transform="rotate(-0 14.2 70.663125)">0.0</text>
     </g>
    </g>
    <g id="ytick_2">
     <g id="line2d_4">
      <g>
       <use xlink:href="#m3f705653f0" x="22.5" y="44.7" style="fill: #262626; stroke: #262626"/>
      </g>
     </g>
     <g id="text_5">
      <text style="font-size: 8px; font-family: 'Arial'; text-anchor: end; fill: #262626" x="14.2" y="47.563125" transform="rotate(-0 14.2 47.563125)">0.1</text>
     </g>
    </g>
    <g id="ytick_3">
     <g id="line2d_5">
      <g>
       <use xlink:href="#m3f705653f0" x="22.5" y="21.6" style="fill: #262626; stroke: #262626"/>
      </g>
     </g>
     <g id="text_6">
      <text style="font-size: 8px; font-family: 'Arial'; text-anchor: end; fill: #262626" x="14.2" y="24.463125" transform="rotate(-0 14.2 24.463125)">0.2</text>
     </g>
    </g>
    <g id="text_7">
     <text style="font-size: 9px; font-family: 'Arial'; fill: #262626" transform="translate(-12.333406 56.201719) rotate(-90)">norm.</text>
     <text style="font-size: 9px; font-family: 'Arial'; fill: #262626" transform="translate(-2.814219 68.209687) rotate(-90)">connectivity</text>
    </g>
   </g>
   <g id="line2d_6">
    <path d="M 26.222329 62.865884 
L 28.734918 58.7406 
L 31.247506 60.360062 
L 33.760095 65.861732 
L 36.272683 70.550989 
L 38.785272 72.892083 
L 41.29786 65.622409 
L 43.810449 55.5975 
L 46.323037 49.929175 
L 48.835626 43.10826 
L 51.348214 43.130012 
L 53.860803 53.383932 
L 56.373391 55.024342 
L 58.88598 62.453871 
L 61.398568 61.210378 
L 63.911157 61.164125 
L 66.423745 61.955018 
L 68.936334 63.162594 
L 71.448922 38.22829 
L 73.961511 19.758745 
" clip-path="url(#p659a66ea8c)" style="fill: none; stroke: #4c72b0; stroke-width: 1.2; stroke-linecap: round"/>
   </g>
   <g id="patch_3">
    <path d="M 22.5 67.8 
L 22.5 21.6 
" style="fill: none; stroke: #262626; stroke-linejoin: miter; stroke-linecap: square"/>
   </g>
   <g id="patch_4">
    <path d="M 22.5 67.8 
L 78.3 67.8 
" style="fill: none; stroke: #262626; stroke-linejoin: miter; stroke-linecap: square"/>
   </g>
  </g>
  <g id="axes_2">
   <g id="patch_5">
    <path d="M 73.5 137.1 
C 73.5 134.066536 72.902474 131.062568 71.741617 128.260013 
C 70.580761 125.457457 68.87915 122.910816 66.734167 120.765833 
C 64.589184 118.62085 62.042543 116.919239 59.239987 115.758383 
C 56.437432 114.597526 53.433464 114 50.4 114 
C 47.366536 114 44.362568 114.597526 41.560013 115.758383 
C 38.757457 116.919239 36.210816 118.62085 34.065833 120.765833 
C 31.92085 122.910816 30.219239 125.457457 29.058383 128.260013 
C 27.897526 131.062568 27.3 134.066536 27.3 137.1 
C 27.3 140.133464 27.897526 143.137432 29.058383 145.939987 
C 30.219239 148.742543 31.92085 151.289184 34.065833 153.434167 
C 36.210816 155.57915 38.757457 157.280761 41.560013 158.441617 
C 44.362568 159.602474 47.366536 160.2 50.4 160.2 
C 53.433464 160.2 56.437432 159.602474 59.239987 158.441617 
C 62.042543 157.280761 64.589184 155.57915 66.734167 153.434167 
C 68.87915 151.289184 70.580761 148.742543 71.741617 145.939987 
C 72.902474 143.137432 73.5 140.133464 73.5 137.1 
M 50.4 137.1 
C 50.4 137.1 50.4 137.1 50.4 137.1 
C 50.4 137.1 50.4 137.1 50.4 137.1 
C 50.4 137.1 50.4 137.1 50.4 137.1 
C 50.4 137.1 50.4 137.1 50.4 137.1 
C 50.4 137.1 50.4 137.1 50.4 137.1 
C 50.4 137.1 50.4 137.1 50.4 137.1 
C 50.4 137.1 50.4 137.1 50.4 137.1 
C 50.4 137.1 50.4 137.1 50.4 137.1 
C 50.4 137.1 50.4 137.1 50.4 137.1 
C 50.4 137.1 50.4 137.1 50.4 137.1 
C 50.4 137.1 50.4 137.1 50.4 137.1 
C 50.4 137.1 50.4 137.1 50.4 137.1 
C 50.4 137.1 50.4 137.1 50.4 137.1 
C 50.4 137.1 50.4 137.1 50.4 137.1 
C 50.4 137.1 50.4 137.1 50.4 137.1 
C 50.4 137.1 50.4 137.1 50.4 137.1 
L 50.4 137.1 
z
" style="fill: none"/>
   </g>
   <g id="matplotlib.axis_3">
    <g id="xtick_3">
     <g id="line2d_7">
      <path d="M 50.4 137.1 
L 73.5 137.1 
" clip-path="url(#pd1f0fbbd6e)" style="fill: none; stroke: #cccccc; stroke-width: 0.8; stroke-linecap: round"/>
     </g>
     <g id="text_8">
      <text style="font-size: 8px; font-family: 'Arial'; text-anchor: middle; fill: #262626" x="82.3" y="139.168125" transform="rotate(-0 82.3 139.168125)">0°</text>
     </g>
    </g>
    <g id="xtick_4">
     <g id="line2d_8">
      <path d="M 50.4 137.1 
L 50.4 114 
" clip-path="url(#pd1f0fbbd6e)" style="fill: none; stroke: #cccccc; stroke-width: 0.8; stroke-linecap: round"/>
     </g>
     <g id="text_9">
      <text style="font-size: 8px; font-family: 'Arial'; text-anchor: middle; fill: #262626" x="50.4" y="107.268125" transform="rotate(-0 50.4 107.268125)">90°</text>
     </g>
    </g>
    <g id="xtick_5">
     <g id="line2d_9">
      <path d="M 50.4 137.1 
L 27.3 137.1 
" clip-path="url(#pd1f0fbbd6e)" style="fill: none; stroke: #cccccc; stroke-width: 0.8; stroke-linecap: round"/>
     </g>
     <g id="text_10">
      <text style="font-size: 8px; font-family: 'Arial'; text-anchor: middle; fill: #262626" x="18.5" y="139.168125" transform="rotate(-0 18.5 139.168125)">180°</text>
     </g>
    </g>
    <g id="xtick_6">
     <g id="line2d_10">
      <path d="M 50.4 137.1 
L 50.4 160.2 
" clip-path="url(#pd1f0fbbd6e)" style="fill: none; stroke: #cccccc; stroke-width: 0.8; stroke-linecap: round"/>
     </g>
     <g id="text_11">
      <text style="font-size: 8px; font-family: 'Arial'; text-anchor: middle; fill: #262626" x="50.4" y="171.068125" transform="rotate(-0 50.4 171.068125)">270°</text>
     </g>
    </g>
   </g>
   <g id="matplotlib.axis_4">
    <g id="ytick_4">
     <g id="line2d_11">
      <path d="M 61.95 137.1 
C 61.95 135.583268 61.651237 134.081284 61.070809 132.680006 
C 60.49038 131.278729 59.639575 130.005408 58.567083 128.932917 
C 57.494592 127.860425 56.221271 127.00962 54.819994 126.429191 
C 53.418716 125.848763 51.916732 125.55 50.4 125.55 
C 48.883268 125.55 47.381284 125.848763 45.980006 126.429191 
C 44.578729 127.00962 43.305408 127.860425 42.232917 128.932917 
C 41.160425 130.005408 40.30962 131.278729 39.729191 132.680006 
C 39.148763 134.081284 38.85 135.583268 38.85 137.1 
C 38.85 138.616732 39.148763 140.118716 39.729191 141.519994 
C 40.30962 142.921271 41.160425 144.194592 42.232917 145.267083 
C 43.305408 146.339575 44.578729 147.19038 45.980006 147.770809 
C 47.381284 148.351237 48.883268 148.65 50.4 148.65 
C 51.916732 148.65 53.418716 148.351237 54.819994 147.770809 
C 56.221271 147.19038 57.494592 146.339575 58.567083 145.267083 
C 59.639575 144.194592 60.49038 142.921271 61.070809 141.519994 
C 61.651237 140.118716 61.95 138.616732 61.95 137.1 
" clip-path="url(#pd1f0fbbd6e)" style="fill: none; stroke: #cccccc; stroke-width: 0.8; stroke-linecap: round"/>
     </g>
     <g id="text_12">
      <text style="font-size: 8px; font-family: 'Arial'; text-anchor: start; fill: #262626" x="61.070809" y="131.090006" transform="rotate(-0 61.070809 131.090006)">0.1</text>
     </g>
    </g>
    <g id="ytick_5">
     <g id="line2d_12">
      <path d="M 73.5 137.1 
C 73.5 134.066536 72.902474 131.062568 71.741617 128.260013 
C 70.580761 125.457457 68.87915 122.910816 66.734167 120.765833 
C 64.589184 118.62085 62.042543 116.919239 59.239987 115.758383 
C 56.437432 114.597526 53.433464 114 50.4 114 
C 47.366536 114 44.362568 114.597526 41.560013 115.758383 
C 38.757457 116.919239 36.210816 118.62085 34.065833 120.765833 
C 31.92085 122.910816 30.219239 125.457457 29.058383 128.260013 
C 27.897526 131.062568 27.3 134.066536 27.3 137.1 
C 27.3 140.133464 27.897526 143.137432 29.058383 145.939987 
C 30.219239 148.742543 31.92085 151.289184 34.065833 153.434167 
C 36.210816 155.57915 38.757457 157.280761 41.560013 158.441617 
C 44.362568 159.602474 47.366536 160.2 50.4 160.2 
C 53.433464 160.2 56.437432 159.602474 59.239987 158.441617 
C 62.042543 157.280761 64.589184 155.57915 66.734167 153.434167 
C 68.87915 151.289184 70.580761 148.742543 71.741617 145.939987 
C 72.902474 143.137432 73.5 140.133464 73.5 137.1 
" clip-path="url(#pd1f0fbbd6e)" style="fill: none; stroke: #cccccc; stroke-width: 0.8; stroke-linecap: round"/>
     </g>
     <g id="text_13">
      <text style="font-size: 8px; font-family: 'Arial'; text-anchor: start; fill: #262626" x="71.741617" y="126.670013" transform="rotate(-0 71.741617 126.670013)">0.2</text>
     </g>
    </g>
   </g>
   <g id="FillBetweenPolyCollection_1">
    <path d="M 68.548545 134.408888 
L 68.548545 134.408888 
L 67.25841 129.129803 
L 65.444835 123.471321 
L 55.499346 128.599315 
L 51.085756 134.367765 
L 50.366519 136.410386 
M 42.778997 131.437369 
L 42.778997 131.437369 
L 35.520445 131.759325 
L 37.013782 141.904676 
L 42.049416 143.304731 
L 44.48189 145.092746 
L 48.021356 143.762142 
L 50.11359 142.999249 
M 52.112232 137.909497 
L 52.112232 137.909497 
L 55.711916 137.887664 
L 68.548545 134.408888 
L 68.548545 134.408888 
L 68.548545 134.408888 
L 55.711916 137.887664 
L 52.112232 137.909497 
M 50.11359 142.999249 
L 50.11359 142.999249 
L 48.021356 143.762142 
L 44.48189 145.092746 
L 42.049416 143.304731 
L 37.013782 141.904676 
L 35.520445 131.759325 
L 42.778997 131.437369 
M 50.366519 136.410386 
L 50.366519 136.410386 
L 51.085756 134.367765 
L 55.499346 128.599315 
L 65.444835 123.471321 
L 67.25841 129.129803 
L 68.548545 134.408888 
L 68.548545 134.408888 
" clip-path="url(#pd1f0fbbd6e)" style="fill: #4c72b0; fill-opacity: 0.5; stroke: #ffffff; stroke-opacity: 0.5; stroke-width: 0.8"/>
   </g>
   <g id="line2d_13">
    <path d="M 68.548545 134.408888 
L 67.25841 129.129803 
L 65.444835 123.471321 
L 55.499346 128.599315 
L 51.085756 134.367765 
L 50.366519 136.410386 
M 42.778997 131.437369 
L 35.520445 131.759325 
L 37.013782 141.904676 
L 42.049416 143.304731 
L 44.48189 145.092746 
L 48.021356 143.762142 
L 50.11359 142.999249 
M 52.112232 137.909497 
L 55.711916 137.887664 
L 68.548545 134.408888 
" clip-path="url(#pd1f0fbbd6e)" style="fill: none; stroke: #4c72b0; stroke-width: 1.2; stroke-linecap: round"/>
   </g>
   <g id="patch_6">
    <path d="M 73.5 137.1 
C 73.5 134.066536 72.902474 131.062568 71.741617 128.260013 
C 70.580761 125.457457 68.87915 122.910816 66.734167 120.765833 
C 64.589184 118.62085 62.042543 116.919239 59.239987 115.758383 
C 56.437432 114.597526 53.433464 114 50.4 114 
C 47.366536 114 44.362568 114.597526 41.560013 115.758383 
C 38.757457 116.919239 36.210816 118.62085 34.065833 120.765833 
C 31.92085 122.910816 30.219239 125.457457 29.058383 128.260013 
C 27.897526 131.062568 27.3 134.066536 27.3 137.1 
C 27.3 140.133464 27.897526 143.137432 29.058383 145.939987 
C 30.219239 148.742543 31.92085 151.289184 34.065833 153.434167 
C 36.210816 155.57915 38.757457 157.280761 41.560013 158.441617 
C 44.362568 159.602474 47.366536 160.2 50.4 160.2 
C 53.433464 160.2 56.437432 159.602474 59.239987 158.441617 
C 62.042543 157.280761 64.589184 155.57915 66.734167 153.434167 
C 68.87915 151.289184 70.580761 148.742543 71.741617 145.939987 
C 72.902474 143.137432 73.5 140.133464 73.5 137.1 
" style="fill: none; stroke: #262626; stroke-linejoin: miter; stroke-linecap: square"/>
   </g>
  </g>
  <g id="axes_3">
   <g id="patch_7">
    <path d="M 106.2 67.8 
L 162 67.8 
L 162 21.6 
L 106.2 21.6 
L 106.2 67.8 
z
" style="fill: none"/>
   </g>
   <g id="matplotlib.axis_5">
    <g id="xtick_7">
     <g id="line2d_14">
      <g>
       <use xlink:href="#m7eb1e2d82e" x="106.2" y="67.8" style="fill: #262626; stroke: #262626"/>
      </g>
     </g>
     <g id="text_14">
      <text style="font-size: 8px; font-family: 'Arial'; text-anchor: middle; fill: #262626" x="106.2" y="81.82625" transform="rotate(-0 106.2 81.82625)">0</text>
     </g>
    </g>
    <g id="xtick_8">
     <g id="line2d_15">
      <g>
       <use xlink:href="#m7eb1e2d82e" x="152.7" y="67.8" style="fill: #262626; stroke: #262626"/>
      </g>
     </g>
     <g id="text_15">
      <text style="font-size: 8px; font-family: 'Arial'; text-anchor: middle; fill: #262626" x="152.7" y="81.82625" transform="rotate(-0 152.7 81.82625)">10</text>
     </g>
    </g>
    <g id="text_16">
     <text style="font-size: 9px; font-family: 'Arial'; text-anchor: middle; fill: #262626" x="134.1" y="93.967969" transform="rotate(-0 134.1 93.967969)">distance (mm)</text>
    </g>
   </g>
   <g id="matplotlib.axis_6">
    <g id="ytick_6">
     <g id="line2d_16">
      <g>
       <use xlink:href="#m3f705653f0" x="106.2" y="67.8" style="fill: #262626; stroke: #262626"/>
      </g>
     </g>
     <g id="text_17">
      <text style="font-size: 8px; font-family: 'Arial'; text-anchor: end; fill: #262626" x="97.9" y="70.663125" transform="rotate(-0 97.9 70.663125)">0.0</text>
     </g>
    </g>
    <g id="ytick_7">
     <g id="line2d_17">
      <g>
       <use xlink:href="#m3f705653f0" x="106.2" y="44.7" style="fill: #262626; stroke: #262626"/>
      </g>
     </g>
     <g id="text_18">
      <text style="font-size: 8px; font-family: 'Arial'; text-anchor: end; fill: #262626" x="97.9" y="47.563125" transform="rotate(-0 97.9 47.563125)">0.1</text>
     </g>
    </g>
    <g id="ytick_8">
     <g id="line2d_18">
      <g>
       <use xlink:href="#m3f705653f0" x="106.2" y="21.6" style="fill: #262626; stroke: #262626"/>
      </g>
     </g>
     <g id="text_19">
      <text style="font-size: 8px; font-family: 'Arial'; text-anchor: end; fill: #262626" x="97.9" y="24.463125" transform="rotate(-0 97.9 24.463125)">0.2</text>
     </g>
    </g>
   </g>
   <g id="line2d_19">
    <path d="M 109.922329 26.681404 
L 112.434918 36.862274 
L 114.947506 42.43471 
L 117.460095 43.585528 
L 119.972683 55.107558 
L 122.485272 57.082375 
L 124.99786 59.013445 
L 127.510449 57.988074 
L 130.023037 61.325735 
L 132.535626 63.13181 
L 135.048214 63.713952 
L 137.560803 64.626722 
L 140.073391 64.204328 
L 142.58598 64.337453 
L 145.098568 63.886291 
L 147.611157 63.465276 
L 150.123745 62.498733 
L 152.636334 60.818769 
L 155.148922 57.27877 
L 157.661511 56.956792 
" clip-path="url(#p08eeed62e3)" style="fill: none; stroke: #4c72b0; stroke-width: 1.2; stroke-linecap: round"/>
   </g>
   <g id="patch_8">
    <path d="M 106.2 67.8 
L 106.2 21.6 
" style="fill: none; stroke: #262626; stroke-linejoin: miter; stroke-linecap: square"/>
   </g>
   <g id="patch_9">
    <path d="M 106.2 67.8 
L 162 67.8 
" style="fill: none; stroke: #262626; stroke-linejoin: miter; stroke-linecap: square"/>
   </g>
  </g>
  <g id="axes_4">
   <g id="patch_10">
    <path d="M 157.2 137.1 
C 157.2 134.066536 156.602474 131.062568 155.441617 128.260013 
C 154.280761 125.457457 152.57915 122.910816 150.434167 120.765833 
C 148.289184 118.62085 145.742543 116.919239 142.939987 115.758383 
C 140.137432 114.597526 137.133464 114 134.1 114 
C 131.066536 114 128.062568 114.597526 125.260013 115.758383 
C 122.457457 116.919239 119.910816 118.62085 117.765833 120.765833 
C 115.62085 122.910816 113.919239 125.457457 112.758383 128.260013 
C 111.597526 131.062568 111 134.066536 111 137.1 
C 111 140.133464 111.597526 143.137432 112.758383 145.939987 
C 113.919239 148.742543 115.62085 151.289184 117.765833 153.434167 
C 119.910816 155.57915 122.457457 157.280761 125.260013 158.441617 
C 128.062568 159.602474 131.066536 160.2 134.1 160.2 
C 137.133464 160.2 140.137432 159.602474 142.939987 158.441617 
C 145.742543 157.280761 148.289184 155.57915 150.434167 153.434167 
C 152.57915 151.289184 154.280761 148.742543 155.441617 145.939987 
C 156.602474 143.137432 157.2 140.133464 157.2 137.1 
M 134.1 137.1 
C 134.1 137.1 134.1 137.1 134.1 137.1 
C 134.1 137.1 134.1 137.1 134.1 137.1 
C 134.1 137.1 134.1 137.1 134.1 137.1 
C 134.1 137.1 134.1 137.1 134.1 137.1 
C 134.1 137.1 134.1 137.1 134.1 137.1 
C 134.1 137.1 134.1 137.1 134.1 137.1 
C 134.1 137.1 134.1 137.1 134.1 137.1 
C 134.1 137.1 134.1 137.1 134.1 137.1 
C 134.1 137.1 134.1 137.1 134.1 137.1 
C 134.1 137.1 134.1 137.1 134.1 137.1 
C 134.1 137.1 134.1 137.1 134.1 137.1 
C 134.1 137.1 134.1 137.1 134.1 137.1 
C 134.1 137.1 134.1 137.1 134.1 137.1 
C 134.1 137.1 134.1 137.1 134.1 137.1 
C 134.1 137.1 134.1 137.1 134.1 137.1 
C 134.1 137.1 134.1 137.1 134.1 137.1 
L 134.1 137.1 
z
" style="fill: none"/>
   </g>
   <g id="matplotlib.axis_7">
    <g id="xtick_9">
     <g id="line2d_20">
      <path d="M 134.1 137.1 
L 157.2 137.1 
" clip-path="url(#p430edc31e1)" style="fill: none; stroke: #cccccc; stroke-width: 0.8; stroke-linecap: round"/>
     </g>
     <g id="text_20">
      <text style="font-size: 8px; font-family: 'Arial'; text-anchor: middle; fill: #262626" x="166" y="139.168125" transform="rotate(-0 166 139.168125)">0°</text>
     </g>
    </g>
    <g id="xtick_10">
     <g id="line2d_21">
      <path d="M 134.1 137.1 
L 134.1 114 
" clip-path="url(#p430edc31e1)" style="fill: none; stroke: #cccccc; stroke-width: 0.8; stroke-linecap: round"/>
     </g>
     <g id="text_21">
      <text style="font-size: 8px; font-family: 'Arial'; text-anchor: middle; fill: #262626" x="134.1" y="107.268125" transform="rotate(-0 134.1 107.268125)">90°</text>
     </g>
    </g>
    <g id="xtick_11">
     <g id="line2d_22">
      <path d="M 134.1 137.1 
L 111 137.1 
" clip-path="url(#p430edc31e1)" style="fill: none; stroke: #cccccc; stroke-width: 0.8; stroke-linecap: round"/>
     </g>
     <g id="text_22">
      <text style="font-size: 8px; font-family: 'Arial'; text-anchor: middle; fill: #262626" x="102.2" y="139.168125" transform="rotate(-0 102.2 139.168125)">180°</text>
     </g>
    </g>
    <g id="xtick_12">
     <g id="line2d_23">
      <path d="M 134.1 137.1 
L 134.1 160.2 
" clip-path="url(#p430edc31e1)" style="fill: none; stroke: #cccccc; stroke-width: 0.8; stroke-linecap: round"/>
     </g>
     <g id="text_23">
      <text style="font-size: 8px; font-family: 'Arial'; text-anchor: middle; fill: #262626" x="134.1" y="171.068125" transform="rotate(-0 134.1 171.068125)">270°</text>
     </g>
    </g>
   </g>
   <g id="matplotlib.axis_8">
    <g id="ytick_9">
     <g id="line2d_24">
      <path d="M 145.65 137.1 
C 145.65 135.583268 145.351237 134.081284 144.770809 132.680006 
C 144.19038 131.278729 143.339575 130.005408 142.267083 128.932917 
C 141.194592 127.860425 139.921271 127.00962 138.519994 126.429191 
C 137.118716 125.848763 135.616732 125.55 134.1 125.55 
C 132.583268 125.55 131.081284 125.848763 129.680006 126.429191 
C 128.278729 127.00962 127.005408 127.860425 125.932917 128.932917 
C 124.860425 130.005408 124.00962 131.278729 123.429191 132.680006 
C 122.848763 134.081284 122.55 135.583268 122.55 137.1 
C 122.55 138.616732 122.848763 140.118716 123.429191 141.519994 
C 124.00962 142.921271 124.860425 144.194592 125.932917 145.267083 
C 127.005408 146.339575 128.278729 147.19038 129.680006 147.770809 
C 131.081284 148.351237 132.583268 148.65 134.1 148.65 
C 135.616732 148.65 137.118716 148.351237 138.519994 147.770809 
C 139.921271 147.19038 141.194592 146.339575 142.267083 145.267083 
C 143.339575 144.194592 144.19038 142.921271 144.770809 141.519994 
C 145.351237 140.118716 145.65 138.616732 145.65 137.1 
" clip-path="url(#p430edc31e1)" style="fill: none; stroke: #cccccc; stroke-width: 0.8; stroke-linecap: round"/>
     </g>
     <g id="text_24">
      <text style="font-size: 8px; font-family: 'Arial'; text-anchor: start; fill: #262626" x="144.770809" y="131.090006" transform="rotate(-0 144.770809 131.090006)">0.1</text>
     </g>
    </g>
    <g id="ytick_10">
     <g id="line2d_25">
      <path d="M 157.2 137.1 
C 157.2 134.066536 156.602474 131.062568 155.441617 128.260013 
C 154.280761 125.457457 152.57915 122.910816 150.434167 120.765833 
C 148.289184 118.62085 145.742543 116.919239 142.939987 115.758383 
C 140.137432 114.597526 137.133464 114 134.1 114 
C 131.066536 114 128.062568 114.597526 125.260013 115.758383 
C 122.457457 116.919239 119.910816 118.62085 117.765833 120.765833 
C 115.62085 122.910816 113.919239 125.457457 112.758383 128.260013 
C 111.597526 131.062568 111 134.066536 111 137.1 
C 111 140.133464 111.597526 143.137432 112.758383 145.939987 
C 113.919239 148.742543 115.62085 151.289184 117.765833 153.434167 
C 119.910816 155.57915 122.457457 157.280761 125.260013 158.441617 
C 128.062568 159.602474 131.066536 160.2 134.1 160.2 
C 137.133464 160.2 140.137432 159.602474 142.939987 158.441617 
C 145.742543 157.280761 148.289184 155.57915 150.434167 153.434167 
C 152.57915 151.289184 154.280761 148.742543 155.441617 145.939987 
C 156.602474 143.137432 157.2 140.133464 157.2 137.1 
" clip-path="url(#p430edc31e1)" style="fill: none; stroke: #cccccc; stroke-width: 0.8; stroke-linecap: round"/>
     </g>
     <g id="text_25">
      <text style="font-size: 8px; font-family: 'Arial'; text-anchor: start; fill: #262626" x="155.441617" y="126.670013" transform="rotate(-0 155.441617 126.670013)">0.2</text>
     </g>
    </g>
   </g>
   <g id="FillBetweenPolyCollection_2">
    <defs>
     <path id="m95bacf0436" d="M 135.536314 -43.11298 
L 135.536314 -43.11298 
L 135.253294 -43.445246 
L 135.372469 -44.052692 
L 135.072818 -44.521701 
L 134.77187 -45.576908 
L 134.017294 -44.603511 
L 132.676607 -46.88666 
L 131.648111 -46.211415 
L 128.475485 -47.079181 
L 125.901892 -45.842523 
L 129.311677 -41.181341 
L 126.136805 -36.98311 
L 107.162976 -6.520012 
L 131.815341 -36.501093 
L 133.906131 -38.906824 
L 134.941407 -39.547611 
L 134.964305 -41.45919 
L 135.842966 -41.321097 
L 135.239692 -42.361184 
L 134.902514 -42.781001 
L 135.536314 -43.11298 
L 135.536314 -43.11298 
L 135.536314 -43.11298 
L 134.902514 -42.781001 
L 135.239692 -42.361184 
L 135.842966 -41.321097 
L 134.964305 -41.45919 
L 134.941407 -39.547611 
L 133.906131 -38.906824 
L 131.815341 -36.501093 
L 107.162976 -6.520012 
L 126.136805 -36.98311 
L 129.311677 -41.181341 
L 125.901892 -45.842523 
L 128.475485 -47.079181 
L 131.648111 -46.211415 
L 132.676607 -46.88666 
L 134.017294 -44.603511 
L 134.77187 -45.576908 
L 135.072818 -44.521701 
L 135.372469 -44.052692 
L 135.253294 -43.445246 
L 135.536314 -43.11298 
z
" style="stroke: #ffffff; stroke-opacity: 0.5; stroke-width: 0.8"/>
    </defs>
    <g clip-path="url(#p430edc31e1)">
     <use xlink:href="#m95bacf0436" x="0" y="180" style="fill: #4c72b0; fill-opacity: 0.5; stroke: #ffffff; stroke-opacity: 0.5; stroke-width: 0.8"/>
    </g>
   </g>
   <g id="line2d_26">
    <path d="M 135.536314 136.88702 
L 135.253294 136.554754 
L 135.372469 135.947308 
L 135.072818 135.478299 
L 134.77187 134.423092 
L 134.017294 135.396489 
L 132.676607 133.11334 
L 131.648111 133.788585 
L 128.475485 132.920819 
L 125.901892 134.157477 
L 129.311677 138.818659 
L 126.136805 143.01689 
L 107.162976 173.479988 
L 131.815341 143.498907 
L 133.906131 141.093176 
L 134.941407 140.452389 
L 134.964305 138.54081 
L 135.842966 138.678903 
L 135.239692 137.638816 
L 134.902514 137.218999 
L 135.536314 136.88702 
" clip-path="url(#p430edc31e1)" style="fill: none; stroke: #4c72b0; stroke-width: 1.2; stroke-linecap: round"/>
   </g>
   <g id="patch_11">
    <path d="M 157.2 137.1 
C 157.2 134.066536 156.602474 131.062568 155.441617 128.260013 
C 154.280761 125.457457 152.57915 122.910816 150.434167 120.765833 
C 148.289184 118.62085 145.742543 116.919239 142.939987 115.758383 
C 140.137432 114.597526 137.133464 114 134.1 114 
C 131.066536 114 128.062568 114.597526 125.260013 115.758383 
C 122.457457 116.919239 119.910816 118.62085 117.765833 120.765833 
C 115.62085 122.910816 113.919239 125.457457 112.758383 128.260013 
C 111.597526 131.062568 111 134.066536 111 137.1 
C 111 140.133464 111.597526 143.137432 112.758383 145.939987 
C 113.919239 148.742543 115.62085 151.289184 117.765833 153.434167 
C 119.910816 155.57915 122.457457 157.280761 125.260013 158.441617 
C 128.062568 159.602474 131.066536 160.2 134.1 160.2 
C 137.133464 160.2 140.137432 159.602474 142.939987 158.441617 
C 145.742543 157.280761 148.289184 155.57915 150.434167 153.434167 
C 152.57915 151.289184 154.280761 148.742543 155.441617 145.939987 
C 156.602474 143.137432 157.2 140.133464 157.2 137.1 
" style="fill: none; stroke: #262626; stroke-linejoin: miter; stroke-linecap: square"/>
   </g>
  </g>
 </g>
 <defs>
  <clipPath id="p659a66ea8c">
   <rect x="22.5" y="21.6" width="55.8" height="46.2"/>
  </clipPath>
  <clipPath id="pd1f0fbbd6e">
   <path d="M 73.5 137.1 
C 73.5 134.066536 72.902474 131.062568 71.741617 128.260013 
C 70.580761 125.457457 68.87915 122.910816 66.734167 120.765833 
C 64.589184 118.62085 62.042543 116.919239 59.239987 115.758383 
C 56.437432 114.597526 53.433464 114 50.4 114 
C 47.366536 114 44.362568 114.597526 41.560013 115.758383 
C 38.757457 116.919239 36.210816 118.62085 34.065833 120.765833 
C 31.92085 122.910816 30.219239 125.457457 29.058383 128.260013 
C 27.897526 131.062568 27.3 134.066536 27.3 137.1 
C 27.3 140.133464 27.897526 143.137432 29.058383 145.939987 
C 30.219239 148.742543 31.92085 151.289184 34.065833 153.434167 
C 36.210816 155.57915 38.757457 157.280761 41.560013 158.441617 
C 44.362568 159.602474 47.366536 160.2 50.4 160.2 
C 53.433464 160.2 56.437432 159.602474 59.239987 158.441617 
C 62.042543 157.280761 64.589184 155.57915 66.734167 153.434167 
C 68.87915 151.289184 70.580761 148.742543 71.741617 145.939987 
C 72.902474 143.137432 73.5 140.133464 73.5 137.1 
M 50.4 137.1 
C 50.4 137.1 50.4 137.1 50.4 137.1 
C 50.4 137.1 50.4 137.1 50.4 137.1 
C 50.4 137.1 50.4 137.1 50.4 137.1 
C 50.4 137.1 50.4 137.1 50.4 137.1 
C 50.4 137.1 50.4 137.1 50.4 137.1 
C 50.4 137.1 50.4 137.1 50.4 137.1 
C 50.4 137.1 50.4 137.1 50.4 137.1 
C 50.4 137.1 50.4 137.1 50.4 137.1 
C 50.4 137.1 50.4 137.1 50.4 137.1 
C 50.4 137.1 50.4 137.1 50.4 137.1 
C 50.4 137.1 50.4 137.1 50.4 137.1 
C 50.4 137.1 50.4 137.1 50.4 137.1 
C 50.4 137.1 50.4 137.1 50.4 137.1 
C 50.4 137.1 50.4 137.1 50.4 137.1 
C 50.4 137.1 50.4 137.1 50.4 137.1 
C 50.4 137.1 50.4 137.1 50.4 137.1 
z
"/>
  </clipPath>
  <clipPath id="p08eeed62e3">
   <rect x="106.2" y="21.6" width="55.8" height="46.2"/>
  </clipPath>
  <clipPath id="p430edc31e1">
   <path d="M 157.2 137.1 
C 157.2 134.066536 156.602474 131.062568 155.441617 128.260013 
C 154.280761 125.457457 152.57915 122.910816 150.434167 120.765833 
C 148.289184 118.62085 145.742543 116.919239 142.939987 115.758383 
C 140.137432 114.597526 137.133464 114 134.1 114 
C 131.066536 114 128.062568 114.597526 125.260013 115.758383 
C 122.457457 116.919239 119.910816 118.62085 117.765833 120.765833 
C 115.62085 122.910816 113.919239 125.457457 112.758383 128.260013 
C 111.597526 131.062568 111 134.066536 111 137.1 
C 111 140.133464 111.597526 143.137432 112.758383 145.939987 
C 113.919239 148.742543 115.62085 151.289184 117.765833 153.434167 
C 119.910816 155.57915 122.457457 157.280761 125.260013 158.441617 
C 128.062568 159.602474 131.066536 160.2 134.1 160.2 
C 137.133464 160.2 140.137432 159.602474 142.939987 158.441617 
C 145.742543 157.280761 148.289184 155.57915 150.434167 153.434167 
C 152.57915 151.289184 154.280761 148.742543 155.441617 145.939987 
C 156.602474 143.137432 157.2 140.133464 157.2 137.1 
M 134.1 137.1 
C 134.1 137.1 134.1 137.1 134.1 137.1 
C 134.1 137.1 134.1 137.1 134.1 137.1 
C 134.1 137.1 134.1 137.1 134.1 137.1 
C 134.1 137.1 134.1 137.1 134.1 137.1 
C 134.1 137.1 134.1 137.1 134.1 137.1 
C 134.1 137.1 134.1 137.1 134.1 137.1 
C 134.1 137.1 134.1 137.1 134.1 137.1 
C 134.1 137.1 134.1 137.1 134.1 137.1 
C 134.1 137.1 134.1 137.1 134.1 137.1 
C 134.1 137.1 134.1 137.1 134.1 137.1 
C 134.1 137.1 134.1 137.1 134.1 137.1 
C 134.1 137.1 134.1 137.1 134.1 137.1 
C 134.1 137.1 134.1 137.1 134.1 137.1 
C 134.1 137.1 134.1 137.1 134.1 137.1 
C 134.1 137.1 134.1 137.1 134.1 137.1 
C 134.1 137.1 134.1 137.1 134.1 137.1 
z
"/>
  </clipPath>
 </defs>
</svg>
