<?xml version="1.0" encoding="utf-8" standalone="no"?>
<!DOCTYPE svg PUBLIC "-//W3C//DTD SVG 1.1//EN"
  "http://www.w3.org/Graphics/SVG/1.1/DTD/svg11.dtd">
<svg xmlns:xlink="http://www.w3.org/1999/xlink" width="180pt" height="180pt" viewBox="0 0 180 180" xmlns="http://www.w3.org/2000/svg" version="1.1">
 <metadata>
  <rdf:RDF xmlns:dc="http://purl.org/dc/elements/1.1/" xmlns:cc="http://creativecommons.org/ns#" xmlns:rdf="http://www.w3.org/1999/02/22-rdf-syntax-ns#">
   <cc:Work>
    <dc:type rdf:resource="http://purl.org/dc/dcmitype/StillImage"/>
    <dc:date>2025-12-17T11:05:14.186697</dc:date>
    <dc:format>image/svg+xml</dc:format>
    <dc:creator>
     <cc:Agent>
      <dc:title>Matplotlib v3.10.7, https://matplotlib.org/</dc:title>
     </cc:Agent>
    </dc:creator>
   </cc:Work>
  </rdf:RDF>
 </metadata>
 <defs>
  <style type="text/css">*{stroke-linejoin: round; stroke-linecap: butt}</style>
 </defs>
 <g id="figure_1">
  <g id="patch_1">
   <path d="M 0 180 
L 180 180 
L 180 0 
L 0 0 
L 0 180 
z
" style="fill: none"/>
  </g>
  <g id="axes_1">
   <g id="patch_2">
    <path d="M 36 57.6 
L 93.6 57.6 
L 93.6 0 
L 36 0 
L 36 57.6 
z
" style="fill: none"/>
   </g>
   <g id="matplotlib.axis_1">
    <g id="xtick_1">
     <g id="line2d_1">
      <defs>
       <path id="mb291cfe9b4" d="M 0 0 
L 0 4.8 
" style="stroke: #262626"/>
      </defs>
      <g>
       <use xlink:href="#mb291cfe9b4" x="36" y="57.6" style="fill: #262626; stroke: #262626"/>
      </g>
     </g>
     <g id="text_1">
      <text style="font-size: 8px; font-family: 'Arial'; text-anchor: middle; fill: #262626" x="36" y="71.62625" transform="rotate(-0 36 71.62625)">0</text>
     </g>
    </g>
    <g id="xtick_2">
     <g id="line2d_2">
      <g>
       <use xlink:href="#mb291cfe9b4" x="84" y="57.6" style="fill: #262626; stroke: #262626"/>
      </g>
     </g>
     <g id="text_2">
      <text style="font-size: 8px; font-family: 'Arial'; text-anchor: middle; fill: #262626" x="84" y="71.62625" transform="rotate(-0 84 71.62625)">10</text>
     </g>
    </g>
    <g id="text_3">
     <text style="font-size: 9px; font-family: 'Arial'; text-anchor: middle; fill: #262626" x="64.8" y="83.767969" transform="rotate(-0 64.8 83.767969)">distance (mm)</text>
    </g>
   </g>
   <g id="matplotlib.axis_2">
    <g id="ytick_1">
     <g id="line2d_3">
      <defs>
       <path id="ma180937970" d="M 0 0 
L -4.8 0 
" style="stroke: #262626"/>
      </defs>
      <g>
       <use xlink:href="#ma180937970" x="36" y="57.6" style="fill: #262626; stroke: #262626"/>
      </g>
     </g>
     <g id="text_4">
      <text style="font-size: 8px; font-family: 'Arial'; text-anchor: end; fill: #262626" x="27.7" y="60.463125" transform="rotate(-0 27.7 60.463125)">0.0</text>
     </g>
    </g>
    <g id="ytick_2">
     <g id="line2d_4">
      <g>
       <use xlink:href="#ma180937970" x="36" y="28.8" style="fill: #262626; stroke: #262626"/>
      </g>
     </g>
     <g id="text_5">
      <text style="font-size: 8px; font-family: 'Arial'; text-anchor: end; fill: #262626" x="27.7" y="31.663125" transform="rotate(-0 27.7 31.663125)">0.2</text>
     </g>
    </g>
    <g id="ytick_3">
     <g id="line2d_5">
      <g>
       <use xlink:href="#ma180937970" x="36" y="-0" style="fill: #262626; stroke: #262626"/>
      </g>
     </g>
     <g id="text_6">
      <text style="font-size: 8px; font-family: 'Arial'; text-anchor: end; fill: #262626" x="27.7" y="2.863125" transform="rotate(-0 27.7 2.863125)">0.4</text>
     </g>
    </g>
    <g id="text_7">
     <text style="font-size: 9px; font-family: 'Arial'; fill: #262626" transform="translate(1.166594 40.301719) rotate(-90)">norm.</text>
     <text style="font-size: 9px; font-family: 'Arial'; fill: #262626" transform="translate(10.685781 52.309688) rotate(-90)">connectivity</text>
    </g>
   </g>
   <g id="line2d_6">
    <path d="M 40.641141 47.462501 
L 44.832255 46.664048 
L 49.023368 41.754254 
L 53.214482 45.986645 
L 57.405596 44.844679 
L 61.596709 49.121284 
L 65.787823 57.6 
L 69.978936 57.298952 
L 74.17005 36.885761 
L 78.361164 4.381877 
" clip-path="url(#p56d14c88ef)" style="fill: none; stroke: #fc8d62; stroke-width: 1.2; stroke-linecap: round"/>
   </g>
   <g id="line2d_7">
    <path d="M 40.641141 31.6789 
L 44.832255 24.00946 
L 49.023368 29.985962 
L 53.214482 35.713859 
L 57.405596 45.11073 
L 61.596709 54.062452 
L 65.787823 57.6 
L 69.978936 54.026634 
L 74.17005 50.014373 
L 78.361164 49.797631 
" clip-path="url(#p56d14c88ef)" style="fill: none; stroke: #e78ac3; stroke-width: 1.2; stroke-linecap: round"/>
   </g>
   <g id="patch_3">
    <path d="M 36 57.6 
L 36 -0 
" style="fill: none; stroke: #262626; stroke-linejoin: miter; stroke-linecap: square"/>
   </g>
   <g id="patch_4">
    <path d="M 36 57.6 
L 93.6 57.6 
" style="fill: none; stroke: #262626; stroke-linejoin: miter; stroke-linecap: square"/>
   </g>
   <g id="text_8">
    <text style="font-size: 8px; font-family: 'Arial'; text-anchor: start; fill: #fc8d62" x="74.4" y="25.2" transform="rotate(-0 74.4 25.2)">2.91</text>
   </g>
   <g id="text_9">
    <text style="font-size: 8px; font-family: 'Arial'; text-anchor: start; fill: #e78ac3" x="74.4" y="18" transform="rotate(-0 74.4 18)">2.22</text>
   </g>
  </g>
  <g id="axes_2">
   <g id="patch_5">
    <path d="M 93.6 115.2 
C 93.6 111.418019 92.855032 107.672812 91.407731 104.178717 
C 89.960429 100.684622 87.83894 97.509589 85.164675 94.835325 
C 82.490411 92.16106 79.315378 90.039571 75.821283 88.592269 
C 72.327188 87.144968 68.581981 86.4 64.8 86.4 
C 61.018019 86.4 57.272812 87.144968 53.778717 88.592269 
C 50.284622 90.039571 47.109589 92.16106 44.435325 94.835325 
C 41.76106 97.509589 39.639571 100.684622 38.192269 104.178717 
C 36.744968 107.672812 36 111.418019 36 115.2 
C 36 118.981981 36.744968 122.727188 38.192269 126.221283 
C 39.639571 129.715378 41.76106 132.890411 44.435325 135.564675 
C 47.109589 138.23894 50.284622 140.360429 53.778717 141.807731 
C 57.272812 143.255032 61.018019 144 64.8 144 
C 68.581981 144 72.327188 143.255032 75.821283 141.807731 
C 79.315378 140.360429 82.490411 138.23894 85.164675 135.564675 
C 87.83894 132.890411 89.960429 129.715378 91.407731 126.221283 
C 92.855032 122.727188 93.6 118.981981 93.6 115.2 
M 64.8 115.2 
C 64.8 115.2 64.8 115.2 64.8 115.2 
C 64.8 115.2 64.8 115.2 64.8 115.2 
C 64.8 115.2 64.8 115.2 64.8 115.2 
C 64.8 115.2 64.8 115.2 64.8 115.2 
C 64.8 115.2 64.8 115.2 64.8 115.2 
C 64.8 115.2 64.8 115.2 64.8 115.2 
C 64.8 115.2 64.8 115.2 64.8 115.2 
C 64.8 115.2 64.8 115.2 64.8 115.2 
C 64.8 115.2 64.8 115.2 64.8 115.2 
C 64.8 115.2 64.8 115.2 64.8 115.2 
C 64.8 115.2 64.8 115.2 64.8 115.2 
C 64.8 115.2 64.8 115.2 64.8 115.2 
C 64.8 115.2 64.8 115.2 64.8 115.2 
C 64.8 115.2 64.8 115.2 64.8 115.2 
C 64.8 115.2 64.8 115.2 64.8 115.2 
C 64.8 115.2 64.8 115.2 64.8 115.2 
L 64.8 115.2 
z
" style="fill: none"/>
   </g>
   <g id="matplotlib.axis_3">
    <g id="xtick_3">
     <g id="line2d_8">
      <path d="M 64.8 115.2 
L 93.6 115.2 
" clip-path="url(#pfe68e6c9e1)" style="fill: none; stroke: #cccccc; stroke-width: 0.8; stroke-linecap: round"/>
     </g>
     <g id="text_10">
      <text style="font-size: 8px; font-family: 'Arial'; text-anchor: middle; fill: #262626" x="102.4" y="117.268125" transform="rotate(-0 102.4 117.268125)">0°</text>
     </g>
    </g>
    <g id="xtick_4">
     <g id="line2d_9">
      <path d="M 64.8 115.2 
L 64.8 86.4 
" clip-path="url(#pfe68e6c9e1)" style="fill: none; stroke: #cccccc; stroke-width: 0.8; stroke-linecap: round"/>
     </g>
     <g id="text_11">
      <text style="font-size: 8px; font-family: 'Arial'; text-anchor: middle; fill: #262626" x="64.8" y="79.668125" transform="rotate(-0 64.8 79.668125)">90°</text>
     </g>
    </g>
    <g id="xtick_5">
     <g id="line2d_10">
      <path d="M 64.8 115.2 
L 36 115.2 
" clip-path="url(#pfe68e6c9e1)" style="fill: none; stroke: #cccccc; stroke-width: 0.8; stroke-linecap: round"/>
     </g>
     <g id="text_12">
      <text style="font-size: 8px; font-family: 'Arial'; text-anchor: middle; fill: #262626" x="27.2" y="117.268125" transform="rotate(-0 27.2 117.268125)">180°</text>
     </g>
    </g>
    <g id="xtick_6">
     <g id="line2d_11">
      <path d="M 64.8 115.2 
L 64.8 144 
" clip-path="url(#pfe68e6c9e1)" style="fill: none; stroke: #cccccc; stroke-width: 0.8; stroke-linecap: round"/>
     </g>
     <g id="text_13">
      <text style="font-size: 8px; font-family: 'Arial'; text-anchor: middle; fill: #262626" x="64.8" y="154.868125" transform="rotate(-0 64.8 154.868125)">270°</text>
     </g>
    </g>
   </g>
   <g id="matplotlib.axis_4">
    <g id="ytick_4">
     <g id="line2d_12">
      <path d="M 74.4 115.2 
C 74.4 113.93934 74.151677 112.690937 73.669244 111.526239 
C 73.18681 110.361541 72.479647 109.303196 71.588225 108.411775 
C 70.696804 107.520353 69.638459 106.81319 68.473761 106.330756 
C 67.309063 105.848323 66.06066 105.6 64.8 105.6 
C 63.53934 105.6 62.290937 105.848323 61.126239 106.330756 
C 59.961541 106.81319 58.903196 107.520353 58.011775 108.411775 
C 57.120353 109.303196 56.41319 110.361541 55.930756 111.526239 
C 55.448323 112.690937 55.2 113.93934 55.2 115.2 
C 55.2 116.46066 55.448323 117.709063 55.930756 118.873761 
C 56.41319 120.038459 57.120353 121.096804 58.011775 121.988225 
C 58.903196 122.879647 59.961541 123.58681 61.126239 124.069244 
C 62.290937 124.551677 63.53934 124.8 64.8 124.8 
C 66.06066 124.8 67.309063 124.551677 68.473761 124.069244 
C 69.638459 123.58681 70.696804 122.879647 71.588225 121.988225 
C 72.479647 121.096804 73.18681 120.038459 73.669244 118.873761 
C 74.151677 117.709063 74.4 116.46066 74.4 115.2 
" clip-path="url(#pfe68e6c9e1)" style="fill: none; stroke: #cccccc; stroke-width: 0.8; stroke-linecap: round"/>
     </g>
     <g id="text_14">
      <text style="font-size: 8px; font-family: 'Arial'; text-anchor: start; fill: #262626" x="73.669244" y="109.936239" transform="rotate(-0 73.669244 109.936239)">0.1</text>
     </g>
    </g>
    <g id="ytick_5">
     <g id="line2d_13">
      <path d="M 84 115.2 
C 84 112.678679 83.503355 110.181875 82.538487 107.852478 
C 81.573619 105.523081 80.159293 103.406393 78.37645 101.62355 
C 76.593607 99.840707 74.476919 98.426381 72.147522 97.461513 
C 69.818125 96.496645 67.321321 96 64.8 96 
C 62.278679 96 59.781875 96.496645 57.452478 97.461513 
C 55.123081 98.426381 53.006393 99.840707 51.22355 101.62355 
C 49.440707 103.406393 48.026381 105.523081 47.061513 107.852478 
C 46.096645 110.181875 45.6 112.678679 45.6 115.2 
C 45.6 117.721321 46.096645 120.218125 47.061513 122.547522 
C 48.026381 124.876919 49.440707 126.993607 51.22355 128.77645 
C 53.006393 130.559293 55.123081 131.973619 57.452478 132.938487 
C 59.781875 133.903355 62.278679 134.4 64.8 134.4 
C 67.321321 134.4 69.818125 133.903355 72.147522 132.938487 
C 74.476919 131.973619 76.593607 130.559293 78.37645 128.77645 
C 80.159293 126.993607 81.573619 124.876919 82.538487 122.547522 
C 83.503355 120.218125 84 117.721321 84 115.2 
" clip-path="url(#pfe68e6c9e1)" style="fill: none; stroke: #cccccc; stroke-width: 0.8; stroke-linecap: round"/>
     </g>
     <g id="text_15">
      <text style="font-size: 8px; font-family: 'Arial'; text-anchor: start; fill: #262626" x="82.538487" y="106.262478" transform="rotate(-0 82.538487 106.262478)">0.2</text>
     </g>
    </g>
    <g id="ytick_6">
     <g id="line2d_14">
      <path d="M 93.6 115.2 
C 93.6 111.418019 92.855032 107.672812 91.407731 104.178717 
C 89.960429 100.684622 87.83894 97.509589 85.164675 94.835325 
C 82.490411 92.16106 79.315378 90.039571 75.821283 88.592269 
C 72.327188 87.144968 68.581981 86.4 64.8 86.4 
C 61.018019 86.4 57.272812 87.144968 53.778717 88.592269 
C 50.284622 90.039571 47.109589 92.16106 44.435325 94.835325 
C 41.76106 97.509589 39.639571 100.684622 38.192269 104.178717 
C 36.744968 107.672812 36 111.418019 36 115.2 
C 36 118.981981 36.744968 122.727188 38.192269 126.221283 
C 39.639571 129.715378 41.76106 132.890411 44.435325 135.564675 
C 47.109589 138.23894 50.284622 140.360429 53.778717 141.807731 
C 57.272812 143.255032 61.018019 144 64.8 144 
C 68.581981 144 72.327188 143.255032 75.821283 141.807731 
C 79.315378 140.360429 82.490411 138.23894 85.164675 135.564675 
C 87.83894 132.890411 89.960429 129.715378 91.407731 126.221283 
C 92.855032 122.727188 93.6 118.981981 93.6 115.2 
" clip-path="url(#pfe68e6c9e1)" style="fill: none; stroke: #cccccc; stroke-width: 0.8; stroke-linecap: round"/>
     </g>
     <g id="text_16">
      <text style="font-size: 8px; font-family: 'Arial'; text-anchor: start; fill: #262626" x="91.407731" y="102.588717" transform="rotate(-0 91.407731 102.588717)">0.3</text>
     </g>
    </g>
   </g>
   <g id="FillBetweenPolyCollection_1">
    <defs>
     <path id="me47c1b8fee" d="M 66.662544 -65.395394 
L 66.662544 -65.395394 
L 66.784167 -67.450565 
L 64.8 -64.8 
L 60.87807 -70.594499 
L 36.322263 -75.421157 
L 36.946942 -54.411826 
L 58.592072 -55.628027 
L 65.034133 -54.96084 
L 66.416984 -62.63994 
L 64.8 -64.8 
L 66.662544 -65.395394 
L 66.662544 -65.395394 
L 66.662544 -65.395394 
L 64.8 -64.8 
L 66.416984 -62.63994 
L 65.034133 -54.96084 
L 58.592072 -55.628027 
L 36.946942 -54.411826 
L 36.322263 -75.421157 
L 60.87807 -70.594499 
L 64.8 -64.8 
L 66.784167 -67.450565 
L 66.662544 -65.395394 
z
" style="stroke: #ffffff; stroke-opacity: 0.5; stroke-width: 0.8"/>
    </defs>
    <g clip-path="url(#pfe68e6c9e1)">
     <use xlink:href="#me47c1b8fee" x="0" y="180" style="fill: #fc8d62; fill-opacity: 0.5; stroke: #ffffff; stroke-opacity: 0.5; stroke-width: 0.8"/>
    </g>
   </g>
   <g id="FillBetweenPolyCollection_2">
    <defs>
     <path id="me52df19932" d="M 89.985771 -72.851063 
L 89.985771 -72.851063 
L 72.25981 -74.765244 
L 64.879763 -68.151945 
L 61.489693 -69.69085 
L 63.676084 -65.21918 
L 61.822787 -63.689608 
L 64.8 -64.8 
L 64.873063 -61.729633 
L 73.403204 -53.307345 
L 89.610699 -56.868835 
L 89.985771 -72.851063 
L 89.985771 -72.851063 
L 89.985771 -72.851063 
L 89.610699 -56.868835 
L 73.403204 -53.307345 
L 64.873063 -61.729633 
L 64.8 -64.8 
L 61.822787 -63.689608 
L 63.676084 -65.21918 
L 61.489693 -69.69085 
L 64.879763 -68.151945 
L 72.25981 -74.765244 
L 89.985771 -72.851063 
z
" style="stroke: #ffffff; stroke-opacity: 0.5; stroke-width: 0.8"/>
    </defs>
    <g clip-path="url(#pfe68e6c9e1)">
     <use xlink:href="#me52df19932" x="0" y="180" style="fill: #e78ac3; fill-opacity: 0.5; stroke: #ffffff; stroke-opacity: 0.5; stroke-width: 0.8"/>
    </g>
   </g>
   <g id="line2d_15">
    <path d="M 66.662544 114.604606 
L 66.784167 112.549435 
L 64.8 115.2 
L 60.87807 109.405501 
L 36.322263 104.578843 
L 36.946942 125.588174 
L 58.592072 124.371973 
L 65.034133 125.03916 
L 66.416984 117.36006 
L 64.8 115.2 
L 66.662544 114.604606 
" clip-path="url(#pfe68e6c9e1)" style="fill: none; stroke: #fc8d62; stroke-width: 1.2; stroke-linecap: round"/>
   </g>
   <g id="line2d_16">
    <path d="M 89.985771 107.148937 
L 72.25981 105.234756 
L 64.879763 111.848055 
L 61.489693 110.30915 
L 63.676084 114.78082 
L 61.822787 116.310392 
L 64.8 115.2 
L 64.873063 118.270367 
L 73.403204 126.692655 
L 89.610699 123.131165 
L 89.985771 107.148937 
" clip-path="url(#pfe68e6c9e1)" style="fill: none; stroke: #e78ac3; stroke-width: 1.2; stroke-linecap: round"/>
   </g>
   <g id="patch_6">
    <path d="M 93.6 115.2 
C 93.6 111.418019 92.855032 107.672812 91.407731 104.178717 
C 89.960429 100.684622 87.83894 97.509589 85.164675 94.835325 
C 82.490411 92.16106 79.315378 90.039571 75.821283 88.592269 
C 72.327188 87.144968 68.581981 86.4 64.8 86.4 
C 61.018019 86.4 57.272812 87.144968 53.778717 88.592269 
C 50.284622 90.039571 47.109589 92.16106 44.435325 94.835325 
C 41.76106 97.509589 39.639571 100.684622 38.192269 104.178717 
C 36.744968 107.672812 36 111.418019 36 115.2 
C 36 118.981981 36.744968 122.727188 38.192269 126.221283 
C 39.639571 129.715378 41.76106 132.890411 44.435325 135.564675 
C 47.109589 138.23894 50.284622 140.360429 53.778717 141.807731 
C 57.272812 143.255032 61.018019 144 64.8 144 
C 68.581981 144 72.327188 143.255032 75.821283 141.807731 
C 79.315378 140.360429 82.490411 138.23894 85.164675 135.564675 
C 87.83894 132.890411 89.960429 129.715378 91.407731 126.221283 
C 92.855032 122.727188 93.6 118.981981 93.6 115.2 
" style="fill: none; stroke: #262626; stroke-linejoin: miter; stroke-linecap: square"/>
   </g>
   <g id="text_17">
    <text style="font-size: 8px; font-family: 'Arial'; text-anchor: start; fill: #fc8d62" x="82.08" y="151.2" transform="rotate(-0 82.08 151.2)">0.36</text>
   </g>
   <g id="text_18">
    <text style="font-size: 8px; font-family: 'Arial'; text-anchor: start; fill: #e78ac3" x="82.08" y="142.56" transform="rotate(-0 82.08 142.56)">0.39</text>
   </g>
  </g>
  <g id="axes_3">
   <g id="patch_7">
    <path d="M 122.4 57.6 
L 180 57.6 
L 180 0 
L 122.4 0 
L 122.4 57.6 
z
" style="fill: none"/>
   </g>
   <g id="matplotlib.axis_5">
    <g id="xtick_7">
     <g id="line2d_17">
      <g>
       <use xlink:href="#mb291cfe9b4" x="122.4" y="57.6" style="fill: #262626; stroke: #262626"/>
      </g>
     </g>
     <g id="text_19">
      <text style="font-size: 8px; font-family: 'Arial'; text-anchor: middle; fill: #262626" x="122.4" y="71.62625" transform="rotate(-0 122.4 71.62625)">0</text>
     </g>
    </g>
    <g id="xtick_8">
     <g id="line2d_18">
      <g>
       <use xlink:href="#mb291cfe9b4" x="170.4" y="57.6" style="fill: #262626; stroke: #262626"/>
      </g>
     </g>
     <g id="text_20">
      <text style="font-size: 8px; font-family: 'Arial'; text-anchor: middle; fill: #262626" x="170.4" y="71.62625" transform="rotate(-0 170.4 71.62625)">10</text>
     </g>
    </g>
    <g id="text_21">
     <text style="font-size: 9px; font-family: 'Arial'; text-anchor: middle; fill: #262626" x="151.2" y="83.767969" transform="rotate(-0 151.2 83.767969)">distance (mm)</text>
    </g>
   </g>
   <g id="matplotlib.axis_6">
    <g id="ytick_7">
     <g id="line2d_19">
      <g>
       <use xlink:href="#ma180937970" x="122.4" y="57.6" style="fill: #262626; stroke: #262626"/>
      </g>
     </g>
     <g id="text_22">
      <text style="font-size: 8px; font-family: 'Arial'; text-anchor: end; fill: #262626" x="114.1" y="60.463125" transform="rotate(-0 114.1 60.463125)">0.0</text>
     </g>
    </g>
    <g id="ytick_8">
     <g id="line2d_20">
      <g>
       <use xlink:href="#ma180937970" x="122.4" y="28.8" style="fill: #262626; stroke: #262626"/>
      </g>
     </g>
     <g id="text_23">
      <text style="font-size: 8px; font-family: 'Arial'; text-anchor: end; fill: #262626" x="114.1" y="31.663125" transform="rotate(-0 114.1 31.663125)">0.2</text>
     </g>
    </g>
    <g id="ytick_9">
     <g id="line2d_21">
      <g>
       <use xlink:href="#ma180937970" x="122.4" y="-0" style="fill: #262626; stroke: #262626"/>
      </g>
     </g>
     <g id="text_24">
      <text style="font-size: 8px; font-family: 'Arial'; text-anchor: end; fill: #262626" x="114.1" y="2.863125" transform="rotate(-0 114.1 2.863125)">0.4</text>
     </g>
    </g>
   </g>
   <g id="line2d_22">
    <path d="M 127.041141 23.809648 
L 131.232255 33.404581 
L 135.423368 34.205223 
L 139.614482 37.362415 
L 143.805596 40.878034 
L 147.996709 41.081541 
L 152.187823 50.77171 
L 156.378936 55.904242 
L 160.57005 57.6 
L 164.761164 56.982605 
" clip-path="url(#p7c61970425)" style="fill: none; stroke: #fc8d62; stroke-width: 1.2; stroke-linecap: round"/>
   </g>
   <g id="line2d_23">
    <path d="M 127.041141 -0.745523 
L 131.232255 32.239859 
L 135.423368 44.99668 
L 139.614482 49.133566 
L 143.805596 57.6 
L 147.996709 57.439821 
L 152.187823 54.927647 
L 156.378936 50.879286 
L 160.57005 45.696485 
L 164.761164 39.832178 
" clip-path="url(#p7c61970425)" style="fill: none; stroke: #e78ac3; stroke-width: 1.2; stroke-linecap: round"/>
   </g>
   <g id="patch_8">
    <path d="M 122.4 57.6 
L 122.4 -0 
" style="fill: none; stroke: #262626; stroke-linejoin: miter; stroke-linecap: square"/>
   </g>
   <g id="patch_9">
    <path d="M 122.4 57.6 
L 180 57.6 
" style="fill: none; stroke: #262626; stroke-linejoin: miter; stroke-linecap: square"/>
   </g>
   <g id="text_25">
    <text style="font-size: 8px; font-family: 'Arial'; text-anchor: start; fill: #fc8d62" x="160.8" y="25.2" transform="rotate(-0 160.8 25.2)">1.72</text>
   </g>
   <g id="text_26">
    <text style="font-size: 8px; font-family: 'Arial'; text-anchor: start; fill: #e78ac3" x="160.8" y="18" transform="rotate(-0 160.8 18)">3.00</text>
   </g>
  </g>
  <g id="axes_4">
   <g id="patch_10">
    <path d="M 180 115.2 
C 180 111.418019 179.255032 107.672812 177.807731 104.178717 
C 176.360429 100.684622 174.23894 97.509589 171.564675 94.835325 
C 168.890411 92.16106 165.715378 90.039571 162.221283 88.592269 
C 158.727188 87.144968 154.981981 86.4 151.2 86.4 
C 147.418019 86.4 143.672812 87.144968 140.178717 88.592269 
C 136.684622 90.039571 133.509589 92.16106 130.835325 94.835325 
C 128.16106 97.509589 126.039571 100.684622 124.592269 104.178717 
C 123.144968 107.672812 122.4 111.418019 122.4 115.2 
C 122.4 118.981981 123.144968 122.727188 124.592269 126.221283 
C 126.039571 129.715378 128.16106 132.890411 130.835325 135.564675 
C 133.509589 138.23894 136.684622 140.360429 140.178717 141.807731 
C 143.672812 143.255032 147.418019 144 151.2 144 
C 154.981981 144 158.727188 143.255032 162.221283 141.807731 
C 165.715378 140.360429 168.890411 138.23894 171.564675 135.564675 
C 174.23894 132.890411 176.360429 129.715378 177.807731 126.221283 
C 179.255032 122.727188 180 118.981981 180 115.2 
M 151.2 115.2 
C 151.2 115.2 151.2 115.2 151.2 115.2 
C 151.2 115.2 151.2 115.2 151.2 115.2 
C 151.2 115.2 151.2 115.2 151.2 115.2 
C 151.2 115.2 151.2 115.2 151.2 115.2 
C 151.2 115.2 151.2 115.2 151.2 115.2 
C 151.2 115.2 151.2 115.2 151.2 115.2 
C 151.2 115.2 151.2 115.2 151.2 115.2 
C 151.2 115.2 151.2 115.2 151.2 115.2 
C 151.2 115.2 151.2 115.2 151.2 115.2 
C 151.2 115.2 151.2 115.2 151.2 115.2 
C 151.2 115.2 151.2 115.2 151.2 115.2 
C 151.2 115.2 151.2 115.2 151.2 115.2 
C 151.2 115.2 151.2 115.2 151.2 115.2 
C 151.2 115.2 151.2 115.2 151.2 115.2 
C 151.2 115.2 151.2 115.2 151.2 115.2 
C 151.2 115.2 151.2 115.2 151.2 115.2 
L 151.2 115.2 
z
" style="fill: none"/>
   </g>
   <g id="matplotlib.axis_7">
    <g id="xtick_9">
     <g id="line2d_24">
      <path d="M 151.2 115.2 
L 180 115.2 
" clip-path="url(#p9858afe9c4)" style="fill: none; stroke: #cccccc; stroke-width: 0.8; stroke-linecap: round"/>
     </g>
     <g id="text_27">
      <text style="font-size: 8px; font-family: 'Arial'; text-anchor: middle; fill: #262626" x="188.8" y="117.268125" transform="rotate(-0 188.8 117.268125)">0°</text>
     </g>
    </g>
    <g id="xtick_10">
     <g id="line2d_25">
      <path d="M 151.2 115.2 
L 151.2 86.4 
" clip-path="url(#p9858afe9c4)" style="fill: none; stroke: #cccccc; stroke-width: 0.8; stroke-linecap: round"/>
     </g>
     <g id="text_28">
      <text style="font-size: 8px; font-family: 'Arial'; text-anchor: middle; fill: #262626" x="151.2" y="79.668125" transform="rotate(-0 151.2 79.668125)">90°</text>
     </g>
    </g>
    <g id="xtick_11">
     <g id="line2d_26">
      <path d="M 151.2 115.2 
L 122.4 115.2 
" clip-path="url(#p9858afe9c4)" style="fill: none; stroke: #cccccc; stroke-width: 0.8; stroke-linecap: round"/>
     </g>
     <g id="text_29">
      <text style="font-size: 8px; font-family: 'Arial'; text-anchor: middle; fill: #262626" x="113.6" y="117.268125" transform="rotate(-0 113.6 117.268125)">180°</text>
     </g>
    </g>
    <g id="xtick_12">
     <g id="line2d_27">
      <path d="M 151.2 115.2 
L 151.2 144 
" clip-path="url(#p9858afe9c4)" style="fill: none; stroke: #cccccc; stroke-width: 0.8; stroke-linecap: round"/>
     </g>
     <g id="text_30">
      <text style="font-size: 8px; font-family: 'Arial'; text-anchor: middle; fill: #262626" x="151.2" y="154.868125" transform="rotate(-0 151.2 154.868125)">270°</text>
     </g>
    </g>
   </g>
   <g id="matplotlib.axis_8">
    <g id="ytick_10">
     <g id="line2d_28">
      <path d="M 160.8 115.2 
C 160.8 113.93934 160.551677 112.690937 160.069244 111.526239 
C 159.58681 110.361541 158.879647 109.303196 157.988225 108.411775 
C 157.096804 107.520353 156.038459 106.81319 154.873761 106.330756 
C 153.709063 105.848323 152.46066 105.6 151.2 105.6 
C 149.93934 105.6 148.690937 105.848323 147.526239 106.330756 
C 146.361541 106.81319 145.303196 107.520353 144.411775 108.411775 
C 143.520353 109.303196 142.81319 110.361541 142.330756 111.526239 
C 141.848323 112.690937 141.6 113.93934 141.6 115.2 
C 141.6 116.46066 141.848323 117.709063 142.330756 118.873761 
C 142.81319 120.038459 143.520353 121.096804 144.411775 121.988225 
C 145.303196 122.879647 146.361541 123.58681 147.526239 124.069244 
C 148.690937 124.551677 149.93934 124.8 151.2 124.8 
C 152.46066 124.8 153.709063 124.551677 154.873761 124.069244 
C 156.038459 123.58681 157.096804 122.879647 157.988225 121.988225 
C 158.879647 121.096804 159.58681 120.038459 160.069244 118.873761 
C 160.551677 117.709063 160.8 116.46066 160.8 115.2 
" clip-path="url(#p9858afe9c4)" style="fill: none; stroke: #cccccc; stroke-width: 0.8; stroke-linecap: round"/>
     </g>
     <g id="text_31">
      <text style="font-size: 8px; font-family: 'Arial'; text-anchor: start; fill: #262626" x="160.069244" y="109.936239" transform="rotate(-0 160.069244 109.936239)">0.1</text>
     </g>
    </g>
    <g id="ytick_11">
     <g id="line2d_29">
      <path d="M 170.4 115.2 
C 170.4 112.678679 169.903355 110.181875 168.938487 107.852478 
C 167.973619 105.523081 166.559293 103.406393 164.77645 101.62355 
C 162.993607 99.840707 160.876919 98.426381 158.547522 97.461513 
C 156.218125 96.496645 153.721321 96 151.2 96 
C 148.678679 96 146.181875 96.496645 143.852478 97.461513 
C 141.523081 98.426381 139.406393 99.840707 137.62355 101.62355 
C 135.840707 103.406393 134.426381 105.523081 133.461513 107.852478 
C 132.496645 110.181875 132 112.678679 132 115.2 
C 132 117.721321 132.496645 120.218125 133.461513 122.547522 
C 134.426381 124.876919 135.840707 126.993607 137.62355 128.77645 
C 139.406393 130.559293 141.523081 131.973619 143.852478 132.938487 
C 146.181875 133.903355 148.678679 134.4 151.2 134.4 
C 153.721321 134.4 156.218125 133.903355 158.547522 132.938487 
C 160.876919 131.973619 162.993607 130.559293 164.77645 128.77645 
C 166.559293 126.993607 167.973619 124.876919 168.938487 122.547522 
C 169.903355 120.218125 170.4 117.721321 170.4 115.2 
" clip-path="url(#p9858afe9c4)" style="fill: none; stroke: #cccccc; stroke-width: 0.8; stroke-linecap: round"/>
     </g>
     <g id="text_32">
      <text style="font-size: 8px; font-family: 'Arial'; text-anchor: start; fill: #262626" x="168.938487" y="106.262478" transform="rotate(-0 168.938487 106.262478)">0.2</text>
     </g>
    </g>
    <g id="ytick_12">
     <g id="line2d_30">
      <path d="M 180 115.2 
C 180 111.418019 179.255032 107.672812 177.807731 104.178717 
C 176.360429 100.684622 174.23894 97.509589 171.564675 94.835325 
C 168.890411 92.16106 165.715378 90.039571 162.221283 88.592269 
C 158.727188 87.144968 154.981981 86.4 151.2 86.4 
C 147.418019 86.4 143.672812 87.144968 140.178717 88.592269 
C 136.684622 90.039571 133.509589 92.16106 130.835325 94.835325 
C 128.16106 97.509589 126.039571 100.684622 124.592269 104.178717 
C 123.144968 107.672812 122.4 111.418019 122.4 115.2 
C 122.4 118.981981 123.144968 122.727188 124.592269 126.221283 
C 126.039571 129.715378 128.16106 132.890411 130.835325 135.564675 
C 133.509589 138.23894 136.684622 140.360429 140.178717 141.807731 
C 143.672812 143.255032 147.418019 144 151.2 144 
C 154.981981 144 158.727188 143.255032 162.221283 141.807731 
C 165.715378 140.360429 168.890411 138.23894 171.564675 135.564675 
C 174.23894 132.890411 176.360429 129.715378 177.807731 126.221283 
C 179.255032 122.727188 180 118.981981 180 115.2 
" clip-path="url(#p9858afe9c4)" style="fill: none; stroke: #cccccc; stroke-width: 0.8; stroke-linecap: round"/>
     </g>
     <g id="text_33">
      <text style="font-size: 8px; font-family: 'Arial'; text-anchor: start; fill: #262626" x="177.807731" y="102.588717" transform="rotate(-0 177.807731 102.588717)">0.3</text>
     </g>
    </g>
   </g>
   <g id="FillBetweenPolyCollection_3">
    <defs>
     <path id="m61fe4ed88b" d="M 167.815806 -70.111527 
L 167.815806 -70.111527 
L 153.719618 -68.165851 
L 151.439323 -74.857264 
L 151.2 -64.8 
L 148.320775 -65.873846 
L 142.157362 -61.427426 
L 146.603083 -58.008233 
L 151.361054 -58.031917 
L 160.79644 -51.980522 
L 170.805268 -58.532841 
L 167.815806 -70.111527 
L 167.815806 -70.111527 
L 167.815806 -70.111527 
L 170.805268 -58.532841 
L 160.79644 -51.980522 
L 151.361054 -58.031917 
L 146.603083 -58.008233 
L 142.157362 -61.427426 
L 148.320775 -65.873846 
L 151.2 -64.8 
L 151.439323 -74.857264 
L 153.719618 -68.165851 
L 167.815806 -70.111527 
z
" style="stroke: #ffffff; stroke-opacity: 0.5; stroke-width: 0.8"/>
    </defs>
    <g clip-path="url(#p9858afe9c4)">
     <use xlink:href="#m61fe4ed88b" x="0" y="180" style="fill: #fc8d62; fill-opacity: 0.5; stroke: #ffffff; stroke-opacity: 0.5; stroke-width: 0.8"/>
    </g>
   </g>
   <g id="FillBetweenPolyCollection_4">
    <defs>
     <path id="m99f394c6bd" d="M 172.312477 -71.548965 
L 172.312477 -71.548965 
L 154.605298 -69.348993 
L 151.236184 -66.320605 
L 151.2 -64.8 
L 150.833552 -64.936672 
L 148.078028 -63.635618 
L 147.440648 -59.245702 
L 151.333693 -59.181731 
L 157.125643 -56.884184 
L 189.961361 -52.409268 
L 172.312477 -71.548965 
L 172.312477 -71.548965 
L 172.312477 -71.548965 
L 189.961361 -52.409268 
L 157.125643 -56.884184 
L 151.333693 -59.181731 
L 147.440648 -59.245702 
L 148.078028 -63.635618 
L 150.833552 -64.936672 
L 151.2 -64.8 
L 151.236184 -66.320605 
L 154.605298 -69.348993 
L 172.312477 -71.548965 
z
" style="stroke: #ffffff; stroke-opacity: 0.5; stroke-width: 0.8"/>
    </defs>
    <g clip-path="url(#p9858afe9c4)">
     <use xlink:href="#m99f394c6bd" x="0" y="180" style="fill: #e78ac3; fill-opacity: 0.5; stroke: #ffffff; stroke-opacity: 0.5; stroke-width: 0.8"/>
    </g>
   </g>
   <g id="line2d_31">
    <path d="M 167.815806 109.888473 
L 153.719618 111.834149 
L 151.439323 105.142736 
L 151.2 115.2 
L 148.320775 114.126154 
L 142.157362 118.572574 
L 146.603083 121.991767 
L 151.361054 121.968083 
L 160.79644 128.019478 
L 170.805268 121.467159 
L 167.815806 109.888473 
" clip-path="url(#p9858afe9c4)" style="fill: none; stroke: #fc8d62; stroke-width: 1.2; stroke-linecap: round"/>
   </g>
   <g id="line2d_32">
    <path d="M 172.312477 108.451035 
L 154.605298 110.651007 
L 151.236184 113.679395 
L 151.2 115.2 
L 150.833552 115.063328 
L 148.078028 116.364382 
L 147.440648 120.754298 
L 151.333693 120.818269 
L 157.125643 123.115816 
L 181 126.369461 
M 181 117.872399 
L 172.312477 108.451035 
" clip-path="url(#p9858afe9c4)" style="fill: none; stroke: #e78ac3; stroke-width: 1.2; stroke-linecap: round"/>
   </g>
   <g id="patch_11">
    <path d="M 180 115.2 
C 180 111.418019 179.255032 107.672812 177.807731 104.178717 
C 176.360429 100.684622 174.23894 97.509589 171.564675 94.835325 
C 168.890411 92.16106 165.715378 90.039571 162.221283 88.592269 
C 158.727188 87.144968 154.981981 86.4 151.2 86.4 
C 147.418019 86.4 143.672812 87.144968 140.178717 88.592269 
C 136.684622 90.039571 133.509589 92.16106 130.835325 94.835325 
C 128.16106 97.509589 126.039571 100.684622 124.592269 104.178717 
C 123.144968 107.672812 122.4 111.418019 122.4 115.2 
C 122.4 118.981981 123.144968 122.727188 124.592269 126.221283 
C 126.039571 129.715378 128.16106 132.890411 130.835325 135.564675 
C 133.509589 138.23894 136.684622 140.360429 140.178717 141.807731 
C 143.672812 143.255032 147.418019 144 151.2 144 
C 154.981981 144 158.727188 143.255032 162.221283 141.807731 
C 165.715378 140.360429 168.890411 138.23894 171.564675 135.564675 
C 174.23894 132.890411 176.360429 129.715378 177.807731 126.221283 
C 179.255032 122.727188 180 118.981981 180 115.2 
" style="fill: none; stroke: #262626; stroke-linejoin: miter; stroke-linecap: square"/>
   </g>
   <g id="text_34">
    <text style="font-size: 8px; font-family: 'Arial'; text-anchor: start; fill: #fc8d62" x="168.48" y="151.2" transform="rotate(-0 168.48 151.2)">0.62</text>
   </g>
   <g id="text_35">
    <text style="font-size: 8px; font-family: 'Arial'; text-anchor: start; fill: #e78ac3" x="168.48" y="142.56" transform="rotate(-0 168.48 142.56)">0.32</text>
   </g>
  </g>
 </g>
 <defs>
  <clipPath id="p56d14c88ef">
   <rect x="36" y="0" width="57.6" height="57.6"/>
  </clipPath>
  <clipPath id="pfe68e6c9e1">
   <path d="M 93.6 115.2 
C 93.6 111.418019 92.855032 107.672812 91.407731 104.178717 
C 89.960429 100.684622 87.83894 97.509589 85.164675 94.835325 
C 82.490411 92.16106 79.315378 90.039571 75.821283 88.592269 
C 72.327188 87.144968 68.581981 86.4 64.8 86.4 
C 61.018019 86.4 57.272812 87.144968 53.778717 88.592269 
C 50.284622 90.039571 47.109589 92.16106 44.435325 94.835325 
C 41.76106 97.509589 39.639571 100.684622 38.192269 104.178717 
C 36.744968 107.672812 36 111.418019 36 115.2 
C 36 118.981981 36.744968 122.727188 38.192269 126.221283 
C 39.639571 129.715378 41.76106 132.890411 44.435325 135.564675 
C 47.109589 138.23894 50.284622 140.360429 53.778717 141.807731 
C 57.272812 143.255032 61.018019 144 64.8 144 
C 68.581981 144 72.327188 143.255032 75.821283 141.807731 
C 79.315378 140.360429 82.490411 138.23894 85.164675 135.564675 
C 87.83894 132.890411 89.960429 129.715378 91.407731 126.221283 
C 92.855032 122.727188 93.6 118.981981 93.6 115.2 
M 64.8 115.2 
C 64.8 115.2 64.8 115.2 64.8 115.2 
C 64.8 115.2 64.8 115.2 64.8 115.2 
C 64.8 115.2 64.8 115.2 64.8 115.2 
C 64.8 115.2 64.8 115.2 64.8 115.2 
C 64.8 115.2 64.8 115.2 64.8 115.2 
C 64.8 115.2 64.8 115.2 64.8 115.2 
C 64.8 115.2 64.8 115.2 64.8 115.2 
C 64.8 115.2 64.8 115.2 64.8 115.2 
C 64.8 115.2 64.8 115.2 64.8 115.2 
C 64.8 115.2 64.8 115.2 64.8 115.2 
C 64.8 115.2 64.8 115.2 64.8 115.2 
C 64.8 115.2 64.8 115.2 64.8 115.2 
C 64.8 115.2 64.8 115.2 64.8 115.2 
C 64.8 115.2 64.8 115.2 64.8 115.2 
C 64.8 115.2 64.8 115.2 64.8 115.2 
C 64.8 115.2 64.8 115.2 64.8 115.2 
z
"/>
  </clipPath>
  <clipPath id="p7c61970425">
   <rect x="122.4" y="0" width="57.6" height="57.6"/>
  </clipPath>
  <clipPath id="p9858afe9c4">
   <path d="M 180 115.2 
C 180 111.418019 179.255032 107.672812 177.807731 104.178717 
C 176.360429 100.684622 174.23894 97.509589 171.564675 94.835325 
C 168.890411 92.16106 165.715378 90.039571 162.221283 88.592269 
C 158.727188 87.144968 154.981981 86.4 151.2 86.4 
C 147.418019 86.4 143.672812 87.144968 140.178717 88.592269 
C 136.684622 90.039571 133.509589 92.16106 130.835325 94.835325 
C 128.16106 97.509589 126.039571 100.684622 124.592269 104.178717 
C 123.144968 107.672812 122.4 111.418019 122.4 115.2 
C 122.4 118.981981 123.144968 122.727188 124.592269 126.221283 
C 126.039571 129.715378 128.16106 132.890411 130.835325 135.564675 
C 133.509589 138.23894 136.684622 140.360429 140.178717 141.807731 
C 143.672812 143.255032 147.418019 144 151.2 144 
C 154.981981 144 158.727188 143.255032 162.221283 141.807731 
C 165.715378 140.360429 168.890411 138.23894 171.564675 135.564675 
C 174.23894 132.890411 176.360429 129.715378 177.807731 126.221283 
C 179.255032 122.727188 180 118.981981 180 115.2 
M 151.2 115.2 
C 151.2 115.2 151.2 115.2 151.2 115.2 
C 151.2 115.2 151.2 115.2 151.2 115.2 
C 151.2 115.2 151.2 115.2 151.2 115.2 
C 151.2 115.2 151.2 115.2 151.2 115.2 
C 151.2 115.2 151.2 115.2 151.2 115.2 
C 151.2 115.2 151.2 115.2 151.2 115.2 
C 151.2 115.2 151.2 115.2 151.2 115.2 
C 151.2 115.2 151.2 115.2 151.2 115.2 
C 151.2 115.2 151.2 115.2 151.2 115.2 
C 151.2 115.2 151.2 115.2 151.2 115.2 
C 151.2 115.2 151.2 115.2 151.2 115.2 
C 151.2 115.2 151.2 115.2 151.2 115.2 
C 151.2 115.2 151.2 115.2 151.2 115.2 
C 151.2 115.2 151.2 115.2 151.2 115.2 
C 151.2 115.2 151.2 115.2 151.2 115.2 
C 151.2 115.2 151.2 115.2 151.2 115.2 
z
"/>
  </clipPath>
 </defs>
</svg>
