<?xml version="1.0" encoding="utf-8" standalone="no"?>
<!DOCTYPE svg PUBLIC "-//W3C//DTD SVG 1.1//EN"
  "http://www.w3.org/Graphics/SVG/1.1/DTD/svg11.dtd">
<svg xmlns:xlink="http://www.w3.org/1999/xlink" width="180pt" height="180pt" viewBox="0 0 180 180" xmlns="http://www.w3.org/2000/svg" version="1.1">
 <metadata>
  <rdf:RDF xmlns:dc="http://purl.org/dc/elements/1.1/" xmlns:cc="http://creativecommons.org/ns#" xmlns:rdf="http://www.w3.org/1999/02/22-rdf-syntax-ns#">
   <cc:Work>
    <dc:type rdf:resource="http://purl.org/dc/dcmitype/StillImage"/>
    <dc:date>2026-02-13T10:01:29.425137</dc:date>
    <dc:format>image/svg+xml</dc:format>
    <dc:creator>
     <cc:Agent>
      <dc:title>Matplotlib v3.10.7, https://matplotlib.org/</dc:title>
     </cc:Agent>
    </dc:creator>
   </cc:Work>
  </rdf:RDF>
 </metadata>
 <defs>
  <style type="text/css">*{stroke-linejoin: round; stroke-linecap: butt}</style>
 </defs>
 <g id="figure_1">
  <g id="patch_1">
   <path d="M 0 180 
L 180 180 
L 180 0 
L 0 0 
L 0 180 
z
" style="fill: none"/>
  </g>
  <g id="axes_1">
   <g id="patch_2">
    <path d="M 36 57.6 
L 93.6 57.6 
L 93.6 0 
L 36 0 
L 36 57.6 
z
" style="fill: none"/>
   </g>
   <g id="matplotlib.axis_1">
    <g id="xtick_1">
     <g id="line2d_1">
      <defs>
       <path id="m47d8503ebf" d="M 0 0 
L 0 4.8 
" style="stroke: #262626"/>
      </defs>
      <g>
       <use xlink:href="#m47d8503ebf" x="56.565243" y="57.6" style="fill: #262626; stroke: #262626"/>
      </g>
     </g>
     <g id="text_1">
      <text style="font-size: 8px; font-family: 'Arial'; text-anchor: middle; fill: #262626" x="56.565243" y="71.62625" transform="rotate(-0 56.565243 71.62625)">0.1</text>
     </g>
    </g>
    <g id="xtick_2">
     <g id="line2d_2">
      <g>
       <use xlink:href="#m47d8503ebf" x="87.044708" y="57.6" style="fill: #262626; stroke: #262626"/>
      </g>
     </g>
     <g id="text_2">
      <text style="font-size: 8px; font-family: 'Arial'; text-anchor: middle; fill: #262626" x="87.044708" y="71.62625" transform="rotate(-0 87.044708 71.62625)">0.2</text>
     </g>
    </g>
   </g>
   <g id="matplotlib.axis_2">
    <g id="ytick_1">
     <g id="line2d_3">
      <defs>
       <path id="m63283ee40e" d="M 0 0 
L -4.8 0 
" style="stroke: #262626"/>
      </defs>
      <g>
       <use xlink:href="#m63283ee40e" x="36" y="57.6" style="fill: #262626; stroke: #262626"/>
      </g>
     </g>
     <g id="text_3">
      <text style="font-size: 8px; font-family: 'Arial'; text-anchor: end; fill: #262626" x="27.7" y="60.463125" transform="rotate(-0 27.7 60.463125)">0</text>
     </g>
    </g>
    <g id="ytick_2">
     <g id="line2d_4">
      <g>
       <use xlink:href="#m63283ee40e" x="36" y="28.72782" style="fill: #262626; stroke: #262626"/>
      </g>
     </g>
     <g id="text_4">
      <text style="font-size: 8px; font-family: 'Arial'; text-anchor: end; fill: #262626" x="27.7" y="31.590945" transform="rotate(-0 27.7 31.590945)">100</text>
     </g>
    </g>
   </g>
   <g id="patch_3">
    <path d="M 38.618182 57.6 
L 43.854545 57.6 
L 43.854545 33.058647 
L 38.618182 33.058647 
z
" clip-path="url(#pc36b72a4a3)" style="fill: #cccccc"/>
   </g>
   <g id="patch_4">
    <path d="M 43.854545 57.6 
L 49.090909 57.6 
L 49.090909 7.073684 
L 43.854545 7.073684 
z
" clip-path="url(#pc36b72a4a3)" style="fill: #cccccc"/>
   </g>
   <g id="patch_5">
    <path d="M 49.090909 57.6 
L 54.327273 57.6 
L 54.327273 2.742857 
L 49.090909 2.742857 
z
" clip-path="url(#pc36b72a4a3)" style="fill: #cccccc"/>
   </g>
   <g id="patch_6">
    <path d="M 54.327273 57.6 
L 59.563636 57.6 
L 59.563636 5.052632 
L 54.327273 5.052632 
z
" clip-path="url(#pc36b72a4a3)" style="fill: #cccccc"/>
   </g>
   <g id="patch_7">
    <path d="M 59.563636 57.6 
L 64.8 57.6 
L 64.8 18.622556 
L 59.563636 18.622556 
z
" clip-path="url(#pc36b72a4a3)" style="fill: #cccccc"/>
   </g>
   <g id="patch_8">
    <path d="M 64.8 57.6 
L 70.036364 57.6 
L 70.036364 29.593985 
L 64.8 29.593985 
z
" clip-path="url(#pc36b72a4a3)" style="fill: #cccccc"/>
   </g>
   <g id="patch_9">
    <path d="M 70.036364 57.6 
L 75.272727 57.6 
L 75.272727 40.854135 
L 70.036364 40.854135 
z
" clip-path="url(#pc36b72a4a3)" style="fill: #cccccc"/>
   </g>
   <g id="patch_10">
    <path d="M 75.272727 57.6 
L 80.509091 57.6 
L 80.509091 44.318797 
L 75.272727 44.318797 
z
" clip-path="url(#pc36b72a4a3)" style="fill: #cccccc"/>
   </g>
   <g id="patch_11">
    <path d="M 80.509091 57.6 
L 85.745455 57.6 
L 85.745455 50.093233 
L 80.509091 50.093233 
z
" clip-path="url(#pc36b72a4a3)" style="fill: #cccccc"/>
   </g>
   <g id="patch_12">
    <path d="M 85.745455 57.6 
L 90.981818 57.6 
L 90.981818 55.867669 
L 85.745455 55.867669 
z
" clip-path="url(#pc36b72a4a3)" style="fill: #cccccc"/>
   </g>
   <g id="line2d_5">
    <path d="M 66.76262 57.6 
L 66.76262 0 
" clip-path="url(#pc36b72a4a3)" style="fill: none; stroke: #4c72b0; stroke-width: 1.2; stroke-linecap: round"/>
   </g>
   <g id="patch_13">
    <path d="M 36 57.6 
L 36 0 
" style="fill: none; stroke: #262626; stroke-linejoin: miter; stroke-linecap: square"/>
   </g>
   <g id="patch_14">
    <path d="M 36 57.6 
L 93.6 57.6 
" style="fill: none; stroke: #262626; stroke-linejoin: miter; stroke-linecap: square"/>
   </g>
  </g>
  <g id="axes_2">
   <g id="patch_15">
    <path d="M 36 144 
L 93.6 144 
L 93.6 86.4 
L 36 86.4 
L 36 144 
z
" style="fill: none"/>
   </g>
   <g id="matplotlib.axis_3">
    <g id="xtick_3">
     <g id="line2d_6">
      <g>
       <use xlink:href="#m47d8503ebf" x="55.679508" y="144" style="fill: #262626; stroke: #262626"/>
      </g>
     </g>
     <g id="text_5">
      <text style="font-size: 8px; font-family: 'Arial'; text-anchor: middle; fill: #262626" x="55.679508" y="158.02625" transform="rotate(-0 55.679508 158.02625)">0.1</text>
     </g>
    </g>
    <g id="xtick_4">
     <g id="line2d_7">
      <g>
       <use xlink:href="#m47d8503ebf" x="79.53798" y="144" style="fill: #262626; stroke: #262626"/>
      </g>
     </g>
     <g id="text_6">
      <text style="font-size: 8px; font-family: 'Arial'; text-anchor: middle; fill: #262626" x="79.53798" y="158.02625" transform="rotate(-0 79.53798 158.02625)">0.2</text>
     </g>
    </g>
   </g>
   <g id="matplotlib.axis_4">
    <g id="ytick_3">
     <g id="line2d_8">
      <g>
       <use xlink:href="#m63283ee40e" x="36" y="144" style="fill: #262626; stroke: #262626"/>
      </g>
     </g>
     <g id="text_7">
      <text style="font-size: 8px; font-family: 'Arial'; text-anchor: end; fill: #262626" x="27.7" y="146.863125" transform="rotate(-0 27.7 146.863125)">0</text>
     </g>
    </g>
    <g id="ytick_4">
     <g id="line2d_9">
      <g>
       <use xlink:href="#m63283ee40e" x="36" y="122.231293" style="fill: #262626; stroke: #262626"/>
      </g>
     </g>
     <g id="text_8">
      <text style="font-size: 8px; font-family: 'Arial'; text-anchor: end; fill: #262626" x="27.7" y="125.094418" transform="rotate(-0 27.7 125.094418)">100</text>
     </g>
    </g>
    <g id="ytick_5">
     <g id="line2d_10">
      <g>
       <use xlink:href="#m63283ee40e" x="36" y="100.462585" style="fill: #262626; stroke: #262626"/>
      </g>
     </g>
     <g id="text_9">
      <text style="font-size: 8px; font-family: 'Arial'; text-anchor: end; fill: #262626" x="27.7" y="103.32571" transform="rotate(-0 27.7 103.32571)">200</text>
     </g>
    </g>
   </g>
   <g id="patch_16">
    <path d="M 38.618182 144 
L 43.854545 144 
L 43.854545 130.503401 
L 38.618182 130.503401 
z
" clip-path="url(#pb97dcabf47)" style="fill: #cccccc"/>
   </g>
   <g id="patch_17">
    <path d="M 43.854545 144 
L 49.090909 144 
L 49.090909 100.897959 
L 43.854545 100.897959 
z
" clip-path="url(#pb97dcabf47)" style="fill: #cccccc"/>
   </g>
   <g id="patch_18">
    <path d="M 49.090909 144 
L 54.327273 144 
L 54.327273 89.142857 
L 49.090909 89.142857 
z
" clip-path="url(#pb97dcabf47)" style="fill: #cccccc"/>
   </g>
   <g id="patch_19">
    <path d="M 54.327273 144 
L 59.563636 144 
L 59.563636 101.768707 
L 54.327273 101.768707 
z
" clip-path="url(#pb97dcabf47)" style="fill: #cccccc"/>
   </g>
   <g id="patch_20">
    <path d="M 59.563636 144 
L 64.8 144 
L 64.8 114.176871 
L 59.563636 114.176871 
z
" clip-path="url(#pb97dcabf47)" style="fill: #cccccc"/>
   </g>
   <g id="patch_21">
    <path d="M 64.8 144 
L 70.036364 144 
L 70.036364 124.408163 
L 64.8 124.408163 
z
" clip-path="url(#pb97dcabf47)" style="fill: #cccccc"/>
   </g>
   <g id="patch_22">
    <path d="M 70.036364 144 
L 75.272727 144 
L 75.272727 136.380952 
L 70.036364 136.380952 
z
" clip-path="url(#pb97dcabf47)" style="fill: #cccccc"/>
   </g>
   <g id="patch_23">
    <path d="M 75.272727 144 
L 80.509091 144 
L 80.509091 139.646259 
L 75.272727 139.646259 
z
" clip-path="url(#pb97dcabf47)" style="fill: #cccccc"/>
   </g>
   <g id="patch_24">
    <path d="M 80.509091 144 
L 85.745455 144 
L 85.745455 142.47619 
L 80.509091 142.47619 
z
" clip-path="url(#pb97dcabf47)" style="fill: #cccccc"/>
   </g>
   <g id="patch_25">
    <path d="M 85.745455 144 
L 90.981818 144 
L 90.981818 142.911565 
L 85.745455 142.911565 
z
" clip-path="url(#pb97dcabf47)" style="fill: #cccccc"/>
   </g>
   <g id="line2d_11">
    <path d="M 80.665278 144 
L 80.665278 86.4 
" clip-path="url(#pb97dcabf47)" style="fill: none; stroke: #4c72b0; stroke-width: 1.2; stroke-linecap: round"/>
   </g>
   <g id="patch_26">
    <path d="M 36 144 
L 36 86.4 
" style="fill: none; stroke: #262626; stroke-linejoin: miter; stroke-linecap: square"/>
   </g>
   <g id="patch_27">
    <path d="M 36 144 
L 93.6 144 
" style="fill: none; stroke: #262626; stroke-linejoin: miter; stroke-linecap: square"/>
   </g>
   <g id="text_10">
    <text style="font-size: 9.6px; font-family: 'Arial'; text-anchor: middle; fill: #262626" x="64.8" y="80.4" transform="rotate(-0 64.8 80.4)">beignet band (80, 120)</text>
   </g>
  </g>
  <g id="axes_3">
   <g id="patch_28">
    <path d="M 122.4 57.6 
L 180 57.6 
L 180 0 
L 122.4 0 
L 122.4 57.6 
z
" style="fill: none"/>
   </g>
   <g id="matplotlib.axis_5">
    <g id="xtick_5">
     <g id="line2d_12">
      <g>
       <use xlink:href="#m47d8503ebf" x="142.659738" y="57.6" style="fill: #262626; stroke: #262626"/>
      </g>
     </g>
     <g id="text_11">
      <text style="font-size: 8px; font-family: 'Arial'; text-anchor: middle; fill: #262626" x="142.659738" y="71.62625" transform="rotate(-0 142.659738 71.62625)">0.05</text>
     </g>
    </g>
    <g id="xtick_6">
     <g id="line2d_13">
      <g>
       <use xlink:href="#m47d8503ebf" x="164.927145" y="57.6" style="fill: #262626; stroke: #262626"/>
      </g>
     </g>
     <g id="text_12">
      <text style="font-size: 8px; font-family: 'Arial'; text-anchor: middle; fill: #262626" x="164.927145" y="71.62625" transform="rotate(-0 164.927145 71.62625)">0.10</text>
     </g>
    </g>
   </g>
   <g id="matplotlib.axis_6">
    <g id="ytick_6">
     <g id="line2d_14">
      <g>
       <use xlink:href="#m63283ee40e" x="122.4" y="57.6" style="fill: #262626; stroke: #262626"/>
      </g>
     </g>
     <g id="text_13">
      <text style="font-size: 8px; font-family: 'Arial'; text-anchor: end; fill: #262626" x="114.1" y="60.463125" transform="rotate(-0 114.1 60.463125)">0</text>
     </g>
    </g>
    <g id="ytick_7">
     <g id="line2d_15">
      <g>
       <use xlink:href="#m63283ee40e" x="122.4" y="35.117564" style="fill: #262626; stroke: #262626"/>
      </g>
     </g>
     <g id="text_14">
      <text style="font-size: 8px; font-family: 'Arial'; text-anchor: end; fill: #262626" x="114.1" y="37.980689" transform="rotate(-0 114.1 37.980689)">100</text>
     </g>
    </g>
    <g id="ytick_8">
     <g id="line2d_16">
      <g>
       <use xlink:href="#m63283ee40e" x="122.4" y="12.635129" style="fill: #262626; stroke: #262626"/>
      </g>
     </g>
     <g id="text_15">
      <text style="font-size: 8px; font-family: 'Arial'; text-anchor: end; fill: #262626" x="114.1" y="15.498254" transform="rotate(-0 114.1 15.498254)">200</text>
     </g>
    </g>
   </g>
   <g id="patch_29">
    <path d="M 125.018182 57.6 
L 130.254545 57.6 
L 130.254545 48.83185 
L 125.018182 48.83185 
z
" clip-path="url(#p83c7dce746)" style="fill: #cccccc"/>
   </g>
   <g id="patch_30">
    <path d="M 130.254545 57.6 
L 135.490909 57.6 
L 135.490909 5.665574 
L 130.254545 5.665574 
z
" clip-path="url(#p83c7dce746)" style="fill: #cccccc"/>
   </g>
   <g id="patch_31">
    <path d="M 135.490909 57.6 
L 140.727273 57.6 
L 140.727273 2.742857 
L 135.490909 2.742857 
z
" clip-path="url(#p83c7dce746)" style="fill: #cccccc"/>
   </g>
   <g id="patch_32">
    <path d="M 140.727273 57.6 
L 145.963636 57.6 
L 145.963636 12.859953 
L 140.727273 12.859953 
z
" clip-path="url(#p83c7dce746)" style="fill: #cccccc"/>
   </g>
   <g id="patch_33">
    <path d="M 145.963636 57.6 
L 151.2 57.6 
L 151.2 25.000468 
L 145.963636 25.000468 
z
" clip-path="url(#p83c7dce746)" style="fill: #cccccc"/>
   </g>
   <g id="patch_34">
    <path d="M 151.2 57.6 
L 156.436364 57.6 
L 156.436364 40.738173 
L 151.2 40.738173 
z
" clip-path="url(#p83c7dce746)" style="fill: #cccccc"/>
   </g>
   <g id="patch_35">
    <path d="M 156.436364 57.6 
L 161.672727 57.6 
L 161.672727 48.607026 
L 156.436364 48.607026 
z
" clip-path="url(#p83c7dce746)" style="fill: #cccccc"/>
   </g>
   <g id="patch_36">
    <path d="M 161.672727 57.6 
L 166.909091 57.6 
L 166.909091 53.777986 
L 161.672727 53.777986 
z
" clip-path="url(#p83c7dce746)" style="fill: #cccccc"/>
   </g>
   <g id="patch_37">
    <path d="M 166.909091 57.6 
L 172.145455 57.6 
L 172.145455 56.251054 
L 166.909091 56.251054 
z
" clip-path="url(#p83c7dce746)" style="fill: #cccccc"/>
   </g>
   <g id="patch_38">
    <path d="M 172.145455 57.6 
L 177.381818 57.6 
L 177.381818 56.700703 
L 172.145455 56.700703 
z
" clip-path="url(#p83c7dce746)" style="fill: #cccccc"/>
   </g>
   <g id="line2d_17">
    <path d="M 153.002433 57.6 
L 153.002433 0 
" clip-path="url(#p83c7dce746)" style="fill: none; stroke: #4c72b0; stroke-width: 1.2; stroke-linecap: round"/>
   </g>
   <g id="patch_39">
    <path d="M 122.4 57.6 
L 122.4 0 
" style="fill: none; stroke: #262626; stroke-linejoin: miter; stroke-linecap: square"/>
   </g>
   <g id="patch_40">
    <path d="M 122.4 57.6 
L 180 57.6 
" style="fill: none; stroke: #262626; stroke-linejoin: miter; stroke-linecap: square"/>
   </g>
  </g>
  <g id="axes_4">
   <g id="patch_41">
    <path d="M 122.4 144 
L 180 144 
L 180 86.4 
L 122.4 86.4 
L 122.4 144 
z
" style="fill: none"/>
   </g>
   <g id="matplotlib.axis_7">
    <g id="xtick_7">
     <g id="line2d_18">
      <g>
       <use xlink:href="#m47d8503ebf" x="133.958589" y="144" style="fill: #262626; stroke: #262626"/>
      </g>
     </g>
     <g id="text_16">
      <text style="font-size: 8px; font-family: 'Arial'; text-anchor: middle; fill: #262626" x="133.958589" y="158.02625" transform="rotate(-0 133.958589 158.02625)">0.05</text>
     </g>
    </g>
    <g id="xtick_8">
     <g id="line2d_19">
      <g>
       <use xlink:href="#m47d8503ebf" x="150.517049" y="144" style="fill: #262626; stroke: #262626"/>
      </g>
     </g>
     <g id="text_17">
      <text style="font-size: 8px; font-family: 'Arial'; text-anchor: middle; fill: #262626" x="150.517049" y="158.02625" transform="rotate(-0 150.517049 158.02625)">0.10</text>
     </g>
    </g>
    <g id="xtick_9">
     <g id="line2d_20">
      <g>
       <use xlink:href="#m47d8503ebf" x="167.075509" y="144" style="fill: #262626; stroke: #262626"/>
      </g>
     </g>
     <g id="text_18">
      <text style="font-size: 8px; font-family: 'Arial'; text-anchor: middle; fill: #262626" x="167.075509" y="158.02625" transform="rotate(-0 167.075509 158.02625)">0.15</text>
     </g>
    </g>
   </g>
   <g id="matplotlib.axis_8">
    <g id="ytick_9">
     <g id="line2d_21">
      <g>
       <use xlink:href="#m63283ee40e" x="122.4" y="144" style="fill: #262626; stroke: #262626"/>
      </g>
     </g>
     <g id="text_19">
      <text style="font-size: 8px; font-family: 'Arial'; text-anchor: end; fill: #262626" x="114.1" y="146.863125" transform="rotate(-0 114.1 146.863125)">0</text>
     </g>
    </g>
    <g id="ytick_10">
     <g id="line2d_22">
      <g>
       <use xlink:href="#m63283ee40e" x="122.4" y="121.2377" style="fill: #262626; stroke: #262626"/>
      </g>
     </g>
     <g id="text_20">
      <text style="font-size: 8px; font-family: 'Arial'; text-anchor: end; fill: #262626" x="114.1" y="124.100825" transform="rotate(-0 114.1 124.100825)">100</text>
     </g>
    </g>
    <g id="ytick_11">
     <g id="line2d_23">
      <g>
       <use xlink:href="#m63283ee40e" x="122.4" y="98.4754" style="fill: #262626; stroke: #262626"/>
      </g>
     </g>
     <g id="text_21">
      <text style="font-size: 8px; font-family: 'Arial'; text-anchor: end; fill: #262626" x="114.1" y="101.338525" transform="rotate(-0 114.1 101.338525)">200</text>
     </g>
    </g>
   </g>
   <g id="patch_42">
    <path d="M 125.018182 144 
L 128.99602 144 
L 128.99602 124.196799 
L 125.018182 124.196799 
z
" clip-path="url(#p701512a4e9)" style="fill: #cccccc"/>
   </g>
   <g id="patch_43">
    <path d="M 128.99602 144 
L 132.973858 144 
L 132.973858 95.061055 
L 128.99602 95.061055 
z
" clip-path="url(#p701512a4e9)" style="fill: #cccccc"/>
   </g>
   <g id="patch_44">
    <path d="M 132.973858 144 
L 136.951696 144 
L 136.951696 89.142857 
L 132.973858 89.142857 
z
" clip-path="url(#p701512a4e9)" style="fill: #cccccc"/>
   </g>
   <g id="patch_45">
    <path d="M 136.951696 144 
L 140.929534 144 
L 140.929534 103.255483 
L 136.951696 103.255483 
z
" clip-path="url(#p701512a4e9)" style="fill: #cccccc"/>
   </g>
   <g id="patch_46">
    <path d="M 140.929534 144 
L 144.907372 144 
L 144.907372 112.588026 
L 140.929534 112.588026 
z
" clip-path="url(#p701512a4e9)" style="fill: #cccccc"/>
   </g>
   <g id="patch_47">
    <path d="M 144.907372 144 
L 148.885211 144 
L 148.885211 127.155898 
L 144.907372 127.155898 
z
" clip-path="url(#p701512a4e9)" style="fill: #cccccc"/>
   </g>
   <g id="patch_48">
    <path d="M 148.885211 144 
L 152.863049 144 
L 152.863049 135.350326 
L 148.885211 135.350326 
z
" clip-path="url(#p701512a4e9)" style="fill: #cccccc"/>
   </g>
   <g id="patch_49">
    <path d="M 152.863049 144 
L 156.840887 144 
L 156.840887 141.496147 
L 152.863049 141.496147 
z
" clip-path="url(#p701512a4e9)" style="fill: #cccccc"/>
   </g>
   <g id="patch_50">
    <path d="M 156.840887 144 
L 160.818725 144 
L 160.818725 141.496147 
L 156.840887 141.496147 
z
" clip-path="url(#p701512a4e9)" style="fill: #cccccc"/>
   </g>
   <g id="patch_51">
    <path d="M 160.818725 144 
L 164.796563 144 
L 164.796563 142.634262 
L 160.818725 142.634262 
z
" clip-path="url(#p701512a4e9)" style="fill: #cccccc"/>
   </g>
   <g id="line2d_24">
    <path d="M 177.381818 144 
L 177.381818 86.4 
" clip-path="url(#p701512a4e9)" style="fill: none; stroke: #4c72b0; stroke-width: 1.2; stroke-linecap: round"/>
   </g>
   <g id="patch_52">
    <path d="M 122.4 144 
L 122.4 86.4 
" style="fill: none; stroke: #262626; stroke-linejoin: miter; stroke-linecap: square"/>
   </g>
   <g id="patch_53">
    <path d="M 122.4 144 
L 180 144 
" style="fill: none; stroke: #262626; stroke-linejoin: miter; stroke-linecap: square"/>
   </g>
   <g id="text_22">
    <text style="font-size: 9.6px; font-family: 'Arial'; text-anchor: middle; fill: #262626" x="151.2" y="80.4" transform="rotate(-0 151.2 80.4)">affi band (80, 120)</text>
   </g>
  </g>
 </g>
 <defs>
  <clipPath id="pc36b72a4a3">
   <rect x="36" y="0" width="57.6" height="57.6"/>
  </clipPath>
  <clipPath id="pb97dcabf47">
   <rect x="36" y="86.4" width="57.6" height="57.6"/>
  </clipPath>
  <clipPath id="p83c7dce746">
   <rect x="122.4" y="0" width="57.6" height="57.6"/>
  </clipPath>
  <clipPath id="p701512a4e9">
   <rect x="122.4" y="86.4" width="57.6" height="57.6"/>
  </clipPath>
 </defs>
</svg>
