<?xml version="1.0" encoding="utf-8" standalone="no"?>
<!DOCTYPE svg PUBLIC "-//W3C//DTD SVG 1.1//EN"
  "http://www.w3.org/Graphics/SVG/1.1/DTD/svg11.dtd">
<svg xmlns:xlink="http://www.w3.org/1999/xlink" width="180pt" height="180pt" viewBox="0 0 180 180" xmlns="http://www.w3.org/2000/svg" version="1.1">
 <metadata>
  <rdf:RDF xmlns:dc="http://purl.org/dc/elements/1.1/" xmlns:cc="http://creativecommons.org/ns#" xmlns:rdf="http://www.w3.org/1999/02/22-rdf-syntax-ns#">
   <cc:Work>
    <dc:type rdf:resource="http://purl.org/dc/dcmitype/StillImage"/>
    <dc:date>2026-02-18T16:42:10.827800</dc:date>
    <dc:format>image/svg+xml</dc:format>
    <dc:creator>
     <cc:Agent>
      <dc:title>Matplotlib v3.10.7, https://matplotlib.org/</dc:title>
     </cc:Agent>
    </dc:creator>
   </cc:Work>
  </rdf:RDF>
 </metadata>
 <defs>
  <style type="text/css">*{stroke-linejoin: round; stroke-linecap: butt}</style>
 </defs>
 <g id="figure_1">
  <g id="patch_1">
   <path d="M 0 180 
L 180 180 
L 180 0 
L 0 0 
L 0 180 
z
" style="fill: none"/>
  </g>
  <g id="axes_1">
   <g id="patch_2">
    <path d="M 36 57.6 
L 93.6 57.6 
L 93.6 0 
L 36 0 
L 36 57.6 
z
" style="fill: none"/>
   </g>
   <g id="matplotlib.axis_1">
    <g id="xtick_1">
     <g id="line2d_1">
      <defs>
       <path id="mdf234c393b" d="M 0 0 
L 0 4.8 
" style="stroke: #262626"/>
      </defs>
      <g>
       <use xlink:href="#mdf234c393b" x="36" y="57.6" style="fill: #262626; stroke: #262626"/>
      </g>
     </g>
     <g id="text_1">
      <text style="font-size: 8px; font-family: 'Arial'; text-anchor: middle; fill: #262626" x="36" y="71.62625" transform="rotate(-0 36 71.62625)">0</text>
     </g>
    </g>
    <g id="xtick_2">
     <g id="line2d_2">
      <g>
       <use xlink:href="#mdf234c393b" x="84" y="57.6" style="fill: #262626; stroke: #262626"/>
      </g>
     </g>
     <g id="text_2">
      <text style="font-size: 8px; font-family: 'Arial'; text-anchor: middle; fill: #262626" x="84" y="71.62625" transform="rotate(-0 84 71.62625)">10</text>
     </g>
    </g>
    <g id="text_3">
     <text style="font-size: 9px; font-family: 'Arial'; text-anchor: middle; fill: #262626" x="64.8" y="83.767969" transform="rotate(-0 64.8 83.767969)">distance (mm)</text>
    </g>
   </g>
   <g id="matplotlib.axis_2">
    <g id="ytick_1">
     <g id="line2d_3">
      <defs>
       <path id="mb7383eb60d" d="M 0 0 
L -4.8 0 
" style="stroke: #262626"/>
      </defs>
      <g>
       <use xlink:href="#mb7383eb60d" x="36" y="57.6" style="fill: #262626; stroke: #262626"/>
      </g>
     </g>
     <g id="text_4">
      <text style="font-size: 8px; font-family: 'Arial'; text-anchor: end; fill: #262626" x="27.7" y="60.463125" transform="rotate(-0 27.7 60.463125)">0.0</text>
     </g>
    </g>
    <g id="ytick_2">
     <g id="line2d_4">
      <g>
       <use xlink:href="#mb7383eb60d" x="36" y="38.4" style="fill: #262626; stroke: #262626"/>
      </g>
     </g>
     <g id="text_5">
      <text style="font-size: 8px; font-family: 'Arial'; text-anchor: end; fill: #262626" x="27.7" y="41.263125" transform="rotate(-0 27.7 41.263125)">0.1</text>
     </g>
    </g>
    <g id="ytick_3">
     <g id="line2d_5">
      <g>
       <use xlink:href="#mb7383eb60d" x="36" y="19.2" style="fill: #262626; stroke: #262626"/>
      </g>
     </g>
     <g id="text_6">
      <text style="font-size: 8px; font-family: 'Arial'; text-anchor: end; fill: #262626" x="27.7" y="22.063125" transform="rotate(-0 27.7 22.063125)">0.2</text>
     </g>
    </g>
    <g id="ytick_4">
     <g id="line2d_6">
      <g>
       <use xlink:href="#mb7383eb60d" x="36" y="-0" style="fill: #262626; stroke: #262626"/>
      </g>
     </g>
     <g id="text_7">
      <text style="font-size: 8px; font-family: 'Arial'; text-anchor: end; fill: #262626" x="27.7" y="2.863125" transform="rotate(-0 27.7 2.863125)">0.3</text>
     </g>
    </g>
    <g id="text_8">
     <text style="font-size: 9px; font-family: 'Arial'; fill: #262626" transform="translate(1.166594 40.301719) rotate(-90)">norm.</text>
     <text style="font-size: 9px; font-family: 'Arial'; fill: #262626" transform="translate(10.685781 52.309688) rotate(-90)">connectivity</text>
    </g>
   </g>
   <g id="line2d_7">
    <path d="M 50.77871 57.6 
L 52.919348 54.64392 
M 63.622537 48.15008 
L 65.763175 38.156006 
L 67.903812 42.307782 
L 70.04445 49.259698 
L 72.185088 33.151853 
L 74.325726 47.08202 
L 76.466363 48.63094 
L 78.607001 39.394381 
L 80.747639 49.00491 
L 82.888277 32.156153 
M 87.169552 52.556539 
L 89.31019 35.448799 
L 91.450828 44.456919 
" clip-path="url(#pbdab1d9ea5)" style="fill: none; stroke: #7fc6aa; stroke-opacity: 0.5; stroke-linecap: round"/>
   </g>
   <g id="line2d_8">
    <path d="M 39.563818 46.592986 
L 41.600286 50.904873 
L 43.636753 35.26255 
L 45.673221 44.281663 
M 49.746156 19.228938 
L 51.782623 44.379262 
L 53.819091 43.3363 
L 55.855558 40.453302 
L 57.892026 40.372451 
L 59.928493 45.717632 
L 61.964961 52.129249 
L 64.001429 53.731222 
M 70.110831 55.01069 
L 72.147299 51.997039 
L 74.183766 53.136366 
L 76.220234 57.6 
L 78.256701 53.065474 
" clip-path="url(#pbdab1d9ea5)" style="fill: none; stroke: #7fc6aa; stroke-opacity: 0.5; stroke-linecap: round"/>
   </g>
   <g id="line2d_9">
    <path d="M 39.629224 27.312408 
L 41.796504 57.6 
L 43.963783 53.093537 
L 46.131063 46.230278 
L 48.298342 34.039667 
L 50.465622 47.803374 
M 63.469299 45.628994 
L 65.636579 46.756051 
L 67.803858 46.133126 
L 69.971138 43.574055 
M 74.305697 42.941133 
L 76.472977 43.783687 
L 78.640256 32.95666 
L 80.807536 46.54703 
" clip-path="url(#pbdab1d9ea5)" style="fill: none; stroke: #7fc6aa; stroke-opacity: 0.5; stroke-linecap: round"/>
   </g>
   <g id="line2d_10">
    <path d="M 39.571279 57.6 
L 41.62267 53.9476 
L 43.67406 51.255295 
L 45.72545 47.902578 
L 47.77684 45.995821 
L 49.82823 44.948146 
L 51.87962 45.679779 
L 53.93101 49.934439 
L 55.9824 48.715433 
L 58.03379 45.932806 
L 60.08518 46.374891 
L 62.136571 46.271536 
L 64.187961 45.91871 
L 66.239351 45.12421 
L 68.290741 46.783537 
L 70.342131 47.268413 
L 72.393521 48.346759 
L 74.444911 46.071033 
L 76.496301 48.940535 
L 78.547691 46.988479 
" clip-path="url(#pbdab1d9ea5)" style="fill: none; stroke: #7fc6aa; stroke-opacity: 0.5; stroke-linecap: round"/>
   </g>
   <g id="line2d_11">
    <path d="M 39.842404 51.519689 
L 42.436044 49.029596 
L 45.029684 32.617206 
L 47.623324 25.365384 
L 50.216963 37.925124 
M 60.591522 45.365347 
L 63.185162 52.156402 
L 65.778802 57.6 
L 68.372441 55.483331 
L 70.966081 53.359365 
L 73.559721 52.96319 
L 76.153361 49.484227 
L 78.747 46.473805 
L 81.34064 41.025035 
L 83.93428 40.533563 
L 86.52792 51.041395 
L 89.121559 45.257341 
" clip-path="url(#pbdab1d9ea5)" style="fill: none; stroke: #7fc6aa; stroke-opacity: 0.5; stroke-linecap: round"/>
   </g>
   <g id="line2d_12">
    <path d="M 39.629224 54.013272 
L 41.796504 42.220164 
L 43.963783 29.011837 
L 46.131063 21.597744 
L 48.298342 34.944917 
L 50.465622 33.369691 
L 52.632902 54.278467 
L 54.800181 47.917907 
M 63.469299 51.031362 
L 65.636579 48.245055 
L 67.803858 51.312936 
L 69.971138 48.028804 
L 72.138418 45.258959 
L 74.305697 55.847637 
L 76.472977 56.049878 
L 78.640256 57.6 
L 80.807536 56.47137 
" clip-path="url(#pbdab1d9ea5)" style="fill: none; stroke: #7fc6aa; stroke-opacity: 0.5; stroke-linecap: round"/>
   </g>
   <g id="line2d_13">
    <path d="M 39.469897 21.892144 
L 41.318523 46.123153 
L 43.167149 50.788468 
L 45.015774 53.836463 
L 46.8644 45.844001 
L 48.713025 35.391157 
L 50.561651 45.657589 
L 52.410277 42.961707 
M 59.804779 57.6 
L 61.653405 55.34786 
L 63.50203 46.908659 
L 65.350656 26.939949 
L 67.199282 46.262593 
L 69.047907 46.86443 
M 74.593784 49.581828 
" clip-path="url(#pbdab1d9ea5)" style="fill: none; stroke: #7fc6aa; stroke-opacity: 0.5; stroke-linecap: round"/>
   </g>
   <g id="line2d_14">
    <path d="M 42.97992 36.886848 
L 45.555559 23.420325 
L 48.131199 44.229682 
L 50.706839 47.034392 
L 53.282479 51.416511 
L 55.858118 49.593261 
L 58.433758 57.6 
M 63.585038 53.893772 
L 66.160677 50.171301 
L 68.736317 49.412957 
L 71.311957 47.229226 
L 73.887597 53.691401 
L 76.463236 52.510351 
L 79.038876 53.447757 
L 81.614516 45.67973 
L 84.190156 50.254881 
L 86.765796 45.305352 
L 89.341435 46.164476 
L 91.917075 44.457777 
" clip-path="url(#pbdab1d9ea5)" style="fill: none; stroke: #7fc6aa; stroke-opacity: 0.5; stroke-linecap: round"/>
   </g>
   <g id="line2d_15">
    <path d="M 39.749955 32.554808 
L 42.158696 40.499904 
L 44.567438 38.447716 
L 46.976179 22.0353 
L 49.38492 40.068381 
L 51.793661 46.67787 
L 54.202403 52.622409 
L 56.611144 51.186457 
L 59.019885 52.002903 
L 61.428627 54.199885 
L 63.837368 52.131111 
L 66.246109 50.903443 
L 68.65485 49.891734 
L 71.063592 50.964661 
L 73.472333 49.420598 
L 75.881074 56.382787 
L 78.289816 52.580606 
L 80.698557 55.975775 
L 83.107298 57.6 
L 85.516039 53.853651 
" clip-path="url(#pbdab1d9ea5)" style="fill: none; stroke: #7fc6aa; stroke-opacity: 0.5; stroke-linecap: round"/>
   </g>
   <g id="line2d_16">
    <path d="M 39.347537 28.707483 
L 40.951442 19.320055 
M 44.159253 31.163221 
L 45.763158 37.618221 
M 48.970969 40.122734 
M 52.17878 47.351047 
L 53.782685 49.661537 
L 55.386591 40.881327 
L 56.990496 54.34685 
L 58.594401 57.6 
L 60.198307 52.840201 
L 61.802212 55.903407 
L 63.406117 54.364518 
L 65.010023 56.784315 
L 66.613928 56.546036 
L 68.217833 50.273778 
L 69.821739 53.715271 
" clip-path="url(#pbdab1d9ea5)" style="fill: none; stroke: #7fc6aa; stroke-opacity: 0.5; stroke-linecap: round"/>
   </g>
   <g id="line2d_17">
    <path d="M 39.87767 43.147838 
L 42.541842 50.130424 
L 45.206014 38.379076 
L 47.870186 31.913643 
L 50.534358 50.838617 
L 53.19853 34.045448 
L 55.862703 42.374421 
L 58.526875 45.850046 
L 61.191047 50.306646 
L 63.855219 52.863746 
L 66.519391 56.840314 
L 69.183563 54.068002 
L 71.847735 55.23603 
L 74.511907 31.9158 
L 77.176079 56.445988 
L 79.840251 56.943533 
L 82.504423 57.6 
L 85.168595 50.55575 
L 87.832767 47.841772 
L 90.496939 52.702907 
" clip-path="url(#pbdab1d9ea5)" style="fill: none; stroke: #7fc6aa; stroke-opacity: 0.5; stroke-linecap: round"/>
   </g>
   <g id="line2d_18">
    <path d="M 39.593363 16.610698 
L 41.68892 38.034742 
L 43.784476 45.20782 
L 45.880033 42.820026 
L 47.97559 43.289955 
L 50.071147 46.165517 
L 52.166704 44.378802 
L 54.26226 55.552141 
L 56.357817 44.214307 
L 58.453374 56.5403 
L 60.548931 50.481599 
L 62.644488 54.233413 
L 64.740044 57.6 
M 68.931158 52.917688 
L 71.026715 52.401362 
L 73.122272 49.156176 
L 75.217829 50.893001 
L 77.313385 51.552852 
L 79.408942 50.349601 
" clip-path="url(#pbdab1d9ea5)" style="fill: none; stroke: #7fc6aa; stroke-opacity: 0.5; stroke-linecap: round"/>
   </g>
   <g id="line2d_19">
    <path d="M 39.697778 19.966503 
L 42.002165 48.865582 
L 44.306552 45.177878 
L 46.610938 45.914831 
L 48.915325 47.599789 
L 51.219712 54.503839 
L 53.524099 55.944283 
L 55.828486 56.504633 
L 58.132873 48.166064 
L 60.43726 50.288213 
L 62.741647 47.463791 
L 65.046033 42.729484 
L 67.35042 45.26083 
L 69.654807 49.010635 
L 71.959194 44.184906 
L 74.263581 47.69754 
L 76.567968 47.556831 
L 78.872355 48.971686 
L 81.176742 57.6 
L 83.481128 56.592683 
" clip-path="url(#pbdab1d9ea5)" style="fill: none; stroke: #7fc6aa; stroke-opacity: 0.5; stroke-linecap: round"/>
   </g>
   <g id="line2d_20">
    <path d="M 39.643259 38.702617 
L 41.838607 11.950512 
L 44.033956 3.697539 
L 46.229305 34.338843 
M 68.182791 46.630962 
L 70.378139 47.62219 
M 74.768836 47.614237 
L 76.964185 44.135292 
L 79.159534 51.707809 
L 81.354882 57.6 
" clip-path="url(#pbdab1d9ea5)" style="fill: none; stroke: #7fc6aa; stroke-opacity: 0.5; stroke-linecap: round"/>
   </g>
   <g id="line2d_21">
    <path d="M 39.615016 35.357404 
L 41.753879 48.804675 
L 43.892742 51.79726 
L 46.031604 56.037959 
L 48.170467 49.805195 
L 50.30933 45.590037 
L 52.448193 43.352445 
L 54.587056 35.336245 
L 56.725919 47.173173 
L 58.864782 57.6 
M 69.559096 47.26013 
L 71.697959 44.566663 
L 73.836822 41.331308 
L 75.975685 21.49567 
L 78.114548 55.513971 
L 80.25341 48.577865 
" clip-path="url(#pbdab1d9ea5)" style="fill: none; stroke: #7fc6aa; stroke-opacity: 0.5; stroke-linecap: round"/>
   </g>
   <g id="line2d_22">
    <path d="M 39.749955 24.92747 
L 42.158696 35.897048 
L 44.567438 44.211226 
L 46.976179 41.893786 
L 49.38492 47.721143 
L 51.793661 49.863163 
L 54.202403 49.767233 
L 56.611144 51.411474 
L 59.019885 49.312297 
L 61.428627 51.660282 
L 63.837368 48.11422 
L 66.246109 46.867226 
L 68.65485 49.959862 
L 71.063592 47.606993 
L 73.472333 52.216324 
L 75.881074 51.662938 
L 78.289816 50.460998 
L 80.698557 56.226349 
L 83.107298 52.619968 
L 85.516039 57.6 
" clip-path="url(#pbdab1d9ea5)" style="fill: none; stroke: #7fc6aa; stroke-opacity: 0.5; stroke-linecap: round"/>
   </g>
   <g id="line2d_23">
    <path d="M 39.842404 57.6 
L 42.436044 54.13763 
L 45.029684 54.460687 
L 47.623324 39.897059 
L 50.216963 46.329345 
L 52.810603 43.385431 
L 55.404243 43.563829 
L 57.997882 45.604226 
L 60.591522 43.497466 
L 63.185162 40.715697 
L 65.778802 36.6663 
L 68.372441 37.458944 
L 70.966081 43.440919 
L 73.559721 49.649223 
L 76.153361 51.32702 
L 78.747 56.781317 
L 81.34064 56.836117 
L 83.93428 52.498072 
L 86.52792 53.234755 
L 89.121559 52.915964 
" clip-path="url(#pbdab1d9ea5)" style="fill: none; stroke: #7fc6aa; stroke-opacity: 0.5; stroke-linecap: round"/>
   </g>
   <g id="patch_3">
    <path d="M 36 57.6 
L 36 0 
" style="fill: none; stroke: #262626; stroke-linejoin: miter; stroke-linecap: square"/>
   </g>
   <g id="patch_4">
    <path d="M 36 57.6 
L 93.6 57.6 
" style="fill: none; stroke: #262626; stroke-linejoin: miter; stroke-linecap: square"/>
   </g>
  </g>
  <g id="axes_2">
   <g id="patch_5">
    <path d="M 122.4 57.6 
L 180 57.6 
L 180 0 
L 122.4 0 
L 122.4 57.6 
z
" style="fill: none"/>
   </g>
   <g id="matplotlib.axis_3">
    <g id="xtick_3">
     <g id="line2d_24">
      <g>
       <use xlink:href="#mdf234c393b" x="122.4" y="57.6" style="fill: #262626; stroke: #262626"/>
      </g>
     </g>
     <g id="text_9">
      <text style="font-size: 8px; font-family: 'Arial'; text-anchor: middle; fill: #262626" x="122.4" y="71.62625" transform="rotate(-0 122.4 71.62625)">0</text>
     </g>
    </g>
    <g id="xtick_4">
     <g id="line2d_25">
      <g>
       <use xlink:href="#mdf234c393b" x="170.4" y="57.6" style="fill: #262626; stroke: #262626"/>
      </g>
     </g>
     <g id="text_10">
      <text style="font-size: 8px; font-family: 'Arial'; text-anchor: middle; fill: #262626" x="170.4" y="71.62625" transform="rotate(-0 170.4 71.62625)">10</text>
     </g>
    </g>
    <g id="text_11">
     <text style="font-size: 9px; font-family: 'Arial'; text-anchor: middle; fill: #262626" x="151.2" y="83.767969" transform="rotate(-0 151.2 83.767969)">distance (mm)</text>
    </g>
   </g>
   <g id="matplotlib.axis_4">
    <g id="ytick_5">
     <g id="line2d_26">
      <g>
       <use xlink:href="#mb7383eb60d" x="122.4" y="57.6" style="fill: #262626; stroke: #262626"/>
      </g>
     </g>
     <g id="text_12">
      <text style="font-size: 8px; font-family: 'Arial'; text-anchor: end; fill: #262626" x="114.1" y="60.463125" transform="rotate(-0 114.1 60.463125)">0.0</text>
     </g>
    </g>
    <g id="ytick_6">
     <g id="line2d_27">
      <g>
       <use xlink:href="#mb7383eb60d" x="122.4" y="38.4" style="fill: #262626; stroke: #262626"/>
      </g>
     </g>
     <g id="text_13">
      <text style="font-size: 8px; font-family: 'Arial'; text-anchor: end; fill: #262626" x="114.1" y="41.263125" transform="rotate(-0 114.1 41.263125)">0.1</text>
     </g>
    </g>
    <g id="ytick_7">
     <g id="line2d_28">
      <g>
       <use xlink:href="#mb7383eb60d" x="122.4" y="19.2" style="fill: #262626; stroke: #262626"/>
      </g>
     </g>
     <g id="text_14">
      <text style="font-size: 8px; font-family: 'Arial'; text-anchor: end; fill: #262626" x="114.1" y="22.063125" transform="rotate(-0 114.1 22.063125)">0.2</text>
     </g>
    </g>
    <g id="ytick_8">
     <g id="line2d_29">
      <g>
       <use xlink:href="#mb7383eb60d" x="122.4" y="-0" style="fill: #262626; stroke: #262626"/>
      </g>
     </g>
     <g id="text_15">
      <text style="font-size: 8px; font-family: 'Arial'; text-anchor: end; fill: #262626" x="114.1" y="2.863125" transform="rotate(-0 114.1 2.863125)">0.3</text>
     </g>
    </g>
   </g>
   <g id="line2d_30">
    <path d="M 126.345656 31.986671 
L 129.145799 32.881949 
L 131.945942 32.625429 
L 134.746084 32.25727 
L 137.546227 38.301429 
L 140.34637 46.471011 
L 143.146513 48.377341 
L 145.946656 48.631 
L 148.746799 50.468005 
L 151.546942 50.669176 
L 154.347084 54.754301 
L 157.147227 54.553504 
L 159.94737 54.636073 
L 162.747513 54.545828 
L 165.547656 52.881035 
L 168.347799 54.1441 
L 171.147941 52.749732 
L 173.948084 56.280836 
L 176.748227 57.6 
L 179.54837 55.18531 
" clip-path="url(#p6c1d4f0f1a)" style="fill: none; stroke: #9d8ec9; stroke-opacity: 0.5; stroke-linecap: round"/>
   </g>
   <g id="line2d_31">
    <path d="M 126.168976 41.040437 
L 128.61576 36.473959 
L 131.062544 34.448179 
L 133.509327 36.763567 
L 135.956111 32.707847 
L 138.402895 36.998676 
L 140.849679 39.522734 
L 143.296462 48.607493 
L 145.743246 54.002493 
L 148.19003 53.404587 
L 150.636813 54.534568 
L 153.083597 54.245414 
L 155.530381 55.55793 
L 157.977165 55.791002 
L 160.423948 54.250064 
L 162.870732 51.828638 
L 165.317516 53.035741 
L 167.764299 52.837114 
L 170.211083 57.6 
L 172.657867 56.349557 
" clip-path="url(#p6c1d4f0f1a)" style="fill: none; stroke: #9d8ec9; stroke-opacity: 0.5; stroke-linecap: round"/>
   </g>
   <g id="line2d_32">
    <path d="M 126.149955 34.338638 
L 128.558696 27.369469 
L 130.967438 48.441278 
L 133.376179 35.001836 
L 135.78492 43.094142 
L 138.193661 46.983658 
L 140.602403 45.115515 
L 143.011144 45.35767 
L 145.419885 50.255798 
L 147.828627 51.733658 
L 150.237368 49.64799 
L 152.646109 50.245157 
L 155.05485 54.382671 
L 157.463592 53.171149 
L 159.872333 52.414646 
L 162.281074 52.494007 
L 164.689816 51.963186 
L 167.098557 54.611014 
L 169.507298 57.6 
L 171.916039 55.778518 
" clip-path="url(#p6c1d4f0f1a)" style="fill: none; stroke: #9d8ec9; stroke-opacity: 0.5; stroke-linecap: round"/>
   </g>
   <g id="line2d_33">
    <path d="M 126.242404 40.583465 
L 128.836044 46.658495 
L 131.429684 39.9979 
L 134.023324 43.694876 
L 136.616963 39.581962 
L 139.210603 32.343385 
L 141.804243 33.344981 
L 144.397882 36.698277 
L 146.991522 43.51306 
L 149.585162 51.02554 
L 152.178802 56.93052 
L 154.772441 53.819614 
L 157.366081 53.724361 
L 159.959721 56.086923 
L 162.553361 54.023982 
L 165.147 51.030124 
L 167.74064 56.730851 
L 170.33428 56.989497 
L 172.92792 57.6 
L 175.521559 55.622186 
" clip-path="url(#p6c1d4f0f1a)" style="fill: none; stroke: #9d8ec9; stroke-opacity: 0.5; stroke-linecap: round"/>
   </g>
   <g id="line2d_34">
    <path d="M 126.224424 31.229805 
L 128.782103 24.565872 
L 131.339782 29.086531 
L 133.89746 37.672336 
L 136.455139 40.356897 
L 139.012818 48.958609 
L 141.570497 51.922695 
L 144.128176 53.276621 
L 146.685855 48.360939 
L 149.243534 49.478925 
L 151.801213 51.175677 
L 154.358892 48.941104 
L 156.91657 53.435825 
L 159.474249 56.368298 
L 162.031928 54.364242 
L 164.589607 56.268774 
L 167.147286 54.653896 
L 169.704965 57.316342 
L 172.262644 54.96661 
L 174.820323 57.6 
" clip-path="url(#p6c1d4f0f1a)" style="fill: none; stroke: #9d8ec9; stroke-opacity: 0.5; stroke-linecap: round"/>
   </g>
   <g id="line2d_35">
    <path d="M 126.097778 35.261709 
L 128.402165 35.55117 
L 130.706552 40.114495 
L 133.010938 42.711362 
L 135.315325 39.03486 
L 137.619712 45.655776 
L 139.924099 46.215091 
L 142.228486 44.39106 
L 144.532873 51.565261 
L 146.83726 45.097468 
L 149.141647 50.445496 
L 151.446033 51.265502 
L 153.75042 51.551653 
L 156.054807 51.478139 
L 158.359194 52.266214 
L 160.663581 54.064045 
L 162.967968 55.693988 
L 165.272355 56.521235 
L 167.576742 53.515475 
L 169.881128 57.6 
" clip-path="url(#p6c1d4f0f1a)" style="fill: none; stroke: #9d8ec9; stroke-opacity: 0.5; stroke-linecap: round"/>
   </g>
   <g id="line2d_36">
    <path d="M 125.971279 42.891065 
L 128.02267 16.378852 
L 130.07406 44.915987 
L 132.12545 45.747579 
L 134.17684 52.785528 
L 136.22823 45.870159 
L 138.27962 45.634634 
L 140.33101 52.576938 
L 142.3824 53.007176 
L 144.43379 49.481775 
L 146.48518 53.64332 
L 148.536571 46.148028 
L 150.587961 46.852575 
L 152.639351 45.802535 
L 154.690741 46.726886 
L 156.742131 49.639653 
L 158.793521 50.162737 
L 160.844911 56.711989 
L 162.896301 57.6 
L 164.947691 57.422583 
" clip-path="url(#p6c1d4f0f1a)" style="fill: none; stroke: #9d8ec9; stroke-opacity: 0.5; stroke-linecap: round"/>
   </g>
   <g id="line2d_37">
    <path d="M 126.27767 42.714504 
L 128.941842 40.580671 
L 131.606014 40.254368 
L 134.270186 47.028963 
L 136.934358 42.935973 
L 139.59853 48.397089 
L 142.262703 50.184894 
L 144.926875 43.486597 
L 147.591047 47.004811 
L 150.255219 48.61639 
L 152.919391 44.850331 
L 155.583563 46.635921 
L 158.247735 48.672265 
L 160.911907 50.363789 
L 163.576079 53.918222 
L 166.240251 50.341785 
L 168.904423 48.22398 
L 171.568595 55.020948 
L 174.232767 53.168497 
L 176.896939 57.6 
" clip-path="url(#p6c1d4f0f1a)" style="fill: none; stroke: #9d8ec9; stroke-opacity: 0.5; stroke-linecap: round"/>
   </g>
   <g id="line2d_38">
    <path d="M 126.117603 42.558348 
L 128.461639 30.927024 
L 130.805675 34.718025 
L 133.149711 38.142182 
L 135.493747 44.569236 
L 137.837784 41.492571 
L 140.18182 47.999929 
L 142.525856 46.497639 
L 144.869892 47.539885 
L 147.213928 48.57937 
L 149.557965 48.32186 
L 151.902001 49.418377 
L 154.246037 52.329339 
L 156.590073 53.957015 
L 158.93411 55.119938 
L 161.278146 54.130627 
L 163.622182 54.147176 
L 165.966218 55.464109 
L 168.310254 56.487351 
L 170.654291 57.6 
" clip-path="url(#p6c1d4f0f1a)" style="fill: none; stroke: #9d8ec9; stroke-opacity: 0.5; stroke-linecap: round"/>
   </g>
   <g id="line2d_39">
    <path d="M 126.742729 -1 
L 127.643792 51.698355 
L 129.442597 45.493396 
L 131.241402 50.347355 
L 133.040206 49.166408 
L 134.839011 49.677642 
L 136.637816 51.660012 
L 138.436621 53.388416 
L 140.235426 53.668766 
L 142.034231 53.06655 
L 143.833036 54.130262 
L 145.631841 54.459957 
L 147.430646 54.729122 
L 149.22945 55.514848 
L 151.028255 54.661479 
L 152.82706 57.439267 
L 154.625865 54.711008 
L 156.42467 57.6 
L 158.223475 57.35795 
L 160.02228 54.733392 
" clip-path="url(#p6c1d4f0f1a)" style="fill: none; stroke: #9d8ec9; stroke-opacity: 0.5; stroke-linecap: round"/>
   </g>
   <g id="line2d_40">
    <path d="M 126.271855 44.787851 
L 128.924396 51.525678 
L 131.576937 32.709072 
L 134.229478 49.687072 
L 136.882019 47.906883 
L 139.534559 48.448618 
L 142.1871 39.539858 
L 144.839641 37.266173 
L 147.492182 42.134395 
L 150.144723 50.463107 
L 152.797264 49.688947 
L 155.449805 45.012666 
L 158.102346 48.698594 
L 160.754887 48.332145 
L 163.407428 51.304008 
L 166.059969 51.159569 
L 168.71251 51.325824 
L 171.36505 55.071352 
L 174.017591 57.338188 
L 176.670132 57.6 
" clip-path="url(#p6c1d4f0f1a)" style="fill: none; stroke: #9d8ec9; stroke-opacity: 0.5; stroke-linecap: round"/>
   </g>
   <g id="line2d_41">
    <path d="M 125.993363 54.36061 
L 128.08892 52.683232 
L 130.035017 -1 
M 130.357359 -1 
L 132.280033 44.851443 
L 134.37559 47.264491 
L 136.471147 24.568596 
L 138.566704 52.715437 
L 140.66226 52.316345 
L 142.757817 56.072188 
L 144.853374 53.198044 
L 146.948931 54.003676 
L 149.044488 52.591964 
L 151.140044 56.858177 
L 153.235601 56.718398 
L 155.331158 50.188684 
L 157.426715 49.745402 
L 159.522272 57.6 
L 161.617829 54.695133 
L 163.713385 50.120011 
L 165.808942 44.571031 
" clip-path="url(#p6c1d4f0f1a)" style="fill: none; stroke: #9d8ec9; stroke-opacity: 0.5; stroke-linecap: round"/>
   </g>
   <g id="line2d_42">
    <path d="M 126.097778 46.56081 
L 128.402165 16.403712 
L 130.706552 44.855693 
L 133.010938 41.684105 
L 135.315325 42.93338 
L 137.619712 49.14422 
L 139.924099 45.262771 
L 142.228486 54.202638 
L 144.532873 54.533194 
L 146.83726 57.6 
L 149.141647 55.152728 
L 151.446033 55.472085 
L 153.75042 53.141797 
L 156.054807 49.512952 
L 158.359194 50.395396 
L 160.663581 47.982749 
L 162.967968 47.57307 
L 165.272355 49.878157 
L 167.576742 49.968402 
L 169.881128 47.742142 
" clip-path="url(#p6c1d4f0f1a)" style="fill: none; stroke: #9d8ec9; stroke-opacity: 0.5; stroke-linecap: round"/>
   </g>
   <g id="line2d_43">
    <path d="M 126.351179 36.502463 
L 129.162369 28.427215 
L 131.973559 31.995635 
L 134.784749 44.253212 
L 137.595938 37.098087 
L 140.407128 44.161192 
L 143.218318 49.832614 
L 146.029508 50.630087 
L 148.840697 46.802089 
L 151.651887 50.854835 
L 154.463077 55.01492 
L 157.274267 52.377069 
L 160.085457 50.916532 
L 162.896646 52.235596 
L 165.707836 53.928465 
L 168.519026 52.261259 
L 171.330216 52.64308 
L 174.141405 55.204401 
L 176.952595 57.6 
L 179.763785 57.26125 
" clip-path="url(#p6c1d4f0f1a)" style="fill: none; stroke: #9d8ec9; stroke-opacity: 0.5; stroke-linecap: round"/>
   </g>
   <g id="line2d_44">
    <path d="M 126.242404 47.39427 
L 128.836044 40.650846 
L 131.429684 31.561084 
L 134.023324 29.68764 
L 136.616963 36.066427 
L 139.210603 45.424432 
L 141.804243 51.939902 
L 144.397882 56.637871 
L 146.991522 57.6 
L 149.585162 54.970888 
L 152.178802 54.249896 
L 154.772441 49.77078 
L 157.366081 50.248651 
L 159.959721 49.761571 
L 162.553361 45.824863 
L 165.147 48.656206 
L 167.74064 47.865462 
L 170.33428 50.003039 
L 172.92792 55.57291 
L 175.521559 56.113261 
" clip-path="url(#p6c1d4f0f1a)" style="fill: none; stroke: #9d8ec9; stroke-opacity: 0.5; stroke-linecap: round"/>
   </g>
   <g id="line2d_45">
    <path d="M 126.149955 13.632662 
L 128.558696 37.974531 
L 130.967438 45.562289 
L 133.376179 43.299878 
L 135.78492 51.046057 
L 138.193661 49.009108 
L 140.602403 44.072601 
L 143.011144 52.934529 
L 145.419885 53.614405 
L 147.828627 52.775007 
L 150.237368 49.959701 
L 152.646109 51.877518 
L 155.05485 56.574844 
L 157.463592 54.117064 
L 159.872333 57.6 
L 162.281074 57.317001 
L 164.689816 54.035586 
L 167.098557 43.307077 
L 169.507298 42.095496 
L 171.916039 49.194647 
" clip-path="url(#p6c1d4f0f1a)" style="fill: none; stroke: #9d8ec9; stroke-opacity: 0.5; stroke-linecap: round"/>
   </g>
   <g id="line2d_46">
    <path d="M 126.242404 13.902286 
L 128.836044 16.791704 
L 131.429684 21.884256 
L 134.023324 45.924866 
L 136.616963 52.832642 
L 139.210603 53.1105 
L 141.804243 57.096626 
L 144.397882 57.6 
L 146.991522 55.023104 
L 149.585162 55.244142 
L 152.178802 54.971414 
L 154.772441 54.154688 
L 157.366081 54.929429 
L 159.959721 53.771778 
L 162.553361 56.410041 
L 165.147 54.287261 
L 167.74064 52.61207 
L 170.33428 49.154079 
L 172.92792 49.114158 
L 175.521559 51.184956 
" clip-path="url(#p6c1d4f0f1a)" style="fill: none; stroke: #9d8ec9; stroke-opacity: 0.5; stroke-linecap: round"/>
   </g>
   <g id="patch_6">
    <path d="M 122.4 57.6 
L 122.4 0 
" style="fill: none; stroke: #262626; stroke-linejoin: miter; stroke-linecap: square"/>
   </g>
   <g id="patch_7">
    <path d="M 122.4 57.6 
L 180 57.6 
" style="fill: none; stroke: #262626; stroke-linejoin: miter; stroke-linecap: square"/>
   </g>
  </g>
  <g id="axes_3">
   <g id="patch_8">
    <path d="M 36 144 
L 93.6 144 
L 93.6 86.4 
L 36 86.4 
L 36 144 
z
" style="fill: none"/>
   </g>
   <g id="matplotlib.axis_5">
    <g id="xtick_5">
     <g id="line2d_47">
      <g>
       <use xlink:href="#mdf234c393b" x="36" y="144" style="fill: #262626; stroke: #262626"/>
      </g>
     </g>
     <g id="text_16">
      <text style="font-size: 8px; font-family: 'Arial'; text-anchor: middle; fill: #262626" x="36" y="158.02625" transform="rotate(-0 36 158.02625)">0</text>
     </g>
    </g>
    <g id="xtick_6">
     <g id="line2d_48">
      <g>
       <use xlink:href="#mdf234c393b" x="84" y="144" style="fill: #262626; stroke: #262626"/>
      </g>
     </g>
     <g id="text_17">
      <text style="font-size: 8px; font-family: 'Arial'; text-anchor: middle; fill: #262626" x="84" y="158.02625" transform="rotate(-0 84 158.02625)">10</text>
     </g>
    </g>
    <g id="text_18">
     <text style="font-size: 9px; font-family: 'Arial'; text-anchor: middle; fill: #262626" x="64.8" y="170.167969" transform="rotate(-0 64.8 170.167969)">distance (mm)</text>
    </g>
   </g>
   <g id="matplotlib.axis_6">
    <g id="ytick_9">
     <g id="line2d_49">
      <g>
       <use xlink:href="#mb7383eb60d" x="36" y="144" style="fill: #262626; stroke: #262626"/>
      </g>
     </g>
     <g id="text_19">
      <text style="font-size: 8px; font-family: 'Arial'; text-anchor: end; fill: #262626" x="27.7" y="146.863125" transform="rotate(-0 27.7 146.863125)">0.0</text>
     </g>
    </g>
    <g id="ytick_10">
     <g id="line2d_50">
      <g>
       <use xlink:href="#mb7383eb60d" x="36" y="124.8" style="fill: #262626; stroke: #262626"/>
      </g>
     </g>
     <g id="text_20">
      <text style="font-size: 8px; font-family: 'Arial'; text-anchor: end; fill: #262626" x="27.7" y="127.663125" transform="rotate(-0 27.7 127.663125)">0.1</text>
     </g>
    </g>
    <g id="ytick_11">
     <g id="line2d_51">
      <g>
       <use xlink:href="#mb7383eb60d" x="36" y="105.6" style="fill: #262626; stroke: #262626"/>
      </g>
     </g>
     <g id="text_21">
      <text style="font-size: 8px; font-family: 'Arial'; text-anchor: end; fill: #262626" x="27.7" y="108.463125" transform="rotate(-0 27.7 108.463125)">0.2</text>
     </g>
    </g>
    <g id="ytick_12">
     <g id="line2d_52">
      <g>
       <use xlink:href="#mb7383eb60d" x="36" y="86.4" style="fill: #262626; stroke: #262626"/>
      </g>
     </g>
     <g id="text_22">
      <text style="font-size: 8px; font-family: 'Arial'; text-anchor: end; fill: #262626" x="27.7" y="89.263125" transform="rotate(-0 27.7 89.263125)">0.3</text>
     </g>
    </g>
    <g id="text_23">
     <text style="font-size: 9px; font-family: 'Arial'; fill: #262626" transform="translate(1.166594 126.701719) rotate(-90)">norm.</text>
     <text style="font-size: 9px; font-family: 'Arial'; fill: #262626" transform="translate(10.685781 138.709688) rotate(-90)">connectivity</text>
    </g>
   </g>
   <g id="line2d_53">
    <path d="M 43.019032 143.913564 
L 45.672896 136.518147 
L 48.32676 128.99929 
L 50.980624 120.534182 
L 53.634488 122.229531 
L 56.288352 140.556338 
L 58.942216 143.746852 
L 61.59608 144 
L 64.249944 128.210731 
L 66.903808 135.236762 
L 69.557672 136.621365 
L 72.211536 139.970967 
L 74.8654 131.769012 
L 77.519264 132.331493 
L 80.173128 127.804361 
L 82.826992 131.73241 
L 85.480856 132.742679 
L 88.13472 137.339882 
L 90.788584 138.491489 
L 93.442448 135.250945 
" clip-path="url(#pd29de36166)" style="fill: none; stroke: #7fc6aa; stroke-opacity: 0.5; stroke-linecap: round"/>
   </g>
   <g id="line2d_54">
    <path d="M 39.749955 130.982723 
L 42.158696 105.074237 
L 44.567438 118.393206 
L 46.976179 129.693615 
L 49.38492 130.439998 
L 51.793661 137.429725 
L 54.202403 141.680958 
L 56.611144 137.857513 
M 61.428627 138.567424 
L 63.837368 141.437269 
L 66.246109 144 
L 68.65485 137.498292 
L 71.063592 136.29431 
L 73.472333 133.758756 
L 75.881074 130.556759 
L 78.289816 134.591148 
L 80.698557 136.388707 
L 83.107298 141.089678 
L 85.516039 138.26568 
" clip-path="url(#pd29de36166)" style="fill: none; stroke: #7fc6aa; stroke-opacity: 0.5; stroke-linecap: round"/>
   </g>
   <g id="line2d_55">
    <path d="M 39.677625 144 
L 41.941705 139.810612 
L 44.205785 134.560989 
L 46.469865 135.717807 
L 48.733945 133.755486 
L 50.998026 138.684955 
L 53.262106 130.00836 
L 55.526186 129.668993 
L 57.790266 132.455358 
L 60.054347 131.751083 
L 62.318427 134.308147 
L 64.582507 133.257208 
L 66.846587 131.936068 
L 69.110667 126.758161 
L 71.374748 132.250596 
L 73.638828 129.2976 
L 75.902908 135.870329 
L 78.166988 137.700297 
L 80.431069 139.228904 
L 82.695149 136.979048 
" clip-path="url(#pd29de36166)" style="fill: none; stroke: #7fc6aa; stroke-opacity: 0.5; stroke-linecap: round"/>
   </g>
   <g id="line2d_56">
    <path d="M 46.235811 114.808942 
L 48.350962 124.760354 
L 50.466113 136.560102 
L 52.581264 139.738758 
L 54.696415 144 
L 56.811567 142.121933 
M 63.15702 139.089862 
M 67.387323 141.328516 
L 69.502474 122.32112 
L 71.617625 130.598905 
L 73.732776 134.143224 
L 75.847927 138.351239 
L 77.963078 134.162413 
L 80.07823 134.157082 
L 82.193381 100.293724 
L 84.308532 136.31507 
L 86.423683 143.248756 
" clip-path="url(#pd29de36166)" style="fill: none; stroke: #7fc6aa; stroke-opacity: 0.5; stroke-linecap: round"/>
   </g>
   <g id="line2d_57">
    <path d="M 39.842404 142.109494 
L 42.436044 92.45776 
L 45.029684 103.779868 
L 47.623324 115.531527 
L 50.216963 134.889588 
L 52.810603 140.718617 
L 55.404243 143.433908 
L 57.997882 141.916229 
L 60.591522 141.326838 
L 63.185162 141.970341 
L 65.778802 141.032728 
L 68.372441 138.187144 
L 70.966081 133.22352 
L 73.559721 137.418524 
L 76.153361 136.591143 
L 78.747 139.822786 
L 81.34064 140.153751 
L 83.93428 137.244558 
L 86.52792 142.191676 
L 89.121559 144 
" clip-path="url(#pd29de36166)" style="fill: none; stroke: #7fc6aa; stroke-opacity: 0.5; stroke-linecap: round"/>
   </g>
   <g id="line2d_58">
    <path d="M 39.697778 144 
L 42.002165 124.288296 
L 44.306552 119.29184 
L 46.610938 122.251963 
L 48.915325 126.659779 
L 51.219712 131.808718 
L 53.524099 135.311867 
L 55.828486 134.174565 
L 58.132873 141.674205 
L 60.43726 143.836611 
L 62.741647 143.424773 
L 65.046033 143.466403 
L 67.35042 142.491803 
L 69.654807 140.488997 
L 71.959194 137.126232 
L 74.263581 137.451015 
L 76.567968 130.995008 
L 78.872355 127.396933 
L 81.176742 133.486112 
L 83.481128 128.374879 
" clip-path="url(#pd29de36166)" style="fill: none; stroke: #7fc6aa; stroke-opacity: 0.5; stroke-linecap: round"/>
   </g>
   <g id="line2d_59">
    <path d="M 42.661215 137.649183 
L 44.599446 131.952157 
L 46.537677 122.923005 
L 48.475908 133.883381 
L 50.414139 131.540353 
L 52.35237 136.547347 
L 54.290602 139.236253 
L 56.228833 140.613 
L 58.167064 144 
L 60.105295 134.762612 
L 62.043526 141.259531 
L 63.981757 137.615818 
L 65.919988 139.731057 
L 67.858219 135.53561 
L 69.79645 134.036363 
L 71.734681 132.881172 
L 73.672912 131.98102 
L 75.611143 131.654651 
L 77.549374 125.606098 
L 79.487605 124.591388 
" clip-path="url(#pd29de36166)" style="fill: none; stroke: #7fc6aa; stroke-opacity: 0.5; stroke-linecap: round"/>
   </g>
   <g id="line2d_60">
    <path d="M 39.912067 129.446629 
L 42.645033 98.31428 
L 45.377998 102.644231 
L 48.110964 117.645359 
L 50.843929 135.820968 
L 53.576895 139.92153 
L 56.30986 144 
L 59.042826 143.035779 
L 61.775791 142.375702 
L 64.508757 142.284187 
L 67.241722 139.905213 
L 69.974688 140.504292 
L 72.707653 140.121015 
L 75.440619 139.966762 
L 78.173585 139.938692 
L 80.90655 138.939219 
L 83.639516 138.873196 
L 86.372481 138.376134 
L 89.105447 139.853726 
L 91.838412 136.033085 
" clip-path="url(#pd29de36166)" style="fill: none; stroke: #7fc6aa; stroke-opacity: 0.5; stroke-linecap: round"/>
   </g>
   <g id="line2d_61">
    <path d="M 39.749955 121.707403 
L 42.158696 107.526222 
L 44.567438 117.25611 
L 46.976179 106.040463 
L 49.38492 129.038822 
L 51.793661 134.874099 
L 54.202403 141.47216 
L 56.611144 140.628306 
L 59.019885 140.162046 
L 61.428627 144 
L 63.837368 138.152846 
L 66.246109 140.116595 
L 68.65485 140.904004 
M 75.881074 140.627885 
L 78.289816 131.8633 
L 80.698557 142.489506 
L 83.107298 140.576854 
L 85.516039 142.563379 
" clip-path="url(#pd29de36166)" style="fill: none; stroke: #7fc6aa; stroke-opacity: 0.5; stroke-linecap: round"/>
   </g>
   <g id="line2d_62">
    <path d="M 39.444987 137.561419 
L 41.243792 113.795775 
L 43.042597 127.717005 
L 44.841402 115.853359 
L 46.640206 134.174806 
L 48.439011 132.625297 
L 50.237816 134.147817 
L 52.036621 138.214777 
L 53.835426 135.548817 
L 55.634231 136.27148 
L 57.433036 131.681936 
L 59.231841 137.730652 
L 61.030646 132.390702 
L 62.82945 137.246985 
L 64.628255 140.833749 
L 66.42706 140.346092 
L 68.225865 139.344839 
L 70.02467 140.416055 
L 71.823475 144 
L 73.62228 138.098439 
" clip-path="url(#pd29de36166)" style="fill: none; stroke: #7fc6aa; stroke-opacity: 0.5; stroke-linecap: round"/>
   </g>
   <g id="line2d_63">
    <path d="M 39.871855 143.504199 
L 42.524396 98.096235 
L 45.176937 108.319314 
L 47.829478 118.932497 
L 50.482019 133.241539 
L 53.134559 131.718504 
L 55.7871 140.276271 
L 58.439641 143.159863 
L 61.092182 141.489522 
L 63.744723 143.517239 
L 66.397264 138.909975 
L 69.049805 139.722681 
L 71.702346 136.337948 
L 74.354887 135.659054 
L 77.007428 138.646404 
L 79.659969 142.057601 
L 82.31251 135.986572 
L 84.96505 136.965322 
L 87.617591 137.459258 
L 90.270132 144 
" clip-path="url(#pd29de36166)" style="fill: none; stroke: #7fc6aa; stroke-opacity: 0.5; stroke-linecap: round"/>
   </g>
   <g id="line2d_64">
    <path d="M 44.557252 130.449723 
L 46.398251 124.124228 
L 48.239249 138.890544 
L 50.080248 134.338171 
L 51.921246 140.85479 
L 53.762244 137.585272 
L 55.603243 134.020518 
L 57.444241 143.981079 
L 59.285239 131.00743 
L 61.126238 136.331723 
L 62.967236 131.344573 
L 64.808234 117.997618 
L 66.649233 126.677468 
L 68.490231 134.207639 
L 70.33123 143.812594 
L 72.172228 142.807535 
L 74.013226 144 
L 75.854225 140.5959 
L 77.695223 130.402172 
L 79.536221 124.571023 
" clip-path="url(#pd29de36166)" style="fill: none; stroke: #7fc6aa; stroke-opacity: 0.5; stroke-linecap: round"/>
   </g>
   <g id="line2d_65">
    <path d="M 39.697778 144 
L 42.002165 139.934702 
L 44.306552 135.238735 
L 46.610938 131.276738 
L 48.915325 133.432001 
L 51.219712 133.008261 
L 53.524099 134.115283 
L 55.828486 129.414093 
L 58.132873 137.373235 
L 60.43726 124.779119 
L 62.741647 132.65875 
L 65.046033 137.247893 
L 67.35042 135.469774 
L 69.654807 131.954296 
L 71.959194 126.676477 
L 74.263581 127.663816 
L 76.567968 139.27368 
M 81.176742 136.332648 
L 83.481128 134.150499 
" clip-path="url(#pd29de36166)" style="fill: none; stroke: #7fc6aa; stroke-opacity: 0.5; stroke-linecap: round"/>
   </g>
   <g id="line2d_66">
    <path d="M 39.793909 140.681061 
L 42.290558 97.669188 
L 44.787207 107.344911 
L 47.283856 121.366884 
L 49.780506 136.98722 
L 52.277155 141.970375 
L 54.773804 143.51108 
L 57.270453 139.14034 
L 59.767102 138.441031 
L 62.263751 135.239832 
L 64.7604 133.061603 
L 67.257049 128.959963 
L 69.753699 134.231794 
L 72.250348 144 
L 74.746997 138.803433 
L 77.243646 141.995999 
L 79.740295 140.403252 
L 82.236944 140.47119 
L 84.733593 141.674823 
L 87.230242 142.04602 
" clip-path="url(#pd29de36166)" style="fill: none; stroke: #7fc6aa; stroke-opacity: 0.5; stroke-linecap: round"/>
   </g>
   <g id="line2d_67">
    <path d="M 39.670831 144 
L 41.921324 128.566978 
L 44.171817 139.08159 
L 46.422309 142.586407 
L 48.672802 134.08849 
L 50.923295 140.561272 
L 53.173788 126.056681 
L 55.424281 132.743348 
L 57.674774 134.202517 
L 59.925266 124.75272 
L 62.175759 122.349601 
L 64.426252 125.744527 
L 66.676745 128.348303 
L 68.927238 130.819461 
L 71.177731 134.847245 
L 73.428224 138.053853 
L 75.678716 136.142897 
L 77.929209 140.300971 
M 82.430195 140.753139 
" clip-path="url(#pd29de36166)" style="fill: none; stroke: #7fc6aa; stroke-opacity: 0.5; stroke-linecap: round"/>
   </g>
   <g id="line2d_68">
    <path d="M 39.749955 144 
L 42.158696 133.546783 
L 44.567438 132.077499 
L 46.976179 134.928701 
L 49.38492 131.395262 
M 54.202403 137.513108 
L 56.611144 132.913412 
L 59.019885 124.931056 
L 61.428627 137.084585 
L 63.837368 136.000277 
L 66.246109 134.862636 
L 68.65485 136.392712 
L 71.063592 135.351261 
L 73.472333 136.847652 
L 75.881074 126.976036 
L 78.289816 132.040713 
L 80.698557 136.547038 
L 83.107298 139.386275 
L 85.516039 121.204993 
" clip-path="url(#pd29de36166)" style="fill: none; stroke: #7fc6aa; stroke-opacity: 0.5; stroke-linecap: round"/>
   </g>
   <g id="line2d_69">
    <path d="M 39.517923 143.102513 
L 41.462599 133.425785 
L 43.407275 137.022475 
L 45.351952 131.790194 
L 47.296628 129.313709 
L 49.241304 128.575665 
L 51.185981 128.05087 
L 53.130657 128.717375 
L 55.075334 125.610234 
L 57.02001 121.700985 
L 58.964686 128.823793 
L 60.909363 136.032015 
L 62.854039 136.24175 
L 64.798716 137.108983 
L 66.743392 141.114561 
L 68.688068 136.607538 
L 70.632745 139.83319 
L 72.577421 140.337268 
L 74.522097 140.591097 
L 76.466774 144 
" clip-path="url(#pd29de36166)" style="fill: none; stroke: #7fc6aa; stroke-opacity: 0.5; stroke-linecap: round"/>
   </g>
   <g id="patch_9">
    <path d="M 36 144 
L 36 86.4 
" style="fill: none; stroke: #262626; stroke-linejoin: miter; stroke-linecap: square"/>
   </g>
   <g id="patch_10">
    <path d="M 36 144 
L 93.6 144 
" style="fill: none; stroke: #262626; stroke-linejoin: miter; stroke-linecap: square"/>
   </g>
  </g>
  <g id="axes_4">
   <g id="patch_11">
    <path d="M 122.4 144 
L 180 144 
L 180 86.4 
L 122.4 86.4 
L 122.4 144 
z
" style="fill: none"/>
   </g>
   <g id="matplotlib.axis_7">
    <g id="xtick_7">
     <g id="line2d_70">
      <g>
       <use xlink:href="#mdf234c393b" x="122.4" y="144" style="fill: #262626; stroke: #262626"/>
      </g>
     </g>
     <g id="text_24">
      <text style="font-size: 8px; font-family: 'Arial'; text-anchor: middle; fill: #262626" x="122.4" y="158.02625" transform="rotate(-0 122.4 158.02625)">0</text>
     </g>
    </g>
    <g id="xtick_8">
     <g id="line2d_71">
      <g>
       <use xlink:href="#mdf234c393b" x="170.4" y="144" style="fill: #262626; stroke: #262626"/>
      </g>
     </g>
     <g id="text_25">
      <text style="font-size: 8px; font-family: 'Arial'; text-anchor: middle; fill: #262626" x="170.4" y="158.02625" transform="rotate(-0 170.4 158.02625)">10</text>
     </g>
    </g>
    <g id="text_26">
     <text style="font-size: 9px; font-family: 'Arial'; text-anchor: middle; fill: #262626" x="151.2" y="170.167969" transform="rotate(-0 151.2 170.167969)">distance (mm)</text>
    </g>
   </g>
   <g id="matplotlib.axis_8">
    <g id="ytick_13">
     <g id="line2d_72">
      <g>
       <use xlink:href="#mb7383eb60d" x="122.4" y="144" style="fill: #262626; stroke: #262626"/>
      </g>
     </g>
     <g id="text_27">
      <text style="font-size: 8px; font-family: 'Arial'; text-anchor: end; fill: #262626" x="114.1" y="146.863125" transform="rotate(-0 114.1 146.863125)">0.0</text>
     </g>
    </g>
    <g id="ytick_14">
     <g id="line2d_73">
      <g>
       <use xlink:href="#mb7383eb60d" x="122.4" y="124.8" style="fill: #262626; stroke: #262626"/>
      </g>
     </g>
     <g id="text_28">
      <text style="font-size: 8px; font-family: 'Arial'; text-anchor: end; fill: #262626" x="114.1" y="127.663125" transform="rotate(-0 114.1 127.663125)">0.1</text>
     </g>
    </g>
    <g id="ytick_15">
     <g id="line2d_74">
      <g>
       <use xlink:href="#mb7383eb60d" x="122.4" y="105.6" style="fill: #262626; stroke: #262626"/>
      </g>
     </g>
     <g id="text_29">
      <text style="font-size: 8px; font-family: 'Arial'; text-anchor: end; fill: #262626" x="114.1" y="108.463125" transform="rotate(-0 114.1 108.463125)">0.2</text>
     </g>
    </g>
    <g id="ytick_16">
     <g id="line2d_75">
      <g>
       <use xlink:href="#mb7383eb60d" x="122.4" y="86.4" style="fill: #262626; stroke: #262626"/>
      </g>
     </g>
     <g id="text_30">
      <text style="font-size: 8px; font-family: 'Arial'; text-anchor: end; fill: #262626" x="114.1" y="89.263125" transform="rotate(-0 114.1 89.263125)">0.3</text>
     </g>
    </g>
   </g>
   <g id="line2d_76">
    <path d="M 126.351179 105.330227 
L 129.162369 115.462777 
L 131.973559 120.870802 
L 134.784749 128.945315 
L 137.595938 133.064018 
L 140.407128 133.709815 
L 143.218318 138.211677 
L 146.029508 134.608903 
L 148.840697 127.688326 
L 151.651887 137.991688 
L 154.463077 139.436566 
L 157.274267 138.623348 
L 160.085457 138.614686 
L 162.896646 142.364298 
L 165.707836 141.555837 
L 168.519026 144 
L 171.330216 140.011746 
L 174.141405 143.12174 
L 176.952595 143.376308 
L 179.763785 141.011923 
" clip-path="url(#p4e888433bc)" style="fill: none; stroke: #9d8ec9; stroke-opacity: 0.5; stroke-linecap: round"/>
   </g>
   <g id="line2d_77">
    <path d="M 126.224424 117.92437 
L 128.782103 119.382259 
L 131.339782 121.330687 
L 133.89746 121.622803 
L 136.455139 132.087807 
L 139.012818 136.213054 
L 141.570497 137.738346 
L 144.128176 130.315763 
L 146.685855 136.913603 
L 149.243534 139.765418 
L 151.801213 143.301753 
L 154.358892 139.660409 
L 156.91657 141.028964 
L 159.474249 139.666779 
L 162.031928 138.653806 
L 164.589607 134.556235 
L 167.147286 140.954522 
L 169.704965 135.921814 
L 172.262644 136.961608 
L 174.820323 144 
" clip-path="url(#p4e888433bc)" style="fill: none; stroke: #9d8ec9; stroke-opacity: 0.5; stroke-linecap: round"/>
   </g>
   <g id="line2d_78">
    <path d="M 126.149955 118.631557 
L 128.558696 104.650698 
L 130.967438 131.123312 
L 133.376179 105.228148 
L 135.78492 135.587591 
L 138.193661 139.448692 
L 140.602403 144 
L 143.011144 138.503706 
L 145.419885 142.464202 
L 147.828627 140.595242 
L 150.237368 142.976195 
L 152.646109 141.890572 
L 155.05485 139.060078 
L 157.463592 139.641592 
L 159.872333 140.134067 
L 162.281074 134.076118 
L 164.689816 141.813908 
L 167.098557 138.414035 
L 169.507298 141.525495 
L 171.916039 128.234793 
" clip-path="url(#p4e888433bc)" style="fill: none; stroke: #9d8ec9; stroke-opacity: 0.5; stroke-linecap: round"/>
   </g>
   <g id="line2d_79">
    <path d="M 126.242404 142.980506 
L 128.836044 125.693146 
L 131.429684 118.007777 
L 134.023324 131.110098 
L 136.616963 137.804816 
L 139.210603 136.907173 
L 141.804243 131.748961 
L 144.397882 144 
L 146.991522 133.928848 
L 149.585162 136.352869 
L 152.178802 137.047869 
L 154.772441 129.906142 
L 157.366081 135.18153 
L 159.959721 137.862839 
L 162.553361 135.720056 
L 165.147 134.007613 
L 167.74064 141.792529 
L 170.33428 133.734199 
L 172.92792 136.011747 
L 175.521559 128.201281 
" clip-path="url(#p4e888433bc)" style="fill: none; stroke: #9d8ec9; stroke-opacity: 0.5; stroke-linecap: round"/>
   </g>
   <g id="line2d_80">
    <path d="M 126.242404 131.096841 
L 128.836044 120.18815 
L 131.429684 126.885056 
L 134.023324 133.052548 
L 136.616963 134.180607 
L 139.210603 130.520708 
L 141.804243 134.084529 
L 144.397882 138.092375 
L 146.991522 135.438244 
L 149.585162 129.684714 
L 152.178802 116.916486 
L 154.772441 135.803174 
L 157.366081 133.750491 
L 159.959721 144 
L 162.553361 142.378051 
L 165.147 142.192199 
L 167.74064 134.849839 
L 170.33428 137.732192 
M 175.521559 143.153795 
" clip-path="url(#p4e888433bc)" style="fill: none; stroke: #9d8ec9; stroke-opacity: 0.5; stroke-linecap: round"/>
   </g>
   <g id="line2d_81">
    <path d="M 126.097778 122.784639 
L 128.402165 93.454028 
L 130.706552 127.653323 
L 133.010938 134.446239 
L 135.315325 137.044027 
L 137.619712 139.167514 
L 139.924099 137.153471 
L 142.228486 141.775856 
L 144.532873 144 
L 146.83726 142.644651 
L 149.141647 139.545295 
L 151.446033 137.500456 
L 153.75042 137.422834 
L 156.054807 137.762009 
L 158.359194 131.266333 
L 160.663581 138.691397 
L 162.967968 134.577274 
L 165.272355 134.170041 
L 167.576742 137.012445 
L 169.881128 139.928169 
" clip-path="url(#p4e888433bc)" style="fill: none; stroke: #9d8ec9; stroke-opacity: 0.5; stroke-linecap: round"/>
   </g>
   <g id="line2d_82">
    <path d="M 125.993363 128.991009 
L 128.08892 115.448103 
L 130.184476 120.989103 
L 132.280033 127.108218 
L 134.37559 143.217392 
L 136.471147 136.773283 
L 138.566704 136.244247 
L 140.66226 135.652892 
L 142.757817 139.505739 
L 144.853374 137.868861 
L 146.948931 136.636503 
L 149.044488 132.154212 
L 151.140044 136.783522 
L 153.235601 136.263009 
L 155.331158 131.617358 
L 157.426715 132.979734 
L 159.522272 144 
L 161.617829 138.378959 
L 163.713385 138.052118 
L 165.808942 139.335737 
" clip-path="url(#p4e888433bc)" style="fill: none; stroke: #9d8ec9; stroke-opacity: 0.5; stroke-linecap: round"/>
   </g>
   <g id="line2d_83">
    <path d="M 126.312067 132.465886 
L 129.045033 134.395178 
L 131.777998 140.203283 
L 134.510964 139.112132 
L 137.243929 139.642761 
L 139.976895 137.46703 
L 142.70986 130.997242 
L 145.442826 126.805295 
L 148.175791 134.746504 
L 150.908757 124.284629 
L 153.641722 121.693962 
L 156.374688 135.578118 
L 159.107653 128.590236 
L 161.840619 134.487437 
L 164.573585 136.124269 
L 167.30655 134.694885 
L 170.039516 130.99536 
L 172.772481 141.838618 
L 175.505447 144 
L 178.238412 139.877176 
" clip-path="url(#p4e888433bc)" style="fill: none; stroke: #9d8ec9; stroke-opacity: 0.5; stroke-linecap: round"/>
   </g>
   <g id="line2d_84">
    <path d="M 126.149955 128.333215 
L 128.558696 120.018242 
L 130.967438 134.756038 
L 133.376179 138.67618 
L 135.78492 140.169079 
L 138.193661 137.710724 
L 140.602403 124.792856 
L 143.011144 127.298554 
L 145.419885 126.370728 
L 147.828627 129.416048 
L 150.237368 134.017563 
L 152.646109 138.12611 
L 155.05485 131.963509 
L 157.463592 140.356678 
L 159.872333 137.803886 
L 162.281074 137.543434 
L 164.689816 135.494554 
L 167.098557 138.986107 
L 169.507298 144 
L 171.916039 142.166497 
" clip-path="url(#p4e888433bc)" style="fill: none; stroke: #9d8ec9; stroke-opacity: 0.5; stroke-linecap: round"/>
   </g>
   <g id="line2d_85">
    <path d="M 125.844987 118.498617 
L 127.643792 122.328496 
L 129.442597 105.622529 
L 131.241402 125.687128 
L 133.040206 122.738219 
L 134.839011 126.675965 
L 136.637816 134.418654 
L 138.436621 138.443602 
L 140.235426 140.679907 
L 142.034231 143.597029 
L 143.833036 144 
L 145.631841 143.036622 
L 147.430646 142.842699 
L 149.22945 142.979272 
L 151.028255 143.307603 
L 152.82706 141.944345 
L 154.625865 142.330432 
L 156.42467 142.440694 
L 158.223475 136.793867 
L 160.02228 129.634321 
" clip-path="url(#p4e888433bc)" style="fill: none; stroke: #9d8ec9; stroke-opacity: 0.5; stroke-linecap: round"/>
   </g>
   <g id="line2d_86">
    <path d="M 126.312067 116.958697 
L 129.045033 120.633055 
L 131.777998 126.11857 
L 134.510964 140.512364 
L 137.243929 137.802775 
L 139.976895 134.107036 
L 142.70986 122.140537 
L 145.442826 120.55897 
L 148.175791 138.238059 
L 150.908757 135.640367 
L 153.641722 138.492116 
L 156.374688 135.85743 
L 159.107653 142.218344 
L 161.840619 137.875531 
L 164.573585 141.418862 
L 167.30655 135.929878 
L 170.039516 135.261729 
L 172.772481 142.269171 
L 175.505447 141.966508 
L 178.238412 144 
" clip-path="url(#p4e888433bc)" style="fill: none; stroke: #9d8ec9; stroke-opacity: 0.5; stroke-linecap: round"/>
   </g>
   <g id="line2d_87">
    <path d="M 125.993363 133.298688 
L 128.08892 139.890871 
L 130.184476 109.06321 
L 132.280033 131.777994 
L 134.37559 132.606346 
L 136.471147 107.652176 
L 138.566704 137.556624 
L 140.66226 132.420403 
L 142.757817 131.920924 
L 144.853374 129.844072 
L 146.948931 135.808488 
L 149.044488 141.41758 
L 151.140044 140.810842 
L 153.235601 141.365726 
L 155.331158 134.759513 
L 157.426715 137.32928 
L 159.522272 144 
L 161.617829 142.767222 
L 163.713385 141.933732 
L 165.808942 141.776309 
" clip-path="url(#p4e888433bc)" style="fill: none; stroke: #9d8ec9; stroke-opacity: 0.5; stroke-linecap: round"/>
   </g>
   <g id="line2d_88">
    <path d="M 126.097778 112.968587 
L 128.402165 112.594824 
L 130.706552 125.038448 
L 133.010938 124.749837 
L 135.315325 125.441303 
L 137.619712 123.879944 
L 139.924099 128.627439 
L 142.228486 142.900647 
L 144.532873 136.907289 
L 146.83726 140.141563 
L 149.141647 143.038139 
L 151.446033 141.507766 
L 153.75042 142.13898 
L 156.054807 140.693072 
L 158.359194 141.644918 
L 160.663581 140.735059 
L 162.967968 138.203859 
L 165.272355 141.336405 
L 167.576742 144 
L 169.881128 141.451921 
" clip-path="url(#p4e888433bc)" style="fill: none; stroke: #9d8ec9; stroke-opacity: 0.5; stroke-linecap: round"/>
   </g>
   <g id="line2d_89">
    <path d="M 126.351179 113.192852 
L 129.162369 89.819731 
L 131.973559 112.116005 
L 134.784749 129.805369 
L 137.595938 127.932814 
L 140.407128 135.285542 
L 143.218318 138.4414 
L 146.029508 140.232519 
L 148.840697 140.016302 
L 151.651887 140.268637 
L 154.463077 142.447141 
L 157.274267 141.810006 
L 160.085457 141.765085 
L 162.896646 142.038463 
L 165.707836 141.309616 
L 168.519026 140.691205 
L 171.330216 141.003546 
L 174.141405 142.135631 
L 176.952595 143.688136 
L 179.763785 144 
" clip-path="url(#p4e888433bc)" style="fill: none; stroke: #9d8ec9; stroke-opacity: 0.5; stroke-linecap: round"/>
   </g>
   <g id="line2d_90">
    <path d="M 126.218377 132.03725 
L 128.763961 106.958975 
L 131.309545 108.877191 
L 133.85513 110.57887 
L 136.400714 119.669516 
L 138.946299 134.95302 
L 141.491883 136.885399 
L 144.037468 141.865324 
L 146.583052 143.892538 
L 149.128636 144 
L 151.674221 138.984873 
L 154.219805 142.789922 
L 156.76539 140.558848 
L 159.310974 140.472413 
L 161.856558 133.535868 
L 164.402143 140.41364 
L 166.947727 142.899096 
L 169.493312 141.674425 
L 172.038896 143.179029 
L 174.58448 143.773802 
" clip-path="url(#p4e888433bc)" style="fill: none; stroke: #9d8ec9; stroke-opacity: 0.5; stroke-linecap: round"/>
   </g>
   <g id="line2d_91">
    <path d="M 126.149955 123.530723 
L 128.558696 131.717867 
L 130.967438 134.910987 
L 133.376179 136.723232 
L 135.78492 138.560427 
L 138.193661 127.218155 
L 140.602403 123.730314 
L 143.011144 135.945424 
L 145.419885 137.984887 
L 147.828627 138.701589 
L 150.237368 139.484127 
L 152.646109 139.789493 
L 155.05485 144 
L 157.463592 132.708297 
L 159.872333 138.774518 
L 162.281074 143.221965 
L 164.689816 143.60758 
L 167.098557 136.335554 
L 169.507298 118.125599 
L 171.916039 122.929263 
" clip-path="url(#p4e888433bc)" style="fill: none; stroke: #9d8ec9; stroke-opacity: 0.5; stroke-linecap: round"/>
   </g>
   <g id="line2d_92">
    <path d="M 126.242404 115.496986 
L 128.836044 114.871013 
L 131.429684 99.603997 
L 134.023324 130.11191 
L 136.616963 121.770477 
L 139.210603 134.286615 
L 141.804243 136.006688 
L 144.397882 140.707677 
L 146.991522 142.133832 
L 149.585162 143.655431 
L 152.178802 141.705319 
L 154.772441 142.18808 
L 157.366081 144 
L 159.959721 143.398277 
L 162.553361 143.928021 
L 165.147 143.571833 
L 167.74064 142.907944 
L 170.33428 136.955976 
L 172.92792 130.810515 
L 175.521559 139.889408 
" clip-path="url(#p4e888433bc)" style="fill: none; stroke: #9d8ec9; stroke-opacity: 0.5; stroke-linecap: round"/>
   </g>
   <g id="patch_12">
    <path d="M 122.4 144 
L 122.4 86.4 
" style="fill: none; stroke: #262626; stroke-linejoin: miter; stroke-linecap: square"/>
   </g>
   <g id="patch_13">
    <path d="M 122.4 144 
L 180 144 
" style="fill: none; stroke: #262626; stroke-linejoin: miter; stroke-linecap: square"/>
   </g>
  </g>
 </g>
 <defs>
  <clipPath id="pbdab1d9ea5">
   <rect x="36" y="0" width="57.6" height="57.6"/>
  </clipPath>
  <clipPath id="p6c1d4f0f1a">
   <rect x="122.4" y="0" width="57.6" height="57.6"/>
  </clipPath>
  <clipPath id="pd29de36166">
   <rect x="36" y="86.4" width="57.6" height="57.6"/>
  </clipPath>
  <clipPath id="p4e888433bc">
   <rect x="122.4" y="86.4" width="57.6" height="57.6"/>
  </clipPath>
 </defs>
</svg>
