<?xml version="1.0" encoding="utf-8" standalone="no"?>
<!DOCTYPE svg PUBLIC "-//W3C//DTD SVG 1.1//EN"
  "http://www.w3.org/Graphics/SVG/1.1/DTD/svg11.dtd">
<svg xmlns:xlink="http://www.w3.org/1999/xlink" width="180pt" height="180pt" viewBox="0 0 180 180" xmlns="http://www.w3.org/2000/svg" version="1.1">
 <metadata>
  <rdf:RDF xmlns:dc="http://purl.org/dc/elements/1.1/" xmlns:cc="http://creativecommons.org/ns#" xmlns:rdf="http://www.w3.org/1999/02/22-rdf-syntax-ns#">
   <cc:Work>
    <dc:type rdf:resource="http://purl.org/dc/dcmitype/StillImage"/>
    <dc:date>2026-02-18T16:42:11.251014</dc:date>
    <dc:format>image/svg+xml</dc:format>
    <dc:creator>
     <cc:Agent>
      <dc:title>Matplotlib v3.10.7, https://matplotlib.org/</dc:title>
     </cc:Agent>
    </dc:creator>
   </cc:Work>
  </rdf:RDF>
 </metadata>
 <defs>
  <style type="text/css">*{stroke-linejoin: round; stroke-linecap: butt}</style>
 </defs>
 <g id="figure_1">
  <g id="patch_1">
   <path d="M 0 180 
L 180 180 
L 180 0 
L 0 0 
L 0 180 
z
" style="fill: none"/>
  </g>
  <g id="axes_1">
   <g id="patch_2">
    <path d="M 36 57.6 
L 93.6 57.6 
L 93.6 0 
L 36 0 
L 36 57.6 
z
" style="fill: none"/>
   </g>
   <g id="matplotlib.axis_1">
    <g id="xtick_1">
     <g id="line2d_1">
      <defs>
       <path id="m6ae069c54f" d="M 0 0 
L 0 4.8 
" style="stroke: #262626"/>
      </defs>
      <g>
       <use xlink:href="#m6ae069c54f" x="36" y="57.6" style="fill: #262626; stroke: #262626"/>
      </g>
     </g>
     <g id="text_1">
      <text style="font-size: 8px; font-family: 'Arial'; text-anchor: middle; fill: #262626" x="36" y="71.62625" transform="rotate(-0 36 71.62625)">0</text>
     </g>
    </g>
    <g id="xtick_2">
     <g id="line2d_2">
      <g>
       <use xlink:href="#m6ae069c54f" x="84" y="57.6" style="fill: #262626; stroke: #262626"/>
      </g>
     </g>
     <g id="text_2">
      <text style="font-size: 8px; font-family: 'Arial'; text-anchor: middle; fill: #262626" x="84" y="71.62625" transform="rotate(-0 84 71.62625)">10</text>
     </g>
    </g>
    <g id="text_3">
     <text style="font-size: 9px; font-family: 'Arial'; text-anchor: middle; fill: #262626" x="64.8" y="83.767969" transform="rotate(-0 64.8 83.767969)">distance (mm)</text>
    </g>
   </g>
   <g id="matplotlib.axis_2">
    <g id="ytick_1">
     <g id="line2d_3">
      <defs>
       <path id="m9371d215a4" d="M 0 0 
L -4.8 0 
" style="stroke: #262626"/>
      </defs>
      <g>
       <use xlink:href="#m9371d215a4" x="36" y="57.6" style="fill: #262626; stroke: #262626"/>
      </g>
     </g>
     <g id="text_4">
      <text style="font-size: 8px; font-family: 'Arial'; text-anchor: end; fill: #262626" x="27.7" y="60.463125" transform="rotate(-0 27.7 60.463125)">0.0</text>
     </g>
    </g>
    <g id="ytick_2">
     <g id="line2d_4">
      <g>
       <use xlink:href="#m9371d215a4" x="36" y="38.4" style="fill: #262626; stroke: #262626"/>
      </g>
     </g>
     <g id="text_5">
      <text style="font-size: 8px; font-family: 'Arial'; text-anchor: end; fill: #262626" x="27.7" y="41.263125" transform="rotate(-0 27.7 41.263125)">0.1</text>
     </g>
    </g>
    <g id="ytick_3">
     <g id="line2d_5">
      <g>
       <use xlink:href="#m9371d215a4" x="36" y="19.2" style="fill: #262626; stroke: #262626"/>
      </g>
     </g>
     <g id="text_6">
      <text style="font-size: 8px; font-family: 'Arial'; text-anchor: end; fill: #262626" x="27.7" y="22.063125" transform="rotate(-0 27.7 22.063125)">0.2</text>
     </g>
    </g>
    <g id="ytick_4">
     <g id="line2d_6">
      <g>
       <use xlink:href="#m9371d215a4" x="36" y="-0" style="fill: #262626; stroke: #262626"/>
      </g>
     </g>
     <g id="text_7">
      <text style="font-size: 8px; font-family: 'Arial'; text-anchor: end; fill: #262626" x="27.7" y="2.863125" transform="rotate(-0 27.7 2.863125)">0.3</text>
     </g>
    </g>
    <g id="text_8">
     <text style="font-size: 9px; font-family: 'Arial'; fill: #262626" transform="translate(1.166594 40.301719) rotate(-90)">norm.</text>
     <text style="font-size: 9px; font-family: 'Arial'; fill: #262626" transform="translate(10.685781 52.309688) rotate(-90)">connectivity</text>
    </g>
   </g>
   <g id="line2d_7">
    <path d="M 39.615016 57.6 
L 41.753879 45.328939 
L 43.892742 37.355941 
L 46.031604 47.28885 
L 48.170467 54.721912 
L 50.30933 53.173006 
M 56.725919 38.379621 
L 58.864782 34.477996 
M 63.142507 32.061413 
L 65.28137 48.79703 
L 67.420233 47.678944 
M 71.697959 57.155307 
M 80.25341 2.781041 
" clip-path="url(#p177e77d397)" style="fill: none; stroke: #7fc6aa; stroke-opacity: 0.5; stroke-linecap: round"/>
   </g>
   <g id="line2d_8">
    <path d="M 39.193457 6.308114 
M 41.784949 57.6 
L 42.851775 -1 
M 45.672186 51.102035 
M 56.038152 11.519297 
M 58.629643 45.988086 
M 63.812626 52.256846 
" clip-path="url(#p177e77d397)" style="fill: none; stroke: #7fc6aa; stroke-opacity: 0.5; stroke-linecap: round"/>
   </g>
   <g id="line2d_9">
    <path d="M 39.453361 40.005422 
L 41.268915 35.025879 
L 43.084469 32.878282 
L 44.900023 34.080874 
L 46.715576 40.046388 
L 48.53113 36.437729 
L 50.346684 44.733652 
L 52.162238 47.782997 
L 53.977791 50.313689 
L 55.793345 51.878244 
L 57.608899 48.126359 
L 59.424453 49.831518 
L 61.240006 53.088135 
L 63.05556 56.9192 
L 64.871114 55.844946 
L 66.686668 57.6 
M 70.317775 54.285321 
L 72.133329 56.060381 
L 73.948883 57.460984 
" clip-path="url(#p177e77d397)" style="fill: none; stroke: #7fc6aa; stroke-opacity: 0.5; stroke-linecap: round"/>
   </g>
   <g id="line2d_10">
    <path d="M 42.226296 57.6 
" clip-path="url(#p177e77d397)" style="fill: none; stroke: #7fc6aa; stroke-opacity: 0.5; stroke-linecap: round"/>
   </g>
   <g id="line2d_11">
    <path d="M 42.778882 32.817045 
L 44.952447 57.6 
M 60.167403 43.696197 
L 62.340968 38.127346 
L 64.514533 41.961086 
L 66.688098 44.440561 
L 68.861663 42.462616 
L 71.035228 54.181939 
L 73.208793 31.857915 
L 75.382358 39.714567 
L 77.555923 51.207897 
L 79.729488 45.08741 
L 81.903053 45.242372 
L 84.076618 46.003049 
" clip-path="url(#p177e77d397)" style="fill: none; stroke: #7fc6aa; stroke-opacity: 0.5; stroke-linecap: round"/>
   </g>
   <g id="line2d_12">
    <path d="M 39.347537 57.6 
L 40.951442 25.013583 
M 44.159253 30.179632 
L 45.763158 42.483084 
M 48.970969 50.220256 
M 52.17878 52.652044 
L 53.782685 51.882081 
L 55.386591 49.884437 
L 56.990496 51.745663 
L 58.594401 54.491927 
L 60.198307 49.528922 
L 61.802212 48.363612 
L 63.406117 37.959033 
L 65.010023 48.715017 
L 66.613928 44.881926 
L 68.217833 43.525614 
L 69.821739 48.073169 
" clip-path="url(#p177e77d397)" style="fill: none; stroke: #7fc6aa; stroke-opacity: 0.5; stroke-linecap: round"/>
   </g>
   <g id="line2d_13">
    <path d="M 39.347537 46.674311 
L 40.951442 1.872185 
M 44.159253 9.78038 
L 45.763158 29.874189 
M 48.970969 46.59031 
M 52.17878 54.30885 
L 53.782685 51.892478 
M 56.990496 51.445793 
L 58.594401 50.913165 
L 60.198307 54.039562 
L 61.802212 48.987202 
L 63.406117 55.843545 
L 65.010023 54.578029 
M 69.821739 57.6 
" clip-path="url(#p177e77d397)" style="fill: none; stroke: #7fc6aa; stroke-opacity: 0.5; stroke-linecap: round"/>
   </g>
   <g id="line2d_14">
    <path d="M 39.453361 50.521212 
L 41.268915 48.992758 
L 43.084469 48.854766 
L 44.900023 33.731 
L 46.715576 39.494482 
L 48.53113 41.600887 
L 50.346684 39.633345 
L 52.162238 41.191529 
L 53.977791 49.764373 
M 59.424453 55.202582 
M 63.05556 57.6 
L 64.871114 43.829016 
L 66.686668 42.641717 
L 68.502221 45.867339 
L 70.317775 44.615934 
L 72.133329 49.210257 
L 73.948883 54.448801 
" clip-path="url(#p177e77d397)" style="fill: none; stroke: #7fc6aa; stroke-opacity: 0.5; stroke-linecap: round"/>
   </g>
   <g id="line2d_15">
    <path d="M 39.593363 34.018741 
L 41.68892 13.484378 
L 43.784476 27.701169 
L 45.880033 32.986828 
L 47.97559 45.186657 
L 50.071147 49.795515 
L 52.166704 45.654909 
L 54.26226 52.864072 
L 56.357817 49.191215 
L 58.453374 49.344711 
L 60.548931 48.162507 
L 62.644488 55.947262 
L 64.740044 56.608743 
L 66.835601 57.067192 
L 68.931158 57.6 
L 71.026715 57.48556 
L 73.122272 57.225861 
L 75.217829 56.048709 
L 77.313385 57.19014 
L 79.408942 56.435829 
" clip-path="url(#p177e77d397)" style="fill: none; stroke: #7fc6aa; stroke-opacity: 0.5; stroke-linecap: round"/>
   </g>
   <g id="line2d_16">
    <path d="M 38.624247 57.6 
" clip-path="url(#p177e77d397)" style="fill: none; stroke: #7fc6aa; stroke-opacity: 0.5; stroke-linecap: round"/>
   </g>
   <g id="line2d_17">
    <path d="M 39.258765 57.6 
M 42.111489 29.880868 
L 43.53785 40.837765 
L 44.964212 32.770388 
L 46.390574 45.197625 
M 49.243297 46.939763 
M 52.09602 46.216357 
L 53.522382 51.301128 
L 54.948744 48.2166 
L 56.375105 46.292791 
L 57.801467 49.206182 
L 59.227829 44.384145 
L 60.65419 45.827152 
M 63.506914 45.882691 
L 64.933275 46.948633 
L 66.359637 52.097911 
" clip-path="url(#p177e77d397)" style="fill: none; stroke: #7fc6aa; stroke-opacity: 0.5; stroke-linecap: round"/>
   </g>
   <g id="patch_3">
    <path d="M 36 57.6 
L 36 0 
" style="fill: none; stroke: #262626; stroke-linejoin: miter; stroke-linecap: square"/>
   </g>
   <g id="patch_4">
    <path d="M 36 57.6 
L 93.6 57.6 
" style="fill: none; stroke: #262626; stroke-linejoin: miter; stroke-linecap: square"/>
   </g>
  </g>
  <g id="axes_2">
   <g id="patch_5">
    <path d="M 122.4 57.6 
L 180 57.6 
L 180 0 
L 122.4 0 
L 122.4 57.6 
z
" style="fill: none"/>
   </g>
   <g id="matplotlib.axis_3">
    <g id="xtick_3">
     <g id="line2d_18">
      <g>
       <use xlink:href="#m6ae069c54f" x="122.4" y="57.6" style="fill: #262626; stroke: #262626"/>
      </g>
     </g>
     <g id="text_9">
      <text style="font-size: 8px; font-family: 'Arial'; text-anchor: middle; fill: #262626" x="122.4" y="71.62625" transform="rotate(-0 122.4 71.62625)">0</text>
     </g>
    </g>
    <g id="xtick_4">
     <g id="line2d_19">
      <g>
       <use xlink:href="#m6ae069c54f" x="170.4" y="57.6" style="fill: #262626; stroke: #262626"/>
      </g>
     </g>
     <g id="text_10">
      <text style="font-size: 8px; font-family: 'Arial'; text-anchor: middle; fill: #262626" x="170.4" y="71.62625" transform="rotate(-0 170.4 71.62625)">10</text>
     </g>
    </g>
    <g id="text_11">
     <text style="font-size: 9px; font-family: 'Arial'; text-anchor: middle; fill: #262626" x="151.2" y="83.767969" transform="rotate(-0 151.2 83.767969)">distance (mm)</text>
    </g>
   </g>
   <g id="matplotlib.axis_4">
    <g id="ytick_5">
     <g id="line2d_20">
      <g>
       <use xlink:href="#m9371d215a4" x="122.4" y="57.6" style="fill: #262626; stroke: #262626"/>
      </g>
     </g>
     <g id="text_12">
      <text style="font-size: 8px; font-family: 'Arial'; text-anchor: end; fill: #262626" x="114.1" y="60.463125" transform="rotate(-0 114.1 60.463125)">0.0</text>
     </g>
    </g>
    <g id="ytick_6">
     <g id="line2d_21">
      <g>
       <use xlink:href="#m9371d215a4" x="122.4" y="38.4" style="fill: #262626; stroke: #262626"/>
      </g>
     </g>
     <g id="text_13">
      <text style="font-size: 8px; font-family: 'Arial'; text-anchor: end; fill: #262626" x="114.1" y="41.263125" transform="rotate(-0 114.1 41.263125)">0.1</text>
     </g>
    </g>
    <g id="ytick_7">
     <g id="line2d_22">
      <g>
       <use xlink:href="#m9371d215a4" x="122.4" y="19.2" style="fill: #262626; stroke: #262626"/>
      </g>
     </g>
     <g id="text_14">
      <text style="font-size: 8px; font-family: 'Arial'; text-anchor: end; fill: #262626" x="114.1" y="22.063125" transform="rotate(-0 114.1 22.063125)">0.2</text>
     </g>
    </g>
    <g id="ytick_8">
     <g id="line2d_23">
      <g>
       <use xlink:href="#m9371d215a4" x="122.4" y="-0" style="fill: #262626; stroke: #262626"/>
      </g>
     </g>
     <g id="text_15">
      <text style="font-size: 8px; font-family: 'Arial'; text-anchor: end; fill: #262626" x="114.1" y="2.863125" transform="rotate(-0 114.1 2.863125)">0.3</text>
     </g>
    </g>
   </g>
   <g id="line2d_24">
    <path d="M 126.242404 51.071837 
L 128.836044 46.751957 
L 131.429684 40.971 
L 134.023324 45.398732 
L 136.616963 50.766703 
L 139.210603 54.84092 
L 141.804243 49.521829 
L 144.397882 35.680512 
L 146.991522 46.746633 
L 149.585162 46.697964 
L 152.178802 54.078217 
L 154.772441 33.878961 
L 157.366081 50.354467 
L 159.959721 44.387992 
L 162.553361 41.512689 
L 165.147 57.410902 
L 167.74064 57.6 
L 170.33428 55.258456 
L 172.92792 51.072737 
L 175.521559 45.997492 
" clip-path="url(#p5cd673f91a)" style="fill: none; stroke: #9d8ec9; stroke-opacity: 0.5; stroke-linecap: round"/>
   </g>
   <g id="line2d_25">
    <path d="M 126.224424 23.639411 
L 128.782103 33.808779 
L 131.339782 38.665959 
L 133.89746 43.424125 
L 136.455139 42.872363 
L 139.012818 56.521349 
L 141.570497 57.6 
L 144.128176 55.909888 
L 146.685855 55.418934 
L 149.243534 51.031931 
L 151.801213 52.123957 
L 154.358892 51.169913 
L 156.91657 49.62783 
L 159.474249 44.79255 
L 162.031928 45.418801 
L 164.589607 48.375186 
L 167.147286 48.847027 
L 169.704965 53.246377 
L 172.262644 53.141457 
L 174.820323 54.364161 
" clip-path="url(#p5cd673f91a)" style="fill: none; stroke: #9d8ec9; stroke-opacity: 0.5; stroke-linecap: round"/>
   </g>
   <g id="line2d_26">
    <path d="M 126.097778 36.299266 
L 128.402165 32.177871 
L 130.706552 39.894499 
L 133.010938 47.81957 
L 135.315325 43.954747 
L 137.619712 47.560901 
L 139.924099 45.036125 
L 142.228486 41.962468 
L 144.532873 44.338098 
L 146.83726 45.451411 
L 149.141647 48.808785 
L 151.446033 45.414452 
L 153.75042 53.766919 
L 156.054807 55.270598 
L 158.359194 53.09259 
L 160.663581 53.397545 
L 162.967968 56.412796 
L 165.272355 57.6 
L 167.576742 56.042502 
L 169.881128 55.698858 
" clip-path="url(#p5cd673f91a)" style="fill: none; stroke: #9d8ec9; stroke-opacity: 0.5; stroke-linecap: round"/>
   </g>
   <g id="line2d_27">
    <path d="M 126.149955 22.993635 
L 128.558696 20.781878 
L 130.967438 36.743585 
L 133.376179 48.339497 
L 135.78492 46.107018 
L 138.193661 51.416934 
L 140.602403 53.770807 
L 143.011144 57.6 
L 145.419885 55.847725 
L 147.828627 50.586939 
L 150.237368 54.630367 
L 152.646109 51.607364 
L 155.05485 54.02132 
L 157.463592 51.67854 
L 159.872333 51.367583 
L 162.281074 51.544306 
L 164.689816 52.612056 
L 167.098557 52.230606 
L 169.507298 47.086298 
L 171.916039 49.033542 
" clip-path="url(#p5cd673f91a)" style="fill: none; stroke: #9d8ec9; stroke-opacity: 0.5; stroke-linecap: round"/>
   </g>
   <g id="line2d_28">
    <path d="M 126.312067 52.536767 
L 129.045033 40.802066 
L 131.777998 29.538148 
L 134.510964 35.285984 
L 137.243929 33.239393 
L 139.976895 46.027643 
L 142.70986 47.448737 
L 145.442826 54.344738 
L 148.175791 56.940918 
L 150.908757 55.026415 
L 153.641722 51.709629 
L 156.374688 52.98551 
L 159.107653 48.686402 
L 161.840619 45.651341 
L 164.573585 45.937787 
L 167.30655 49.055957 
L 170.039516 50.791308 
L 172.772481 52.224239 
L 175.505447 54.167019 
L 178.238412 57.6 
" clip-path="url(#p5cd673f91a)" style="fill: none; stroke: #9d8ec9; stroke-opacity: 0.5; stroke-linecap: round"/>
   </g>
   <g id="line2d_29">
    <path d="M 125.993363 45.18132 
L 128.08892 33.817169 
L 130.184476 31.297706 
L 132.280033 32.785872 
L 134.37559 43.826265 
L 136.471147 44.617342 
L 138.566704 52.83906 
L 140.66226 54.438825 
L 142.757817 56.223742 
L 144.853374 54.745147 
L 146.948931 57.6 
L 149.044488 52.099727 
L 151.140044 52.587103 
L 153.235601 49.461545 
L 155.331158 48.21643 
L 157.426715 49.79845 
L 159.522272 49.090387 
L 161.617829 50.338354 
L 163.713385 49.165782 
L 165.808942 51.869774 
" clip-path="url(#p5cd673f91a)" style="fill: none; stroke: #9d8ec9; stroke-opacity: 0.5; stroke-linecap: round"/>
   </g>
   <g id="line2d_30">
    <path d="M 125.844987 38.84782 
L 127.643792 34.897712 
L 129.442597 36.275867 
L 131.241402 46.181033 
L 133.040206 41.756063 
L 134.839011 50.354134 
L 136.637816 52.899541 
L 138.436621 57.6 
L 140.235426 56.389007 
L 142.034231 54.716084 
L 143.833036 51.057864 
L 145.631841 51.591004 
L 147.430646 54.090293 
L 149.22945 49.064682 
L 151.028255 50.760811 
L 152.82706 44.919021 
L 154.625865 45.502543 
L 156.42467 47.506641 
L 158.223475 48.996824 
L 160.02228 46.593057 
" clip-path="url(#p5cd673f91a)" style="fill: none; stroke: #9d8ec9; stroke-opacity: 0.5; stroke-linecap: round"/>
   </g>
   <g id="line2d_31">
    <path d="M 126.097778 35.38623 
L 128.402165 55.858789 
L 130.706552 55.687011 
L 133.010938 52.557086 
L 135.315325 47.898435 
L 137.619712 42.496702 
L 139.924099 37.820116 
L 142.228486 45.304464 
L 144.532873 43.924145 
L 146.83726 57.6 
L 149.141647 51.057919 
L 151.446033 51.40332 
L 153.75042 48.186061 
L 156.054807 44.260376 
L 158.359194 48.214073 
L 160.663581 42.196718 
L 162.967968 46.3799 
L 165.272355 52.79675 
L 167.576742 51.75807 
L 169.881128 49.213834 
" clip-path="url(#p5cd673f91a)" style="fill: none; stroke: #9d8ec9; stroke-opacity: 0.5; stroke-linecap: round"/>
   </g>
   <g id="line2d_32">
    <path d="M 125.993363 49.290648 
L 128.08892 40.868524 
L 130.184476 40.103441 
L 132.280033 40.023745 
L 134.37559 46.435453 
L 136.471147 49.960278 
L 138.566704 52.72452 
L 140.66226 57.190678 
L 142.757817 57.6 
L 144.853374 54.707096 
L 146.948931 51.378224 
L 149.044488 48.84617 
L 151.140044 49.667035 
L 153.235601 47.871996 
L 155.331158 45.621212 
L 157.426715 43.975983 
L 159.522272 47.32809 
L 161.617829 46.585002 
L 163.713385 46.886463 
L 165.808942 42.935442 
" clip-path="url(#p5cd673f91a)" style="fill: none; stroke: #9d8ec9; stroke-opacity: 0.5; stroke-linecap: round"/>
   </g>
   <g id="line2d_33">
    <path d="M 125.993363 31.504634 
L 128.08892 28.592282 
L 130.184476 41.050394 
L 132.280033 34.152435 
L 134.37559 37.036216 
L 136.471147 46.614439 
L 138.566704 50.554017 
L 140.66226 57.6 
L 142.757817 53.091099 
L 144.853374 52.556351 
L 146.948931 49.861036 
L 149.044488 52.391463 
L 151.140044 53.55099 
L 153.235601 51.044016 
L 155.331158 51.648927 
L 157.426715 57.290988 
L 159.522272 50.998809 
L 161.617829 48.31609 
L 163.713385 57.10618 
L 165.808942 55.039635 
" clip-path="url(#p5cd673f91a)" style="fill: none; stroke: #9d8ec9; stroke-opacity: 0.5; stroke-linecap: round"/>
   </g>
   <g id="line2d_34">
    <path d="M 126.149955 42.807522 
L 128.558696 57.6 
L 130.967438 50.88503 
L 133.376179 41.33589 
L 135.78492 46.498785 
L 138.193661 43.538779 
L 140.602403 47.658846 
L 143.011144 48.16286 
L 145.419885 47.895148 
L 147.828627 51.809953 
L 150.237368 48.371817 
L 152.646109 40.423912 
L 155.05485 46.104635 
L 157.463592 47.999869 
L 159.872333 52.538986 
L 162.281074 52.774577 
L 164.689816 49.413715 
L 167.098557 50.359412 
L 169.507298 47.867867 
L 171.916039 45.952399 
" clip-path="url(#p5cd673f91a)" style="fill: none; stroke: #9d8ec9; stroke-opacity: 0.5; stroke-linecap: round"/>
   </g>
   <g id="patch_6">
    <path d="M 122.4 57.6 
L 122.4 0 
" style="fill: none; stroke: #262626; stroke-linejoin: miter; stroke-linecap: square"/>
   </g>
   <g id="patch_7">
    <path d="M 122.4 57.6 
L 180 57.6 
" style="fill: none; stroke: #262626; stroke-linejoin: miter; stroke-linecap: square"/>
   </g>
  </g>
  <g id="axes_3">
   <g id="patch_8">
    <path d="M 36 144 
L 93.6 144 
L 93.6 86.4 
L 36 86.4 
L 36 144 
z
" style="fill: none"/>
   </g>
   <g id="matplotlib.axis_5">
    <g id="xtick_5">
     <g id="line2d_35">
      <g>
       <use xlink:href="#m6ae069c54f" x="36" y="144" style="fill: #262626; stroke: #262626"/>
      </g>
     </g>
     <g id="text_16">
      <text style="font-size: 8px; font-family: 'Arial'; text-anchor: middle; fill: #262626" x="36" y="158.02625" transform="rotate(-0 36 158.02625)">0</text>
     </g>
    </g>
    <g id="xtick_6">
     <g id="line2d_36">
      <g>
       <use xlink:href="#m6ae069c54f" x="84" y="144" style="fill: #262626; stroke: #262626"/>
      </g>
     </g>
     <g id="text_17">
      <text style="font-size: 8px; font-family: 'Arial'; text-anchor: middle; fill: #262626" x="84" y="158.02625" transform="rotate(-0 84 158.02625)">10</text>
     </g>
    </g>
    <g id="text_18">
     <text style="font-size: 9px; font-family: 'Arial'; text-anchor: middle; fill: #262626" x="64.8" y="170.167969" transform="rotate(-0 64.8 170.167969)">distance (mm)</text>
    </g>
   </g>
   <g id="matplotlib.axis_6">
    <g id="ytick_9">
     <g id="line2d_37">
      <g>
       <use xlink:href="#m9371d215a4" x="36" y="144" style="fill: #262626; stroke: #262626"/>
      </g>
     </g>
     <g id="text_19">
      <text style="font-size: 8px; font-family: 'Arial'; text-anchor: end; fill: #262626" x="27.7" y="146.863125" transform="rotate(-0 27.7 146.863125)">0.0</text>
     </g>
    </g>
    <g id="ytick_10">
     <g id="line2d_38">
      <g>
       <use xlink:href="#m9371d215a4" x="36" y="124.8" style="fill: #262626; stroke: #262626"/>
      </g>
     </g>
     <g id="text_20">
      <text style="font-size: 8px; font-family: 'Arial'; text-anchor: end; fill: #262626" x="27.7" y="127.663125" transform="rotate(-0 27.7 127.663125)">0.1</text>
     </g>
    </g>
    <g id="ytick_11">
     <g id="line2d_39">
      <g>
       <use xlink:href="#m9371d215a4" x="36" y="105.6" style="fill: #262626; stroke: #262626"/>
      </g>
     </g>
     <g id="text_21">
      <text style="font-size: 8px; font-family: 'Arial'; text-anchor: end; fill: #262626" x="27.7" y="108.463125" transform="rotate(-0 27.7 108.463125)">0.2</text>
     </g>
    </g>
    <g id="ytick_12">
     <g id="line2d_40">
      <g>
       <use xlink:href="#m9371d215a4" x="36" y="86.4" style="fill: #262626; stroke: #262626"/>
      </g>
     </g>
     <g id="text_22">
      <text style="font-size: 8px; font-family: 'Arial'; text-anchor: end; fill: #262626" x="27.7" y="89.263125" transform="rotate(-0 27.7 89.263125)">0.3</text>
     </g>
    </g>
    <g id="text_23">
     <text style="font-size: 9px; font-family: 'Arial'; fill: #262626" transform="translate(1.166594 126.701719) rotate(-90)">norm.</text>
     <text style="font-size: 9px; font-family: 'Arial'; fill: #262626" transform="translate(10.685781 138.709688) rotate(-90)">connectivity</text>
    </g>
   </g>
   <g id="line2d_41">
    <path d="M 42.697077 144 
L 44.70703 142.52631 
L 46.716984 142.409923 
L 48.726938 135.558342 
L 50.736892 121.82226 
L 52.746846 131.86876 
L 54.756799 126.473185 
L 56.766753 133.492581 
L 58.776707 135.50749 
L 60.786661 132.131312 
L 62.796615 137.355372 
L 64.806568 135.037073 
L 66.816522 137.35917 
L 68.826476 127.660312 
L 70.83643 134.26373 
L 72.846384 129.208952 
L 74.856337 138.092948 
L 76.866291 134.361682 
L 78.876245 134.59536 
L 80.886199 134.275238 
" clip-path="url(#pc64660579e)" style="fill: none; stroke: #7fc6aa; stroke-opacity: 0.5; stroke-linecap: round"/>
   </g>
   <g id="line2d_42">
    <path d="M 39.697778 132.160417 
L 42.002165 128.38234 
L 44.306552 131.671323 
L 46.610938 129.193366 
L 48.915325 124.324843 
L 51.219712 127.64832 
L 53.524099 121.299471 
L 55.828486 124.846755 
L 58.132873 131.800737 
L 60.43726 140.622304 
L 62.741647 141.04119 
L 65.046033 142.71327 
L 67.35042 142.227988 
L 69.654807 138.321869 
L 71.959194 141.2201 
L 74.263581 135.443707 
L 76.567968 135.247643 
L 78.872355 134.293616 
L 81.176742 144 
L 83.481128 141.540744 
" clip-path="url(#pc64660579e)" style="fill: none; stroke: #7fc6aa; stroke-opacity: 0.5; stroke-linecap: round"/>
   </g>
   <g id="line2d_43">
    <path d="M 39.593363 133.368798 
L 41.68892 107.061852 
L 43.784476 117.641604 
L 45.880033 120.952552 
L 47.97559 123.473361 
L 50.071147 129.416955 
L 52.166704 128.226825 
L 54.26226 133.052211 
L 56.357817 135.784401 
L 58.453374 135.889056 
L 60.548931 138.421259 
L 62.644488 143.004222 
L 64.740044 140.034903 
L 66.835601 142.962552 
L 68.931158 143.604552 
L 71.026715 141.700479 
L 73.122272 143.33553 
L 75.217829 143.173745 
L 77.313385 144 
L 79.408942 142.895142 
" clip-path="url(#pc64660579e)" style="fill: none; stroke: #7fc6aa; stroke-opacity: 0.5; stroke-linecap: round"/>
   </g>
   <g id="line2d_44">
    <path d="M 39.677625 137.168073 
L 41.941705 138.924283 
L 44.205785 136.278536 
L 46.469865 127.920128 
L 48.733945 128.736583 
L 50.998026 127.556097 
L 53.262106 132.19667 
L 55.526186 123.108298 
L 57.790266 138.655733 
L 60.054347 139.184382 
L 62.318427 142.029832 
L 64.582507 140.017581 
L 66.846587 133.062564 
L 69.110667 127.272212 
L 71.374748 134.859882 
L 73.638828 144 
L 75.902908 137.314485 
L 78.166988 134.979014 
L 80.431069 133.792907 
L 82.695149 130.94274 
" clip-path="url(#pc64660579e)" style="fill: none; stroke: #7fc6aa; stroke-opacity: 0.5; stroke-linecap: round"/>
   </g>
   <g id="line2d_45">
    <path d="M 39.793909 144 
L 42.290558 133.856901 
L 44.787207 132.050724 
L 47.283856 124.990233 
L 49.780506 126.1374 
L 52.277155 124.599321 
L 54.773804 126.532839 
L 57.270453 126.284549 
L 59.767102 131.018971 
L 62.263751 132.774395 
L 64.7604 133.432747 
L 67.257049 137.451448 
L 69.753699 138.319922 
L 72.250348 136.354318 
L 74.746997 138.338342 
L 77.243646 137.330799 
L 79.740295 141.913594 
M 84.733593 138.90784 
L 87.230242 139.705657 
" clip-path="url(#pc64660579e)" style="fill: none; stroke: #7fc6aa; stroke-opacity: 0.5; stroke-linecap: round"/>
   </g>
   <g id="line2d_46">
    <path d="M 39.571279 144 
L 41.62267 133.521811 
L 43.67406 126.609326 
L 45.72545 125.835005 
L 47.77684 125.001492 
L 49.82823 140.104676 
L 51.87962 142.430205 
L 53.93101 140.671229 
L 55.9824 137.703091 
L 58.03379 133.512908 
L 60.08518 135.651168 
L 62.136571 133.253729 
L 64.187961 130.72015 
L 66.239351 132.072203 
L 68.290741 124.426396 
L 70.342131 134.330942 
L 72.393521 137.32646 
L 74.444911 135.277655 
L 76.496301 137.62685 
L 78.547691 137.924704 
" clip-path="url(#pc64660579e)" style="fill: none; stroke: #7fc6aa; stroke-opacity: 0.5; stroke-linecap: round"/>
   </g>
   <g id="line2d_47">
    <path d="M 42.512839 126.180997 
M 45.795798 107.077819 
M 49.078756 130.600077 
M 54.003193 136.369697 
M 58.927631 144 
M 63.852068 135.742399 
L 65.493547 130.922097 
L 67.135026 126.432929 
L 68.776505 133.403477 
L 70.417984 106.06411 
M 73.700943 115.206397 
" clip-path="url(#pc64660579e)" style="fill: none; stroke: #7fc6aa; stroke-opacity: 0.5; stroke-linecap: round"/>
   </g>
   <g id="line2d_48">
    <path d="M 39.697778 139.886712 
L 42.002165 138.833289 
L 44.306552 138.68001 
L 46.610938 129.573181 
L 48.915325 136.800005 
L 51.219712 131.222012 
L 53.524099 136.63096 
L 55.828486 134.324859 
L 58.132873 137.759707 
L 60.43726 135.805122 
L 62.741647 144 
L 65.046033 139.549035 
L 67.35042 138.786551 
L 69.654807 133.809388 
L 71.959194 126.787814 
L 74.263581 126.674116 
L 76.567968 128.030105 
L 78.872355 127.640426 
L 81.176742 129.401765 
L 83.481128 133.804946 
" clip-path="url(#pc64660579e)" style="fill: none; stroke: #7fc6aa; stroke-opacity: 0.5; stroke-linecap: round"/>
   </g>
   <g id="line2d_49">
    <path d="M 39.30926 111.264025 
M 42.363961 101.264514 
L 43.891312 127.89976 
L 45.418662 123.275736 
M 48.473364 134.423503 
M 51.528065 140.784943 
L 53.055416 142.471617 
L 54.582766 125.035083 
L 56.110117 134.632509 
L 57.637468 138.93753 
L 59.164818 141.866514 
L 60.692169 144 
L 62.219519 137.239712 
L 63.74687 140.271682 
L 65.274221 134.347327 
L 66.801571 140.060964 
L 68.328922 138.22458 
" clip-path="url(#pc64660579e)" style="fill: none; stroke: #7fc6aa; stroke-opacity: 0.5; stroke-linecap: round"/>
   </g>
   <g id="line2d_50">
    <path d="M 42.661215 134.483722 
L 44.599446 117.258035 
L 46.537677 132.085156 
L 48.475908 124.304339 
L 50.414139 137.411215 
L 52.35237 137.81464 
L 54.290602 136.385653 
L 56.228833 139.396691 
L 58.167064 133.167601 
L 60.105295 143.382564 
L 62.043526 128.38002 
L 63.981757 143.640944 
L 65.919988 139.589867 
L 67.858219 144 
L 69.79645 129.922274 
L 71.734681 131.162881 
L 73.672912 124.025354 
M 77.549374 132.894327 
L 79.487605 134.694717 
" clip-path="url(#pc64660579e)" style="fill: none; stroke: #7fc6aa; stroke-opacity: 0.5; stroke-linecap: round"/>
   </g>
   <g id="line2d_51">
    <path d="M 42.631671 112.655593 
L 44.510812 121.949417 
L 46.389954 121.768504 
L 48.269096 126.727858 
L 50.148238 132.256852 
L 52.027379 136.569947 
L 53.906521 137.205036 
L 55.785663 136.704297 
M 59.543947 135.248576 
L 61.423088 143.496126 
L 63.30223 142.116189 
L 65.181372 137.247962 
L 67.060514 144 
L 68.939655 131.415474 
L 70.818797 142.384796 
L 72.697939 141.297306 
L 74.577081 138.006744 
L 76.456222 126.373411 
L 78.335364 136.575914 
" clip-path="url(#pc64660579e)" style="fill: none; stroke: #7fc6aa; stroke-opacity: 0.5; stroke-linecap: round"/>
   </g>
   <g id="patch_9">
    <path d="M 36 144 
L 36 86.4 
" style="fill: none; stroke: #262626; stroke-linejoin: miter; stroke-linecap: square"/>
   </g>
   <g id="patch_10">
    <path d="M 36 144 
L 93.6 144 
" style="fill: none; stroke: #262626; stroke-linejoin: miter; stroke-linecap: square"/>
   </g>
  </g>
  <g id="axes_4">
   <g id="patch_11">
    <path d="M 122.4 144 
L 180 144 
L 180 86.4 
L 122.4 86.4 
L 122.4 144 
z
" style="fill: none"/>
   </g>
   <g id="matplotlib.axis_7">
    <g id="xtick_7">
     <g id="line2d_52">
      <g>
       <use xlink:href="#m6ae069c54f" x="122.4" y="144" style="fill: #262626; stroke: #262626"/>
      </g>
     </g>
     <g id="text_24">
      <text style="font-size: 8px; font-family: 'Arial'; text-anchor: middle; fill: #262626" x="122.4" y="158.02625" transform="rotate(-0 122.4 158.02625)">0</text>
     </g>
    </g>
    <g id="xtick_8">
     <g id="line2d_53">
      <g>
       <use xlink:href="#m6ae069c54f" x="170.4" y="144" style="fill: #262626; stroke: #262626"/>
      </g>
     </g>
     <g id="text_25">
      <text style="font-size: 8px; font-family: 'Arial'; text-anchor: middle; fill: #262626" x="170.4" y="158.02625" transform="rotate(-0 170.4 158.02625)">10</text>
     </g>
    </g>
    <g id="text_26">
     <text style="font-size: 9px; font-family: 'Arial'; text-anchor: middle; fill: #262626" x="151.2" y="170.167969" transform="rotate(-0 151.2 170.167969)">distance (mm)</text>
    </g>
   </g>
   <g id="matplotlib.axis_8">
    <g id="ytick_13">
     <g id="line2d_54">
      <g>
       <use xlink:href="#m9371d215a4" x="122.4" y="144" style="fill: #262626; stroke: #262626"/>
      </g>
     </g>
     <g id="text_27">
      <text style="font-size: 8px; font-family: 'Arial'; text-anchor: end; fill: #262626" x="114.1" y="146.863125" transform="rotate(-0 114.1 146.863125)">0.0</text>
     </g>
    </g>
    <g id="ytick_14">
     <g id="line2d_55">
      <g>
       <use xlink:href="#m9371d215a4" x="122.4" y="124.8" style="fill: #262626; stroke: #262626"/>
      </g>
     </g>
     <g id="text_28">
      <text style="font-size: 8px; font-family: 'Arial'; text-anchor: end; fill: #262626" x="114.1" y="127.663125" transform="rotate(-0 114.1 127.663125)">0.1</text>
     </g>
    </g>
    <g id="ytick_15">
     <g id="line2d_56">
      <g>
       <use xlink:href="#m9371d215a4" x="122.4" y="105.6" style="fill: #262626; stroke: #262626"/>
      </g>
     </g>
     <g id="text_29">
      <text style="font-size: 8px; font-family: 'Arial'; text-anchor: end; fill: #262626" x="114.1" y="108.463125" transform="rotate(-0 114.1 108.463125)">0.2</text>
     </g>
    </g>
    <g id="ytick_16">
     <g id="line2d_57">
      <g>
       <use xlink:href="#m9371d215a4" x="122.4" y="86.4" style="fill: #262626; stroke: #262626"/>
      </g>
     </g>
     <g id="text_30">
      <text style="font-size: 8px; font-family: 'Arial'; text-anchor: end; fill: #262626" x="114.1" y="89.263125" transform="rotate(-0 114.1 89.263125)">0.3</text>
     </g>
    </g>
   </g>
   <g id="line2d_58">
    <path d="M 126.242404 96.13175 
L 128.836044 120.152546 
L 131.429684 133.26799 
L 134.023324 133.44181 
L 136.616963 133.312888 
L 139.210603 144 
L 141.804243 140.990397 
L 144.397882 143.3011 
L 146.991522 142.45228 
L 149.585162 140.948524 
L 152.178802 139.168204 
L 154.772441 136.002696 
L 157.366081 135.170567 
L 159.959721 134.678389 
L 162.553361 133.990131 
L 165.147 139.096874 
L 167.74064 137.748243 
L 170.33428 136.640752 
L 172.92792 135.047126 
L 175.521559 132.457734 
" clip-path="url(#pb40aa7ac92)" style="fill: none; stroke: #9d8ec9; stroke-opacity: 0.5; stroke-linecap: round"/>
   </g>
   <g id="line2d_59">
    <path d="M 126.242404 108.271751 
L 128.836044 111.770405 
L 131.429684 123.15667 
L 134.023324 126.212689 
L 136.616963 123.080277 
L 139.210603 133.245807 
L 141.804243 137.6009 
L 144.397882 137.936372 
L 146.991522 141.708937 
L 149.585162 144 
L 152.178802 142.444913 
L 154.772441 143.636091 
L 157.366081 141.916076 
L 159.959721 136.184311 
L 162.553361 136.367895 
L 165.147 139.044673 
L 167.74064 141.024614 
L 170.33428 140.251495 
L 172.92792 139.758315 
L 175.521559 140.387809 
" clip-path="url(#pb40aa7ac92)" style="fill: none; stroke: #9d8ec9; stroke-opacity: 0.5; stroke-linecap: round"/>
   </g>
   <g id="line2d_60">
    <path d="M 126.097778 109.311081 
L 128.402165 118.163776 
L 130.706552 129.017259 
L 133.010938 133.895803 
L 135.315325 134.370606 
L 137.619712 137.588393 
L 139.924099 132.375613 
L 142.228486 138.204248 
M 146.83726 144 
M 153.75042 138.128829 
L 156.054807 136.698381 
L 158.359194 135.432184 
L 160.663581 134.699056 
L 162.967968 135.618836 
L 165.272355 135.243748 
L 167.576742 132.112111 
L 169.881128 131.140075 
" clip-path="url(#pb40aa7ac92)" style="fill: none; stroke: #9d8ec9; stroke-opacity: 0.5; stroke-linecap: round"/>
   </g>
   <g id="line2d_61">
    <path d="M 126.149955 88.785563 
L 128.558696 107.17269 
L 130.967438 121.004639 
L 133.376179 128.102173 
L 135.78492 123.904037 
L 138.193661 129.981385 
L 140.602403 134.097721 
L 143.011144 139.938764 
L 145.419885 141.500002 
L 147.828627 143.585103 
L 150.237368 143.440926 
L 152.646109 143.098338 
L 155.05485 143.707223 
L 157.463592 143.938802 
L 159.872333 142.740851 
L 162.281074 144 
L 164.689816 143.719864 
L 167.098557 142.642648 
L 169.507298 140.843332 
L 171.916039 141.795939 
" clip-path="url(#pb40aa7ac92)" style="fill: none; stroke: #9d8ec9; stroke-opacity: 0.5; stroke-linecap: round"/>
   </g>
   <g id="line2d_62">
    <path d="M 126.271855 125.102146 
L 128.924396 125.950095 
L 131.576937 118.015859 
L 134.229478 120.076911 
L 136.882019 120.370545 
L 139.534559 125.910613 
L 142.1871 126.393706 
L 144.839641 132.131777 
L 147.492182 139.076626 
L 150.144723 143.88227 
L 152.797264 144 
L 155.449805 143.344672 
L 158.102346 141.193519 
L 160.754887 139.398654 
L 163.407428 139.125557 
L 166.059969 139.894101 
L 168.71251 140.281807 
L 171.36505 141.1124 
L 174.017591 142.047304 
L 176.670132 140.691437 
" clip-path="url(#pb40aa7ac92)" style="fill: none; stroke: #9d8ec9; stroke-opacity: 0.5; stroke-linecap: round"/>
   </g>
   <g id="line2d_63">
    <path d="M 125.971279 119.822991 
L 128.02267 110.977396 
L 130.07406 114.425166 
L 132.12545 117.069799 
L 134.17684 129.175571 
L 136.22823 130.399133 
L 138.27962 135.212348 
L 140.33101 137.243588 
L 142.3824 140.030054 
L 144.43379 139.730586 
L 146.48518 142.776724 
L 148.536571 144 
L 150.587961 143.767435 
L 152.639351 142.991702 
L 154.690741 141.95969 
L 156.742131 141.184562 
L 158.793521 140.472228 
L 160.844911 137.197507 
L 162.896301 136.679219 
L 164.947691 142.884301 
" clip-path="url(#pb40aa7ac92)" style="fill: none; stroke: #9d8ec9; stroke-opacity: 0.5; stroke-linecap: round"/>
   </g>
   <g id="line2d_64">
    <path d="M 125.844987 120.266808 
L 127.643792 118.687931 
L 129.442597 119.823403 
L 131.241402 129.235545 
L 133.040206 128.892531 
L 134.839011 136.734092 
L 136.637816 136.578894 
L 138.436621 139.743254 
L 140.235426 133.632574 
L 142.034231 136.421951 
L 143.833036 136.099024 
L 145.631841 136.494406 
L 147.430646 137.572628 
L 149.22945 139.32428 
L 151.028255 138.60662 
L 152.82706 138.008911 
L 154.625865 136.908254 
L 156.42467 139.069024 
L 158.223475 144 
L 160.02228 141.899869 
" clip-path="url(#pb40aa7ac92)" style="fill: none; stroke: #9d8ec9; stroke-opacity: 0.5; stroke-linecap: round"/>
   </g>
   <g id="line2d_65">
    <path d="M 126.097778 113.386999 
L 128.402165 119.398818 
L 130.706552 122.599661 
L 133.010938 127.684455 
L 135.315325 131.581647 
L 137.619712 128.950549 
L 139.924099 125.918229 
L 142.228486 129.770556 
L 144.532873 127.628866 
L 146.83726 139.204295 
L 149.141647 142.913902 
L 151.446033 141.992319 
L 153.75042 141.723531 
L 156.054807 141.920217 
L 158.359194 142.809214 
L 160.663581 140.094591 
L 162.967968 141.058115 
L 165.272355 142.629872 
L 167.576742 142.734164 
L 169.881128 144 
" clip-path="url(#pb40aa7ac92)" style="fill: none; stroke: #9d8ec9; stroke-opacity: 0.5; stroke-linecap: round"/>
   </g>
   <g id="line2d_66">
    <path d="M 125.993363 117.443463 
L 128.08892 125.068522 
L 130.184476 125.045107 
L 132.280033 127.448089 
L 134.37559 135.640309 
L 136.471147 138.757584 
L 138.566704 137.508482 
L 140.66226 137.796451 
L 142.757817 120.944229 
L 144.853374 124.196726 
L 146.948931 123.4987 
L 149.044488 140.901613 
L 151.140044 144 
L 153.235601 143.139697 
L 155.331158 142.297123 
L 157.426715 143.960243 
L 159.522272 141.144077 
L 161.617829 142.52214 
L 163.713385 138.273004 
L 165.808942 138.414442 
" clip-path="url(#pb40aa7ac92)" style="fill: none; stroke: #9d8ec9; stroke-opacity: 0.5; stroke-linecap: round"/>
   </g>
   <g id="line2d_67">
    <path d="M 125.910074 107.872085 
L 127.839054 100.017264 
L 129.768033 117.262203 
L 131.697013 115.853888 
L 133.625992 128.941245 
L 135.554972 134.846994 
L 137.483951 142.390526 
L 139.412931 141.678665 
L 141.34191 142.438349 
L 143.27089 142.423343 
L 145.199869 143.129212 
L 147.128849 138.499275 
L 149.057828 142.69255 
L 150.986808 142.31495 
L 152.915787 143.275727 
L 154.844767 141.132105 
L 156.773746 141.974254 
L 158.702726 144 
L 160.631705 136.620335 
L 162.560685 140.637031 
" clip-path="url(#pb40aa7ac92)" style="fill: none; stroke: #9d8ec9; stroke-opacity: 0.5; stroke-linecap: round"/>
   </g>
   <g id="line2d_68">
    <path d="M 126.149955 125.790061 
L 128.558696 130.776393 
L 130.967438 123.474194 
L 133.376179 124.891071 
L 135.78492 129.091647 
L 138.193661 130.414691 
L 140.602403 134.034271 
L 143.011144 125.871319 
L 145.419885 125.03348 
L 147.828627 140.091555 
L 150.237368 144 
L 152.646109 143.142451 
L 155.05485 138.20841 
L 157.463592 139.566896 
L 159.872333 141.558887 
L 162.281074 139.76638 
L 164.689816 141.920951 
L 167.098557 134.534825 
L 169.507298 137.750593 
L 171.916039 138.081925 
" clip-path="url(#pb40aa7ac92)" style="fill: none; stroke: #9d8ec9; stroke-opacity: 0.5; stroke-linecap: round"/>
   </g>
   <g id="patch_12">
    <path d="M 122.4 144 
L 122.4 86.4 
" style="fill: none; stroke: #262626; stroke-linejoin: miter; stroke-linecap: square"/>
   </g>
   <g id="patch_13">
    <path d="M 122.4 144 
L 180 144 
" style="fill: none; stroke: #262626; stroke-linejoin: miter; stroke-linecap: square"/>
   </g>
  </g>
 </g>
 <defs>
  <clipPath id="p177e77d397">
   <rect x="36" y="0" width="57.6" height="57.6"/>
  </clipPath>
  <clipPath id="p5cd673f91a">
   <rect x="122.4" y="0" width="57.6" height="57.6"/>
  </clipPath>
  <clipPath id="pc64660579e">
   <rect x="36" y="86.4" width="57.6" height="57.6"/>
  </clipPath>
  <clipPath id="pb40aa7ac92">
   <rect x="122.4" y="86.4" width="57.6" height="57.6"/>
  </clipPath>
 </defs>
</svg>
