<?xml version="1.0" encoding="utf-8" standalone="no"?>
<!DOCTYPE svg PUBLIC "-//W3C//DTD SVG 1.1//EN"
  "http://www.w3.org/Graphics/SVG/1.1/DTD/svg11.dtd">
<svg xmlns:xlink="http://www.w3.org/1999/xlink" width="180pt" height="180pt" viewBox="0 0 180 180" xmlns="http://www.w3.org/2000/svg" version="1.1">
 <metadata>
  <rdf:RDF xmlns:dc="http://purl.org/dc/elements/1.1/" xmlns:cc="http://creativecommons.org/ns#" xmlns:rdf="http://www.w3.org/1999/02/22-rdf-syntax-ns#">
   <cc:Work>
    <dc:type rdf:resource="http://purl.org/dc/dcmitype/StillImage"/>
    <dc:date>2025-10-22T12:48:35.776230</dc:date>
    <dc:format>image/svg+xml</dc:format>
    <dc:creator>
     <cc:Agent>
      <dc:title>Matplotlib v3.10.6, https://matplotlib.org/</dc:title>
     </cc:Agent>
    </dc:creator>
   </cc:Work>
  </rdf:RDF>
 </metadata>
 <defs>
  <style type="text/css">*{stroke-linejoin: round; stroke-linecap: butt}</style>
 </defs>
 <g id="figure_1">
  <g id="patch_1">
   <path d="M 0 180 
L 180 180 
L 180 0 
L 0 0 
L 0 180 
z
" style="fill: none"/>
  </g>
  <g id="axes_1">
   <g id="patch_2">
    <path d="M 22.5 67.8 
L 78.3 67.8 
L 78.3 21.6 
L 22.5 21.6 
L 22.5 67.8 
z
" style="fill: none"/>
   </g>
   <g id="matplotlib.axis_1">
    <g id="xtick_1">
     <g id="line2d_1">
      <defs>
       <path id="m4a586ba118" d="M 0 0 
L 0 4.8 
" style="stroke: #262626"/>
      </defs>
      <g>
       <use xlink:href="#m4a586ba118" x="22.5" y="67.8" style="fill: #262626; stroke: #262626"/>
      </g>
     </g>
     <g id="text_1">
      <text style="font-size: 8px; font-family: 'Arial'; text-anchor: middle; fill: #262626" x="22.5" y="81.82625" transform="rotate(-0 22.5 81.82625)">0</text>
     </g>
    </g>
    <g id="xtick_2">
     <g id="line2d_2">
      <g>
       <use xlink:href="#m4a586ba118" x="69" y="67.8" style="fill: #262626; stroke: #262626"/>
      </g>
     </g>
     <g id="text_2">
      <text style="font-size: 8px; font-family: 'Arial'; text-anchor: middle; fill: #262626" x="69" y="81.82625" transform="rotate(-0 69 81.82625)">10</text>
     </g>
    </g>
    <g id="text_3">
     <text style="font-size: 9px; font-family: 'Arial'; text-anchor: middle; fill: #262626" x="50.4" y="93.967969" transform="rotate(-0 50.4 93.967969)">distance (mm)</text>
    </g>
   </g>
   <g id="matplotlib.axis_2">
    <g id="ytick_1">
     <g id="line2d_3">
      <defs>
       <path id="me43333de9d" d="M 0 0 
L -4.8 0 
" style="stroke: #262626"/>
      </defs>
      <g>
       <use xlink:href="#me43333de9d" x="22.5" y="67.8" style="fill: #262626; stroke: #262626"/>
      </g>
     </g>
     <g id="text_4">
      <text style="font-size: 8px; font-family: 'Arial'; text-anchor: end; fill: #262626" x="14.2" y="70.663125" transform="rotate(-0 14.2 70.663125)">0.0</text>
     </g>
    </g>
    <g id="ytick_2">
     <g id="line2d_4">
      <g>
       <use xlink:href="#me43333de9d" x="22.5" y="44.7" style="fill: #262626; stroke: #262626"/>
      </g>
     </g>
     <g id="text_5">
      <text style="font-size: 8px; font-family: 'Arial'; text-anchor: end; fill: #262626" x="14.2" y="47.563125" transform="rotate(-0 14.2 47.563125)">0.1</text>
     </g>
    </g>
    <g id="ytick_3">
     <g id="line2d_5">
      <g>
       <use xlink:href="#me43333de9d" x="22.5" y="21.6" style="fill: #262626; stroke: #262626"/>
      </g>
     </g>
     <g id="text_6">
      <text style="font-size: 8px; font-family: 'Arial'; text-anchor: end; fill: #262626" x="14.2" y="24.463125" transform="rotate(-0 14.2 24.463125)">0.2</text>
     </g>
    </g>
    <g id="text_7">
     <text style="font-size: 9px; font-family: 'Arial'; fill: #262626" transform="translate(-12.333406 56.201719) rotate(-90)">norm.</text>
     <text style="font-size: 9px; font-family: 'Arial'; fill: #262626" transform="translate(-2.814219 68.209687) rotate(-90)">connectivity</text>
    </g>
   </g>
   <g id="line2d_6">
    <path d="M 26.082222 62.531399 
L 28.314597 50.725172 
L 30.546972 51.774347 
L 32.779347 50.368401 
L 35.011721 60.470964 
L 37.244096 47.627632 
L 39.476471 50.957528 
L 41.708846 52.025725 
L 43.941221 54.995361 
L 46.173595 58.414557 
L 48.40597 55.984475 
L 50.638345 52.985618 
L 52.87072 54.876887 
L 55.103094 53.077677 
L 57.335469 49.738691 
L 59.567844 52.51954 
M 66.264968 62.526025 
" clip-path="url(#pfc2e7a5d15)" style="fill: none; stroke: #fca636; stroke-width: 1.2; stroke-linecap: round"/>
   </g>
   <g id="line2d_7">
    <path d="M 28.314597 49.148432 
L 30.546972 53.561197 
L 32.779347 49.894759 
L 35.011721 55.420974 
L 37.244096 54.842501 
L 39.476471 55.325032 
L 41.708846 45.617399 
L 43.941221 50.851359 
L 46.173595 55.683926 
L 48.40597 55.109656 
L 50.638345 59.138399 
L 52.87072 51.754089 
L 55.103094 56.883471 
L 57.335469 51.633425 
L 59.567844 54.395554 
L 61.800219 54.539827 
" clip-path="url(#pfc2e7a5d15)" style="fill: none; stroke: #e16462; stroke-width: 1.2; stroke-linecap: round"/>
   </g>
   <g id="line2d_8">
    <path d="M 26.082222 63.516036 
L 28.314597 41.805815 
L 30.546972 42.195129 
L 32.779347 48.763025 
L 35.011721 59.787261 
L 37.244096 50.06837 
L 39.476471 53.96358 
L 41.708846 56.602153 
L 43.941221 59.873226 
L 46.173595 63.455577 
L 48.40597 64.292991 
L 50.638345 61.010629 
L 52.87072 60.080917 
L 55.103094 57.824898 
L 57.335469 57.227309 
L 59.567844 57.755272 
L 61.800219 55.630189 
L 64.032594 55.96982 
L 66.264968 58.181107 
L 68.497343 56.996696 
" clip-path="url(#pfc2e7a5d15)" style="fill: none; stroke: #b12a90; stroke-width: 1.2; stroke-linecap: round"/>
   </g>
   <g id="patch_3">
    <path d="M 22.5 67.8 
L 22.5 21.6 
" style="fill: none; stroke: #262626; stroke-linejoin: miter; stroke-linecap: square"/>
   </g>
   <g id="patch_4">
    <path d="M 22.5 67.8 
L 78.3 67.8 
" style="fill: none; stroke: #262626; stroke-linejoin: miter; stroke-linecap: square"/>
   </g>
  </g>
  <g id="axes_2">
   <g id="patch_5">
    <path d="M 73.5 137.1 
C 73.5 134.066536 72.902474 131.062568 71.741617 128.260013 
C 70.580761 125.457457 68.87915 122.910816 66.734167 120.765833 
C 64.589184 118.62085 62.042543 116.919239 59.239987 115.758383 
C 56.437432 114.597526 53.433464 114 50.4 114 
C 47.366536 114 44.362568 114.597526 41.560013 115.758383 
C 38.757457 116.919239 36.210816 118.62085 34.065833 120.765833 
C 31.92085 122.910816 30.219239 125.457457 29.058383 128.260013 
C 27.897526 131.062568 27.3 134.066536 27.3 137.1 
C 27.3 140.133464 27.897526 143.137432 29.058383 145.939987 
C 30.219239 148.742543 31.92085 151.289184 34.065833 153.434167 
C 36.210816 155.57915 38.757457 157.280761 41.560013 158.441617 
C 44.362568 159.602474 47.366536 160.2 50.4 160.2 
C 53.433464 160.2 56.437432 159.602474 59.239987 158.441617 
C 62.042543 157.280761 64.589184 155.57915 66.734167 153.434167 
C 68.87915 151.289184 70.580761 148.742543 71.741617 145.939987 
C 72.902474 143.137432 73.5 140.133464 73.5 137.1 
M 50.4 137.1 
C 50.4 137.1 50.4 137.1 50.4 137.1 
C 50.4 137.1 50.4 137.1 50.4 137.1 
C 50.4 137.1 50.4 137.1 50.4 137.1 
C 50.4 137.1 50.4 137.1 50.4 137.1 
C 50.4 137.1 50.4 137.1 50.4 137.1 
C 50.4 137.1 50.4 137.1 50.4 137.1 
C 50.4 137.1 50.4 137.1 50.4 137.1 
C 50.4 137.1 50.4 137.1 50.4 137.1 
C 50.4 137.1 50.4 137.1 50.4 137.1 
C 50.4 137.1 50.4 137.1 50.4 137.1 
C 50.4 137.1 50.4 137.1 50.4 137.1 
C 50.4 137.1 50.4 137.1 50.4 137.1 
C 50.4 137.1 50.4 137.1 50.4 137.1 
C 50.4 137.1 50.4 137.1 50.4 137.1 
C 50.4 137.1 50.4 137.1 50.4 137.1 
C 50.4 137.1 50.4 137.1 50.4 137.1 
L 50.4 137.1 
z
" style="fill: none"/>
   </g>
   <g id="matplotlib.axis_3">
    <g id="xtick_3">
     <g id="line2d_9">
      <path d="M 50.4 137.1 
L 73.5 137.1 
" clip-path="url(#pb9089272bc)" style="fill: none; stroke: #cccccc; stroke-width: 0.8; stroke-linecap: round"/>
     </g>
     <g id="text_8">
      <text style="font-size: 8px; font-family: 'Arial'; text-anchor: middle; fill: #262626" x="82.3" y="139.168125" transform="rotate(-0 82.3 139.168125)">0°</text>
     </g>
    </g>
    <g id="xtick_4">
     <g id="line2d_10">
      <path d="M 50.4 137.1 
L 50.4 114 
" clip-path="url(#pb9089272bc)" style="fill: none; stroke: #cccccc; stroke-width: 0.8; stroke-linecap: round"/>
     </g>
     <g id="text_9">
      <text style="font-size: 8px; font-family: 'Arial'; text-anchor: middle; fill: #262626" x="50.4" y="107.268125" transform="rotate(-0 50.4 107.268125)">90°</text>
     </g>
    </g>
    <g id="xtick_5">
     <g id="line2d_11">
      <path d="M 50.4 137.1 
L 27.3 137.1 
" clip-path="url(#pb9089272bc)" style="fill: none; stroke: #cccccc; stroke-width: 0.8; stroke-linecap: round"/>
     </g>
     <g id="text_10">
      <text style="font-size: 8px; font-family: 'Arial'; text-anchor: middle; fill: #262626" x="18.5" y="139.168125" transform="rotate(-0 18.5 139.168125)">180°</text>
     </g>
    </g>
    <g id="xtick_6">
     <g id="line2d_12">
      <path d="M 50.4 137.1 
L 50.4 160.2 
" clip-path="url(#pb9089272bc)" style="fill: none; stroke: #cccccc; stroke-width: 0.8; stroke-linecap: round"/>
     </g>
     <g id="text_11">
      <text style="font-size: 8px; font-family: 'Arial'; text-anchor: middle; fill: #262626" x="50.4" y="171.068125" transform="rotate(-0 50.4 171.068125)">270°</text>
     </g>
    </g>
   </g>
   <g id="matplotlib.axis_4">
    <g id="ytick_4">
     <g id="line2d_13">
      <path d="M 61.95 137.1 
C 61.95 135.583268 61.651237 134.081284 61.070809 132.680006 
C 60.49038 131.278729 59.639575 130.005408 58.567083 128.932917 
C 57.494592 127.860425 56.221271 127.00962 54.819994 126.429191 
C 53.418716 125.848763 51.916732 125.55 50.4 125.55 
C 48.883268 125.55 47.381284 125.848763 45.980006 126.429191 
C 44.578729 127.00962 43.305408 127.860425 42.232917 128.932917 
C 41.160425 130.005408 40.30962 131.278729 39.729191 132.680006 
C 39.148763 134.081284 38.85 135.583268 38.85 137.1 
C 38.85 138.616732 39.148763 140.118716 39.729191 141.519994 
C 40.30962 142.921271 41.160425 144.194592 42.232917 145.267083 
C 43.305408 146.339575 44.578729 147.19038 45.980006 147.770809 
C 47.381284 148.351237 48.883268 148.65 50.4 148.65 
C 51.916732 148.65 53.418716 148.351237 54.819994 147.770809 
C 56.221271 147.19038 57.494592 146.339575 58.567083 145.267083 
C 59.639575 144.194592 60.49038 142.921271 61.070809 141.519994 
C 61.651237 140.118716 61.95 138.616732 61.95 137.1 
" clip-path="url(#pb9089272bc)" style="fill: none; stroke: #cccccc; stroke-width: 0.8; stroke-linecap: round"/>
     </g>
     <g id="text_12">
      <text style="font-size: 8px; font-family: 'Arial'; text-anchor: start; fill: #262626" x="61.070809" y="131.090006" transform="rotate(-0 61.070809 131.090006)">0.1</text>
     </g>
    </g>
    <g id="ytick_5">
     <g id="line2d_14">
      <path d="M 73.5 137.1 
C 73.5 134.066536 72.902474 131.062568 71.741617 128.260013 
C 70.580761 125.457457 68.87915 122.910816 66.734167 120.765833 
C 64.589184 118.62085 62.042543 116.919239 59.239987 115.758383 
C 56.437432 114.597526 53.433464 114 50.4 114 
C 47.366536 114 44.362568 114.597526 41.560013 115.758383 
C 38.757457 116.919239 36.210816 118.62085 34.065833 120.765833 
C 31.92085 122.910816 30.219239 125.457457 29.058383 128.260013 
C 27.897526 131.062568 27.3 134.066536 27.3 137.1 
C 27.3 140.133464 27.897526 143.137432 29.058383 145.939987 
C 30.219239 148.742543 31.92085 151.289184 34.065833 153.434167 
C 36.210816 155.57915 38.757457 157.280761 41.560013 158.441617 
C 44.362568 159.602474 47.366536 160.2 50.4 160.2 
C 53.433464 160.2 56.437432 159.602474 59.239987 158.441617 
C 62.042543 157.280761 64.589184 155.57915 66.734167 153.434167 
C 68.87915 151.289184 70.580761 148.742543 71.741617 145.939987 
C 72.902474 143.137432 73.5 140.133464 73.5 137.1 
" clip-path="url(#pb9089272bc)" style="fill: none; stroke: #cccccc; stroke-width: 0.8; stroke-linecap: round"/>
     </g>
     <g id="text_13">
      <text style="font-size: 8px; font-family: 'Arial'; text-anchor: start; fill: #262626" x="71.741617" y="126.670013" transform="rotate(-0 71.741617 126.670013)">0.2</text>
     </g>
    </g>
   </g>
   <g id="FillBetweenPolyCollection_1">
    <path d="M 57.535972 135.98717 
L 57.535972 135.98717 
L 56.473828 134.05964 
L 57.636073 130.034069 
L 55.730482 127.055463 
L 52.453674 125.716758 
L 52.453674 125.716758 
L 52.453674 125.716758 
L 55.730482 127.055463 
L 57.636073 130.034069 
L 56.473828 134.05964 
L 57.535972 135.98717 
z
" clip-path="url(#pb9089272bc)" style="fill: #fca636; fill-opacity: 0.5; stroke: #ffffff; stroke-opacity: 0.5; stroke-width: 0.8"/>
    <path d="M 43.836073 138.446186 
L 43.836073 138.446186 
L 45.005581 140.129357 
L 48.578942 139.055905 
L 48.120505 141.938057 
L 49.435012 144.429291 
L 51.808549 144.907397 
L 54.716379 145.233603 
L 55.692606 142.268161 
L 57.435346 140.621665 
L 58.034285 138.29054 
L 57.535972 135.98717 
L 57.535972 135.98717 
L 57.535972 135.98717 
L 58.034285 138.29054 
L 57.435346 140.621665 
L 55.692606 142.268161 
L 54.716379 145.233603 
L 51.808549 144.907397 
L 49.435012 144.429291 
L 48.120505 141.938057 
L 48.578942 139.055905 
L 45.005581 140.129357 
L 43.836073 138.446186 
z
" clip-path="url(#pb9089272bc)" style="fill: #fca636; fill-opacity: 0.5; stroke: #ffffff; stroke-opacity: 0.5; stroke-width: 0.8"/>
   </g>
   <g id="FillBetweenPolyCollection_2">
    <path d="M 55.749655 131.876132 
L 55.749655 131.876132 
L 55.891792 126.751497 
L 52.336267 126.367531 
L 52.336267 126.367531 
L 52.336267 126.367531 
L 55.891792 126.751497 
L 55.749655 131.876132 
z
" clip-path="url(#pb9089272bc)" style="fill: #e16462; fill-opacity: 0.5; stroke: #ffffff; stroke-opacity: 0.5; stroke-width: 0.8"/>
    <path d="M 41.416648 132.055197 
L 41.416648 132.055197 
L 45.621396 136.119963 
L 41.003521 139.02711 
L 43.439984 141.008553 
L 45.067403 142.827469 
L 46.045785 146.341495 
L 49.119751 146.823761 
L 52.551932 149.027871 
L 52.993809 141.987666 
L 55.510824 142.090653 
L 55.510824 142.090653 
L 55.510824 142.090653 
L 52.993809 141.987666 
L 52.551932 149.027871 
L 49.119751 146.823761 
L 46.045785 146.341495 
L 45.067403 142.827469 
L 43.439984 141.008553 
L 41.003521 139.02711 
L 45.621396 136.119963 
L 41.416648 132.055197 
z
" clip-path="url(#pb9089272bc)" style="fill: #e16462; fill-opacity: 0.5; stroke: #ffffff; stroke-opacity: 0.5; stroke-width: 0.8"/>
   </g>
   <g id="FillBetweenPolyCollection_3">
    <defs>
     <path id="mb568deaf02" d="M 58.276956 -44.128384 
L 58.276956 -44.128384 
L 58.1524 -46.780599 
L 55.427467 -47.809256 
L 53.076489 -47.943464 
L 51.803782 -50.680976 
L 49.505011 -49.697635 
L 46.710949 -50.729734 
L 46.536979 -47.049073 
L 47.2076 -44.692764 
L 47.344155 -43.526719 
L 46.416889 -42.083109 
L 46.93067 -40.95172 
L 47.481309 -39.765183 
L 48.753139 -39.40466 
L 50.067558 -40.37503 
L 50.786423 -40.758106 
L 51.569506 -40.696231 
L 56.631893 -36.814638 
L 56.907925 -39.642345 
L 61.126222 -41.227283 
L 58.276956 -44.128384 
L 58.276956 -44.128384 
L 58.276956 -44.128384 
L 61.126222 -41.227283 
L 56.907925 -39.642345 
L 56.631893 -36.814638 
L 51.569506 -40.696231 
L 50.786423 -40.758106 
L 50.067558 -40.37503 
L 48.753139 -39.40466 
L 47.481309 -39.765183 
L 46.93067 -40.95172 
L 46.416889 -42.083109 
L 47.344155 -43.526719 
L 47.2076 -44.692764 
L 46.536979 -47.049073 
L 46.710949 -50.729734 
L 49.505011 -49.697635 
L 51.803782 -50.680976 
L 53.076489 -47.943464 
L 55.427467 -47.809256 
L 58.1524 -46.780599 
L 58.276956 -44.128384 
z
" style="stroke: #ffffff; stroke-opacity: 0.5; stroke-width: 0.8"/>
    </defs>
    <g clip-path="url(#pb9089272bc)">
     <use xlink:href="#mb568deaf02" x="0" y="180" style="fill: #b12a90; fill-opacity: 0.5; stroke: #ffffff; stroke-opacity: 0.5; stroke-width: 0.8"/>
    </g>
   </g>
   <g id="line2d_15">
    <path d="M 57.535972 135.98717 
L 56.473828 134.05964 
L 57.636073 130.034069 
L 55.730482 127.055463 
L 52.453674 125.716758 
M 43.836073 138.446186 
L 45.005581 140.129357 
L 48.578942 139.055905 
L 48.120505 141.938057 
L 49.435012 144.429291 
L 51.808549 144.907397 
L 54.716379 145.233603 
L 55.692606 142.268161 
L 57.435346 140.621665 
L 58.034285 138.29054 
L 57.535972 135.98717 
" clip-path="url(#pb9089272bc)" style="fill: none; stroke: #fca636; stroke-width: 1.2; stroke-linecap: round"/>
   </g>
   <g id="line2d_16">
    <path d="M 55.749655 131.876132 
L 55.891792 126.751497 
L 52.336267 126.367531 
M 41.416648 132.055197 
L 45.621396 136.119963 
L 41.003521 139.02711 
L 43.439984 141.008553 
L 45.067403 142.827469 
L 46.045785 146.341495 
L 49.119751 146.823761 
L 52.551932 149.027871 
L 52.993809 141.987666 
L 55.510824 142.090653 
" clip-path="url(#pb9089272bc)" style="fill: none; stroke: #e16462; stroke-width: 1.2; stroke-linecap: round"/>
   </g>
   <g id="line2d_17">
    <path d="M 58.276956 135.871616 
L 58.1524 133.219401 
L 55.427467 132.190744 
L 53.076489 132.056536 
L 51.803782 129.319024 
L 49.505011 130.302365 
L 46.710949 129.270266 
L 46.536979 132.950927 
L 47.2076 135.307236 
L 47.344155 136.473281 
L 46.416889 137.916891 
L 46.93067 139.04828 
L 47.481309 140.234817 
L 48.753139 140.59534 
L 50.067558 139.62497 
L 50.786423 139.241894 
L 51.569506 139.303769 
L 56.631893 143.185362 
L 56.907925 140.357655 
L 61.126222 138.772717 
L 58.276956 135.871616 
" clip-path="url(#pb9089272bc)" style="fill: none; stroke: #b12a90; stroke-width: 1.2; stroke-linecap: round"/>
   </g>
   <g id="patch_6">
    <path d="M 73.5 137.1 
C 73.5 134.066536 72.902474 131.062568 71.741617 128.260013 
C 70.580761 125.457457 68.87915 122.910816 66.734167 120.765833 
C 64.589184 118.62085 62.042543 116.919239 59.239987 115.758383 
C 56.437432 114.597526 53.433464 114 50.4 114 
C 47.366536 114 44.362568 114.597526 41.560013 115.758383 
C 38.757457 116.919239 36.210816 118.62085 34.065833 120.765833 
C 31.92085 122.910816 30.219239 125.457457 29.058383 128.260013 
C 27.897526 131.062568 27.3 134.066536 27.3 137.1 
C 27.3 140.133464 27.897526 143.137432 29.058383 145.939987 
C 30.219239 148.742543 31.92085 151.289184 34.065833 153.434167 
C 36.210816 155.57915 38.757457 157.280761 41.560013 158.441617 
C 44.362568 159.602474 47.366536 160.2 50.4 160.2 
C 53.433464 160.2 56.437432 159.602474 59.239987 158.441617 
C 62.042543 157.280761 64.589184 155.57915 66.734167 153.434167 
C 68.87915 151.289184 70.580761 148.742543 71.741617 145.939987 
C 72.902474 143.137432 73.5 140.133464 73.5 137.1 
" style="fill: none; stroke: #262626; stroke-linejoin: miter; stroke-linecap: square"/>
   </g>
  </g>
  <g id="axes_3">
   <g id="patch_7">
    <path d="M 106.2 67.8 
L 162 67.8 
L 162 21.6 
L 106.2 21.6 
L 106.2 67.8 
z
" style="fill: none"/>
   </g>
   <g id="matplotlib.axis_5">
    <g id="xtick_7">
     <g id="line2d_18">
      <g>
       <use xlink:href="#m4a586ba118" x="106.2" y="67.8" style="fill: #262626; stroke: #262626"/>
      </g>
     </g>
     <g id="text_14">
      <text style="font-size: 8px; font-family: 'Arial'; text-anchor: middle; fill: #262626" x="106.2" y="81.82625" transform="rotate(-0 106.2 81.82625)">0</text>
     </g>
    </g>
    <g id="xtick_8">
     <g id="line2d_19">
      <g>
       <use xlink:href="#m4a586ba118" x="152.7" y="67.8" style="fill: #262626; stroke: #262626"/>
      </g>
     </g>
     <g id="text_15">
      <text style="font-size: 8px; font-family: 'Arial'; text-anchor: middle; fill: #262626" x="152.7" y="81.82625" transform="rotate(-0 152.7 81.82625)">10</text>
     </g>
    </g>
    <g id="text_16">
     <text style="font-size: 9px; font-family: 'Arial'; text-anchor: middle; fill: #262626" x="134.1" y="93.967969" transform="rotate(-0 134.1 93.967969)">distance (mm)</text>
    </g>
   </g>
   <g id="matplotlib.axis_6">
    <g id="ytick_6">
     <g id="line2d_20">
      <g>
       <use xlink:href="#me43333de9d" x="106.2" y="67.8" style="fill: #262626; stroke: #262626"/>
      </g>
     </g>
     <g id="text_17">
      <text style="font-size: 8px; font-family: 'Arial'; text-anchor: end; fill: #262626" x="97.9" y="70.663125" transform="rotate(-0 97.9 70.663125)">0.0</text>
     </g>
    </g>
    <g id="ytick_7">
     <g id="line2d_21">
      <g>
       <use xlink:href="#me43333de9d" x="106.2" y="44.7" style="fill: #262626; stroke: #262626"/>
      </g>
     </g>
     <g id="text_18">
      <text style="font-size: 8px; font-family: 'Arial'; text-anchor: end; fill: #262626" x="97.9" y="47.563125" transform="rotate(-0 97.9 47.563125)">0.1</text>
     </g>
    </g>
    <g id="ytick_8">
     <g id="line2d_22">
      <g>
       <use xlink:href="#me43333de9d" x="106.2" y="21.6" style="fill: #262626; stroke: #262626"/>
      </g>
     </g>
     <g id="text_19">
      <text style="font-size: 8px; font-family: 'Arial'; text-anchor: end; fill: #262626" x="97.9" y="24.463125" transform="rotate(-0 97.9 24.463125)">0.2</text>
     </g>
    </g>
   </g>
   <g id="line2d_23">
    <path d="M 109.782222 41.825092 
L 112.014597 37.842604 
L 114.246972 43.105815 
L 116.479347 50.722275 
L 118.711721 47.370851 
L 120.944096 55.598756 
L 123.176471 55.653567 
L 125.408846 49.904005 
L 127.641221 53.369515 
L 129.873595 53.16541 
L 132.10597 58.998812 
L 134.338345 59.559527 
L 136.57072 60.822513 
L 138.803094 61.823959 
L 141.035469 61.838663 
L 143.267844 64.683372 
L 145.500219 66.911288 
L 147.732594 66.203978 
" clip-path="url(#pcdf296fe06)" style="fill: none; stroke: #fca636; stroke-width: 1.2; stroke-linecap: round"/>
   </g>
   <g id="line2d_24">
    <path d="M 109.782222 49.080622 
L 112.014597 42.978021 
L 114.246972 48.436485 
L 116.479347 52.549117 
L 118.711721 47.601235 
L 120.944096 53.753225 
L 123.176471 53.460884 
L 125.408846 56.307907 
L 127.641221 61.53972 
L 129.873595 55.311553 
L 132.10597 59.866343 
L 134.338345 60.189094 
L 136.57072 59.336395 
L 138.803094 59.880303 
L 141.035469 58.19701 
L 143.267844 59.145462 
L 145.500219 60.817306 
L 147.732594 62.439464 
L 149.964968 60.768145 
L 152.197343 63.341708 
" clip-path="url(#pcdf296fe06)" style="fill: none; stroke: #e16462; stroke-width: 1.2; stroke-linecap: round"/>
   </g>
   <g id="line2d_25">
    <path d="M 109.782222 39.450382 
L 112.014597 14.412196 
L 114.246972 45.18744 
L 116.479347 55.804793 
L 118.711721 57.150841 
L 120.944096 58.506746 
L 123.176471 58.515366 
L 125.408846 60.921064 
L 127.641221 63.155628 
L 129.873595 62.047339 
L 132.10597 61.774708 
L 134.338345 61.912536 
L 136.57072 62.729438 
L 138.803094 61.106531 
L 141.035469 58.661709 
L 143.267844 61.199169 
L 145.500219 59.72841 
L 147.732594 58.636134 
L 149.964968 61.422873 
L 152.197343 62.676695 
" clip-path="url(#pcdf296fe06)" style="fill: none; stroke: #b12a90; stroke-width: 1.2; stroke-linecap: round"/>
   </g>
   <g id="patch_8">
    <path d="M 106.2 67.8 
L 106.2 21.6 
" style="fill: none; stroke: #262626; stroke-linejoin: miter; stroke-linecap: square"/>
   </g>
   <g id="patch_9">
    <path d="M 106.2 67.8 
L 162 67.8 
" style="fill: none; stroke: #262626; stroke-linejoin: miter; stroke-linecap: square"/>
   </g>
  </g>
  <g id="axes_4">
   <g id="patch_10">
    <path d="M 157.2 137.1 
C 157.2 134.066536 156.602474 131.062568 155.441617 128.260013 
C 154.280761 125.457457 152.57915 122.910816 150.434167 120.765833 
C 148.289184 118.62085 145.742543 116.919239 142.939987 115.758383 
C 140.137432 114.597526 137.133464 114 134.1 114 
C 131.066536 114 128.062568 114.597526 125.260013 115.758383 
C 122.457457 116.919239 119.910816 118.62085 117.765833 120.765833 
C 115.62085 122.910816 113.919239 125.457457 112.758383 128.260013 
C 111.597526 131.062568 111 134.066536 111 137.1 
C 111 140.133464 111.597526 143.137432 112.758383 145.939987 
C 113.919239 148.742543 115.62085 151.289184 117.765833 153.434167 
C 119.910816 155.57915 122.457457 157.280761 125.260013 158.441617 
C 128.062568 159.602474 131.066536 160.2 134.1 160.2 
C 137.133464 160.2 140.137432 159.602474 142.939987 158.441617 
C 145.742543 157.280761 148.289184 155.57915 150.434167 153.434167 
C 152.57915 151.289184 154.280761 148.742543 155.441617 145.939987 
C 156.602474 143.137432 157.2 140.133464 157.2 137.1 
M 134.1 137.1 
C 134.1 137.1 134.1 137.1 134.1 137.1 
C 134.1 137.1 134.1 137.1 134.1 137.1 
C 134.1 137.1 134.1 137.1 134.1 137.1 
C 134.1 137.1 134.1 137.1 134.1 137.1 
C 134.1 137.1 134.1 137.1 134.1 137.1 
C 134.1 137.1 134.1 137.1 134.1 137.1 
C 134.1 137.1 134.1 137.1 134.1 137.1 
C 134.1 137.1 134.1 137.1 134.1 137.1 
C 134.1 137.1 134.1 137.1 134.1 137.1 
C 134.1 137.1 134.1 137.1 134.1 137.1 
C 134.1 137.1 134.1 137.1 134.1 137.1 
C 134.1 137.1 134.1 137.1 134.1 137.1 
C 134.1 137.1 134.1 137.1 134.1 137.1 
C 134.1 137.1 134.1 137.1 134.1 137.1 
C 134.1 137.1 134.1 137.1 134.1 137.1 
C 134.1 137.1 134.1 137.1 134.1 137.1 
L 134.1 137.1 
z
" style="fill: none"/>
   </g>
   <g id="matplotlib.axis_7">
    <g id="xtick_9">
     <g id="line2d_26">
      <path d="M 134.1 137.1 
L 157.2 137.1 
" clip-path="url(#pc45c39afde)" style="fill: none; stroke: #cccccc; stroke-width: 0.8; stroke-linecap: round"/>
     </g>
     <g id="text_20">
      <text style="font-size: 8px; font-family: 'Arial'; text-anchor: middle; fill: #262626" x="166" y="139.168125" transform="rotate(-0 166 139.168125)">0°</text>
     </g>
    </g>
    <g id="xtick_10">
     <g id="line2d_27">
      <path d="M 134.1 137.1 
L 134.1 114 
" clip-path="url(#pc45c39afde)" style="fill: none; stroke: #cccccc; stroke-width: 0.8; stroke-linecap: round"/>
     </g>
     <g id="text_21">
      <text style="font-size: 8px; font-family: 'Arial'; text-anchor: middle; fill: #262626" x="134.1" y="107.268125" transform="rotate(-0 134.1 107.268125)">90°</text>
     </g>
    </g>
    <g id="xtick_11">
     <g id="line2d_28">
      <path d="M 134.1 137.1 
L 111 137.1 
" clip-path="url(#pc45c39afde)" style="fill: none; stroke: #cccccc; stroke-width: 0.8; stroke-linecap: round"/>
     </g>
     <g id="text_22">
      <text style="font-size: 8px; font-family: 'Arial'; text-anchor: middle; fill: #262626" x="102.2" y="139.168125" transform="rotate(-0 102.2 139.168125)">180°</text>
     </g>
    </g>
    <g id="xtick_12">
     <g id="line2d_29">
      <path d="M 134.1 137.1 
L 134.1 160.2 
" clip-path="url(#pc45c39afde)" style="fill: none; stroke: #cccccc; stroke-width: 0.8; stroke-linecap: round"/>
     </g>
     <g id="text_23">
      <text style="font-size: 8px; font-family: 'Arial'; text-anchor: middle; fill: #262626" x="134.1" y="171.068125" transform="rotate(-0 134.1 171.068125)">270°</text>
     </g>
    </g>
   </g>
   <g id="matplotlib.axis_8">
    <g id="ytick_9">
     <g id="line2d_30">
      <path d="M 145.65 137.1 
C 145.65 135.583268 145.351237 134.081284 144.770809 132.680006 
C 144.19038 131.278729 143.339575 130.005408 142.267083 128.932917 
C 141.194592 127.860425 139.921271 127.00962 138.519994 126.429191 
C 137.118716 125.848763 135.616732 125.55 134.1 125.55 
C 132.583268 125.55 131.081284 125.848763 129.680006 126.429191 
C 128.278729 127.00962 127.005408 127.860425 125.932917 128.932917 
C 124.860425 130.005408 124.00962 131.278729 123.429191 132.680006 
C 122.848763 134.081284 122.55 135.583268 122.55 137.1 
C 122.55 138.616732 122.848763 140.118716 123.429191 141.519994 
C 124.00962 142.921271 124.860425 144.194592 125.932917 145.267083 
C 127.005408 146.339575 128.278729 147.19038 129.680006 147.770809 
C 131.081284 148.351237 132.583268 148.65 134.1 148.65 
C 135.616732 148.65 137.118716 148.351237 138.519994 147.770809 
C 139.921271 147.19038 141.194592 146.339575 142.267083 145.267083 
C 143.339575 144.194592 144.19038 142.921271 144.770809 141.519994 
C 145.351237 140.118716 145.65 138.616732 145.65 137.1 
" clip-path="url(#pc45c39afde)" style="fill: none; stroke: #cccccc; stroke-width: 0.8; stroke-linecap: round"/>
     </g>
     <g id="text_24">
      <text style="font-size: 8px; font-family: 'Arial'; text-anchor: start; fill: #262626" x="144.770809" y="131.090006" transform="rotate(-0 144.770809 131.090006)">0.1</text>
     </g>
    </g>
    <g id="ytick_10">
     <g id="line2d_31">
      <path d="M 157.2 137.1 
C 157.2 134.066536 156.602474 131.062568 155.441617 128.260013 
C 154.280761 125.457457 152.57915 122.910816 150.434167 120.765833 
C 148.289184 118.62085 145.742543 116.919239 142.939987 115.758383 
C 140.137432 114.597526 137.133464 114 134.1 114 
C 131.066536 114 128.062568 114.597526 125.260013 115.758383 
C 122.457457 116.919239 119.910816 118.62085 117.765833 120.765833 
C 115.62085 122.910816 113.919239 125.457457 112.758383 128.260013 
C 111.597526 131.062568 111 134.066536 111 137.1 
C 111 140.133464 111.597526 143.137432 112.758383 145.939987 
C 113.919239 148.742543 115.62085 151.289184 117.765833 153.434167 
C 119.910816 155.57915 122.457457 157.280761 125.260013 158.441617 
C 128.062568 159.602474 131.066536 160.2 134.1 160.2 
C 137.133464 160.2 140.137432 159.602474 142.939987 158.441617 
C 145.742543 157.280761 148.289184 155.57915 150.434167 153.434167 
C 152.57915 151.289184 154.280761 148.742543 155.441617 145.939987 
C 156.602474 143.137432 157.2 140.133464 157.2 137.1 
" clip-path="url(#pc45c39afde)" style="fill: none; stroke: #cccccc; stroke-width: 0.8; stroke-linecap: round"/>
     </g>
     <g id="text_25">
      <text style="font-size: 8px; font-family: 'Arial'; text-anchor: start; fill: #262626" x="155.441617" y="126.670013" transform="rotate(-0 155.441617 126.670013)">0.2</text>
     </g>
    </g>
   </g>
   <g id="FillBetweenPolyCollection_4">
    <defs>
     <path id="m25a6ba1286" d="M 136.713337 -44.208151 
L 136.713337 -44.208151 
L 139.969987 -48.631966 
L 138.338178 -50.886244 
L 136.26775 -54.91555 
L 132.285153 -56.684148 
L 129.741611 -52.150355 
L 126.923904 -50.607476 
L 129.495998 -45.485481 
L 126.531151 -44.452284 
L 126.575482 -41.356808 
L 129.227157 -40.163546 
L 131.816708 -40.447633 
L 132.645149 -39.812187 
L 133.471294 -38.124845 
L 134.661054 -39.790152 
L 134.849166 -41.488303 
L 135.615985 -41.41966 
L 136.290045 -41.803735 
L 135.364273 -42.702841 
L 135.364273 -42.702841 
L 135.364273 -42.702841 
L 136.290045 -41.803735 
L 135.615985 -41.41966 
L 134.849166 -41.488303 
L 134.661054 -39.790152 
L 133.471294 -38.124845 
L 132.645149 -39.812187 
L 131.816708 -40.447633 
L 129.227157 -40.163546 
L 126.575482 -41.356808 
L 126.531151 -44.452284 
L 129.495998 -45.485481 
L 126.923904 -50.607476 
L 129.741611 -52.150355 
L 132.285153 -56.684148 
L 136.26775 -54.91555 
L 138.338178 -50.886244 
L 139.969987 -48.631966 
L 136.713337 -44.208151 
z
" style="stroke: #ffffff; stroke-opacity: 0.5; stroke-width: 0.8"/>
    </defs>
    <g clip-path="url(#pc45c39afde)">
     <use xlink:href="#m25a6ba1286" x="0" y="180" style="fill: #fca636; fill-opacity: 0.5; stroke: #ffffff; stroke-opacity: 0.5; stroke-width: 0.8"/>
    </g>
   </g>
   <g id="FillBetweenPolyCollection_5">
    <defs>
     <path id="maa14d1370e" d="M 137.845326 -43.484071 
L 137.845326 -43.484071 
L 139.88242 -45.794491 
L 140.532435 -49.181189 
L 138.607488 -51.393721 
L 136.193635 -54.504738 
L 132.205328 -57.29044 
L 129.817673 -51.988917 
L 129.787792 -47.531522 
L 131.247503 -44.501883 
L 129.57104 -43.828838 
L 131.201959 -42.305645 
L 132.045069 -41.746007 
L 131.69547 -40.317417 
L 132.206043 -38.880219 
L 133.432935 -37.8335 
L 134.729591 -39.410262 
L 134.78258 -41.613775 
L 136.661321 -40.398904 
L 138.436974 -40.729052 
L 138.279663 -42.248196 
L 137.845326 -43.484071 
L 137.845326 -43.484071 
L 137.845326 -43.484071 
L 138.279663 -42.248196 
L 138.436974 -40.729052 
L 136.661321 -40.398904 
L 134.78258 -41.613775 
L 134.729591 -39.410262 
L 133.432935 -37.8335 
L 132.206043 -38.880219 
L 131.69547 -40.317417 
L 132.045069 -41.746007 
L 131.201959 -42.305645 
L 129.57104 -43.828838 
L 131.247503 -44.501883 
L 129.787792 -47.531522 
L 129.817673 -51.988917 
L 132.205328 -57.29044 
L 136.193635 -54.504738 
L 138.607488 -51.393721 
L 140.532435 -49.181189 
L 139.88242 -45.794491 
L 137.845326 -43.484071 
z
" style="stroke: #ffffff; stroke-opacity: 0.5; stroke-width: 0.8"/>
    </defs>
    <g clip-path="url(#pc45c39afde)">
     <use xlink:href="#maa14d1370e" x="0" y="180" style="fill: #e16462; fill-opacity: 0.5; stroke: #ffffff; stroke-opacity: 0.5; stroke-width: 0.8"/>
    </g>
   </g>
   <g id="FillBetweenPolyCollection_6">
    <defs>
     <path id="mba567a002d" d="M 137.999644 -43.508136 
L 137.999644 -43.508136 
L 139.686172 -45.696255 
L 140.968902 -49.607394 
L 137.394007 -49.107089 
L 135.256641 -49.311107 
L 133.387685 -48.31018 
L 131.690577 -48.013821 
L 125.526278 -52.108595 
L 131.088525 -44.591161 
L 125.980901 -44.565134 
L 128.588024 -41.769557 
L 130.592308 -40.930177 
L 130.470021 -39.001225 
L 132.096332 -38.647364 
L 133.364192 -37.311383 
L 134.683086 -39.66803 
L 135.486625 -40.287102 
L 136.969529 -40.097942 
L 139.606299 -40.143726 
L 139.045474 -42.128771 
L 137.999644 -43.508136 
L 137.999644 -43.508136 
L 137.999644 -43.508136 
L 139.045474 -42.128771 
L 139.606299 -40.143726 
L 136.969529 -40.097942 
L 135.486625 -40.287102 
L 134.683086 -39.66803 
L 133.364192 -37.311383 
L 132.096332 -38.647364 
L 130.470021 -39.001225 
L 130.592308 -40.930177 
L 128.588024 -41.769557 
L 125.980901 -44.565134 
L 131.088525 -44.591161 
L 125.526278 -52.108595 
L 131.690577 -48.013821 
L 133.387685 -48.31018 
L 135.256641 -49.311107 
L 137.394007 -49.107089 
L 140.968902 -49.607394 
L 139.686172 -45.696255 
L 137.999644 -43.508136 
z
" style="stroke: #ffffff; stroke-opacity: 0.5; stroke-width: 0.8"/>
    </defs>
    <g clip-path="url(#pc45c39afde)">
     <use xlink:href="#mba567a002d" x="0" y="180" style="fill: #b12a90; fill-opacity: 0.5; stroke: #ffffff; stroke-opacity: 0.5; stroke-width: 0.8"/>
    </g>
   </g>
   <g id="line2d_32">
    <path d="M 136.713337 135.791849 
L 139.969987 131.368034 
L 138.338178 129.113756 
L 136.26775 125.08445 
L 132.285153 123.315852 
L 129.741611 127.849645 
L 126.923904 129.392524 
L 129.495998 134.514519 
L 126.531151 135.547716 
L 126.575482 138.643192 
L 129.227157 139.836454 
L 131.816708 139.552367 
L 132.645149 140.187813 
L 133.471294 141.875155 
L 134.661054 140.209848 
L 134.849166 138.511697 
L 135.615985 138.58034 
L 136.290045 138.196265 
L 135.364273 137.297159 
" clip-path="url(#pc45c39afde)" style="fill: none; stroke: #fca636; stroke-width: 1.2; stroke-linecap: round"/>
   </g>
   <g id="line2d_33">
    <path d="M 137.845326 136.515929 
L 139.88242 134.205509 
L 140.532435 130.818811 
L 138.607488 128.606279 
L 136.193635 125.495262 
L 132.205328 122.70956 
L 129.817673 128.011083 
L 129.787792 132.468478 
L 131.247503 135.498117 
L 129.57104 136.171162 
L 131.201959 137.694355 
L 132.045069 138.253993 
L 131.69547 139.682583 
L 132.206043 141.119781 
L 133.432935 142.1665 
L 134.729591 140.589738 
L 134.78258 138.386225 
L 136.661321 139.601096 
L 138.436974 139.270948 
L 138.279663 137.751804 
L 137.845326 136.515929 
" clip-path="url(#pc45c39afde)" style="fill: none; stroke: #e16462; stroke-width: 1.2; stroke-linecap: round"/>
   </g>
   <g id="line2d_34">
    <path d="M 137.999644 136.491864 
L 139.686172 134.303745 
L 140.968902 130.392606 
L 137.394007 130.892911 
L 135.256641 130.688893 
L 133.387685 131.68982 
L 131.690577 131.986179 
L 125.526278 127.891405 
L 131.088525 135.408839 
L 125.980901 135.434866 
L 128.588024 138.230443 
L 130.592308 139.069823 
L 130.470021 140.998775 
L 132.096332 141.352636 
L 133.364192 142.688617 
L 134.683086 140.33197 
L 135.486625 139.712898 
L 136.969529 139.902058 
L 139.606299 139.856274 
L 139.045474 137.871229 
L 137.999644 136.491864 
" clip-path="url(#pc45c39afde)" style="fill: none; stroke: #b12a90; stroke-width: 1.2; stroke-linecap: round"/>
   </g>
   <g id="patch_11">
    <path d="M 157.2 137.1 
C 157.2 134.066536 156.602474 131.062568 155.441617 128.260013 
C 154.280761 125.457457 152.57915 122.910816 150.434167 120.765833 
C 148.289184 118.62085 145.742543 116.919239 142.939987 115.758383 
C 140.137432 114.597526 137.133464 114 134.1 114 
C 131.066536 114 128.062568 114.597526 125.260013 115.758383 
C 122.457457 116.919239 119.910816 118.62085 117.765833 120.765833 
C 115.62085 122.910816 113.919239 125.457457 112.758383 128.260013 
C 111.597526 131.062568 111 134.066536 111 137.1 
C 111 140.133464 111.597526 143.137432 112.758383 145.939987 
C 113.919239 148.742543 115.62085 151.289184 117.765833 153.434167 
C 119.910816 155.57915 122.457457 157.280761 125.260013 158.441617 
C 128.062568 159.602474 131.066536 160.2 134.1 160.2 
C 137.133464 160.2 140.137432 159.602474 142.939987 158.441617 
C 145.742543 157.280761 148.289184 155.57915 150.434167 153.434167 
C 152.57915 151.289184 154.280761 148.742543 155.441617 145.939987 
C 156.602474 143.137432 157.2 140.133464 157.2 137.1 
" style="fill: none; stroke: #262626; stroke-linejoin: miter; stroke-linecap: square"/>
   </g>
  </g>
 </g>
 <defs>
  <clipPath id="pfc2e7a5d15">
   <rect x="22.5" y="21.6" width="55.8" height="46.2"/>
  </clipPath>
  <clipPath id="pb9089272bc">
   <path d="M 73.5 137.1 
C 73.5 134.066536 72.902474 131.062568 71.741617 128.260013 
C 70.580761 125.457457 68.87915 122.910816 66.734167 120.765833 
C 64.589184 118.62085 62.042543 116.919239 59.239987 115.758383 
C 56.437432 114.597526 53.433464 114 50.4 114 
C 47.366536 114 44.362568 114.597526 41.560013 115.758383 
C 38.757457 116.919239 36.210816 118.62085 34.065833 120.765833 
C 31.92085 122.910816 30.219239 125.457457 29.058383 128.260013 
C 27.897526 131.062568 27.3 134.066536 27.3 137.1 
C 27.3 140.133464 27.897526 143.137432 29.058383 145.939987 
C 30.219239 148.742543 31.92085 151.289184 34.065833 153.434167 
C 36.210816 155.57915 38.757457 157.280761 41.560013 158.441617 
C 44.362568 159.602474 47.366536 160.2 50.4 160.2 
C 53.433464 160.2 56.437432 159.602474 59.239987 158.441617 
C 62.042543 157.280761 64.589184 155.57915 66.734167 153.434167 
C 68.87915 151.289184 70.580761 148.742543 71.741617 145.939987 
C 72.902474 143.137432 73.5 140.133464 73.5 137.1 
M 50.4 137.1 
C 50.4 137.1 50.4 137.1 50.4 137.1 
C 50.4 137.1 50.4 137.1 50.4 137.1 
C 50.4 137.1 50.4 137.1 50.4 137.1 
C 50.4 137.1 50.4 137.1 50.4 137.1 
C 50.4 137.1 50.4 137.1 50.4 137.1 
C 50.4 137.1 50.4 137.1 50.4 137.1 
C 50.4 137.1 50.4 137.1 50.4 137.1 
C 50.4 137.1 50.4 137.1 50.4 137.1 
C 50.4 137.1 50.4 137.1 50.4 137.1 
C 50.4 137.1 50.4 137.1 50.4 137.1 
C 50.4 137.1 50.4 137.1 50.4 137.1 
C 50.4 137.1 50.4 137.1 50.4 137.1 
C 50.4 137.1 50.4 137.1 50.4 137.1 
C 50.4 137.1 50.4 137.1 50.4 137.1 
C 50.4 137.1 50.4 137.1 50.4 137.1 
C 50.4 137.1 50.4 137.1 50.4 137.1 
z
"/>
  </clipPath>
  <clipPath id="pcdf296fe06">
   <rect x="106.2" y="21.6" width="55.8" height="46.2"/>
  </clipPath>
  <clipPath id="pc45c39afde">
   <path d="M 157.2 137.1 
C 157.2 134.066536 156.602474 131.062568 155.441617 128.260013 
C 154.280761 125.457457 152.57915 122.910816 150.434167 120.765833 
C 148.289184 118.62085 145.742543 116.919239 142.939987 115.758383 
C 140.137432 114.597526 137.133464 114 134.1 114 
C 131.066536 114 128.062568 114.597526 125.260013 115.758383 
C 122.457457 116.919239 119.910816 118.62085 117.765833 120.765833 
C 115.62085 122.910816 113.919239 125.457457 112.758383 128.260013 
C 111.597526 131.062568 111 134.066536 111 137.1 
C 111 140.133464 111.597526 143.137432 112.758383 145.939987 
C 113.919239 148.742543 115.62085 151.289184 117.765833 153.434167 
C 119.910816 155.57915 122.457457 157.280761 125.260013 158.441617 
C 128.062568 159.602474 131.066536 160.2 134.1 160.2 
C 137.133464 160.2 140.137432 159.602474 142.939987 158.441617 
C 145.742543 157.280761 148.289184 155.57915 150.434167 153.434167 
C 152.57915 151.289184 154.280761 148.742543 155.441617 145.939987 
C 156.602474 143.137432 157.2 140.133464 157.2 137.1 
M 134.1 137.1 
C 134.1 137.1 134.1 137.1 134.1 137.1 
C 134.1 137.1 134.1 137.1 134.1 137.1 
C 134.1 137.1 134.1 137.1 134.1 137.1 
C 134.1 137.1 134.1 137.1 134.1 137.1 
C 134.1 137.1 134.1 137.1 134.1 137.1 
C 134.1 137.1 134.1 137.1 134.1 137.1 
C 134.1 137.1 134.1 137.1 134.1 137.1 
C 134.1 137.1 134.1 137.1 134.1 137.1 
C 134.1 137.1 134.1 137.1 134.1 137.1 
C 134.1 137.1 134.1 137.1 134.1 137.1 
C 134.1 137.1 134.1 137.1 134.1 137.1 
C 134.1 137.1 134.1 137.1 134.1 137.1 
C 134.1 137.1 134.1 137.1 134.1 137.1 
C 134.1 137.1 134.1 137.1 134.1 137.1 
C 134.1 137.1 134.1 137.1 134.1 137.1 
C 134.1 137.1 134.1 137.1 134.1 137.1 
z
"/>
  </clipPath>
 </defs>
</svg>
