<?xml version="1.0" encoding="utf-8" standalone="no"?>
<!DOCTYPE svg PUBLIC "-//W3C//DTD SVG 1.1//EN"
  "http://www.w3.org/Graphics/SVG/1.1/DTD/svg11.dtd">
<svg xmlns:xlink="http://www.w3.org/1999/xlink" width="180pt" height="180pt" viewBox="0 0 180 180" xmlns="http://www.w3.org/2000/svg" version="1.1">
 <metadata>
  <rdf:RDF xmlns:dc="http://purl.org/dc/elements/1.1/" xmlns:cc="http://creativecommons.org/ns#" xmlns:rdf="http://www.w3.org/1999/02/22-rdf-syntax-ns#">
   <cc:Work>
    <dc:type rdf:resource="http://purl.org/dc/dcmitype/StillImage"/>
    <dc:date>2026-02-13T10:01:29.353035</dc:date>
    <dc:format>image/svg+xml</dc:format>
    <dc:creator>
     <cc:Agent>
      <dc:title>Matplotlib v3.10.7, https://matplotlib.org/</dc:title>
     </cc:Agent>
    </dc:creator>
   </cc:Work>
  </rdf:RDF>
 </metadata>
 <defs>
  <style type="text/css">*{stroke-linejoin: round; stroke-linecap: butt}</style>
 </defs>
 <g id="figure_1">
  <g id="patch_1">
   <path d="M 0 180 
L 180 180 
L 180 0 
L 0 0 
L 0 180 
z
" style="fill: none"/>
  </g>
  <g id="axes_1">
   <g id="patch_2">
    <path d="M 36 57.6 
L 93.6 57.6 
L 93.6 0 
L 36 0 
L 36 57.6 
z
" style="fill: none"/>
   </g>
   <g id="matplotlib.axis_1">
    <g id="xtick_1">
     <g id="line2d_1">
      <defs>
       <path id="me06bd4904a" d="M 0 0 
L 0 4.8 
" style="stroke: #262626"/>
      </defs>
      <g>
       <use xlink:href="#me06bd4904a" x="36" y="57.6" style="fill: #262626; stroke: #262626"/>
      </g>
     </g>
     <g id="text_1">
      <text style="font-size: 8px; font-family: 'Arial'; text-anchor: middle; fill: #262626" x="36" y="71.62625" transform="rotate(-0 36 71.62625)">0</text>
     </g>
    </g>
    <g id="xtick_2">
     <g id="line2d_2">
      <g>
       <use xlink:href="#me06bd4904a" x="84" y="57.6" style="fill: #262626; stroke: #262626"/>
      </g>
     </g>
     <g id="text_2">
      <text style="font-size: 8px; font-family: 'Arial'; text-anchor: middle; fill: #262626" x="84" y="71.62625" transform="rotate(-0 84 71.62625)">10</text>
     </g>
    </g>
    <g id="text_3">
     <text style="font-size: 9px; font-family: 'Arial'; text-anchor: middle; fill: #262626" x="64.8" y="83.767969" transform="rotate(-0 64.8 83.767969)">distance (mm)</text>
    </g>
   </g>
   <g id="matplotlib.axis_2">
    <g id="ytick_1">
     <g id="line2d_3">
      <defs>
       <path id="maea3a24688" d="M 0 0 
L -4.8 0 
" style="stroke: #262626"/>
      </defs>
      <g>
       <use xlink:href="#maea3a24688" x="36" y="57.6" style="fill: #262626; stroke: #262626"/>
      </g>
     </g>
     <g id="text_4">
      <text style="font-size: 8px; font-family: 'Arial'; text-anchor: end; fill: #262626" x="27.7" y="60.463125" transform="rotate(-0 27.7 60.463125)">0.0</text>
     </g>
    </g>
    <g id="ytick_2">
     <g id="line2d_4">
      <g>
       <use xlink:href="#maea3a24688" x="36" y="28.8" style="fill: #262626; stroke: #262626"/>
      </g>
     </g>
     <g id="text_5">
      <text style="font-size: 8px; font-family: 'Arial'; text-anchor: end; fill: #262626" x="27.7" y="31.663125" transform="rotate(-0 27.7 31.663125)">0.5</text>
     </g>
    </g>
    <g id="ytick_3">
     <g id="line2d_5">
      <g>
       <use xlink:href="#maea3a24688" x="36" y="0" style="fill: #262626; stroke: #262626"/>
      </g>
     </g>
     <g id="text_6">
      <text style="font-size: 8px; font-family: 'Arial'; text-anchor: end; fill: #262626" x="27.7" y="2.863125" transform="rotate(-0 27.7 2.863125)">1.0</text>
     </g>
    </g>
    <g id="text_7">
     <text style="font-size: 9px; font-family: 'Arial'; fill: #262626" transform="translate(1.166594 40.301719) rotate(-90)">norm.</text>
     <text style="font-size: 9px; font-family: 'Arial'; fill: #262626" transform="translate(10.685781 52.309688) rotate(-90)">connectivity</text>
    </g>
   </g>
   <g id="line2d_6">
    <path d="M 38.826703 54.913567 
L 39.388941 54.913567 
L 39.951179 54.913567 
L 40.513417 54.913567 
L 41.075655 54.913567 
L 41.637893 52.142846 
L 42.200131 52.142846 
L 42.762369 52.142846 
L 43.324607 52.142846 
L 43.886845 49.838837 
L 44.449083 49.838837 
L 45.011321 47.620198 
L 45.573559 47.620198 
L 46.135797 47.620198 
L 46.698035 45.592148 
L 47.260273 45.592148 
L 47.822511 45.592148 
L 48.384749 45.592148 
L 48.946987 43.833228 
L 49.509225 42.102789 
L 50.071462 42.102789 
L 50.6337 42.102789 
L 51.195938 42.102789 
L 51.758176 40.773808 
L 52.320414 39.486246 
L 52.882652 38.384776 
L 53.44489 38.384776 
L 54.007128 37.330612 
L 54.569366 36.286133 
L 55.131604 36.286133 
L 55.693842 35.450448 
L 56.25608 34.594548 
L 56.818318 34.594548 
L 57.380556 34.594548 
L 57.942794 33.922459 
L 58.505032 33.922459 
L 59.06727 33.229645 
L 59.629508 32.483182 
L 60.191746 31.785089 
L 60.753984 31.785089 
L 61.316222 31.044618 
L 61.878459 31.044618 
L 62.440697 30.250141 
L 63.002935 29.642529 
L 63.565173 28.928711 
L 64.127411 28.176663 
L 64.689649 27.47235 
L 65.251887 27.47235 
L 65.814125 26.616079 
L 66.376363 25.754963 
L 66.938601 24.977858 
L 67.500839 24.213639 
L 68.063077 23.461631 
L 68.625315 23.461631 
L 69.187553 22.64027 
L 69.749791 21.760408 
L 70.312029 20.908782 
L 70.874267 20.158705 
L 71.436505 19.344428 
L 71.998743 18.313898 
L 72.560981 17.567323 
L 73.123219 17.567323 
L 73.685457 16.776084 
L 74.247694 15.900869 
L 74.809932 15.01702 
L 75.37217 14.134056 
L 75.934408 13.162735 
L 76.496646 13.162735 
L 77.058884 12.240232 
L 77.621122 11.5424 
L 78.18336 10.878673 
L 78.745598 10.170122 
L 79.307836 9.394903 
L 79.870074 9.394903 
L 80.432312 8.603829 
L 80.99455 7.849903 
L 81.556788 7.184788 
L 82.119026 6.391122 
L 82.681264 5.695605 
L 83.243502 5.695605 
L 83.80574 4.985546 
L 84.367978 4.389613 
L 84.930216 3.971319 
L 85.492454 3.533193 
L 86.054691 3.42377 
L 86.616929 2.995125 
L 87.179167 2.528559 
L 87.741405 2.15762 
L 88.303643 1.939598 
L 88.865881 1.739753 
L 89.428119 1.327957 
L 89.990357 1.327957 
L 90.552595 1.035429 
L 91.114833 1.035429 
L 91.677071 1.035429 
L 92.239309 0.460478 
L 92.801547 0.231745 
L 93.363785 0.231745 
L 93.926023 0.231745 
L 94.488261 0 
" clip-path="url(#p1042dc2688)" style="fill: none; stroke: #9d8ec9; stroke-width: 1.2; stroke-linecap: round"/>
   </g>
   <g id="line2d_7">
    <path d="M 38.818881 56.135741 
L 39.365474 56.135741 
L 39.912067 56.135741 
L 40.45866 56.135741 
L 41.005253 56.135741 
L 41.551846 54.988316 
L 42.09844 54.988316 
L 42.645033 54.988316 
L 43.191626 54.988316 
L 43.738219 53.804796 
L 44.284812 53.804796 
L 44.831405 53.804796 
L 45.377998 52.523436 
L 45.924591 52.523436 
L 46.471184 51.191489 
L 47.017778 51.191489 
L 47.564371 51.191489 
L 48.110964 51.191489 
L 48.657557 49.932692 
L 49.20415 49.932692 
L 49.750743 48.813166 
L 50.297336 48.813166 
L 50.843929 48.813166 
L 51.390522 47.786198 
L 51.937115 47.786198 
L 52.483709 46.65121 
L 53.030302 45.66066 
L 53.576895 44.801546 
L 54.123488 44.801546 
L 54.670081 43.782539 
L 55.216674 43.782539 
L 55.763267 42.622622 
L 56.30986 41.686113 
L 56.856453 41.686113 
L 57.403047 41.686113 
L 57.94964 40.782205 
L 58.496233 40.782205 
L 59.042826 39.744974 
L 59.589419 38.769733 
L 60.136012 37.723834 
L 60.682605 37.723834 
L 61.229198 36.765647 
L 61.775791 35.891139 
L 62.322384 35.062248 
L 62.868978 34.113653 
L 63.415571 33.082751 
L 63.962164 32.25308 
L 64.508757 31.371233 
L 65.05535 31.371233 
L 65.601943 30.389007 
L 66.148536 30.389007 
L 66.695129 29.389322 
L 67.241722 28.592191 
L 67.788316 27.744202 
L 68.334909 27.744202 
L 68.881502 26.964906 
L 69.428095 26.06567 
L 69.974688 25.265166 
L 70.521281 24.512237 
L 71.067874 24.512237 
L 71.614467 23.581318 
L 72.16106 23.581318 
L 72.707653 22.755162 
L 73.254247 22.755162 
L 73.80084 22.212017 
L 74.347433 21.511145 
L 74.894026 20.954546 
L 75.440619 20.160111 
L 75.987212 19.577377 
L 76.533805 19.577377 
L 77.080398 18.940141 
L 77.626991 18.424887 
L 78.173585 17.964888 
L 78.720178 17.108496 
L 79.266771 16.73141 
L 79.813364 16.257928 
L 80.359957 15.634439 
L 80.90655 14.794892 
L 81.453143 14.290657 
L 81.999736 13.786436 
L 82.546329 13.137238 
L 83.092922 13.137238 
L 83.639516 12.517237 
L 84.186109 11.935191 
L 84.732702 11.064702 
L 85.279295 10.372278 
L 85.825888 10.372278 
L 86.372481 8.89227 
L 86.919074 8.535297 
L 87.465667 7.681629 
L 88.01226 6.170911 
L 88.558854 5.263454 
L 89.105447 5.263454 
L 89.65204 4.408593 
L 90.198633 3.791096 
L 90.745226 2.030562 
L 91.291819 2.030562 
L 91.838412 1.182772 
L 92.385005 1.182772 
L 92.931598 0 
" clip-path="url(#p1042dc2688)" style="fill: none; stroke: #7fc6aa; stroke-width: 1.2; stroke-linecap: round"/>
   </g>
   <g id="patch_3">
    <path d="M 36 57.6 
L 36 0 
" style="fill: none; stroke: #262626; stroke-linejoin: miter; stroke-linecap: square"/>
   </g>
   <g id="patch_4">
    <path d="M 36 57.6 
L 93.6 57.6 
" style="fill: none; stroke: #262626; stroke-linejoin: miter; stroke-linecap: square"/>
   </g>
  </g>
  <g id="axes_2">
   <g id="patch_5">
    <path d="M 36 144 
L 93.6 144 
L 93.6 86.4 
L 36 86.4 
L 36 144 
z
" style="fill: none"/>
   </g>
   <g id="matplotlib.axis_3">
    <g id="xtick_3">
     <g id="line2d_8">
      <g>
       <use xlink:href="#me06bd4904a" x="36" y="144" style="fill: #262626; stroke: #262626"/>
      </g>
     </g>
     <g id="text_8">
      <text style="font-size: 8px; font-family: 'Arial'; text-anchor: middle; fill: #262626" x="36" y="158.02625" transform="rotate(-0 36 158.02625)">0</text>
     </g>
    </g>
    <g id="xtick_4">
     <g id="line2d_9">
      <g>
       <use xlink:href="#me06bd4904a" x="84" y="144" style="fill: #262626; stroke: #262626"/>
      </g>
     </g>
     <g id="text_9">
      <text style="font-size: 8px; font-family: 'Arial'; text-anchor: middle; fill: #262626" x="84" y="158.02625" transform="rotate(-0 84 158.02625)">10</text>
     </g>
    </g>
    <g id="text_10">
     <text style="font-size: 9px; font-family: 'Arial'; text-anchor: middle; fill: #262626" x="64.8" y="170.167969" transform="rotate(-0 64.8 170.167969)">distance (mm)</text>
    </g>
   </g>
   <g id="matplotlib.axis_4">
    <g id="ytick_4">
     <g id="line2d_10">
      <g>
       <use xlink:href="#maea3a24688" x="36" y="144" style="fill: #262626; stroke: #262626"/>
      </g>
     </g>
     <g id="text_11">
      <text style="font-size: 8px; font-family: 'Arial'; text-anchor: end; fill: #262626" x="27.7" y="146.863125" transform="rotate(-0 27.7 146.863125)">0.0</text>
     </g>
    </g>
    <g id="ytick_5">
     <g id="line2d_11">
      <g>
       <use xlink:href="#maea3a24688" x="36" y="115.2" style="fill: #262626; stroke: #262626"/>
      </g>
     </g>
     <g id="text_12">
      <text style="font-size: 8px; font-family: 'Arial'; text-anchor: end; fill: #262626" x="27.7" y="118.063125" transform="rotate(-0 27.7 118.063125)">0.5</text>
     </g>
    </g>
    <g id="ytick_6">
     <g id="line2d_12">
      <g>
       <use xlink:href="#maea3a24688" x="36" y="86.4" style="fill: #262626; stroke: #262626"/>
      </g>
     </g>
     <g id="text_13">
      <text style="font-size: 8px; font-family: 'Arial'; text-anchor: end; fill: #262626" x="27.7" y="89.263125" transform="rotate(-0 27.7 89.263125)">1.0</text>
     </g>
    </g>
   </g>
   <g id="line2d_13">
    <path d="M 38.826703 140.508876 
L 39.388941 140.508876 
L 39.951179 140.508876 
L 40.513417 140.508876 
L 41.075655 140.508876 
L 41.637893 137.100484 
L 42.200131 137.100484 
L 42.762369 137.100484 
L 43.324607 137.100484 
L 43.886845 134.427252 
L 44.449083 134.427252 
L 45.011321 131.744734 
L 45.573559 131.744734 
L 46.135797 131.744734 
L 46.698035 129.748742 
L 47.260273 129.748742 
L 47.822511 129.748742 
L 48.384749 129.748742 
L 48.946987 127.972238 
L 49.509225 126.324343 
L 50.071462 126.324343 
L 50.6337 126.324343 
L 51.195938 126.324343 
L 51.758176 125.137342 
L 52.320414 123.864198 
L 52.882652 122.800777 
L 53.44489 122.800777 
L 54.007128 121.647768 
L 54.569366 120.610059 
L 55.131604 120.610059 
L 55.693842 119.803262 
L 56.25608 118.915404 
L 56.818318 118.915404 
L 57.380556 118.915404 
L 57.942794 118.114473 
L 58.505032 118.114473 
L 59.06727 117.202504 
L 59.629508 116.449044 
L 60.191746 115.749517 
L 60.753984 115.749517 
L 61.316222 114.940223 
L 61.878459 114.940223 
L 62.440697 114.178593 
L 63.002935 113.607894 
L 63.565173 112.984187 
L 64.127411 112.208405 
L 64.689649 111.452056 
L 65.251887 111.452056 
L 65.814125 110.656017 
L 66.376363 109.833947 
L 66.938601 109.182341 
L 67.500839 108.511074 
L 68.063077 107.779397 
L 68.625315 107.779397 
L 69.187553 107.014819 
L 69.749791 106.226801 
L 70.312029 105.793921 
L 70.874267 105.116261 
L 71.436505 104.547196 
L 71.998743 103.642984 
L 72.560981 102.994215 
L 73.123219 102.994215 
L 73.685457 102.422995 
L 74.247694 101.653555 
L 74.809932 101.007187 
L 75.37217 100.189432 
L 75.934408 99.318463 
L 76.496646 99.318463 
L 77.058884 98.415786 
L 77.621122 97.962948 
L 78.18336 97.585909 
L 78.745598 97.009169 
L 79.307836 96.261913 
L 79.870074 96.261913 
L 80.432312 95.74908 
L 80.99455 95.311852 
L 81.556788 94.850935 
L 82.119026 94.103725 
L 82.681264 93.589057 
L 83.243502 93.589057 
L 83.80574 92.941064 
L 84.367978 92.176238 
L 84.930216 91.696941 
L 85.492454 91.174713 
L 86.054691 90.952157 
L 86.616929 90.550418 
L 87.179167 89.353122 
L 87.741405 89.009029 
L 88.303643 88.73884 
L 88.865881 88.677165 
L 89.428119 88.039191 
L 89.990357 88.039191 
L 90.552595 87.714291 
L 91.114833 87.714291 
L 91.677071 87.565024 
L 92.239309 87.296048 
L 92.801547 86.958298 
L 93.363785 86.664168 
L 93.926023 86.664168 
L 94.488261 86.4 
" clip-path="url(#p49b680dc9a)" style="fill: none; stroke: #9d8ec9; stroke-width: 1.2; stroke-linecap: round"/>
   </g>
   <g id="line2d_14">
    <path d="M 38.826703 143.326041 
L 39.388941 143.326041 
L 39.951179 143.326041 
L 40.513417 143.326041 
L 41.075655 143.326041 
L 41.637893 141.182863 
L 42.200131 141.182863 
L 42.762369 141.182863 
L 43.324607 141.182863 
L 43.886845 139.364894 
L 44.449083 139.364894 
L 45.011321 137.270902 
L 45.573559 137.270902 
L 46.135797 137.270902 
L 46.698035 135.643982 
L 47.260273 135.643982 
L 47.822511 135.643982 
L 48.384749 135.643982 
L 48.946987 134.303707 
L 49.509225 133.20431 
L 50.071462 133.20431 
L 50.6337 133.20431 
L 51.195938 133.20431 
L 51.758176 132.233526 
L 52.320414 131.477161 
L 52.882652 130.749685 
L 53.44489 130.749685 
L 54.007128 129.782398 
L 54.569366 129.071761 
L 55.131604 129.071761 
L 55.693842 128.535573 
L 56.25608 127.761112 
L 56.818318 127.761112 
L 57.380556 127.761112 
L 57.942794 127.227153 
L 58.505032 127.227153 
L 59.06727 126.640301 
L 59.629508 126.069481 
L 60.191746 125.661848 
L 60.753984 125.661848 
L 61.316222 125.133569 
L 61.878459 125.133569 
L 62.440697 124.537935 
L 63.002935 123.895204 
L 63.565173 123.346614 
L 64.127411 122.866819 
L 64.689649 122.272134 
L 65.251887 122.272134 
L 65.814125 121.706028 
L 66.376363 121.174705 
L 66.938601 120.557935 
L 67.500839 119.874808 
L 68.063077 119.296262 
L 68.625315 119.296262 
L 69.187553 118.702727 
L 69.749791 117.948171 
L 70.312029 117.257728 
L 70.874267 116.633236 
L 71.436505 116.030454 
L 71.998743 115.43514 
L 72.560981 114.698922 
L 73.123219 114.698922 
L 73.685457 113.987526 
L 74.247694 113.356614 
L 74.809932 112.689043 
L 75.37217 111.77671 
L 75.934408 110.958905 
L 76.496646 110.958905 
L 77.058884 110.142178 
L 77.621122 109.383655 
L 78.18336 108.878909 
L 78.745598 108.0219 
L 79.307836 106.957831 
L 79.870074 106.957831 
L 80.432312 106.091966 
L 80.99455 105.467733 
L 81.556788 104.855531 
L 82.119026 104.120144 
L 82.681264 103.110057 
L 83.243502 103.110057 
L 83.80574 102.32368 
L 84.367978 101.182292 
L 84.930216 100.18918 
L 85.492454 99.576875 
L 86.054691 97.497885 
L 86.616929 96.8605 
L 87.179167 95.898893 
L 87.741405 95.390717 
L 88.303643 94.486134 
L 88.865881 94.054054 
L 89.428119 93.419317 
L 89.990357 91.917842 
L 90.552595 90.817484 
L 91.114833 90.817484 
L 91.677071 89.457422 
L 92.239309 89.457422 
L 92.801547 89.228115 
L 93.363785 86.76179 
L 93.926023 86.76179 
L 94.488261 86.4 
" clip-path="url(#p49b680dc9a)" style="fill: none; stroke: #7fc6aa; stroke-width: 1.2; stroke-linecap: round"/>
   </g>
   <g id="patch_6">
    <path d="M 36 144 
L 36 86.4 
" style="fill: none; stroke: #262626; stroke-linejoin: miter; stroke-linecap: square"/>
   </g>
   <g id="patch_7">
    <path d="M 36 144 
L 93.6 144 
" style="fill: none; stroke: #262626; stroke-linejoin: miter; stroke-linecap: square"/>
   </g>
  </g>
  <g id="axes_3">
   <g id="patch_8">
    <path d="M 122.4 57.6 
L 180 57.6 
L 180 0 
L 122.4 0 
L 122.4 57.6 
z
" style="fill: none"/>
   </g>
   <g id="matplotlib.axis_5">
    <g id="xtick_5">
     <g id="line2d_15">
      <g>
       <use xlink:href="#me06bd4904a" x="122.4" y="57.6" style="fill: #262626; stroke: #262626"/>
      </g>
     </g>
     <g id="text_14">
      <text style="font-size: 8px; font-family: 'Arial'; text-anchor: middle; fill: #262626" x="122.4" y="71.62625" transform="rotate(-0 122.4 71.62625)">0</text>
     </g>
    </g>
    <g id="xtick_6">
     <g id="line2d_16">
      <g>
       <use xlink:href="#me06bd4904a" x="170.4" y="57.6" style="fill: #262626; stroke: #262626"/>
      </g>
     </g>
     <g id="text_15">
      <text style="font-size: 8px; font-family: 'Arial'; text-anchor: middle; fill: #262626" x="170.4" y="71.62625" transform="rotate(-0 170.4 71.62625)">10</text>
     </g>
    </g>
    <g id="text_16">
     <text style="font-size: 9px; font-family: 'Arial'; text-anchor: middle; fill: #262626" x="151.2" y="83.767969" transform="rotate(-0 151.2 83.767969)">distance (mm)</text>
    </g>
   </g>
   <g id="matplotlib.axis_6">
    <g id="ytick_7">
     <g id="line2d_17">
      <g>
       <use xlink:href="#maea3a24688" x="122.4" y="57.6" style="fill: #262626; stroke: #262626"/>
      </g>
     </g>
     <g id="text_17">
      <text style="font-size: 8px; font-family: 'Arial'; text-anchor: end; fill: #262626" x="114.1" y="60.463125" transform="rotate(-0 114.1 60.463125)">0.0</text>
     </g>
    </g>
    <g id="ytick_8">
     <g id="line2d_18">
      <g>
       <use xlink:href="#maea3a24688" x="122.4" y="28.8" style="fill: #262626; stroke: #262626"/>
      </g>
     </g>
     <g id="text_18">
      <text style="font-size: 8px; font-family: 'Arial'; text-anchor: end; fill: #262626" x="114.1" y="31.663125" transform="rotate(-0 114.1 31.663125)">0.5</text>
     </g>
    </g>
    <g id="ytick_9">
     <g id="line2d_19">
      <g>
       <use xlink:href="#maea3a24688" x="122.4" y="0" style="fill: #262626; stroke: #262626"/>
      </g>
     </g>
     <g id="text_19">
      <text style="font-size: 8px; font-family: 'Arial'; text-anchor: end; fill: #262626" x="114.1" y="2.863125" transform="rotate(-0 114.1 2.863125)">1.0</text>
     </g>
    </g>
    <g id="text_20">
     <text style="font-size: 9px; font-family: 'Arial'; fill: #262626" transform="translate(87.566594 40.301719) rotate(-90)">norm.</text>
     <text style="font-size: 9px; font-family: 'Arial'; fill: #262626" transform="translate(97.085781 52.309688) rotate(-90)">connectivity</text>
    </g>
   </g>
   <g id="line2d_20">
    <path d="M 125.226703 56.093908 
L 125.788941 56.093908 
L 126.351179 56.093908 
L 126.913417 56.093908 
L 127.475655 56.093908 
L 128.037893 54.47657 
L 128.600131 54.47657 
L 129.162369 54.47657 
L 129.724607 54.47657 
L 130.286845 52.845157 
L 130.849083 52.845157 
L 131.411321 51.291026 
L 131.973559 51.291026 
L 132.535797 51.291026 
L 133.098035 49.796055 
L 133.660273 49.796055 
L 134.222511 49.796055 
L 134.784749 49.796055 
L 135.346987 48.556166 
L 135.909225 47.466875 
L 136.471462 47.466875 
L 137.0337 47.466875 
L 137.595938 47.466875 
L 138.158176 46.370787 
L 138.720414 45.506379 
L 139.282652 44.627611 
L 139.84489 44.627611 
L 140.407128 43.702031 
L 140.969366 42.835002 
L 141.531604 42.835002 
L 142.093842 42.1222 
L 142.65608 41.309564 
L 143.218318 41.309564 
L 143.780556 41.309564 
L 144.342794 40.492722 
L 144.905032 40.492722 
L 145.46727 39.648039 
L 146.029508 38.902857 
L 146.591746 38.132034 
L 147.153984 38.132034 
L 147.716222 37.314879 
L 148.278459 37.314879 
L 148.840697 36.471259 
L 149.402935 35.835927 
L 149.965173 35.155913 
L 150.527411 34.210819 
L 151.089649 33.368284 
L 151.651887 33.368284 
L 152.214125 32.546763 
L 152.776363 31.677178 
L 153.338601 30.791766 
L 153.900839 29.805914 
L 154.463077 28.903409 
L 155.025315 28.903409 
L 155.587553 27.939989 
L 156.149791 26.940339 
L 156.712029 26.219983 
L 157.274267 25.342658 
L 157.836505 24.505019 
L 158.398743 23.535358 
L 158.960981 22.614364 
L 159.523219 22.614364 
L 160.085457 21.725537 
L 160.647694 20.777879 
L 161.209932 19.856582 
L 161.77217 18.992713 
L 162.334408 17.905156 
L 162.896646 17.905156 
L 163.458884 17.016684 
L 164.021122 16.131638 
L 164.58336 15.217847 
L 165.145598 14.30698 
L 165.707836 13.580206 
L 166.270074 13.580206 
L 166.832312 12.789949 
L 167.39455 11.94741 
L 167.956788 11.062134 
L 168.519026 10.365676 
L 169.081264 9.659507 
L 169.643502 9.659507 
L 170.20574 8.985412 
L 170.767978 8.353323 
L 171.330216 7.682622 
L 171.892454 7.062142 
L 172.454691 5.712015 
L 173.016929 5.095522 
L 173.579167 4.393164 
L 174.141405 4.142624 
L 174.703643 3.579559 
L 175.265881 2.722674 
L 175.828119 2.178887 
L 176.390357 1.552174 
L 176.952595 1.015457 
L 177.514833 1.015457 
L 178.077071 0.620526 
L 178.639309 0.620526 
L 179.201547 0.414041 
L 179.763785 0.117099 
L 180.326023 0.117099 
L 180.888261 0 
" clip-path="url(#p3a1db25aff)" style="fill: none; stroke: #9d8ec9; stroke-width: 1.2; stroke-linecap: round"/>
   </g>
   <g id="line2d_21">
    <path d="M 125.215462 56.924226 
L 125.755218 56.924226 
L 126.294973 56.924226 
L 126.834729 56.924226 
L 127.374485 56.924226 
L 127.91424 55.117785 
L 128.453996 55.117785 
L 128.993752 55.117785 
L 129.533507 55.117785 
L 130.073263 53.584278 
L 130.613018 53.584278 
L 131.152774 53.584278 
L 131.69253 52.118977 
L 132.232285 52.118977 
L 132.772041 50.931683 
L 133.311797 50.931683 
L 133.851552 50.931683 
L 134.391308 50.931683 
L 134.931063 49.84545 
L 135.470819 49.84545 
L 136.010575 48.793911 
L 136.55033 48.793911 
L 137.090086 48.793911 
L 137.629841 47.939643 
L 138.169597 47.939643 
L 138.709353 46.584921 
L 139.249108 45.462944 
L 139.788864 45.462944 
L 140.32862 44.56928 
L 140.868375 43.566568 
L 141.408131 43.566568 
L 141.947886 43.566568 
L 142.487642 42.432126 
L 143.027398 41.447894 
L 143.567153 41.447894 
L 144.106909 40.511368 
L 144.646665 40.511368 
L 145.18642 39.731905 
L 145.726176 38.841789 
L 146.265931 37.727794 
L 146.805687 37.727794 
L 147.345443 36.690174 
L 147.885198 35.92532 
L 148.424954 35.92532 
L 148.96471 35.177573 
L 149.504465 34.40991 
L 150.044221 33.606408 
L 150.583976 32.820692 
L 151.123732 32.032723 
L 151.663488 32.032723 
L 152.203243 31.218941 
L 152.742999 31.218941 
L 153.282755 30.282477 
L 153.82251 29.406269 
L 154.362266 28.337082 
L 154.902021 28.337082 
L 155.441777 27.205807 
L 155.981533 26.584293 
L 156.521288 25.951789 
L 157.061044 25.016117 
L 157.600799 24.287801 
L 158.140555 23.477435 
L 158.680311 22.802811 
L 159.220066 22.802811 
L 159.759822 22.802811 
L 160.299578 21.9877 
L 160.839333 21.084777 
L 161.379089 20.419823 
L 161.918844 19.892573 
L 162.4586 19.278261 
L 162.998356 18.532061 
L 163.538111 17.976384 
L 164.077867 17.115644 
L 164.617623 16.472197 
L 165.157378 15.74677 
L 165.697134 14.735642 
L 166.236889 13.398234 
L 166.776645 12.453721 
L 167.316401 11.519041 
L 167.856156 10.58185 
L 168.395912 9.396678 
L 168.935668 8.485639 
L 169.475423 8.485639 
L 170.015179 7.934056 
L 170.554934 5.470509 
L 171.09469 3.745891 
L 171.634446 3.294842 
L 172.174201 3.294842 
L 172.713957 2.848978 
L 173.253712 1.88924 
L 173.793468 1.203545 
L 174.333224 1.203545 
L 174.872979 0.368957 
L 175.412735 0.368957 
L 175.952491 0.368957 
L 176.492246 0.368957 
L 177.032002 0.071007 
L 177.571757 0.071007 
L 178.111513 0 
L 178.651269 0 
" clip-path="url(#p3a1db25aff)" style="fill: none; stroke: #7fc6aa; stroke-width: 1.2; stroke-linecap: round"/>
   </g>
   <g id="patch_9">
    <path d="M 122.4 57.6 
L 122.4 0 
" style="fill: none; stroke: #262626; stroke-linejoin: miter; stroke-linecap: square"/>
   </g>
   <g id="patch_10">
    <path d="M 122.4 57.6 
L 180 57.6 
" style="fill: none; stroke: #262626; stroke-linejoin: miter; stroke-linecap: square"/>
   </g>
  </g>
  <g id="axes_4">
   <g id="patch_11">
    <path d="M 122.4 144 
L 180 144 
L 180 86.4 
L 122.4 86.4 
L 122.4 144 
z
" style="fill: none"/>
   </g>
   <g id="matplotlib.axis_7">
    <g id="xtick_7">
     <g id="line2d_22">
      <g>
       <use xlink:href="#me06bd4904a" x="122.4" y="144" style="fill: #262626; stroke: #262626"/>
      </g>
     </g>
     <g id="text_21">
      <text style="font-size: 8px; font-family: 'Arial'; text-anchor: middle; fill: #262626" x="122.4" y="158.02625" transform="rotate(-0 122.4 158.02625)">0</text>
     </g>
    </g>
    <g id="xtick_8">
     <g id="line2d_23">
      <g>
       <use xlink:href="#me06bd4904a" x="170.4" y="144" style="fill: #262626; stroke: #262626"/>
      </g>
     </g>
     <g id="text_22">
      <text style="font-size: 8px; font-family: 'Arial'; text-anchor: middle; fill: #262626" x="170.4" y="158.02625" transform="rotate(-0 170.4 158.02625)">10</text>
     </g>
    </g>
    <g id="text_23">
     <text style="font-size: 9px; font-family: 'Arial'; text-anchor: middle; fill: #262626" x="151.2" y="170.167969" transform="rotate(-0 151.2 170.167969)">distance (mm)</text>
    </g>
   </g>
   <g id="matplotlib.axis_8">
    <g id="ytick_10">
     <g id="line2d_24">
      <g>
       <use xlink:href="#maea3a24688" x="122.4" y="144" style="fill: #262626; stroke: #262626"/>
      </g>
     </g>
     <g id="text_24">
      <text style="font-size: 8px; font-family: 'Arial'; text-anchor: end; fill: #262626" x="114.1" y="146.863125" transform="rotate(-0 114.1 146.863125)">0.0</text>
     </g>
    </g>
    <g id="ytick_11">
     <g id="line2d_25">
      <g>
       <use xlink:href="#maea3a24688" x="122.4" y="115.2" style="fill: #262626; stroke: #262626"/>
      </g>
     </g>
     <g id="text_25">
      <text style="font-size: 8px; font-family: 'Arial'; text-anchor: end; fill: #262626" x="114.1" y="118.063125" transform="rotate(-0 114.1 118.063125)">0.5</text>
     </g>
    </g>
    <g id="ytick_12">
     <g id="line2d_26">
      <g>
       <use xlink:href="#maea3a24688" x="122.4" y="86.4" style="fill: #262626; stroke: #262626"/>
      </g>
     </g>
     <g id="text_26">
      <text style="font-size: 8px; font-family: 'Arial'; text-anchor: end; fill: #262626" x="114.1" y="89.263125" transform="rotate(-0 114.1 89.263125)">1.0</text>
     </g>
    </g>
   </g>
   <g id="line2d_27">
    <path d="M 125.226703 139.689254 
L 125.788941 139.689254 
L 126.351179 139.689254 
L 126.913417 139.689254 
L 127.475655 139.689254 
L 128.037893 135.854292 
L 128.600131 135.854292 
L 129.162369 135.854292 
L 129.724607 135.854292 
L 130.286845 132.2761 
L 130.849083 132.2761 
L 131.411321 129.131523 
L 131.973559 129.131523 
L 132.535797 129.131523 
L 133.098035 126.204197 
L 133.660273 126.204197 
L 134.222511 126.204197 
L 134.784749 126.204197 
L 135.346987 124.214137 
L 135.909225 122.612352 
L 136.471462 122.612352 
L 137.0337 122.612352 
L 137.595938 122.612352 
L 138.158176 121.166833 
L 138.720414 119.907545 
L 139.282652 118.706555 
L 139.84489 118.706555 
L 140.407128 117.804234 
L 140.969366 116.59924 
L 141.531604 116.59924 
L 142.093842 115.942121 
L 142.65608 115.329178 
L 143.218318 115.329178 
L 143.780556 115.329178 
L 144.342794 114.721933 
L 144.905032 114.721933 
L 145.46727 114.133891 
L 146.029508 113.690686 
L 146.591746 113.294682 
L 147.153984 113.294682 
L 147.716222 112.892781 
L 148.278459 112.892781 
L 148.840697 112.68755 
L 149.402935 112.597459 
L 149.965173 112.497682 
L 150.527411 112.191846 
L 151.089649 111.848401 
L 151.651887 111.848401 
L 152.214125 111.581154 
L 152.776363 111.249689 
L 153.338601 110.969655 
L 153.900839 110.513726 
L 154.463077 110.073207 
L 155.025315 110.073207 
L 155.587553 109.607455 
L 156.149791 109.114444 
L 156.712029 108.699842 
L 157.274267 108.170357 
L 157.836505 107.539171 
L 158.398743 106.865399 
L 158.960981 106.272755 
L 159.523219 106.272755 
L 160.085457 105.66154 
L 160.647694 104.997704 
L 161.209932 104.243144 
L 161.77217 103.598663 
L 162.334408 102.820562 
L 162.896646 102.820562 
L 163.458884 102.015347 
L 164.021122 101.230346 
L 164.58336 100.450776 
L 165.145598 99.825091 
L 165.707836 99.064952 
L 166.270074 99.064952 
L 166.832312 98.276807 
L 167.39455 97.311813 
L 167.956788 96.432216 
L 168.519026 95.680828 
L 169.081264 94.938813 
L 169.643502 94.938813 
L 170.20574 94.053698 
L 170.767978 93.336048 
L 171.330216 92.919644 
L 171.892454 92.22828 
L 172.454691 91.451365 
L 173.016929 91.040687 
L 173.579167 90.404242 
L 174.141405 89.637584 
L 174.703643 89.369307 
L 175.265881 88.848023 
L 175.828119 88.087696 
L 176.390357 87.727162 
L 176.952595 87.170969 
L 177.514833 87.170969 
L 178.077071 87.170969 
L 178.639309 86.987512 
L 179.201547 86.935275 
L 179.763785 86.775231 
L 180.326023 86.775231 
L 180.888261 86.4 
" clip-path="url(#pfa5bd68c09)" style="fill: none; stroke: #9d8ec9; stroke-width: 1.2; stroke-linecap: round"/>
   </g>
   <g id="line2d_28">
    <path d="M 125.226703 142.971068 
L 125.788941 142.971068 
L 126.351179 142.971068 
L 126.913417 142.971068 
L 127.475655 142.971068 
L 128.037893 141.295324 
L 128.600131 141.295324 
L 129.162369 141.295324 
L 129.724607 141.295324 
L 130.286845 139.725195 
L 130.849083 139.725195 
L 131.411321 137.915152 
L 131.973559 137.915152 
L 132.535797 137.915152 
L 133.098035 136.221284 
L 133.660273 136.221284 
L 134.222511 136.221284 
L 134.784749 136.221284 
L 135.346987 134.646705 
L 135.909225 132.987467 
L 136.471462 132.987467 
L 137.0337 132.987467 
L 137.595938 132.987467 
L 138.158176 131.47906 
L 138.720414 130.141874 
L 139.282652 128.928759 
L 139.84489 128.928759 
L 140.407128 127.728356 
L 140.969366 126.590902 
L 141.531604 126.590902 
L 142.093842 125.648479 
L 142.65608 124.539505 
L 143.218318 124.539505 
L 143.780556 124.539505 
L 144.342794 123.575687 
L 144.905032 123.575687 
L 145.46727 122.376271 
L 146.029508 121.525061 
L 146.591746 120.599462 
L 147.153984 120.599462 
L 147.716222 119.763664 
L 148.278459 119.763664 
L 148.840697 118.958029 
L 149.402935 118.388121 
L 149.965173 117.82584 
L 150.527411 116.976612 
L 151.089649 116.29661 
L 151.651887 116.29661 
L 152.214125 115.609392 
L 152.776363 114.980491 
L 153.338601 114.359461 
L 153.900839 113.801956 
L 154.463077 113.169444 
L 155.025315 113.169444 
L 155.587553 112.516068 
L 156.149791 111.928567 
L 156.712029 111.031405 
L 157.274267 110.193977 
L 157.836505 109.016803 
L 158.398743 108.396553 
L 158.960981 107.720381 
L 159.523219 107.720381 
L 160.085457 106.783379 
L 160.647694 105.80188 
L 161.209932 104.598055 
L 161.77217 103.712008 
L 162.334408 102.879514 
L 162.896646 102.879514 
L 163.458884 101.96004 
L 164.021122 101.022112 
L 164.58336 99.602692 
L 165.145598 98.861332 
L 165.707836 97.73267 
L 166.270074 97.73267 
L 166.832312 96.984115 
L 167.39455 96.421916 
L 167.956788 96.138616 
L 168.519026 95.352093 
L 169.081264 94.574356 
L 169.643502 94.574356 
L 170.20574 94.29953 
L 170.767978 93.232767 
L 171.330216 93.008993 
L 171.892454 92.796005 
L 172.454691 92.228528 
L 173.016929 91.892969 
L 173.579167 90.528328 
L 174.141405 90.043858 
L 174.703643 89.784327 
L 175.265881 89.756284 
L 175.828119 89.18358 
L 176.390357 88.873965 
L 176.952595 88.11489 
L 177.514833 88.11489 
L 178.077071 87.20941 
L 178.639309 87.20941 
L 179.201547 87.20941 
L 179.763785 86.4 
L 180.326023 86.4 
L 180.888261 86.4 
" clip-path="url(#pfa5bd68c09)" style="fill: none; stroke: #7fc6aa; stroke-width: 1.2; stroke-linecap: round"/>
   </g>
   <g id="patch_12">
    <path d="M 122.4 144 
L 122.4 86.4 
" style="fill: none; stroke: #262626; stroke-linejoin: miter; stroke-linecap: square"/>
   </g>
   <g id="patch_13">
    <path d="M 122.4 144 
L 180 144 
" style="fill: none; stroke: #262626; stroke-linejoin: miter; stroke-linecap: square"/>
   </g>
  </g>
 </g>
 <defs>
  <clipPath id="p1042dc2688">
   <rect x="36" y="0" width="57.6" height="57.6"/>
  </clipPath>
  <clipPath id="p49b680dc9a">
   <rect x="36" y="86.4" width="57.6" height="57.6"/>
  </clipPath>
  <clipPath id="p3a1db25aff">
   <rect x="122.4" y="0" width="57.6" height="57.6"/>
  </clipPath>
  <clipPath id="pfa5bd68c09">
   <rect x="122.4" y="86.4" width="57.6" height="57.6"/>
  </clipPath>
 </defs>
</svg>
