<?xml version="1.0" encoding="utf-8" standalone="no"?>
<!DOCTYPE svg PUBLIC "-//W3C//DTD SVG 1.1//EN"
  "http://www.w3.org/Graphics/SVG/1.1/DTD/svg11.dtd">
<svg xmlns:xlink="http://www.w3.org/1999/xlink" width="432pt" height="288pt" viewBox="0 0 432 288" xmlns="http://www.w3.org/2000/svg" version="1.1">
 <metadata>
  <rdf:RDF xmlns:dc="http://purl.org/dc/elements/1.1/" xmlns:cc="http://creativecommons.org/ns#" xmlns:rdf="http://www.w3.org/1999/02/22-rdf-syntax-ns#">
   <cc:Work>
    <dc:type rdf:resource="http://purl.org/dc/dcmitype/StillImage"/>
    <dc:date>2025-11-14T14:07:50.072645</dc:date>
    <dc:format>image/svg+xml</dc:format>
    <dc:creator>
     <cc:Agent>
      <dc:title>Matplotlib v3.10.7, https://matplotlib.org/</dc:title>
     </cc:Agent>
    </dc:creator>
   </cc:Work>
  </rdf:RDF>
 </metadata>
 <defs>
  <style type="text/css">*{stroke-linejoin: round; stroke-linecap: butt}</style>
 </defs>
 <g id="figure_1">
  <g id="patch_1">
   <path d="M 0 288 
L 432 288 
L 432 0 
L 0 0 
L 0 288 
z
" style="fill: none"/>
  </g>
  <g id="axes_1">
   <g id="patch_2">
    <path d="M 54 56 
L 137.7 56 
L 137.7 0 
L 54 0 
L 54 56 
z
" style="fill: none"/>
   </g>
   <g id="matplotlib.axis_1">
    <g id="xtick_1">
     <g id="line2d_1">
      <defs>
       <path id="m7d1b0943aa" d="M 0 0 
L 0 4.8 
" style="stroke: #262626"/>
      </defs>
      <g>
       <use xlink:href="#m7d1b0943aa" x="68.385576" y="56" style="fill: #262626; stroke: #262626"/>
      </g>
     </g>
     <g id="text_1">
      <text style="font-size: 8px; font-family: 'Arial'; text-anchor: middle; fill: #262626" x="68.385576" y="70.02625" transform="rotate(-0 68.385576 70.02625)">0.1</text>
     </g>
    </g>
    <g id="xtick_2">
     <g id="line2d_2">
      <g>
       <use xlink:href="#m7d1b0943aa" x="123.314424" y="56" style="fill: #262626; stroke: #262626"/>
      </g>
     </g>
     <g id="text_2">
      <text style="font-size: 8px; font-family: 'Arial'; text-anchor: middle; fill: #262626" x="123.314424" y="70.02625" transform="rotate(-0 123.314424 70.02625)">0.2</text>
     </g>
    </g>
    <g id="text_3">
     <text style="font-size: 9px; font-family: 'Arial'; text-anchor: middle; fill: #262626" x="95.85" y="82.167969" transform="rotate(-0 95.85 82.167969)">single ch SLIC</text>
    </g>
   </g>
   <g id="matplotlib.axis_2">
    <g id="ytick_1">
     <g id="line2d_3">
      <defs>
       <path id="mef4770b0fe" d="M 0 0 
L -4.8 0 
" style="stroke: #262626"/>
      </defs>
      <g>
       <use xlink:href="#mef4770b0fe" x="54" y="56" style="fill: #262626; stroke: #262626"/>
      </g>
     </g>
     <g id="text_4">
      <text style="font-size: 8px; font-family: 'Arial'; text-anchor: end; fill: #262626" x="45.7" y="58.863125" transform="rotate(-0 45.7 58.863125)">0</text>
     </g>
    </g>
    <g id="ytick_2">
     <g id="line2d_4">
      <g>
       <use xlink:href="#mef4770b0fe" x="54" y="22.244726" style="fill: #262626; stroke: #262626"/>
      </g>
     </g>
     <g id="text_5">
      <text style="font-size: 8px; font-family: 'Arial'; text-anchor: end; fill: #262626" x="45.7" y="25.107851" transform="rotate(-0 45.7 25.107851)">50</text>
     </g>
    </g>
   </g>
   <g id="patch_3">
    <path d="M 57.804545 56 
L 59.423501 56 
L 59.423501 56 
L 57.804545 56 
z
" clip-path="url(#p6520480888)" style="fill: #da70d6"/>
   </g>
   <g id="patch_4">
    <path d="M 61.851934 56 
L 63.47089 56 
L 63.47089 56 
L 61.851934 56 
z
" clip-path="url(#p6520480888)" style="fill: #da70d6"/>
   </g>
   <g id="patch_5">
    <path d="M 65.899323 56 
L 67.518279 56 
L 67.518279 56 
L 65.899323 56 
z
" clip-path="url(#p6520480888)" style="fill: #da70d6"/>
   </g>
   <g id="patch_6">
    <path d="M 69.946712 56 
L 71.565667 56 
L 71.565667 49.248945 
L 69.946712 49.248945 
z
" clip-path="url(#p6520480888)" style="fill: #da70d6"/>
   </g>
   <g id="patch_7">
    <path d="M 73.994101 56 
L 75.613056 56 
L 75.613056 41.147679 
L 73.994101 41.147679 
z
" clip-path="url(#p6520480888)" style="fill: #da70d6"/>
   </g>
   <g id="patch_8">
    <path d="M 78.041489 56 
L 79.660445 56 
L 79.660445 35.746835 
L 78.041489 35.746835 
z
" clip-path="url(#p6520480888)" style="fill: #da70d6"/>
   </g>
   <g id="patch_9">
    <path d="M 82.088878 56 
L 83.707834 56 
L 83.707834 22.244726 
L 82.088878 22.244726 
z
" clip-path="url(#p6520480888)" style="fill: #da70d6"/>
   </g>
   <g id="patch_10">
    <path d="M 86.136267 56 
L 87.755222 56 
L 87.755222 7.392405 
L 86.136267 7.392405 
z
" clip-path="url(#p6520480888)" style="fill: #da70d6"/>
   </g>
   <g id="patch_11">
    <path d="M 90.183656 56 
L 91.802611 56 
L 91.802611 8.742616 
L 90.183656 8.742616 
z
" clip-path="url(#p6520480888)" style="fill: #da70d6"/>
   </g>
   <g id="patch_12">
    <path d="M 94.231044 56 
L 95.85 56 
L 95.85 11.443038 
L 94.231044 11.443038 
z
" clip-path="url(#p6520480888)" style="fill: #da70d6"/>
   </g>
   <g id="patch_13">
    <path d="M 98.278433 56 
L 99.897389 56 
L 99.897389 22.244726 
L 98.278433 22.244726 
z
" clip-path="url(#p6520480888)" style="fill: #da70d6"/>
   </g>
   <g id="patch_14">
    <path d="M 102.325822 56 
L 103.944778 56 
L 103.944778 43.848101 
L 102.325822 43.848101 
z
" clip-path="url(#p6520480888)" style="fill: #da70d6"/>
   </g>
   <g id="patch_15">
    <path d="M 106.373211 56 
L 107.992166 56 
L 107.992166 49.924051 
L 106.373211 49.924051 
z
" clip-path="url(#p6520480888)" style="fill: #da70d6"/>
   </g>
   <g id="patch_16">
    <path d="M 110.4206 56 
L 112.039555 56 
L 112.039555 53.974684 
L 110.4206 53.974684 
z
" clip-path="url(#p6520480888)" style="fill: #da70d6"/>
   </g>
   <g id="patch_17">
    <path d="M 114.467988 56 
L 116.086944 56 
L 116.086944 56 
L 114.467988 56 
z
" clip-path="url(#p6520480888)" style="fill: #da70d6"/>
   </g>
   <g id="patch_18">
    <path d="M 118.515377 56 
L 120.134333 56 
L 120.134333 56 
L 118.515377 56 
z
" clip-path="url(#p6520480888)" style="fill: #da70d6"/>
   </g>
   <g id="patch_19">
    <path d="M 122.562766 56 
L 124.181721 56 
L 124.181721 56 
L 122.562766 56 
z
" clip-path="url(#p6520480888)" style="fill: #da70d6"/>
   </g>
   <g id="patch_20">
    <path d="M 126.610155 56 
L 128.22911 56 
L 128.22911 56 
L 126.610155 56 
z
" clip-path="url(#p6520480888)" style="fill: #da70d6"/>
   </g>
   <g id="patch_21">
    <path d="M 130.657544 56 
L 132.276499 56 
L 132.276499 56 
L 130.657544 56 
z
" clip-path="url(#p6520480888)" style="fill: #da70d6"/>
   </g>
   <g id="patch_22">
    <path d="M 59.423501 56 
L 61.042456 56 
L 61.042456 56 
L 59.423501 56 
z
" clip-path="url(#p6520480888)" style="fill: #55a868"/>
   </g>
   <g id="patch_23">
    <path d="M 63.47089 56 
L 65.089845 56 
L 65.089845 56 
L 63.47089 56 
z
" clip-path="url(#p6520480888)" style="fill: #55a868"/>
   </g>
   <g id="patch_24">
    <path d="M 67.518279 56 
L 69.137234 56 
L 69.137234 56 
L 67.518279 56 
z
" clip-path="url(#p6520480888)" style="fill: #55a868"/>
   </g>
   <g id="patch_25">
    <path d="M 71.565667 56 
L 73.184623 56 
L 73.184623 56 
L 71.565667 56 
z
" clip-path="url(#p6520480888)" style="fill: #55a868"/>
   </g>
   <g id="patch_26">
    <path d="M 75.613056 56 
L 77.232012 56 
L 77.232012 55.324895 
L 75.613056 55.324895 
z
" clip-path="url(#p6520480888)" style="fill: #55a868"/>
   </g>
   <g id="patch_27">
    <path d="M 79.660445 56 
L 81.2794 56 
L 81.2794 56 
L 79.660445 56 
z
" clip-path="url(#p6520480888)" style="fill: #55a868"/>
   </g>
   <g id="patch_28">
    <path d="M 83.707834 56 
L 85.326789 56 
L 85.326789 55.324895 
L 83.707834 55.324895 
z
" clip-path="url(#p6520480888)" style="fill: #55a868"/>
   </g>
   <g id="patch_29">
    <path d="M 87.755222 56 
L 89.374178 56 
L 89.374178 54.649789 
L 87.755222 54.649789 
z
" clip-path="url(#p6520480888)" style="fill: #55a868"/>
   </g>
   <g id="patch_30">
    <path d="M 91.802611 56 
L 93.421567 56 
L 93.421567 49.248945 
L 91.802611 49.248945 
z
" clip-path="url(#p6520480888)" style="fill: #55a868"/>
   </g>
   <g id="patch_31">
    <path d="M 95.85 56 
L 97.468956 56 
L 97.468956 33.721519 
L 95.85 33.721519 
z
" clip-path="url(#p6520480888)" style="fill: #55a868"/>
   </g>
   <g id="patch_32">
    <path d="M 99.897389 56 
L 101.516344 56 
L 101.516344 20.219409 
L 99.897389 20.219409 
z
" clip-path="url(#p6520480888)" style="fill: #55a868"/>
   </g>
   <g id="patch_33">
    <path d="M 103.944778 56 
L 105.563733 56 
L 105.563733 12.118143 
L 103.944778 12.118143 
z
" clip-path="url(#p6520480888)" style="fill: #55a868"/>
   </g>
   <g id="patch_34">
    <path d="M 107.992166 56 
L 109.611122 56 
L 109.611122 2.666667 
L 107.992166 2.666667 
z
" clip-path="url(#p6520480888)" style="fill: #55a868"/>
   </g>
   <g id="patch_35">
    <path d="M 112.039555 56 
L 113.658511 56 
L 113.658511 4.016878 
L 112.039555 4.016878 
z
" clip-path="url(#p6520480888)" style="fill: #55a868"/>
   </g>
   <g id="patch_36">
    <path d="M 116.086944 56 
L 117.705899 56 
L 117.705899 24.945148 
L 116.086944 24.945148 
z
" clip-path="url(#p6520480888)" style="fill: #55a868"/>
   </g>
   <g id="patch_37">
    <path d="M 120.134333 56 
L 121.753288 56 
L 121.753288 40.472574 
L 120.134333 40.472574 
z
" clip-path="url(#p6520480888)" style="fill: #55a868"/>
   </g>
   <g id="patch_38">
    <path d="M 124.181721 56 
L 125.800677 56 
L 125.800677 50.599156 
L 124.181721 50.599156 
z
" clip-path="url(#p6520480888)" style="fill: #55a868"/>
   </g>
   <g id="patch_39">
    <path d="M 128.22911 56 
L 129.848066 56 
L 129.848066 55.324895 
L 128.22911 55.324895 
z
" clip-path="url(#p6520480888)" style="fill: #55a868"/>
   </g>
   <g id="patch_40">
    <path d="M 132.276499 56 
L 133.895455 56 
L 133.895455 55.324895 
L 132.276499 55.324895 
z
" clip-path="url(#p6520480888)" style="fill: #55a868"/>
   </g>
   <g id="patch_41">
    <path d="M 54 56 
L 54 0 
" style="fill: none; stroke: #262626; stroke-linejoin: miter; stroke-linecap: square"/>
   </g>
   <g id="patch_42">
    <path d="M 54 56 
L 137.7 56 
" style="fill: none; stroke: #262626; stroke-linejoin: miter; stroke-linecap: square"/>
   </g>
  </g>
  <g id="axes_2">
   <g id="patch_43">
    <path d="M 179.55 56 
L 263.25 56 
L 263.25 0 
L 179.55 0 
L 179.55 56 
z
" style="fill: none"/>
   </g>
   <g id="matplotlib.axis_3">
    <g id="xtick_3">
     <g id="line2d_5">
      <g>
       <use xlink:href="#m7d1b0943aa" x="193.935576" y="56" style="fill: #262626; stroke: #262626"/>
      </g>
     </g>
     <g id="text_6">
      <text style="font-size: 8px; font-family: 'Arial'; text-anchor: middle; fill: #262626" x="193.935576" y="70.02625" transform="rotate(-0 193.935576 70.02625)">0.1</text>
     </g>
    </g>
    <g id="xtick_4">
     <g id="line2d_6">
      <g>
       <use xlink:href="#m7d1b0943aa" x="248.864424" y="56" style="fill: #262626; stroke: #262626"/>
      </g>
     </g>
     <g id="text_7">
      <text style="font-size: 8px; font-family: 'Arial'; text-anchor: middle; fill: #262626" x="248.864424" y="70.02625" transform="rotate(-0 248.864424 70.02625)">0.2</text>
     </g>
    </g>
    <g id="text_8">
     <text style="font-size: 9px; font-family: 'Arial'; text-anchor: middle; fill: #262626" x="221.4" y="82.167969" transform="rotate(-0 221.4 82.167969)">single ch SLIC</text>
    </g>
   </g>
   <g id="matplotlib.axis_4">
    <g id="ytick_3">
     <g id="line2d_7">
      <g>
       <use xlink:href="#mef4770b0fe" x="179.55" y="56" style="fill: #262626; stroke: #262626"/>
      </g>
     </g>
     <g id="text_9">
      <text style="font-size: 8px; font-family: 'Arial'; text-anchor: end; fill: #262626" x="171.25" y="58.863125" transform="rotate(-0 171.25 58.863125)">0</text>
     </g>
    </g>
    <g id="ytick_4">
     <g id="line2d_8">
      <g>
       <use xlink:href="#mef4770b0fe" x="179.55" y="22.244726" style="fill: #262626; stroke: #262626"/>
      </g>
     </g>
     <g id="text_10">
      <text style="font-size: 8px; font-family: 'Arial'; text-anchor: end; fill: #262626" x="171.25" y="25.107851" transform="rotate(-0 171.25 25.107851)">50</text>
     </g>
    </g>
   </g>
   <g id="patch_44">
    <path d="M 183.354545 56 
L 184.973501 56 
L 184.973501 56 
L 183.354545 56 
z
" clip-path="url(#p5e4b6885ed)" style="fill: #bbbbbb"/>
   </g>
   <g id="patch_45">
    <path d="M 187.401934 56 
L 189.02089 56 
L 189.02089 56 
L 187.401934 56 
z
" clip-path="url(#p5e4b6885ed)" style="fill: #bbbbbb"/>
   </g>
   <g id="patch_46">
    <path d="M 191.449323 56 
L 193.068279 56 
L 193.068279 56 
L 191.449323 56 
z
" clip-path="url(#p5e4b6885ed)" style="fill: #bbbbbb"/>
   </g>
   <g id="patch_47">
    <path d="M 195.496712 56 
L 197.115667 56 
L 197.115667 56 
L 195.496712 56 
z
" clip-path="url(#p5e4b6885ed)" style="fill: #bbbbbb"/>
   </g>
   <g id="patch_48">
    <path d="M 199.544101 56 
L 201.163056 56 
L 201.163056 54.649789 
L 199.544101 54.649789 
z
" clip-path="url(#p5e4b6885ed)" style="fill: #bbbbbb"/>
   </g>
   <g id="patch_49">
    <path d="M 203.591489 56 
L 205.210445 56 
L 205.210445 53.974684 
L 203.591489 53.974684 
z
" clip-path="url(#p5e4b6885ed)" style="fill: #bbbbbb"/>
   </g>
   <g id="patch_50">
    <path d="M 207.638878 56 
L 209.257834 56 
L 209.257834 48.57384 
L 207.638878 48.57384 
z
" clip-path="url(#p5e4b6885ed)" style="fill: #bbbbbb"/>
   </g>
   <g id="patch_51">
    <path d="M 211.686267 56 
L 213.305222 56 
L 213.305222 36.421941 
L 211.686267 36.421941 
z
" clip-path="url(#p5e4b6885ed)" style="fill: #bbbbbb"/>
   </g>
   <g id="patch_52">
    <path d="M 215.733656 56 
L 217.352611 56 
L 217.352611 26.970464 
L 215.733656 26.970464 
z
" clip-path="url(#p5e4b6885ed)" style="fill: #bbbbbb"/>
   </g>
   <g id="patch_53">
    <path d="M 219.781044 56 
L 221.4 56 
L 221.4 10.092827 
L 219.781044 10.092827 
z
" clip-path="url(#p5e4b6885ed)" style="fill: #bbbbbb"/>
   </g>
   <g id="patch_54">
    <path d="M 223.828433 56 
L 225.447389 56 
L 225.447389 2.666667 
L 223.828433 2.666667 
z
" clip-path="url(#p5e4b6885ed)" style="fill: #bbbbbb"/>
   </g>
   <g id="patch_55">
    <path d="M 227.875822 56 
L 229.494778 56 
L 229.494778 4.691983 
L 227.875822 4.691983 
z
" clip-path="url(#p5e4b6885ed)" style="fill: #bbbbbb"/>
   </g>
   <g id="patch_56">
    <path d="M 231.923211 56 
L 233.542166 56 
L 233.542166 24.945148 
L 231.923211 24.945148 
z
" clip-path="url(#p5e4b6885ed)" style="fill: #bbbbbb"/>
   </g>
   <g id="patch_57">
    <path d="M 235.9706 56 
L 237.589555 56 
L 237.589555 36.421941 
L 235.9706 36.421941 
z
" clip-path="url(#p5e4b6885ed)" style="fill: #bbbbbb"/>
   </g>
   <g id="patch_58">
    <path d="M 240.017988 56 
L 241.636944 56 
L 241.636944 48.57384 
L 240.017988 48.57384 
z
" clip-path="url(#p5e4b6885ed)" style="fill: #bbbbbb"/>
   </g>
   <g id="patch_59">
    <path d="M 244.065377 56 
L 245.684333 56 
L 245.684333 54.649789 
L 244.065377 54.649789 
z
" clip-path="url(#p5e4b6885ed)" style="fill: #bbbbbb"/>
   </g>
   <g id="patch_60">
    <path d="M 248.112766 56 
L 249.731721 56 
L 249.731721 56 
L 248.112766 56 
z
" clip-path="url(#p5e4b6885ed)" style="fill: #bbbbbb"/>
   </g>
   <g id="patch_61">
    <path d="M 252.160155 56 
L 253.77911 56 
L 253.77911 55.324895 
L 252.160155 55.324895 
z
" clip-path="url(#p5e4b6885ed)" style="fill: #bbbbbb"/>
   </g>
   <g id="patch_62">
    <path d="M 256.207544 56 
L 257.826499 56 
L 257.826499 56 
L 256.207544 56 
z
" clip-path="url(#p5e4b6885ed)" style="fill: #bbbbbb"/>
   </g>
   <g id="patch_63">
    <path d="M 184.973501 56 
L 186.592456 56 
L 186.592456 56 
L 184.973501 56 
z
" clip-path="url(#p5e4b6885ed)" style="fill: #dddddd"/>
   </g>
   <g id="patch_64">
    <path d="M 189.02089 56 
L 190.639845 56 
L 190.639845 56 
L 189.02089 56 
z
" clip-path="url(#p5e4b6885ed)" style="fill: #dddddd"/>
   </g>
   <g id="patch_65">
    <path d="M 193.068279 56 
L 194.687234 56 
L 194.687234 55.324895 
L 193.068279 55.324895 
z
" clip-path="url(#p5e4b6885ed)" style="fill: #dddddd"/>
   </g>
   <g id="patch_66">
    <path d="M 197.115667 56 
L 198.734623 56 
L 198.734623 55.324895 
L 197.115667 55.324895 
z
" clip-path="url(#p5e4b6885ed)" style="fill: #dddddd"/>
   </g>
   <g id="patch_67">
    <path d="M 201.163056 56 
L 202.782012 56 
L 202.782012 53.299578 
L 201.163056 53.299578 
z
" clip-path="url(#p5e4b6885ed)" style="fill: #dddddd"/>
   </g>
   <g id="patch_68">
    <path d="M 205.210445 56 
L 206.8294 56 
L 206.8294 51.949367 
L 205.210445 51.949367 
z
" clip-path="url(#p5e4b6885ed)" style="fill: #dddddd"/>
   </g>
   <g id="patch_69">
    <path d="M 209.257834 56 
L 210.876789 56 
L 210.876789 49.924051 
L 209.257834 49.924051 
z
" clip-path="url(#p5e4b6885ed)" style="fill: #dddddd"/>
   </g>
   <g id="patch_70">
    <path d="M 213.305222 56 
L 214.924178 56 
L 214.924178 35.746835 
L 213.305222 35.746835 
z
" clip-path="url(#p5e4b6885ed)" style="fill: #dddddd"/>
   </g>
   <g id="patch_71">
    <path d="M 217.352611 56 
L 218.971567 56 
L 218.971567 24.945148 
L 217.352611 24.945148 
z
" clip-path="url(#p5e4b6885ed)" style="fill: #dddddd"/>
   </g>
   <g id="patch_72">
    <path d="M 221.4 56 
L 223.018956 56 
L 223.018956 12.793249 
L 221.4 12.793249 
z
" clip-path="url(#p5e4b6885ed)" style="fill: #dddddd"/>
   </g>
   <g id="patch_73">
    <path d="M 225.447389 56 
L 227.066344 56 
L 227.066344 8.067511 
L 225.447389 8.067511 
z
" clip-path="url(#p5e4b6885ed)" style="fill: #dddddd"/>
   </g>
   <g id="patch_74">
    <path d="M 229.494778 56 
L 231.113733 56 
L 231.113733 6.042194 
L 229.494778 6.042194 
z
" clip-path="url(#p5e4b6885ed)" style="fill: #dddddd"/>
   </g>
   <g id="patch_75">
    <path d="M 233.542166 56 
L 235.161122 56 
L 235.161122 21.56962 
L 233.542166 21.56962 
z
" clip-path="url(#p5e4b6885ed)" style="fill: #dddddd"/>
   </g>
   <g id="patch_76">
    <path d="M 237.589555 56 
L 239.208511 56 
L 239.208511 39.797468 
L 237.589555 39.797468 
z
" clip-path="url(#p5e4b6885ed)" style="fill: #dddddd"/>
   </g>
   <g id="patch_77">
    <path d="M 241.636944 56 
L 243.255899 56 
L 243.255899 45.873418 
L 241.636944 45.873418 
z
" clip-path="url(#p5e4b6885ed)" style="fill: #dddddd"/>
   </g>
   <g id="patch_78">
    <path d="M 245.684333 56 
L 247.303288 56 
L 247.303288 54.649789 
L 245.684333 54.649789 
z
" clip-path="url(#p5e4b6885ed)" style="fill: #dddddd"/>
   </g>
   <g id="patch_79">
    <path d="M 249.731721 56 
L 251.350677 56 
L 251.350677 55.324895 
L 249.731721 55.324895 
z
" clip-path="url(#p5e4b6885ed)" style="fill: #dddddd"/>
   </g>
   <g id="patch_80">
    <path d="M 253.77911 56 
L 255.398066 56 
L 255.398066 55.324895 
L 253.77911 55.324895 
z
" clip-path="url(#p5e4b6885ed)" style="fill: #dddddd"/>
   </g>
   <g id="patch_81">
    <path d="M 257.826499 56 
L 259.445455 56 
L 259.445455 56 
L 257.826499 56 
z
" clip-path="url(#p5e4b6885ed)" style="fill: #dddddd"/>
   </g>
   <g id="patch_82">
    <path d="M 179.55 56 
L 179.55 0 
" style="fill: none; stroke: #262626; stroke-linejoin: miter; stroke-linecap: square"/>
   </g>
   <g id="patch_83">
    <path d="M 179.55 56 
L 263.25 56 
" style="fill: none; stroke: #262626; stroke-linejoin: miter; stroke-linecap: square"/>
   </g>
  </g>
  <g id="axes_3">
   <g id="patch_84">
    <path d="M 305.1 56 
L 388.8 56 
L 388.8 0 
L 305.1 0 
L 305.1 56 
z
" style="fill: none"/>
   </g>
   <g id="matplotlib.axis_5">
    <g id="xtick_5">
     <g id="line2d_9">
      <g>
       <use xlink:href="#m7d1b0943aa" x="308.904545" y="56" style="fill: #262626; stroke: #262626"/>
      </g>
     </g>
     <g id="text_11">
      <text style="font-size: 8px; font-family: 'Arial'; text-anchor: middle; fill: #262626" x="308.904545" y="70.02625" transform="rotate(-0 308.904545 70.02625)">0</text>
     </g>
    </g>
    <g id="xtick_6">
     <g id="line2d_10">
      <g>
       <use xlink:href="#m7d1b0943aa" x="345.376978" y="56" style="fill: #262626; stroke: #262626"/>
      </g>
     </g>
     <g id="text_12">
      <text style="font-size: 8px; font-family: 'Arial'; text-anchor: middle; fill: #262626" x="345.376978" y="70.02625" transform="rotate(-0 345.376978 70.02625)">1</text>
     </g>
    </g>
    <g id="xtick_7">
     <g id="line2d_11">
      <g>
       <use xlink:href="#m7d1b0943aa" x="381.849411" y="56" style="fill: #262626; stroke: #262626"/>
      </g>
     </g>
     <g id="text_13">
      <text style="font-size: 8px; font-family: 'Arial'; text-anchor: middle; fill: #262626" x="381.849411" y="70.02625" transform="rotate(-0 381.849411 70.02625)">2</text>
     </g>
    </g>
    <g id="text_14">
     <text style="font-size: 9px; font-family: 'Arial'; text-anchor: middle; fill: #262626" x="346.95" y="82.058281" transform="rotate(-0 346.95 82.058281)">single ch d-prime</text>
    </g>
   </g>
   <g id="matplotlib.axis_6">
    <g id="ytick_5">
     <g id="line2d_12">
      <g>
       <use xlink:href="#mef4770b0fe" x="305.1" y="56" style="fill: #262626; stroke: #262626"/>
      </g>
     </g>
     <g id="text_15">
      <text style="font-size: 8px; font-family: 'Arial'; text-anchor: end; fill: #262626" x="296.8" y="58.863125" transform="rotate(-0 296.8 58.863125)">0</text>
     </g>
    </g>
    <g id="ytick_6">
     <g id="line2d_13">
      <g>
       <use xlink:href="#mef4770b0fe" x="305.1" y="31.757576" style="fill: #262626; stroke: #262626"/>
      </g>
     </g>
     <g id="text_16">
      <text style="font-size: 8px; font-family: 'Arial'; text-anchor: end; fill: #262626" x="296.8" y="34.620701" transform="rotate(-0 296.8 34.620701)">5</text>
     </g>
    </g>
    <g id="ytick_7">
     <g id="line2d_14">
      <g>
       <use xlink:href="#mef4770b0fe" x="305.1" y="7.515152" style="fill: #262626; stroke: #262626"/>
      </g>
     </g>
     <g id="text_17">
      <text style="font-size: 8px; font-family: 'Arial'; text-anchor: end; fill: #262626" x="296.8" y="10.378277" transform="rotate(-0 296.8 10.378277)">10</text>
     </g>
    </g>
   </g>
   <g id="patch_85">
    <path d="M 308.904545 56 
L 312.551789 56 
L 312.551789 22.060606 
L 308.904545 22.060606 
z
" clip-path="url(#p84c04bc54a)" style="fill: #cccccc"/>
   </g>
   <g id="patch_86">
    <path d="M 312.551789 56 
L 316.199032 56 
L 316.199032 26.909091 
L 312.551789 26.909091 
z
" clip-path="url(#p84c04bc54a)" style="fill: #cccccc"/>
   </g>
   <g id="patch_87">
    <path d="M 316.199032 56 
L 319.846275 56 
L 319.846275 2.666667 
L 316.199032 2.666667 
z
" clip-path="url(#p84c04bc54a)" style="fill: #cccccc"/>
   </g>
   <g id="patch_88">
    <path d="M 319.846275 56 
L 323.493519 56 
L 323.493519 17.212121 
L 319.846275 17.212121 
z
" clip-path="url(#p84c04bc54a)" style="fill: #cccccc"/>
   </g>
   <g id="patch_89">
    <path d="M 323.493519 56 
L 327.140762 56 
L 327.140762 31.757576 
L 323.493519 31.757576 
z
" clip-path="url(#p84c04bc54a)" style="fill: #cccccc"/>
   </g>
   <g id="patch_90">
    <path d="M 327.140762 56 
L 330.788005 56 
L 330.788005 17.212121 
L 327.140762 17.212121 
z
" clip-path="url(#p84c04bc54a)" style="fill: #cccccc"/>
   </g>
   <g id="patch_91">
    <path d="M 330.788005 56 
L 334.435248 56 
L 334.435248 51.151515 
L 330.788005 51.151515 
z
" clip-path="url(#p84c04bc54a)" style="fill: #cccccc"/>
   </g>
   <g id="patch_92">
    <path d="M 334.435248 56 
L 338.082492 56 
L 338.082492 51.151515 
L 334.435248 51.151515 
z
" clip-path="url(#p84c04bc54a)" style="fill: #cccccc"/>
   </g>
   <g id="patch_93">
    <path d="M 338.082492 56 
L 341.729735 56 
L 341.729735 51.151515 
L 338.082492 51.151515 
z
" clip-path="url(#p84c04bc54a)" style="fill: #cccccc"/>
   </g>
   <g id="patch_94">
    <path d="M 341.729735 56 
L 345.376978 56 
L 345.376978 46.30303 
L 341.729735 46.30303 
z
" clip-path="url(#p84c04bc54a)" style="fill: #cccccc"/>
   </g>
   <g id="patch_95">
    <path d="M 345.376978 56 
L 349.024222 56 
L 349.024222 56 
L 345.376978 56 
z
" clip-path="url(#p84c04bc54a)" style="fill: #cccccc"/>
   </g>
   <g id="patch_96">
    <path d="M 349.024222 56 
L 352.671465 56 
L 352.671465 56 
L 349.024222 56 
z
" clip-path="url(#p84c04bc54a)" style="fill: #cccccc"/>
   </g>
   <g id="patch_97">
    <path d="M 352.671465 56 
L 356.318708 56 
L 356.318708 56 
L 352.671465 56 
z
" clip-path="url(#p84c04bc54a)" style="fill: #cccccc"/>
   </g>
   <g id="patch_98">
    <path d="M 356.318708 56 
L 359.965951 56 
L 359.965951 56 
L 356.318708 56 
z
" clip-path="url(#p84c04bc54a)" style="fill: #cccccc"/>
   </g>
   <g id="patch_99">
    <path d="M 359.965951 56 
L 363.613195 56 
L 363.613195 56 
L 359.965951 56 
z
" clip-path="url(#p84c04bc54a)" style="fill: #cccccc"/>
   </g>
   <g id="patch_100">
    <path d="M 363.613195 56 
L 367.260438 56 
L 367.260438 56 
L 363.613195 56 
z
" clip-path="url(#p84c04bc54a)" style="fill: #cccccc"/>
   </g>
   <g id="patch_101">
    <path d="M 367.260438 56 
L 370.907681 56 
L 370.907681 56 
L 367.260438 56 
z
" clip-path="url(#p84c04bc54a)" style="fill: #cccccc"/>
   </g>
   <g id="patch_102">
    <path d="M 370.907681 56 
L 374.554925 56 
L 374.554925 56 
L 370.907681 56 
z
" clip-path="url(#p84c04bc54a)" style="fill: #cccccc"/>
   </g>
   <g id="patch_103">
    <path d="M 374.554925 56 
L 378.202168 56 
L 378.202168 56 
L 374.554925 56 
z
" clip-path="url(#p84c04bc54a)" style="fill: #cccccc"/>
   </g>
   <g id="line2d_15">
    <path d="M 384.995455 56 
L 384.995455 0 
" clip-path="url(#p84c04bc54a)" style="fill: none; stroke: #4c72b0; stroke-width: 1.2; stroke-linecap: round"/>
   </g>
   <g id="patch_104">
    <path d="M 305.1 56 
L 305.1 -0 
" style="fill: none; stroke: #262626; stroke-linejoin: miter; stroke-linecap: square"/>
   </g>
   <g id="patch_105">
    <path d="M 305.1 56 
L 388.8 56 
" style="fill: none; stroke: #262626; stroke-linejoin: miter; stroke-linecap: square"/>
   </g>
  </g>
 </g>
 <defs>
  <clipPath id="p6520480888">
   <rect x="54" y="0" width="83.7" height="56"/>
  </clipPath>
  <clipPath id="p5e4b6885ed">
   <rect x="179.55" y="0" width="83.7" height="56"/>
  </clipPath>
  <clipPath id="p84c04bc54a">
   <rect x="305.1" y="0" width="83.7" height="56"/>
  </clipPath>
 </defs>
</svg>
