<?xml version="1.0" encoding="utf-8" standalone="no"?>
<!DOCTYPE svg PUBLIC "-//W3C//DTD SVG 1.1//EN"
  "http://www.w3.org/Graphics/SVG/1.1/DTD/svg11.dtd">
<svg xmlns:xlink="http://www.w3.org/1999/xlink" width="432pt" height="126pt" viewBox="0 0 432 126" xmlns="http://www.w3.org/2000/svg" version="1.1">
 <metadata>
  <rdf:RDF xmlns:dc="http://purl.org/dc/elements/1.1/" xmlns:cc="http://creativecommons.org/ns#" xmlns:rdf="http://www.w3.org/1999/02/22-rdf-syntax-ns#">
   <cc:Work>
    <dc:type rdf:resource="http://purl.org/dc/dcmitype/StillImage"/>
    <dc:date>2026-03-19T13:43:42.848486</dc:date>
    <dc:format>image/svg+xml</dc:format>
    <dc:creator>
     <cc:Agent>
      <dc:title>Matplotlib v3.10.7, https://matplotlib.org/</dc:title>
     </cc:Agent>
    </dc:creator>
   </cc:Work>
  </rdf:RDF>
 </metadata>
 <defs>
  <style type="text/css">*{stroke-linejoin: round; stroke-linecap: butt}</style>
 </defs>
 <g id="figure_1">
  <g id="patch_1">
   <path d="M 0 126 
L 432 126 
L 432 0 
L 0 0 
L 0 126 
z
" style="fill: none"/>
  </g>
  <g id="axes_1">
   <g id="patch_2">
    <path d="M 86.4 88.2 
L 172.8 88.2 
L 172.8 0 
L 86.4 0 
L 86.4 88.2 
z
" style="fill: none"/>
   </g>
   <g id="matplotlib.axis_1">
    <g id="xtick_1">
     <g id="line2d_1">
      <defs>
       <path id="m70f8092f95" d="M 0 0 
L 0 4.8 
" style="stroke: #262626"/>
      </defs>
      <g>
       <use xlink:href="#m70f8092f95" x="119.265072" y="88.2" style="fill: #262626; stroke: #262626"/>
      </g>
     </g>
     <g id="text_1">
      <text style="font-size: 8px; font-family: 'Arial'; text-anchor: middle; fill: #262626" x="119.265072" y="102.22625" transform="rotate(-0 119.265072 102.22625)">200</text>
     </g>
    </g>
    <g id="xtick_2">
     <g id="line2d_2">
      <g>
       <use xlink:href="#m70f8092f95" x="152.336842" y="88.2" style="fill: #262626; stroke: #262626"/>
      </g>
     </g>
     <g id="text_2">
      <text style="font-size: 8px; font-family: 'Arial'; text-anchor: middle; fill: #262626" x="152.336842" y="102.22625" transform="rotate(-0 152.336842 102.22625)">400</text>
     </g>
    </g>
    <g id="text_3">
     <text style="font-size: 9px; font-family: 'Arial'; text-anchor: middle; fill: #262626" x="129.6" y="114.258281" transform="rotate(-0 129.6 114.258281)">group size</text>
    </g>
   </g>
   <g id="matplotlib.axis_2">
    <g id="ytick_1">
     <g id="line2d_3">
      <defs>
       <path id="ma24e29a1ac" d="M 0 0 
L -4.8 0 
" style="stroke: #262626"/>
      </defs>
      <g>
       <use xlink:href="#ma24e29a1ac" x="86.4" y="88.2" style="fill: #262626; stroke: #262626"/>
      </g>
     </g>
     <g id="text_4">
      <text style="font-size: 8px; font-family: 'Arial'; text-anchor: end; fill: #262626" x="78.1" y="91.063125" transform="rotate(-0 78.1 91.063125)">0.0</text>
     </g>
    </g>
    <g id="ytick_2">
     <g id="line2d_4">
      <g>
       <use xlink:href="#ma24e29a1ac" x="86.4" y="70.56" style="fill: #262626; stroke: #262626"/>
      </g>
     </g>
     <g id="text_5">
      <text style="font-size: 8px; font-family: 'Arial'; text-anchor: end; fill: #262626" x="78.1" y="73.423125" transform="rotate(-0 78.1 73.423125)">0.2</text>
     </g>
    </g>
    <g id="ytick_3">
     <g id="line2d_5">
      <g>
       <use xlink:href="#ma24e29a1ac" x="86.4" y="52.92" style="fill: #262626; stroke: #262626"/>
      </g>
     </g>
     <g id="text_6">
      <text style="font-size: 8px; font-family: 'Arial'; text-anchor: end; fill: #262626" x="78.1" y="55.783125" transform="rotate(-0 78.1 55.783125)">0.4</text>
     </g>
    </g>
    <g id="ytick_4">
     <g id="line2d_6">
      <g>
       <use xlink:href="#ma24e29a1ac" x="86.4" y="35.28" style="fill: #262626; stroke: #262626"/>
      </g>
     </g>
     <g id="text_7">
      <text style="font-size: 8px; font-family: 'Arial'; text-anchor: end; fill: #262626" x="78.1" y="38.143125" transform="rotate(-0 78.1 38.143125)">0.6</text>
     </g>
    </g>
    <g id="ytick_5">
     <g id="line2d_7">
      <g>
       <use xlink:href="#ma24e29a1ac" x="86.4" y="17.64" style="fill: #262626; stroke: #262626"/>
      </g>
     </g>
     <g id="text_8">
      <text style="font-size: 8px; font-family: 'Arial'; text-anchor: end; fill: #262626" x="78.1" y="20.503125" transform="rotate(-0 78.1 20.503125)">0.8</text>
     </g>
    </g>
    <g id="ytick_6">
     <g id="line2d_8">
      <g>
       <use xlink:href="#ma24e29a1ac" x="86.4" y="0" style="fill: #262626; stroke: #262626"/>
      </g>
     </g>
     <g id="text_9">
      <text style="font-size: 8px; font-family: 'Arial'; text-anchor: end; fill: #262626" x="78.1" y="2.863125" transform="rotate(-0 78.1 2.863125)">1.0</text>
     </g>
    </g>
    <g id="text_10">
     <!-- mean $r$ -->
     <g style="fill: #262626" transform="translate(61.19125 58.5) rotate(-90)">
      <text>
       <tspan x="0" y="-0.953125" style="font-size: 9px; font-family: 'Arial'; fill: #262626">m</tspan>
       <tspan x="7.49707" y="-0.953125" style="font-size: 9px; font-family: 'Arial'; fill: #262626">e</tspan>
       <tspan x="12.502441" y="-0.953125" style="font-size: 9px; font-family: 'Arial'; fill: #262626">a</tspan>
       <tspan x="17.507812" y="-0.953125" style="font-size: 9px; font-family: 'Arial'; fill: #262626">n</tspan>
       <tspan x="22.513184" y="-0.953125" style="font-size: 9px; font-family: 'Arial'; fill: #262626"> </tspan>
       <tspan x="25.013672" y="-0.953125" style="font-style: oblique; font-size: 9px; font-family: 'DejaVu Sans'; fill: #262626">r</tspan>
      </text>
     </g>
    </g>
   </g>
   <g id="line2d_9">
    <path d="M 90.327273 13.079729 
L 94.461244 7.717551 
L 98.595215 5.025005 
L 102.729187 3.33652 
L 106.863158 3.438961 
L 110.997129 2.933992 
L 115.1311 1.741075 
L 119.265072 1.770253 
L 123.399043 1.939319 
L 127.533014 0.863211 
L 131.666986 1.50047 
L 135.800957 1.140782 
L 139.934928 1.147083 
L 144.0689 1.070439 
L 148.202871 0.77529 
L 152.336842 0.879476 
L 156.470813 1.024221 
L 160.604785 0.835636 
L 164.738756 0.916187 
L 168.872727 0.705275 
" clip-path="url(#p2561e9ff1c)" style="fill: none; stroke: #1b9e77; stroke-width: 1.2; stroke-linecap: round"/>
   </g>
   <g id="line2d_10">
    <path d="M 90.327273 75.376339 
L 94.461244 62.738331 
L 98.595215 54.136373 
L 102.729187 44.789069 
L 106.863158 38.193302 
L 110.997129 40.172194 
L 115.1311 36.794462 
L 119.265072 26.632827 
L 123.399043 34.856475 
L 127.533014 22.737157 
L 131.666986 25.118476 
L 135.800957 19.759365 
L 139.934928 25.18094 
L 144.0689 15.851346 
L 148.202871 20.672089 
L 152.336842 16.657376 
L 156.470813 21.183702 
L 160.604785 18.972883 
L 164.738756 16.353825 
L 168.872727 9.397356 
" clip-path="url(#p2561e9ff1c)" style="fill: none; stroke: #d95f02; stroke-width: 1.2; stroke-linecap: round"/>
   </g>
   <g id="line2d_11">
    <path d="M 90.327273 13.362505 
L 94.461244 8.925263 
L 98.595215 8.436287 
L 102.729187 6.87483 
L 106.863158 8.487705 
L 110.997129 7.297691 
L 115.1311 4.164556 
L 119.265072 8.047688 
L 123.399043 5.721182 
L 127.533014 6.292538 
L 131.666986 8.922351 
L 135.800957 3.614449 
L 139.934928 3.038373 
L 144.0689 6.200935 
L 148.202871 4.898006 
L 152.336842 5.245299 
L 156.470813 1.56879 
L 160.604785 10.205963 
L 164.738756 2.828164 
L 168.872727 6.944876 
" clip-path="url(#p2561e9ff1c)" style="fill: none; stroke: #7570b3; stroke-width: 1.2; stroke-linecap: round"/>
   </g>
   <g id="patch_3">
    <path d="M 86.4 88.2 
L 86.4 0 
" style="fill: none; stroke: #262626; stroke-linejoin: miter; stroke-linecap: square"/>
   </g>
   <g id="patch_4">
    <path d="M 86.4 88.2 
L 172.8 88.2 
" style="fill: none; stroke: #262626; stroke-linejoin: miter; stroke-linecap: square"/>
   </g>
   <g id="legend_1">
    <g id="line2d_12">
     <path d="M 94.32 50.24175 
L 98.72 50.24175 
L 103.12 50.24175 
" style="fill: none; stroke: #1b9e77; stroke-width: 1.2; stroke-linecap: round"/>
    </g>
    <g id="text_11">
     <text style="font-size: 8.8px; font-family: 'Arial'; text-anchor: start; fill: #1b9e77" x="110.16" y="53.32175" transform="rotate(-0 110.16 53.32175)">SLIC</text>
    </g>
    <g id="line2d_13">
     <path d="M 94.32 62.796875 
L 98.72 62.796875 
L 103.12 62.796875 
" style="fill: none; stroke: #d95f02; stroke-width: 1.2; stroke-linecap: round"/>
    </g>
    <g id="text_12">
     <text style="font-size: 8.8px; font-family: 'Arial'; text-anchor: start; fill: #d95f02" x="110.16" y="65.876875" transform="rotate(-0 110.16 65.876875)">Granger</text>
    </g>
    <g id="line2d_14">
     <path d="M 94.32 75.347875 
L 98.72 75.347875 
L 103.12 75.347875 
" style="fill: none; stroke: #7570b3; stroke-width: 1.2; stroke-linecap: round"/>
    </g>
    <g id="text_13">
     <text style="font-size: 8.8px; font-family: 'Arial'; text-anchor: start; fill: #7570b3" x="110.16" y="78.427875" transform="rotate(-0 110.16 78.427875)">Latency</text>
    </g>
   </g>
  </g>
  <g id="axes_2">
   <g id="patch_5">
    <path d="M 216 88.2 
L 302.4 88.2 
L 302.4 0 
L 216 0 
L 216 88.2 
z
" style="fill: none"/>
   </g>
   <g id="matplotlib.axis_3">
    <g id="xtick_3">
     <g id="line2d_15">
      <g>
       <use xlink:href="#m70f8092f95" x="230.4" y="88.2" style="fill: #262626; stroke: #262626"/>
      </g>
     </g>
     <g id="text_14">
      <text style="font-size: 8px; font-family: 'Arial'; text-anchor: middle; fill: #262626" x="230.4" y="102.22625" transform="rotate(-0 230.4 102.22625)">SLIC</text>
     </g>
    </g>
    <g id="xtick_4">
     <g id="line2d_16">
      <g>
       <use xlink:href="#m70f8092f95" x="259.2" y="88.2" style="fill: #262626; stroke: #262626"/>
      </g>
     </g>
     <g id="text_15">
      <text style="font-size: 8px; font-family: 'Arial'; text-anchor: middle; fill: #262626" x="259.2" y="102.32375" transform="rotate(-0 259.2 102.32375)">Granger</text>
     </g>
    </g>
    <g id="xtick_5">
     <g id="line2d_17">
      <g>
       <use xlink:href="#m70f8092f95" x="288" y="88.2" style="fill: #262626; stroke: #262626"/>
      </g>
     </g>
     <g id="text_16">
      <text style="font-size: 8px; font-family: 'Arial'; text-anchor: middle; fill: #262626" x="288" y="102.22625" transform="rotate(-0 288 102.22625)">Latency</text>
     </g>
    </g>
   </g>
   <g id="matplotlib.axis_4">
    <g id="ytick_7">
     <g id="line2d_18">
      <g>
       <use xlink:href="#ma24e29a1ac" x="216" y="88.2" style="fill: #262626; stroke: #262626"/>
      </g>
     </g>
     <g id="text_17">
      <text style="font-size: 8px; font-family: 'Arial'; text-anchor: end; fill: #262626" x="207.7" y="91.063125" transform="rotate(-0 207.7 91.063125)">0.0</text>
     </g>
    </g>
    <g id="ytick_8">
     <g id="line2d_19">
      <g>
       <use xlink:href="#ma24e29a1ac" x="216" y="70.56" style="fill: #262626; stroke: #262626"/>
      </g>
     </g>
     <g id="text_18">
      <text style="font-size: 8px; font-family: 'Arial'; text-anchor: end; fill: #262626" x="207.7" y="73.423125" transform="rotate(-0 207.7 73.423125)">0.2</text>
     </g>
    </g>
    <g id="ytick_9">
     <g id="line2d_20">
      <g>
       <use xlink:href="#ma24e29a1ac" x="216" y="52.92" style="fill: #262626; stroke: #262626"/>
      </g>
     </g>
     <g id="text_19">
      <text style="font-size: 8px; font-family: 'Arial'; text-anchor: end; fill: #262626" x="207.7" y="55.783125" transform="rotate(-0 207.7 55.783125)">0.4</text>
     </g>
    </g>
    <g id="ytick_10">
     <g id="line2d_21">
      <g>
       <use xlink:href="#ma24e29a1ac" x="216" y="35.28" style="fill: #262626; stroke: #262626"/>
      </g>
     </g>
     <g id="text_20">
      <text style="font-size: 8px; font-family: 'Arial'; text-anchor: end; fill: #262626" x="207.7" y="38.143125" transform="rotate(-0 207.7 38.143125)">0.6</text>
     </g>
    </g>
    <g id="ytick_11">
     <g id="line2d_22">
      <g>
       <use xlink:href="#ma24e29a1ac" x="216" y="17.64" style="fill: #262626; stroke: #262626"/>
      </g>
     </g>
     <g id="text_21">
      <text style="font-size: 8px; font-family: 'Arial'; text-anchor: end; fill: #262626" x="207.7" y="20.503125" transform="rotate(-0 207.7 20.503125)">0.8</text>
     </g>
    </g>
    <g id="ytick_12">
     <g id="line2d_23">
      <g>
       <use xlink:href="#ma24e29a1ac" x="216" y="0" style="fill: #262626; stroke: #262626"/>
      </g>
     </g>
     <g id="text_22">
      <text style="font-size: 8px; font-family: 'Arial'; text-anchor: end; fill: #262626" x="207.7" y="2.863125" transform="rotate(-0 207.7 2.863125)">1.0</text>
     </g>
    </g>
    <g id="text_23">
     <text style="font-size: 9px; font-family: 'Arial'; fill: #262626" transform="translate(181.272062 72.359297) rotate(-90)">trials to reach </text>
     <!-- 75% max $r$  -->
     <g style="fill: #262626" transform="translate(190.79125 67.23) rotate(-90)">
      <text>
       <tspan x="0" y="-0.453125" style="font-size: 9px; font-family: 'Arial'; fill: #262626">7</tspan>
       <tspan x="5.005371" y="-0.453125" style="font-size: 9px; font-family: 'Arial'; fill: #262626">5</tspan>
       <tspan x="10.010742" y="-0.453125" style="font-size: 9px; font-family: 'Arial'; fill: #262626">%</tspan>
       <tspan x="18.013184" y="-0.453125" style="font-size: 9px; font-family: 'Arial'; fill: #262626"> </tspan>
       <tspan x="20.513672" y="-0.453125" style="font-size: 9px; font-family: 'Arial'; fill: #262626">m</tspan>
       <tspan x="28.010742" y="-0.453125" style="font-size: 9px; font-family: 'Arial'; fill: #262626">a</tspan>
       <tspan x="33.016113" y="-0.453125" style="font-size: 9px; font-family: 'Arial'; fill: #262626">x</tspan>
       <tspan x="37.516113" y="-0.453125" style="font-size: 9px; font-family: 'Arial'; fill: #262626"> </tspan>
       <tspan x="43.716797" y="-0.453125" style="font-size: 9px; font-family: 'Arial'; fill: #262626"> </tspan>
       <tspan x="40.016602" y="-0.453125" style="font-style: oblique; font-size: 9px; font-family: 'DejaVu Sans'; fill: #262626">r</tspan>
      </text>
     </g>
    </g>
   </g>
   <g id="patch_6">
    <path d="M 223.2 49.188671 
L 237.6 49.188671 
L 237.6 29.369214 
L 223.2 29.369214 
L 223.2 49.188671 
z
" clip-path="url(#p41ac309804)" style="fill: #808080; stroke: #1a1a1a; stroke-linejoin: miter"/>
   </g>
   <g id="line2d_24">
    <path d="M 230.4 49.188671 
L 230.4 75.825546 
" clip-path="url(#p41ac309804)" style="fill: none; stroke: #1a1a1a; stroke-linecap: round"/>
   </g>
   <g id="line2d_25">
    <path d="M 230.4 29.369214 
L 230.4 24.059778 
" clip-path="url(#p41ac309804)" style="fill: none; stroke: #1a1a1a; stroke-linecap: round"/>
   </g>
   <g id="line2d_26">
    <path d="M 226.8 75.825546 
L 234 75.825546 
" clip-path="url(#p41ac309804)" style="fill: none; stroke: #1a1a1a; stroke-linecap: round"/>
   </g>
   <g id="line2d_27">
    <path d="M 226.8 24.059778 
L 234 24.059778 
" clip-path="url(#p41ac309804)" style="fill: none; stroke: #1a1a1a; stroke-linecap: round"/>
   </g>
   <g id="line2d_28"/>
   <g id="patch_7">
    <path d="M 252 37.195705 
L 266.4 37.195705 
L 266.4 23.370673 
L 252 23.370673 
L 252 37.195705 
z
" clip-path="url(#p41ac309804)" style="fill: #808080; stroke: #1a1a1a; stroke-linejoin: miter"/>
   </g>
   <g id="line2d_29">
    <path d="M 259.2 37.195705 
L 259.2 55.198852 
" clip-path="url(#p41ac309804)" style="fill: none; stroke: #1a1a1a; stroke-linecap: round"/>
   </g>
   <g id="line2d_30">
    <path d="M 259.2 23.370673 
L 259.2 21.30561 
" clip-path="url(#p41ac309804)" style="fill: none; stroke: #1a1a1a; stroke-linecap: round"/>
   </g>
   <g id="line2d_31">
    <path d="M 255.6 55.198852 
L 262.8 55.198852 
" clip-path="url(#p41ac309804)" style="fill: none; stroke: #1a1a1a; stroke-linecap: round"/>
   </g>
   <g id="line2d_32">
    <path d="M 255.6 21.30561 
L 262.8 21.30561 
" clip-path="url(#p41ac309804)" style="fill: none; stroke: #1a1a1a; stroke-linecap: round"/>
   </g>
   <g id="line2d_33">
    <defs>
     <path id="mddd083409d" d="M 0 3 
C 0.795609 3 1.55874 2.683901 2.12132 2.12132 
C 2.683901 1.55874 3 0.795609 3 0 
C 3 -0.795609 2.683901 -1.55874 2.12132 -2.12132 
C 1.55874 -2.683901 0.795609 -3 0 -3 
C -0.795609 -3 -1.55874 -2.683901 -2.12132 -2.12132 
C -2.683901 -1.55874 -3 -0.795609 -3 0 
C -3 0.795609 -2.683901 1.55874 -2.12132 2.12132 
C -1.55874 2.683901 -0.795609 3 0 3 
z
" style="stroke: #808080"/>
    </defs>
    <g clip-path="url(#p41ac309804)">
     <use xlink:href="#mddd083409d" x="259.2" y="76.171277" style="fill-opacity: 0; stroke: #808080"/>
    </g>
   </g>
   <g id="patch_8">
    <path d="M 280.8 66.781222 
L 295.2 66.781222 
L 295.2 56.92018 
L 280.8 56.92018 
L 280.8 66.781222 
z
" clip-path="url(#p41ac309804)" style="fill: #808080; stroke: #1a1a1a; stroke-linejoin: miter"/>
   </g>
   <g id="line2d_34">
    <path d="M 288 66.781222 
L 288 76.406285 
" clip-path="url(#p41ac309804)" style="fill: none; stroke: #1a1a1a; stroke-linecap: round"/>
   </g>
   <g id="line2d_35">
    <path d="M 288 56.92018 
L 288 43.663641 
" clip-path="url(#p41ac309804)" style="fill: none; stroke: #1a1a1a; stroke-linecap: round"/>
   </g>
   <g id="line2d_36">
    <path d="M 284.4 76.406285 
L 291.6 76.406285 
" clip-path="url(#p41ac309804)" style="fill: none; stroke: #1a1a1a; stroke-linecap: round"/>
   </g>
   <g id="line2d_37">
    <path d="M 284.4 43.663641 
L 291.6 43.663641 
" clip-path="url(#p41ac309804)" style="fill: none; stroke: #1a1a1a; stroke-linecap: round"/>
   </g>
   <g id="line2d_38">
    <g clip-path="url(#p41ac309804)">
     <use xlink:href="#mddd083409d" x="288" y="81.901222" style="fill-opacity: 0; stroke: #808080"/>
    </g>
   </g>
   <g id="line2d_39">
    <path d="M 223.2 37.58218 
L 237.6 37.58218 
" clip-path="url(#p41ac309804)" style="fill: none; stroke: #1a1a1a"/>
   </g>
   <g id="line2d_40">
    <path d="M 252 27.428953 
L 266.4 27.428953 
" clip-path="url(#p41ac309804)" style="fill: none; stroke: #1a1a1a"/>
   </g>
   <g id="line2d_41">
    <path d="M 280.8 61.527039 
L 295.2 61.527039 
" clip-path="url(#p41ac309804)" style="fill: none; stroke: #1a1a1a"/>
   </g>
   <g id="patch_9">
    <path d="M 216 88.2 
L 216 0 
" style="fill: none; stroke: #262626; stroke-linejoin: miter; stroke-linecap: square"/>
   </g>
   <g id="patch_10">
    <path d="M 216 88.2 
L 302.4 88.2 
" style="fill: none; stroke: #262626; stroke-linejoin: miter; stroke-linecap: square"/>
   </g>
  </g>
  <g id="axes_3">
   <g id="patch_11">
    <path d="M 345.6 88.2 
L 432 88.2 
L 432 0 
L 345.6 0 
L 345.6 88.2 
z
" style="fill: none"/>
   </g>
   <g id="matplotlib.axis_5">
    <g id="xtick_6">
     <g id="line2d_42">
      <g>
       <use xlink:href="#m70f8092f95" x="382.924186" y="88.2" style="fill: #262626; stroke: #262626"/>
      </g>
     </g>
     <g id="text_24">
      <text style="font-size: 8px; font-family: 'Arial'; text-anchor: middle; fill: #262626" x="382.924186" y="102.22625" transform="rotate(-0 382.924186 102.22625)">0.5</text>
     </g>
    </g>
    <g id="xtick_7">
     <g id="line2d_43">
      <g>
       <use xlink:href="#m70f8092f95" x="422.864351" y="88.2" style="fill: #262626; stroke: #262626"/>
      </g>
     </g>
     <g id="text_25">
      <text style="font-size: 8px; font-family: 'Arial'; text-anchor: middle; fill: #262626" x="422.864351" y="102.22625" transform="rotate(-0 422.864351 102.22625)">1.0</text>
     </g>
    </g>
    <g id="text_26">
     <text style="font-size: 9px; font-family: 'Arial'; text-anchor: middle; fill: #262626" x="388.8" y="114.367969" transform="rotate(-0 388.8 114.367969)">AUC (SD)</text>
    </g>
   </g>
   <g id="matplotlib.axis_6">
    <g id="ytick_13">
     <g id="line2d_44">
      <g>
       <use xlink:href="#ma24e29a1ac" x="345.6" y="88.2" style="fill: #262626; stroke: #262626"/>
      </g>
     </g>
     <g id="text_27">
      <text style="font-size: 8px; font-family: 'Arial'; text-anchor: end; fill: #262626" x="337.3" y="91.063125" transform="rotate(-0 337.3 91.063125)">0.0</text>
     </g>
    </g>
    <g id="ytick_14">
     <g id="line2d_45">
      <g>
       <use xlink:href="#ma24e29a1ac" x="345.6" y="70.56" style="fill: #262626; stroke: #262626"/>
      </g>
     </g>
     <g id="text_28">
      <text style="font-size: 8px; font-family: 'Arial'; text-anchor: end; fill: #262626" x="337.3" y="73.423125" transform="rotate(-0 337.3 73.423125)">0.2</text>
     </g>
    </g>
    <g id="ytick_15">
     <g id="line2d_46">
      <g>
       <use xlink:href="#ma24e29a1ac" x="345.6" y="52.92" style="fill: #262626; stroke: #262626"/>
      </g>
     </g>
     <g id="text_29">
      <text style="font-size: 8px; font-family: 'Arial'; text-anchor: end; fill: #262626" x="337.3" y="55.783125" transform="rotate(-0 337.3 55.783125)">0.4</text>
     </g>
    </g>
    <g id="ytick_16">
     <g id="line2d_47">
      <g>
       <use xlink:href="#ma24e29a1ac" x="345.6" y="35.28" style="fill: #262626; stroke: #262626"/>
      </g>
     </g>
     <g id="text_30">
      <text style="font-size: 8px; font-family: 'Arial'; text-anchor: end; fill: #262626" x="337.3" y="38.143125" transform="rotate(-0 337.3 38.143125)">0.6</text>
     </g>
    </g>
    <g id="ytick_17">
     <g id="line2d_48">
      <g>
       <use xlink:href="#ma24e29a1ac" x="345.6" y="17.64" style="fill: #262626; stroke: #262626"/>
      </g>
     </g>
     <g id="text_31">
      <text style="font-size: 8px; font-family: 'Arial'; text-anchor: end; fill: #262626" x="337.3" y="20.503125" transform="rotate(-0 337.3 20.503125)">0.8</text>
     </g>
    </g>
    <g id="ytick_18">
     <g id="line2d_49">
      <g>
       <use xlink:href="#ma24e29a1ac" x="345.6" y="0" style="fill: #262626; stroke: #262626"/>
      </g>
     </g>
     <g id="text_32">
      <text style="font-size: 8px; font-family: 'Arial'; text-anchor: end; fill: #262626" x="337.3" y="2.863125" transform="rotate(-0 337.3 2.863125)">1.0</text>
     </g>
    </g>
    <g id="text_33">
     <text style="font-size: 9px; font-family: 'Arial'; fill: #262626" transform="translate(310.872063 72.359297) rotate(-90)">trials to reach </text>
     <!-- 75% max $r$ -->
     <g style="fill: #262626" transform="translate(320.39125 65.97) rotate(-90)">
      <text>
       <tspan x="0" y="-0.453125" style="font-size: 9px; font-family: 'Arial'; fill: #262626">7</tspan>
       <tspan x="5.005371" y="-0.453125" style="font-size: 9px; font-family: 'Arial'; fill: #262626">5</tspan>
       <tspan x="10.010742" y="-0.453125" style="font-size: 9px; font-family: 'Arial'; fill: #262626">%</tspan>
       <tspan x="18.013184" y="-0.453125" style="font-size: 9px; font-family: 'Arial'; fill: #262626"> </tspan>
       <tspan x="20.513672" y="-0.453125" style="font-size: 9px; font-family: 'Arial'; fill: #262626">m</tspan>
       <tspan x="28.010742" y="-0.453125" style="font-size: 9px; font-family: 'Arial'; fill: #262626">a</tspan>
       <tspan x="33.016113" y="-0.453125" style="font-size: 9px; font-family: 'Arial'; fill: #262626">x</tspan>
       <tspan x="37.516113" y="-0.453125" style="font-size: 9px; font-family: 'Arial'; fill: #262626"> </tspan>
       <tspan x="40.016602" y="-0.453125" style="font-style: oblique; font-size: 9px; font-family: 'DejaVu Sans'; fill: #262626">r</tspan>
      </text>
     </g>
    </g>
   </g>
   <g id="PathCollection_1">
    <defs>
     <path id="m5131386b47" d="M 0 2.4 
C 0.636487 2.4 1.246992 2.147121 1.697056 1.697056 
C 2.147121 1.246992 2.4 0.636487 2.4 0 
C 2.4 -0.636487 2.147121 -1.246992 1.697056 -1.697056 
C 1.246992 -2.147121 0.636487 -2.4 0 -2.4 
C -0.636487 -2.4 -1.246992 -2.147121 -1.697056 -1.697056 
C -2.147121 -1.246992 -2.4 -0.636487 -2.4 0 
C -2.4 0.636487 -2.147121 1.246992 -1.697056 1.697056 
C -1.246992 2.147121 -0.636487 2.4 0 2.4 
z
" style="stroke: #1b9e77; stroke-width: 0.8"/>
    </defs>
    <g clip-path="url(#pe05414f77a)">
     <use xlink:href="#m5131386b47" x="423.253073" y="75.825546" style="fill: #1b9e77; stroke: #1b9e77; stroke-width: 0.8"/>
     <use xlink:href="#m5131386b47" x="428.072727" y="69.70071" style="fill: #1b9e77; stroke: #1b9e77; stroke-width: 0.8"/>
     <use xlink:href="#m5131386b47" x="374.971618" y="29.873698" style="fill: #1b9e77; stroke: #1b9e77; stroke-width: 0.8"/>
     <use xlink:href="#m5131386b47" x="400.142874" y="31.524272" style="fill: #1b9e77; stroke: #1b9e77; stroke-width: 0.8"/>
     <use xlink:href="#m5131386b47" x="385.17355" y="46.65728" style="fill: #1b9e77; stroke: #1b9e77; stroke-width: 0.8"/>
     <use xlink:href="#m5131386b47" x="376.622427" y="54.159451" style="fill: #1b9e77; stroke: #1b9e77; stroke-width: 0.8"/>
     <use xlink:href="#m5131386b47" x="357.980959" y="27.476024" style="fill: #1b9e77; stroke: #1b9e77; stroke-width: 0.8"/>
     <use xlink:href="#m5131386b47" x="359.205141" y="28.886231" style="fill: #1b9e77; stroke: #1b9e77; stroke-width: 0.8"/>
     <use xlink:href="#m5131386b47" x="357.479186" y="46.808113" style="fill: #1b9e77; stroke: #1b9e77; stroke-width: 0.8"/>
     <use xlink:href="#m5131386b47" x="353.495468" y="51.569228" style="fill: #1b9e77; stroke: #1b9e77; stroke-width: 0.8"/>
     <use xlink:href="#m5131386b47" x="349.527273" y="45.908466" style="fill: #1b9e77; stroke: #1b9e77; stroke-width: 0.8"/>
     <use xlink:href="#m5131386b47" x="362.252233" y="24.059778" style="fill: #1b9e77; stroke: #1b9e77; stroke-width: 0.8"/>
     <use xlink:href="#m5131386b47" x="373.024723" y="29.852197" style="fill: #1b9e77; stroke: #1b9e77; stroke-width: 0.8"/>
     <use xlink:href="#m5131386b47" x="356.94799" y="25.059814" style="fill: #1b9e77; stroke: #1b9e77; stroke-width: 0.8"/>
     <use xlink:href="#m5131386b47" x="357.383678" y="37.58218" style="fill: #1b9e77; stroke: #1b9e77; stroke-width: 0.8"/>
    </g>
   </g>
   <g id="PathCollection_2">
    <defs>
     <path id="m2273de8cfc" d="M 0 2.4 
C 0.636487 2.4 1.246992 2.147121 1.697056 1.697056 
C 2.147121 1.246992 2.4 0.636487 2.4 0 
C 2.4 -0.636487 2.147121 -1.246992 1.697056 -1.697056 
C 1.246992 -2.147121 0.636487 -2.4 0 -2.4 
C -0.636487 -2.4 -1.246992 -2.147121 -1.697056 -1.697056 
C -2.147121 -1.246992 -2.4 -0.636487 -2.4 0 
C -2.4 0.636487 -2.147121 1.246992 -1.697056 1.697056 
C -1.246992 2.147121 -0.636487 2.4 0 2.4 
z
" style="stroke: #d95f02; stroke-width: 0.8"/>
    </defs>
    <g clip-path="url(#pe05414f77a)">
     <use xlink:href="#m2273de8cfc" x="423.253073" y="22.221017" style="fill: #d95f02; stroke: #d95f02; stroke-width: 0.8"/>
     <use xlink:href="#m2273de8cfc" x="428.072727" y="31.199501" style="fill: #d95f02; stroke: #d95f02; stroke-width: 0.8"/>
     <use xlink:href="#m2273de8cfc" x="374.971618" y="22.316324" style="fill: #d95f02; stroke: #d95f02; stroke-width: 0.8"/>
     <use xlink:href="#m2273de8cfc" x="400.142874" y="26.674881" style="fill: #d95f02; stroke: #d95f02; stroke-width: 0.8"/>
     <use xlink:href="#m2273de8cfc" x="385.17355" y="23.465805" style="fill: #d95f02; stroke: #d95f02; stroke-width: 0.8"/>
     <use xlink:href="#m2273de8cfc" x="376.622427" y="30.759735" style="fill: #d95f02; stroke: #d95f02; stroke-width: 0.8"/>
     <use xlink:href="#m2273de8cfc" x="357.980959" y="41.359359" style="fill: #d95f02; stroke: #d95f02; stroke-width: 0.8"/>
     <use xlink:href="#m2273de8cfc" x="359.205141" y="47.716663" style="fill: #d95f02; stroke: #d95f02; stroke-width: 0.8"/>
     <use xlink:href="#m2273de8cfc" x="357.479186" y="23.76609" style="fill: #d95f02; stroke: #d95f02; stroke-width: 0.8"/>
     <use xlink:href="#m2273de8cfc" x="353.495468" y="27.428953" style="fill: #d95f02; stroke: #d95f02; stroke-width: 0.8"/>
     <use xlink:href="#m2273de8cfc" x="349.527273" y="33.032051" style="fill: #d95f02; stroke: #d95f02; stroke-width: 0.8"/>
     <use xlink:href="#m2273de8cfc" x="362.252233" y="21.30561" style="fill: #d95f02; stroke: #d95f02; stroke-width: 0.8"/>
     <use xlink:href="#m2273de8cfc" x="373.024723" y="76.171277" style="fill: #d95f02; stroke: #d95f02; stroke-width: 0.8"/>
     <use xlink:href="#m2273de8cfc" x="356.94799" y="55.198852" style="fill: #d95f02; stroke: #d95f02; stroke-width: 0.8"/>
     <use xlink:href="#m2273de8cfc" x="357.383678" y="23.275541" style="fill: #d95f02; stroke: #d95f02; stroke-width: 0.8"/>
    </g>
   </g>
   <g id="PathCollection_3">
    <defs>
     <path id="m336770cd8a" d="M 0 2.4 
C 0.636487 2.4 1.246992 2.147121 1.697056 1.697056 
C 2.147121 1.246992 2.4 0.636487 2.4 0 
C 2.4 -0.636487 2.147121 -1.246992 1.697056 -1.697056 
C 1.246992 -2.147121 0.636487 -2.4 0 -2.4 
C -0.636487 -2.4 -1.246992 -2.147121 -1.697056 -1.697056 
C -2.147121 -1.246992 -2.4 -0.636487 -2.4 0 
C -2.4 0.636487 -2.147121 1.246992 -1.697056 1.697056 
C -1.246992 2.147121 -0.636487 2.4 0 2.4 
z
" style="stroke: #7570b3; stroke-width: 0.8"/>
    </defs>
    <g clip-path="url(#pe05414f77a)">
     <use xlink:href="#m336770cd8a" x="423.253073" y="76.406285" style="fill: #7570b3; stroke: #7570b3; stroke-width: 0.8"/>
     <use xlink:href="#m336770cd8a" x="428.072727" y="59.197984" style="fill: #7570b3; stroke: #7570b3; stroke-width: 0.8"/>
     <use xlink:href="#m336770cd8a" x="374.971618" y="63.950273" style="fill: #7570b3; stroke: #7570b3; stroke-width: 0.8"/>
     <use xlink:href="#m336770cd8a" x="400.142874" y="58.602599" style="fill: #7570b3; stroke: #7570b3; stroke-width: 0.8"/>
     <use xlink:href="#m336770cd8a" x="385.17355" y="68.872205" style="fill: #7570b3; stroke: #7570b3; stroke-width: 0.8"/>
     <use xlink:href="#m336770cd8a" x="376.622427" y="63.064557" style="fill: #7570b3; stroke: #7570b3; stroke-width: 0.8"/>
     <use xlink:href="#m336770cd8a" x="357.980959" y="55.237762" style="fill: #7570b3; stroke: #7570b3; stroke-width: 0.8"/>
     <use xlink:href="#m336770cd8a" x="359.205141" y="60.195803" style="fill: #7570b3; stroke: #7570b3; stroke-width: 0.8"/>
     <use xlink:href="#m336770cd8a" x="357.479186" y="51.913331" style="fill: #7570b3; stroke: #7570b3; stroke-width: 0.8"/>
     <use xlink:href="#m336770cd8a" x="353.495468" y="81.901222" style="fill: #7570b3; stroke: #7570b3; stroke-width: 0.8"/>
     <use xlink:href="#m336770cd8a" x="349.527273" y="73.687176" style="fill: #7570b3; stroke: #7570b3; stroke-width: 0.8"/>
     <use xlink:href="#m336770cd8a" x="362.252233" y="48.133257" style="fill: #7570b3; stroke: #7570b3; stroke-width: 0.8"/>
     <use xlink:href="#m336770cd8a" x="373.024723" y="43.663641" style="fill: #7570b3; stroke: #7570b3; stroke-width: 0.8"/>
     <use xlink:href="#m336770cd8a" x="356.94799" y="64.690239" style="fill: #7570b3; stroke: #7570b3; stroke-width: 0.8"/>
     <use xlink:href="#m336770cd8a" x="357.383678" y="61.527039" style="fill: #7570b3; stroke: #7570b3; stroke-width: 0.8"/>
    </g>
   </g>
   <g id="patch_12">
    <path d="M 345.6 88.2 
L 345.6 0 
" style="fill: none; stroke: #262626; stroke-linejoin: miter; stroke-linecap: square"/>
   </g>
   <g id="patch_13">
    <path d="M 345.6 88.2 
L 432 88.2 
" style="fill: none; stroke: #262626; stroke-linejoin: miter; stroke-linecap: square"/>
   </g>
   <g id="legend_2">
    <g id="PathCollection_4">
     <defs>
      <path id="m7cab1ceaaf" d="M 0 0 
C 0 0 0 0 0 0 
C 0 0 0 0 0 0 
C 0 0 0 0 0 0 
C 0 0 0 0 0 0 
C 0 0 0 0 0 0 
C 0 0 0 0 0 0 
C 0 0 0 0 0 0 
C 0 0 0 0 0 0 
z
" style="stroke: #1b9e77; stroke-width: 0.8"/>
     </defs>
     <g>
      <use xlink:href="#m7cab1ceaaf" x="370.96" y="51.01175" style="fill: #1b9e77; stroke: #1b9e77; stroke-width: 0.8"/>
     </g>
    </g>
    <g id="text_34">
     <text style="font-size: 8.8px; font-family: 'Arial'; text-anchor: start; fill: #1b9e77" x="386.8" y="53.32175" transform="rotate(-0 386.8 53.32175)">SLIC</text>
    </g>
    <g id="PathCollection_5">
     <defs>
      <path id="m36f96d07e3" d="M 0 0 
C 0 0 0 0 0 0 
C 0 0 0 0 0 0 
C 0 0 0 0 0 0 
C 0 0 0 0 0 0 
C 0 0 0 0 0 0 
C 0 0 0 0 0 0 
C 0 0 0 0 0 0 
C 0 0 0 0 0 0 
z
" style="stroke: #d95f02; stroke-width: 0.8"/>
     </defs>
     <g>
      <use xlink:href="#m36f96d07e3" x="370.96" y="63.566875" style="fill: #d95f02; stroke: #d95f02; stroke-width: 0.8"/>
     </g>
    </g>
    <g id="text_35">
     <text style="font-size: 8.8px; font-family: 'Arial'; text-anchor: start; fill: #d95f02" x="386.8" y="65.876875" transform="rotate(-0 386.8 65.876875)">Granger</text>
    </g>
    <g id="PathCollection_6">
     <defs>
      <path id="m55db2bea95" d="M 0 0 
C 0 0 0 0 0 0 
C 0 0 0 0 0 0 
C 0 0 0 0 0 0 
C 0 0 0 0 0 0 
C 0 0 0 0 0 0 
C 0 0 0 0 0 0 
C 0 0 0 0 0 0 
C 0 0 0 0 0 0 
z
" style="stroke: #7570b3; stroke-width: 0.8"/>
     </defs>
     <g>
      <use xlink:href="#m55db2bea95" x="370.96" y="76.117875" style="fill: #7570b3; stroke: #7570b3; stroke-width: 0.8"/>
     </g>
    </g>
    <g id="text_36">
     <text style="font-size: 8.8px; font-family: 'Arial'; text-anchor: start; fill: #7570b3" x="386.8" y="78.427875" transform="rotate(-0 386.8 78.427875)">Latency</text>
    </g>
   </g>
  </g>
 </g>
 <defs>
  <clipPath id="p2561e9ff1c">
   <rect x="86.4" y="0" width="86.4" height="88.2"/>
  </clipPath>
  <clipPath id="p41ac309804">
   <rect x="216" y="0" width="86.4" height="88.2"/>
  </clipPath>
  <clipPath id="pe05414f77a">
   <rect x="345.6" y="0" width="86.4" height="88.2"/>
  </clipPath>
 </defs>
</svg>
