<?xml version="1.0" encoding="utf-8" standalone="no"?>
<!DOCTYPE svg PUBLIC "-//W3C//DTD SVG 1.1//EN"
  "http://www.w3.org/Graphics/SVG/1.1/DTD/svg11.dtd">
<svg xmlns:xlink="http://www.w3.org/1999/xlink" width="576pt" height="144pt" viewBox="0 0 576 144" xmlns="http://www.w3.org/2000/svg" version="1.1">
 <metadata>
  <rdf:RDF xmlns:dc="http://purl.org/dc/elements/1.1/" xmlns:cc="http://creativecommons.org/ns#" xmlns:rdf="http://www.w3.org/1999/02/22-rdf-syntax-ns#">
   <cc:Work>
    <dc:type rdf:resource="http://purl.org/dc/dcmitype/StillImage"/>
    <dc:date>2025-11-14T14:08:32.407741</dc:date>
    <dc:format>image/svg+xml</dc:format>
    <dc:creator>
     <cc:Agent>
      <dc:title>Matplotlib v3.10.7, https://matplotlib.org/</dc:title>
     </cc:Agent>
    </dc:creator>
   </cc:Work>
  </rdf:RDF>
 </metadata>
 <defs>
  <style type="text/css">*{stroke-linejoin: round; stroke-linecap: butt}</style>
 </defs>
 <g id="figure_1">
  <g id="patch_1">
   <path d="M 0 144 
L 576 144 
L 576 0 
L 0 0 
L 0 144 
z
" style="fill: none"/>
  </g>
  <g id="axes_1">
   <g id="patch_2">
    <path d="M 42.99 105.06 
L 141.3 105.06 
L 141.3 23.56125 
L 42.99 23.56125 
L 42.99 105.06 
z
" style="fill: none"/>
   </g>
   <g id="matplotlib.axis_1">
    <g id="xtick_1">
     <g id="line2d_1">
      <defs>
       <path id="m0c19b146b4" d="M 0 0 
L 0 4.8 
" style="stroke: #262626"/>
      </defs>
      <g>
       <use xlink:href="#m0c19b146b4" x="66.609935" y="105.06" style="fill: #262626; stroke: #262626"/>
      </g>
     </g>
     <g id="text_1">
      <text style="font-size: 8px; font-family: 'Arial'; text-anchor: middle; fill: #262626" x="66.609935" y="119.08625" transform="rotate(-0 66.609935 119.08625)">100</text>
     </g>
    </g>
    <g id="xtick_2">
     <g id="line2d_2">
      <g>
       <use xlink:href="#m0c19b146b4" x="92.145" y="105.06" style="fill: #262626; stroke: #262626"/>
      </g>
     </g>
     <g id="text_2">
      <text style="font-size: 8px; font-family: 'Arial'; text-anchor: middle; fill: #262626" x="92.145" y="119.08625" transform="rotate(-0 92.145 119.08625)">200</text>
     </g>
    </g>
    <g id="xtick_3">
     <g id="line2d_3">
      <g>
       <use xlink:href="#m0c19b146b4" x="117.680065" y="105.06" style="fill: #262626; stroke: #262626"/>
      </g>
     </g>
     <g id="text_3">
      <text style="font-size: 8px; font-family: 'Arial'; text-anchor: middle; fill: #262626" x="117.680065" y="119.08625" transform="rotate(-0 117.680065 119.08625)">300</text>
     </g>
    </g>
    <g id="text_4">
     <text style="font-size: 9px; font-family: 'Arial'; text-anchor: middle; fill: #262626" x="92.145" y="131.118281" transform="rotate(-0 92.145 131.118281)">trials included</text>
    </g>
   </g>
   <g id="matplotlib.axis_2">
    <g id="ytick_1">
     <g id="line2d_4">
      <defs>
       <path id="m90d831d733" d="M 0 0 
L -4.8 0 
" style="stroke: #262626"/>
      </defs>
      <g>
       <use xlink:href="#m90d831d733" x="42.99" y="105.06" style="fill: #262626; stroke: #262626"/>
      </g>
     </g>
     <g id="text_5">
      <text style="font-size: 8px; font-family: 'Arial'; text-anchor: end; fill: #262626" x="34.69" y="107.923125" transform="rotate(-0 34.69 107.923125)">0.0</text>
     </g>
    </g>
    <g id="ytick_2">
     <g id="line2d_5">
      <g>
       <use xlink:href="#m90d831d733" x="42.99" y="88.76025" style="fill: #262626; stroke: #262626"/>
      </g>
     </g>
     <g id="text_6">
      <text style="font-size: 8px; font-family: 'Arial'; text-anchor: end; fill: #262626" x="34.69" y="91.623375" transform="rotate(-0 34.69 91.623375)">0.2</text>
     </g>
    </g>
    <g id="ytick_3">
     <g id="line2d_6">
      <g>
       <use xlink:href="#m90d831d733" x="42.99" y="72.4605" style="fill: #262626; stroke: #262626"/>
      </g>
     </g>
     <g id="text_7">
      <text style="font-size: 8px; font-family: 'Arial'; text-anchor: end; fill: #262626" x="34.69" y="75.323625" transform="rotate(-0 34.69 75.323625)">0.4</text>
     </g>
    </g>
    <g id="ytick_4">
     <g id="line2d_7">
      <g>
       <use xlink:href="#m90d831d733" x="42.99" y="56.16075" style="fill: #262626; stroke: #262626"/>
      </g>
     </g>
     <g id="text_8">
      <text style="font-size: 8px; font-family: 'Arial'; text-anchor: end; fill: #262626" x="34.69" y="59.023875" transform="rotate(-0 34.69 59.023875)">0.6</text>
     </g>
    </g>
    <g id="ytick_5">
     <g id="line2d_8">
      <g>
       <use xlink:href="#m90d831d733" x="42.99" y="39.861" style="fill: #262626; stroke: #262626"/>
      </g>
     </g>
     <g id="text_9">
      <text style="font-size: 8px; font-family: 'Arial'; text-anchor: end; fill: #262626" x="34.69" y="42.724125" transform="rotate(-0 34.69 42.724125)">0.8</text>
     </g>
    </g>
    <g id="ytick_6">
     <g id="line2d_9">
      <g>
       <use xlink:href="#m90d831d733" x="42.99" y="23.56125" style="fill: #262626; stroke: #262626"/>
      </g>
     </g>
     <g id="text_10">
      <text style="font-size: 8px; font-family: 'Arial'; text-anchor: end; fill: #262626" x="34.69" y="26.424375" transform="rotate(-0 34.69 26.424375)">1.0</text>
     </g>
    </g>
    <g id="text_11">
     <text style="font-size: 9px; font-family: 'Arial'; text-anchor: middle; fill: #262626" x="17.78125" y="64.310625" transform="rotate(-90 17.78125 64.310625)">correlation</text>
    </g>
   </g>
   <g id="line2d_10">
    <path d="M 47.458636 35.214325 
L 53.842403 29.656459 
L 60.226169 28.670248 
L 66.609935 27.486961 
L 72.993701 26.324926 
L 79.377468 26.493093 
L 85.761234 25.605745 
L 92.145 25.449144 
L 98.528766 24.954914 
L 104.912532 25.593983 
L 111.296299 24.749786 
L 117.680065 25.353765 
L 124.063831 24.280444 
L 130.447597 24.923143 
L 136.831364 25.592269 
" clip-path="url(#p362bb09497)" style="fill: none; stroke: #8172b3; stroke-width: 1.2; stroke-linecap: round"/>
   </g>
   <g id="line2d_11">
    <path d="M 47.458636 48.545163 
L 53.842403 54.91212 
L 60.226169 70.613676 
L 66.609935 60.120402 
L 72.993701 76.759167 
L 79.377468 63.161764 
L 85.761234 79.069425 
L 92.145 85.225306 
L 98.528766 77.419879 
L 104.912532 61.124679 
L 111.296299 89.113127 
L 117.680065 86.363487 
L 124.063831 82.687672 
L 130.447597 61.421067 
L 136.831364 24.822958 
" clip-path="url(#p362bb09497)" style="fill: none; stroke: #8172b3; stroke-width: 1.2; stroke-linecap: round"/>
   </g>
   <g id="line2d_12">
    <path d="M 47.458636 90.34199 
L 53.842403 75.100176 
L 60.226169 64.990364 
L 66.609935 62.945422 
L 72.993701 54.889429 
L 79.377468 52.339569 
L 85.761234 48.37688 
L 92.145 42.03005 
L 98.528766 49.739203 
L 104.912532 43.596635 
L 111.296299 37.187968 
L 117.680065 41.209987 
L 124.063831 40.681613 
L 130.447597 39.529182 
L 136.831364 34.385878 
" clip-path="url(#p362bb09497)" style="fill: none; stroke: #8172b3; stroke-width: 1.2; stroke-linecap: round"/>
   </g>
   <g id="line2d_13">
    <path d="M 47.458636 97.215566 
L 53.842403 87.676567 
L 60.226169 74.214136 
L 66.609935 73.926472 
L 72.993701 66.719971 
L 79.377468 60.908633 
L 85.761234 61.280106 
L 92.145 57.138857 
L 98.528766 52.536469 
L 104.912532 47.736162 
L 111.296299 50.56849 
L 117.680065 48.75265 
L 124.063831 42.929316 
L 130.447597 44.988478 
L 136.831364 38.827461 
" clip-path="url(#p362bb09497)" style="fill: none; stroke: #64b5cd; stroke-width: 1.2; stroke-linecap: round"/>
   </g>
   <g id="line2d_14">
    <path d="M 47.458636 72.535754 
L 53.842403 55.525047 
L 60.226169 48.480043 
L 66.609935 42.488704 
L 72.993701 40.558069 
L 79.377468 40.554843 
L 85.761234 34.755649 
L 92.145 36.792821 
L 98.528766 35.04084 
L 104.912532 30.900888 
L 111.296299 31.721512 
L 117.680065 31.893052 
L 124.063831 28.215264 
L 130.447597 31.236683 
L 136.831364 29.495471 
" clip-path="url(#p362bb09497)" style="fill: none; stroke: #8172b3; stroke-width: 1.2; stroke-linecap: round"/>
   </g>
   <g id="line2d_15">
    <path d="M 47.458636 50.390782 
L 53.842403 38.483741 
L 60.226169 33.048085 
L 66.609935 32.523398 
L 72.993701 30.971086 
L 79.377468 29.193582 
L 85.761234 27.889455 
L 92.145 27.823564 
L 98.528766 30.392245 
L 104.912532 28.493511 
L 111.296299 27.433659 
L 117.680065 25.735597 
L 124.063831 26.575842 
L 130.447597 26.040269 
L 136.831364 25.910713 
" clip-path="url(#p362bb09497)" style="fill: none; stroke: #64b5cd; stroke-width: 1.2; stroke-linecap: round"/>
   </g>
   <g id="line2d_16">
    <path d="M 47.458636 101.789923 
L 53.842403 96.236728 
L 60.226169 84.130165 
L 66.609935 94.015536 
L 72.993701 83.373273 
L 79.377468 76.939977 
L 85.761234 66.721974 
L 92.145 71.833885 
L 98.528766 67.687084 
L 104.912532 67.642861 
L 111.296299 58.619933 
L 117.680065 71.677306 
L 124.063831 65.931103 
L 130.447597 56.695239 
L 136.831364 55.860988 
" clip-path="url(#p362bb09497)" style="fill: none; stroke: #8172b3; stroke-width: 1.2; stroke-linecap: round"/>
   </g>
   <g id="line2d_17">
    <path d="M 47.458636 98.22747 
L 53.842403 89.110917 
L 60.226169 81.938557 
L 66.609935 77.763981 
L 72.993701 68.531974 
L 79.377468 72.258686 
L 85.761234 61.862106 
L 92.145 52.078601 
L 98.528766 59.797527 
L 104.912532 49.326986 
L 111.296299 63.318942 
L 117.680065 49.645055 
L 124.063831 49.205761 
L 130.447597 52.038002 
L 136.831364 44.267236 
" clip-path="url(#p362bb09497)" style="fill: none; stroke: #8172b3; stroke-width: 1.2; stroke-linecap: round"/>
   </g>
   <g id="line2d_18">
    <path d="M 47.458636 98.617229 
L 53.842403 93.574322 
L 60.226169 81.557827 
L 66.609935 69.54954 
L 72.993701 74.619472 
L 79.377468 66.027071 
L 85.761234 57.856058 
L 92.145 59.336867 
L 98.528766 50.533701 
L 104.912532 55.428238 
L 111.296299 53.695621 
L 117.680065 55.678011 
L 124.063831 52.323742 
L 130.447597 48.471892 
L 136.831364 46.662907 
" clip-path="url(#p362bb09497)" style="fill: none; stroke: #8172b3; stroke-width: 1.2; stroke-linecap: round"/>
   </g>
   <g id="line2d_19">
    <path d="M 47.458636 101.45724 
L 53.842403 95.936901 
L 60.226169 83.017513 
L 66.609935 85.786145 
L 72.993701 79.58361 
L 79.377468 81.892996 
L 85.761234 73.979981 
L 92.145 76.173471 
L 98.528766 65.229745 
L 104.912532 77.958644 
L 111.296299 74.055671 
L 117.680065 64.472061 
L 124.063831 65.223973 
L 130.447597 62.176323 
L 136.831364 48.600675 
" clip-path="url(#p362bb09497)" style="fill: none; stroke: #64b5cd; stroke-width: 1.2; stroke-linecap: round"/>
   </g>
   <g id="patch_3">
    <path d="M 42.99 105.06 
L 42.99 23.56125 
" style="fill: none; stroke: #262626; stroke-linejoin: miter; stroke-linecap: square"/>
   </g>
   <g id="patch_4">
    <path d="M 42.99 105.06 
L 141.3 105.06 
" style="fill: none; stroke: #262626; stroke-linejoin: miter; stroke-linecap: square"/>
   </g>
   <g id="text_12">
    <text style="font-size: 9.6px; font-family: 'Arial'; text-anchor: middle; fill: #262626" x="92.145" y="17.56125" transform="rotate(-0 92.145 17.56125)">slic</text>
   </g>
  </g>
  <g id="axes_2">
   <g id="patch_5">
    <path d="M 184.29 105.06 
L 282.6 105.06 
L 282.6 23.56125 
L 184.29 23.56125 
L 184.29 105.06 
z
" style="fill: none"/>
   </g>
   <g id="matplotlib.axis_3">
    <g id="xtick_4">
     <g id="line2d_20">
      <g>
       <use xlink:href="#m0c19b146b4" x="207.909935" y="105.06" style="fill: #262626; stroke: #262626"/>
      </g>
     </g>
     <g id="text_13">
      <text style="font-size: 8px; font-family: 'Arial'; text-anchor: middle; fill: #262626" x="207.909935" y="119.08625" transform="rotate(-0 207.909935 119.08625)">100</text>
     </g>
    </g>
    <g id="xtick_5">
     <g id="line2d_21">
      <g>
       <use xlink:href="#m0c19b146b4" x="233.445" y="105.06" style="fill: #262626; stroke: #262626"/>
      </g>
     </g>
     <g id="text_14">
      <text style="font-size: 8px; font-family: 'Arial'; text-anchor: middle; fill: #262626" x="233.445" y="119.08625" transform="rotate(-0 233.445 119.08625)">200</text>
     </g>
    </g>
    <g id="xtick_6">
     <g id="line2d_22">
      <g>
       <use xlink:href="#m0c19b146b4" x="258.980065" y="105.06" style="fill: #262626; stroke: #262626"/>
      </g>
     </g>
     <g id="text_15">
      <text style="font-size: 8px; font-family: 'Arial'; text-anchor: middle; fill: #262626" x="258.980065" y="119.08625" transform="rotate(-0 258.980065 119.08625)">300</text>
     </g>
    </g>
    <g id="text_16">
     <text style="font-size: 9px; font-family: 'Arial'; text-anchor: middle; fill: #262626" x="233.445" y="131.118281" transform="rotate(-0 233.445 131.118281)">trials included</text>
    </g>
   </g>
   <g id="matplotlib.axis_4">
    <g id="ytick_7">
     <g id="line2d_23">
      <g>
       <use xlink:href="#m90d831d733" x="184.29" y="105.06" style="fill: #262626; stroke: #262626"/>
      </g>
     </g>
     <g id="text_17">
      <text style="font-size: 8px; font-family: 'Arial'; text-anchor: end; fill: #262626" x="175.99" y="107.923125" transform="rotate(-0 175.99 107.923125)">0.0</text>
     </g>
    </g>
    <g id="ytick_8">
     <g id="line2d_24">
      <g>
       <use xlink:href="#m90d831d733" x="184.29" y="88.76025" style="fill: #262626; stroke: #262626"/>
      </g>
     </g>
     <g id="text_18">
      <text style="font-size: 8px; font-family: 'Arial'; text-anchor: end; fill: #262626" x="175.99" y="91.623375" transform="rotate(-0 175.99 91.623375)">0.2</text>
     </g>
    </g>
    <g id="ytick_9">
     <g id="line2d_25">
      <g>
       <use xlink:href="#m90d831d733" x="184.29" y="72.4605" style="fill: #262626; stroke: #262626"/>
      </g>
     </g>
     <g id="text_19">
      <text style="font-size: 8px; font-family: 'Arial'; text-anchor: end; fill: #262626" x="175.99" y="75.323625" transform="rotate(-0 175.99 75.323625)">0.4</text>
     </g>
    </g>
    <g id="ytick_10">
     <g id="line2d_26">
      <g>
       <use xlink:href="#m90d831d733" x="184.29" y="56.16075" style="fill: #262626; stroke: #262626"/>
      </g>
     </g>
     <g id="text_20">
      <text style="font-size: 8px; font-family: 'Arial'; text-anchor: end; fill: #262626" x="175.99" y="59.023875" transform="rotate(-0 175.99 59.023875)">0.6</text>
     </g>
    </g>
    <g id="ytick_11">
     <g id="line2d_27">
      <g>
       <use xlink:href="#m90d831d733" x="184.29" y="39.861" style="fill: #262626; stroke: #262626"/>
      </g>
     </g>
     <g id="text_21">
      <text style="font-size: 8px; font-family: 'Arial'; text-anchor: end; fill: #262626" x="175.99" y="42.724125" transform="rotate(-0 175.99 42.724125)">0.8</text>
     </g>
    </g>
    <g id="ytick_12">
     <g id="line2d_28">
      <g>
       <use xlink:href="#m90d831d733" x="184.29" y="23.56125" style="fill: #262626; stroke: #262626"/>
      </g>
     </g>
     <g id="text_22">
      <text style="font-size: 8px; font-family: 'Arial'; text-anchor: end; fill: #262626" x="175.99" y="26.424375" transform="rotate(-0 175.99 26.424375)">1.0</text>
     </g>
    </g>
    <g id="text_23">
     <text style="font-size: 9px; font-family: 'Arial'; text-anchor: middle; fill: #262626" x="159.08125" y="64.310625" transform="rotate(-90 159.08125 64.310625)">correlation</text>
    </g>
   </g>
   <g id="line2d_29">
    <path d="M 188.758636 65.884853 
L 195.142403 58.548325 
L 201.526169 61.068273 
L 207.909935 61.030765 
L 214.293701 59.621212 
L 220.677468 58.293803 
L 227.061234 62.796533 
L 233.445 57.848229 
L 239.828766 55.895757 
L 246.212532 58.497617 
L 252.596299 53.458865 
L 258.980065 51.467301 
L 265.363831 61.179653 
L 271.747597 54.327095 
L 278.131364 56.556709 
" clip-path="url(#p36a29fcbca)" style="fill: none; stroke: #8172b3; stroke-width: 1.2; stroke-linecap: round"/>
   </g>
   <g id="line2d_30">
    <path d="M 188.758636 105.06 
L 195.142403 41.155677 
L 201.526169 36.921405 
L 207.909935 36.689248 
L 214.293701 31.668265 
L 220.677468 33.495012 
L 227.061234 33.771524 
L 233.445 32.77135 
L 239.828766 38.014403 
L 246.212532 27.829689 
L 252.596299 36.779474 
L 258.980065 28.716015 
L 265.363831 30.714879 
L 271.747597 28.910214 
L 278.131364 26.442768 
" clip-path="url(#p36a29fcbca)" style="fill: none; stroke: #8172b3; stroke-width: 1.2; stroke-linecap: round"/>
   </g>
   <g id="line2d_31">
    <path d="M 188.758636 50.586377 
L 195.142403 47.036192 
L 201.526169 42.304733 
L 207.909935 46.051397 
L 214.293701 50.322319 
L 220.677468 49.902532 
L 227.061234 53.762174 
L 233.445 54.839282 
L 239.828766 53.639865 
L 246.212532 53.850922 
L 252.596299 52.052987 
L 258.980065 52.73727 
L 265.363831 53.92181 
L 271.747597 56.475482 
L 278.131364 46.498089 
" clip-path="url(#p36a29fcbca)" style="fill: none; stroke: #8172b3; stroke-width: 1.2; stroke-linecap: round"/>
   </g>
   <g id="line2d_32">
    <path d="M 188.758636 105.06 
L 195.142403 105.06 
L 201.526169 105.06 
L 207.909935 89.654008 
L 214.293701 100.024838 
L 220.677468 96.184776 
L 227.061234 94.826793 
L 233.445 98.603339 
L 239.828766 87.275766 
L 246.212532 92.224183 
L 252.596299 96.552641 
L 258.980065 93.576841 
L 265.363831 94.261664 
L 271.747597 82.242927 
L 278.131364 75.205042 
" clip-path="url(#p36a29fcbca)" style="fill: none; stroke: #64b5cd; stroke-width: 1.2; stroke-linecap: round"/>
   </g>
   <g id="line2d_33">
    <path d="M 188.758636 50.930324 
L 195.142403 54.26567 
L 201.526169 54.493676 
L 207.909935 50.344055 
L 214.293701 48.777203 
L 220.677468 42.535652 
L 227.061234 40.730813 
L 233.445 41.016079 
L 239.828766 36.500798 
L 246.212532 39.779141 
L 252.596299 35.516835 
L 258.980065 40.305802 
L 265.363831 38.559253 
L 271.747597 35.889023 
L 278.131364 38.541551 
" clip-path="url(#p36a29fcbca)" style="fill: none; stroke: #8172b3; stroke-width: 1.2; stroke-linecap: round"/>
   </g>
   <g id="line2d_34">
    <path d="M 188.758636 62.66024 
L 195.142403 57.493722 
L 201.526169 54.318225 
L 207.909935 46.277568 
L 214.293701 55.109297 
L 220.677468 51.946762 
L 227.061234 47.169105 
L 233.445 48.044298 
L 239.828766 54.399693 
L 246.212532 45.769955 
L 252.596299 50.827584 
L 258.980065 42.137651 
L 265.363831 51.457202 
L 271.747597 42.70196 
L 278.131364 60.888299 
" clip-path="url(#p36a29fcbca)" style="fill: none; stroke: #64b5cd; stroke-width: 1.2; stroke-linecap: round"/>
   </g>
   <g id="line2d_35">
    <path d="M 188.758636 105.06 
L 195.142403 105.06 
L 201.526169 105.06 
L 207.909935 54.109292 
L 214.293701 58.708007 
L 220.677468 41.413797 
L 227.061234 38.574388 
L 233.445 44.909683 
L 239.828766 60.172171 
L 246.212532 39.942304 
L 252.596299 52.944127 
L 258.980065 46.992055 
L 265.363831 41.181726 
L 271.747597 50.39714 
L 278.131364 50.93711 
" clip-path="url(#p36a29fcbca)" style="fill: none; stroke: #8172b3; stroke-width: 1.2; stroke-linecap: round"/>
   </g>
   <g id="line2d_36">
    <path d="M 188.758636 105.06 
L 195.142403 50.519718 
L 201.526169 48.970076 
L 207.909935 45.100312 
L 214.293701 47.643224 
L 220.677468 44.887185 
L 227.061234 40.213971 
L 233.445 36.829486 
L 239.828766 47.474521 
L 246.212532 45.693857 
L 252.596299 34.932581 
L 258.980065 54.743653 
L 265.363831 38.507024 
L 271.747597 45.40006 
L 278.131364 42.372405 
" clip-path="url(#p36a29fcbca)" style="fill: none; stroke: #8172b3; stroke-width: 1.2; stroke-linecap: round"/>
   </g>
   <g id="line2d_37">
    <path d="M 188.758636 105.06 
L 195.142403 105.06 
L 201.526169 58.622885 
L 207.909935 60.224481 
L 214.293701 50.868602 
L 220.677468 52.192654 
L 227.061234 51.612828 
L 233.445 41.713364 
L 239.828766 45.656444 
L 246.212532 49.97842 
L 252.596299 53.640337 
L 258.980065 51.535438 
L 265.363831 43.547016 
L 271.747597 41.224829 
L 278.131364 54.137674 
" clip-path="url(#p36a29fcbca)" style="fill: none; stroke: #8172b3; stroke-width: 1.2; stroke-linecap: round"/>
   </g>
   <g id="line2d_38">
    <path d="M 188.758636 105.06 
L 195.142403 67.238332 
L 201.526169 64.886204 
L 207.909935 64.461061 
L 214.293701 66.027539 
L 220.677468 68.652208 
L 227.061234 68.974867 
L 233.445 59.296618 
L 239.828766 62.343409 
L 246.212532 61.596084 
L 252.596299 61.907587 
L 258.980065 54.085593 
L 265.363831 47.353864 
L 271.747597 45.027564 
L 278.131364 53.360822 
" clip-path="url(#p36a29fcbca)" style="fill: none; stroke: #64b5cd; stroke-width: 1.2; stroke-linecap: round"/>
   </g>
   <g id="patch_6">
    <path d="M 184.29 105.06 
L 184.29 23.56125 
" style="fill: none; stroke: #262626; stroke-linejoin: miter; stroke-linecap: square"/>
   </g>
   <g id="patch_7">
    <path d="M 184.29 105.06 
L 282.6 105.06 
" style="fill: none; stroke: #262626; stroke-linejoin: miter; stroke-linecap: square"/>
   </g>
   <g id="text_24">
    <text style="font-size: 9.6px; font-family: 'Arial'; text-anchor: middle; fill: #262626" x="233.445" y="17.56125" transform="rotate(-0 233.445 17.56125)">accllr</text>
   </g>
  </g>
  <g id="axes_3">
   <g id="patch_8">
    <path d="M 325.59 105.06 
L 423.9 105.06 
L 423.9 23.56125 
L 325.59 23.56125 
L 325.59 105.06 
z
" style="fill: none"/>
   </g>
   <g id="matplotlib.axis_5">
    <g id="xtick_7">
     <g id="line2d_39">
      <g>
       <use xlink:href="#m0c19b146b4" x="349.209935" y="105.06" style="fill: #262626; stroke: #262626"/>
      </g>
     </g>
     <g id="text_25">
      <text style="font-size: 8px; font-family: 'Arial'; text-anchor: middle; fill: #262626" x="349.209935" y="119.08625" transform="rotate(-0 349.209935 119.08625)">100</text>
     </g>
    </g>
    <g id="xtick_8">
     <g id="line2d_40">
      <g>
       <use xlink:href="#m0c19b146b4" x="374.745" y="105.06" style="fill: #262626; stroke: #262626"/>
      </g>
     </g>
     <g id="text_26">
      <text style="font-size: 8px; font-family: 'Arial'; text-anchor: middle; fill: #262626" x="374.745" y="119.08625" transform="rotate(-0 374.745 119.08625)">200</text>
     </g>
    </g>
    <g id="xtick_9">
     <g id="line2d_41">
      <g>
       <use xlink:href="#m0c19b146b4" x="400.280065" y="105.06" style="fill: #262626; stroke: #262626"/>
      </g>
     </g>
     <g id="text_27">
      <text style="font-size: 8px; font-family: 'Arial'; text-anchor: middle; fill: #262626" x="400.280065" y="119.08625" transform="rotate(-0 400.280065 119.08625)">300</text>
     </g>
    </g>
    <g id="text_28">
     <text style="font-size: 9px; font-family: 'Arial'; text-anchor: middle; fill: #262626" x="374.745" y="131.118281" transform="rotate(-0 374.745 131.118281)">trials included</text>
    </g>
   </g>
   <g id="matplotlib.axis_6">
    <g id="ytick_13">
     <g id="line2d_42">
      <g>
       <use xlink:href="#m90d831d733" x="325.59" y="105.06" style="fill: #262626; stroke: #262626"/>
      </g>
     </g>
     <g id="text_29">
      <text style="font-size: 8px; font-family: 'Arial'; text-anchor: end; fill: #262626" x="317.29" y="107.923125" transform="rotate(-0 317.29 107.923125)">0.0</text>
     </g>
    </g>
    <g id="ytick_14">
     <g id="line2d_43">
      <g>
       <use xlink:href="#m90d831d733" x="325.59" y="88.76025" style="fill: #262626; stroke: #262626"/>
      </g>
     </g>
     <g id="text_30">
      <text style="font-size: 8px; font-family: 'Arial'; text-anchor: end; fill: #262626" x="317.29" y="91.623375" transform="rotate(-0 317.29 91.623375)">0.2</text>
     </g>
    </g>
    <g id="ytick_15">
     <g id="line2d_44">
      <g>
       <use xlink:href="#m90d831d733" x="325.59" y="72.4605" style="fill: #262626; stroke: #262626"/>
      </g>
     </g>
     <g id="text_31">
      <text style="font-size: 8px; font-family: 'Arial'; text-anchor: end; fill: #262626" x="317.29" y="75.323625" transform="rotate(-0 317.29 75.323625)">0.4</text>
     </g>
    </g>
    <g id="ytick_16">
     <g id="line2d_45">
      <g>
       <use xlink:href="#m90d831d733" x="325.59" y="56.16075" style="fill: #262626; stroke: #262626"/>
      </g>
     </g>
     <g id="text_32">
      <text style="font-size: 8px; font-family: 'Arial'; text-anchor: end; fill: #262626" x="317.29" y="59.023875" transform="rotate(-0 317.29 59.023875)">0.6</text>
     </g>
    </g>
    <g id="ytick_17">
     <g id="line2d_46">
      <g>
       <use xlink:href="#m90d831d733" x="325.59" y="39.861" style="fill: #262626; stroke: #262626"/>
      </g>
     </g>
     <g id="text_33">
      <text style="font-size: 8px; font-family: 'Arial'; text-anchor: end; fill: #262626" x="317.29" y="42.724125" transform="rotate(-0 317.29 42.724125)">0.8</text>
     </g>
    </g>
    <g id="ytick_18">
     <g id="line2d_47">
      <g>
       <use xlink:href="#m90d831d733" x="325.59" y="23.56125" style="fill: #262626; stroke: #262626"/>
      </g>
     </g>
     <g id="text_34">
      <text style="font-size: 8px; font-family: 'Arial'; text-anchor: end; fill: #262626" x="317.29" y="26.424375" transform="rotate(-0 317.29 26.424375)">1.0</text>
     </g>
    </g>
    <g id="text_35">
     <text style="font-size: 9px; font-family: 'Arial'; text-anchor: middle; fill: #262626" x="300.38125" y="64.310625" transform="rotate(-90 300.38125 64.310625)">correlation</text>
    </g>
   </g>
   <g id="line2d_48">
    <path d="M 330.058636 38.5649 
L 336.442403 31.349973 
L 342.826169 29.816388 
L 349.209935 27.760163 
L 355.593701 27.714175 
L 361.977468 26.746771 
L 368.361234 25.559057 
L 374.745 25.423656 
L 381.128766 25.550761 
L 387.512532 25.078223 
L 393.896299 25.471412 
L 400.280065 24.998237 
L 406.663831 25.180433 
L 413.047597 24.520149 
L 419.431364 24.428245 
" clip-path="url(#pe397d503ed)" style="fill: none; stroke: #8172b3; stroke-width: 1.2; stroke-linecap: round"/>
   </g>
   <g id="line2d_49">
    <path d="M 330.058636 44.592147 
L 336.442403 37.449512 
L 342.826169 30.339867 
L 349.209935 30.363606 
L 355.593701 27.866788 
L 361.977468 30.393385 
L 368.361234 27.078042 
L 374.745 26.549212 
L 381.128766 26.257854 
L 387.512532 26.450041 
L 393.896299 26.297322 
L 400.280065 26.746309 
L 406.663831 26.776016 
L 413.047597 26.728414 
L 419.431364 25.780084 
" clip-path="url(#pe397d503ed)" style="fill: none; stroke: #8172b3; stroke-width: 1.2; stroke-linecap: round"/>
   </g>
   <g id="line2d_50">
    <path d="M 330.058636 82.355848 
L 336.442403 65.688703 
L 342.826169 55.870485 
L 349.209935 50.615642 
L 355.593701 43.084856 
L 361.977468 43.385243 
L 368.361234 41.073037 
L 374.745 36.503844 
L 381.128766 34.891062 
L 387.512532 33.208539 
L 393.896299 34.470904 
L 400.280065 31.647863 
L 406.663831 31.24482 
L 413.047597 30.923881 
L 419.431364 32.680346 
" clip-path="url(#pe397d503ed)" style="fill: none; stroke: #8172b3; stroke-width: 1.2; stroke-linecap: round"/>
   </g>
   <g id="line2d_51">
    <path d="M 330.058636 45.956802 
L 336.442403 34.94723 
L 342.826169 31.090541 
L 349.209935 30.023886 
L 355.593701 28.776813 
L 361.977468 27.054317 
L 368.361234 26.841849 
L 374.745 26.945571 
L 381.128766 26.637844 
L 387.512532 25.800512 
L 393.896299 25.545773 
L 400.280065 25.227143 
L 406.663831 24.97371 
L 413.047597 25.515628 
L 419.431364 25.207431 
" clip-path="url(#pe397d503ed)" style="fill: none; stroke: #64b5cd; stroke-width: 1.2; stroke-linecap: round"/>
   </g>
   <g id="line2d_52">
    <path d="M 330.058636 69.227604 
L 336.442403 52.060789 
L 342.826169 41.745956 
L 349.209935 40.736703 
L 355.593701 37.219491 
L 361.977468 34.318467 
L 368.361234 32.84505 
L 374.745 31.108359 
L 381.128766 31.794237 
L 387.512532 30.613589 
L 393.896299 32.966472 
L 400.280065 32.422985 
L 406.663831 30.59082 
L 413.047597 27.879408 
L 419.431364 27.557513 
" clip-path="url(#pe397d503ed)" style="fill: none; stroke: #8172b3; stroke-width: 1.2; stroke-linecap: round"/>
   </g>
   <g id="line2d_53">
    <path d="M 330.058636 34.692616 
L 336.442403 28.860363 
L 342.826169 26.897724 
L 349.209935 25.628891 
L 355.593701 26.028152 
L 361.977468 25.223668 
L 368.361234 25.010375 
L 374.745 24.77776 
L 381.128766 24.249731 
L 387.512532 24.320736 
L 393.896299 24.369234 
L 400.280065 24.416646 
L 406.663831 24.320899 
L 413.047597 24.042795 
L 419.431364 24.153652 
" clip-path="url(#pe397d503ed)" style="fill: none; stroke: #64b5cd; stroke-width: 1.2; stroke-linecap: round"/>
   </g>
   <g id="line2d_54">
    <path d="M 330.058636 72.893057 
L 336.442403 58.16856 
L 342.826169 47.253438 
L 349.209935 44.449339 
L 355.593701 42.581339 
L 361.977468 37.209439 
L 368.361234 35.09216 
L 374.745 32.760961 
L 381.128766 31.258005 
L 387.512532 31.149492 
L 393.896299 30.347585 
L 400.280065 29.213938 
L 406.663831 30.107945 
L 413.047597 31.792672 
L 419.431364 28.738867 
" clip-path="url(#pe397d503ed)" style="fill: none; stroke: #8172b3; stroke-width: 1.2; stroke-linecap: round"/>
   </g>
   <g id="line2d_55">
    <path d="M 330.058636 91.040923 
L 336.442403 75.471556 
L 342.826169 66.371905 
L 349.209935 69.468452 
L 355.593701 56.979783 
L 361.977468 47.562477 
L 368.361234 48.051816 
L 374.745 44.451792 
L 381.128766 41.186701 
L 387.512532 45.459443 
L 393.896299 35.491149 
L 400.280065 41.118295 
L 406.663831 36.516689 
L 413.047597 33.163036 
L 419.431364 39.322239 
" clip-path="url(#pe397d503ed)" style="fill: none; stroke: #8172b3; stroke-width: 1.2; stroke-linecap: round"/>
   </g>
   <g id="line2d_56">
    <path d="M 330.058636 40.711293 
L 336.442403 34.515259 
L 342.826169 30.346565 
L 349.209935 27.07942 
L 355.593701 26.617777 
L 361.977468 26.635693 
L 368.361234 25.916674 
L 374.745 25.606375 
L 381.128766 25.669602 
L 387.512532 25.33607 
L 393.896299 25.712406 
L 400.280065 25.433074 
L 406.663831 24.91744 
L 413.047597 25.103474 
L 419.431364 24.465711 
" clip-path="url(#pe397d503ed)" style="fill: none; stroke: #8172b3; stroke-width: 1.2; stroke-linecap: round"/>
   </g>
   <g id="line2d_57">
    <path d="M 330.058636 62.432289 
L 336.442403 44.028183 
L 342.826169 32.867253 
L 349.209935 34.871317 
L 355.593701 31.359726 
L 361.977468 29.708411 
L 368.361234 28.31803 
L 374.745 28.27201 
L 381.128766 27.790772 
L 387.512532 26.110695 
L 393.896299 26.046774 
L 400.280065 25.815614 
L 406.663831 25.530744 
L 413.047597 26.112446 
L 419.431364 25.366176 
" clip-path="url(#pe397d503ed)" style="fill: none; stroke: #64b5cd; stroke-width: 1.2; stroke-linecap: round"/>
   </g>
   <g id="patch_9">
    <path d="M 325.59 105.06 
L 325.59 23.56125 
" style="fill: none; stroke: #262626; stroke-linejoin: miter; stroke-linecap: square"/>
   </g>
   <g id="patch_10">
    <path d="M 325.59 105.06 
L 423.9 105.06 
" style="fill: none; stroke: #262626; stroke-linejoin: miter; stroke-linecap: square"/>
   </g>
   <g id="text_36">
    <text style="font-size: 9.6px; font-family: 'Arial'; text-anchor: middle; fill: #262626" x="374.745" y="17.56125" transform="rotate(-0 374.745 17.56125)">gc_stim</text>
   </g>
  </g>
  <g id="axes_4">
   <g id="patch_11">
    <path d="M 466.89 105.06 
L 565.2 105.06 
L 565.2 23.56125 
L 466.89 23.56125 
L 466.89 105.06 
z
" style="fill: none"/>
   </g>
   <g id="matplotlib.axis_7">
    <g id="xtick_10">
     <g id="line2d_58">
      <g>
       <use xlink:href="#m0c19b146b4" x="490.509935" y="105.06" style="fill: #262626; stroke: #262626"/>
      </g>
     </g>
     <g id="text_37">
      <text style="font-size: 8px; font-family: 'Arial'; text-anchor: middle; fill: #262626" x="490.509935" y="119.08625" transform="rotate(-0 490.509935 119.08625)">100</text>
     </g>
    </g>
    <g id="xtick_11">
     <g id="line2d_59">
      <g>
       <use xlink:href="#m0c19b146b4" x="516.045" y="105.06" style="fill: #262626; stroke: #262626"/>
      </g>
     </g>
     <g id="text_38">
      <text style="font-size: 8px; font-family: 'Arial'; text-anchor: middle; fill: #262626" x="516.045" y="119.08625" transform="rotate(-0 516.045 119.08625)">200</text>
     </g>
    </g>
    <g id="xtick_12">
     <g id="line2d_60">
      <g>
       <use xlink:href="#m0c19b146b4" x="541.580065" y="105.06" style="fill: #262626; stroke: #262626"/>
      </g>
     </g>
     <g id="text_39">
      <text style="font-size: 8px; font-family: 'Arial'; text-anchor: middle; fill: #262626" x="541.580065" y="119.08625" transform="rotate(-0 541.580065 119.08625)">300</text>
     </g>
    </g>
    <g id="text_40">
     <text style="font-size: 9px; font-family: 'Arial'; text-anchor: middle; fill: #262626" x="516.045" y="131.118281" transform="rotate(-0 516.045 131.118281)">trials included</text>
    </g>
   </g>
   <g id="matplotlib.axis_8">
    <g id="ytick_19">
     <g id="line2d_61">
      <g>
       <use xlink:href="#m90d831d733" x="466.89" y="105.06" style="fill: #262626; stroke: #262626"/>
      </g>
     </g>
     <g id="text_41">
      <text style="font-size: 8px; font-family: 'Arial'; text-anchor: end; fill: #262626" x="458.59" y="107.923125" transform="rotate(-0 458.59 107.923125)">0.0</text>
     </g>
    </g>
    <g id="ytick_20">
     <g id="line2d_62">
      <g>
       <use xlink:href="#m90d831d733" x="466.89" y="88.76025" style="fill: #262626; stroke: #262626"/>
      </g>
     </g>
     <g id="text_42">
      <text style="font-size: 8px; font-family: 'Arial'; text-anchor: end; fill: #262626" x="458.59" y="91.623375" transform="rotate(-0 458.59 91.623375)">0.2</text>
     </g>
    </g>
    <g id="ytick_21">
     <g id="line2d_63">
      <g>
       <use xlink:href="#m90d831d733" x="466.89" y="72.4605" style="fill: #262626; stroke: #262626"/>
      </g>
     </g>
     <g id="text_43">
      <text style="font-size: 8px; font-family: 'Arial'; text-anchor: end; fill: #262626" x="458.59" y="75.323625" transform="rotate(-0 458.59 75.323625)">0.4</text>
     </g>
    </g>
    <g id="ytick_22">
     <g id="line2d_64">
      <g>
       <use xlink:href="#m90d831d733" x="466.89" y="56.16075" style="fill: #262626; stroke: #262626"/>
      </g>
     </g>
     <g id="text_44">
      <text style="font-size: 8px; font-family: 'Arial'; text-anchor: end; fill: #262626" x="458.59" y="59.023875" transform="rotate(-0 458.59 59.023875)">0.6</text>
     </g>
    </g>
    <g id="ytick_23">
     <g id="line2d_65">
      <g>
       <use xlink:href="#m90d831d733" x="466.89" y="39.861" style="fill: #262626; stroke: #262626"/>
      </g>
     </g>
     <g id="text_45">
      <text style="font-size: 8px; font-family: 'Arial'; text-anchor: end; fill: #262626" x="458.59" y="42.724125" transform="rotate(-0 458.59 42.724125)">0.8</text>
     </g>
    </g>
    <g id="ytick_24">
     <g id="line2d_66">
      <g>
       <use xlink:href="#m90d831d733" x="466.89" y="23.56125" style="fill: #262626; stroke: #262626"/>
      </g>
     </g>
     <g id="text_46">
      <text style="font-size: 8px; font-family: 'Arial'; text-anchor: end; fill: #262626" x="458.59" y="26.424375" transform="rotate(-0 458.59 26.424375)">1.0</text>
     </g>
    </g>
    <g id="text_47">
     <text style="font-size: 9px; font-family: 'Arial'; text-anchor: middle; fill: #262626" x="441.68125" y="64.310625" transform="rotate(-90 441.68125 64.310625)">correlation</text>
    </g>
   </g>
   <g id="line2d_67">
    <path d="M 471.358636 71.829243 
L 477.742403 53.386625 
L 484.126169 44.854385 
L 490.509935 31.778599 
L 496.893701 34.728118 
L 503.277468 32.691394 
L 509.661234 28.755162 
L 516.045 29.029227 
L 522.428766 26.909241 
L 528.812532 27.423712 
L 535.196299 27.184032 
L 541.580065 28.478572 
L 547.963831 27.71902 
L 554.347597 26.92449 
L 560.731364 28.067393 
" clip-path="url(#p84b940d246)" style="fill: none; stroke: #8172b3; stroke-width: 1.2; stroke-linecap: round"/>
   </g>
   <g id="line2d_68">
    <path d="M 471.358636 85.192623 
L 477.742403 75.485761 
L 484.126169 63.699525 
L 490.509935 50.520464 
L 496.893701 55.004151 
L 503.277468 51.127974 
L 509.661234 49.611542 
L 516.045 42.659839 
L 522.428766 42.069862 
L 528.812532 42.16968 
L 535.196299 34.971384 
L 541.580065 37.380789 
L 547.963831 35.128457 
L 554.347597 40.417612 
L 560.731364 30.846957 
" clip-path="url(#p84b940d246)" style="fill: none; stroke: #8172b3; stroke-width: 1.2; stroke-linecap: round"/>
   </g>
   <g id="line2d_69">
    <path d="M 471.358636 95.635647 
L 477.742403 89.594523 
L 484.126169 84.524234 
L 490.509935 77.263907 
L 496.893701 69.04053 
L 503.277468 72.207576 
L 509.661234 64.4866 
L 516.045 61.785942 
L 522.428766 61.115389 
L 528.812532 57.263118 
L 535.196299 64.56771 
L 541.580065 63.266946 
L 547.963831 48.619157 
L 554.347597 52.857811 
L 560.731364 54.249107 
" clip-path="url(#p84b940d246)" style="fill: none; stroke: #8172b3; stroke-width: 1.2; stroke-linecap: round"/>
   </g>
   <g id="line2d_70">
    <path d="M 471.358636 93.243729 
L 477.742403 83.581709 
L 484.126169 74.649195 
L 490.509935 69.902968 
L 496.893701 62.307454 
L 503.277468 60.675735 
L 509.661234 53.407911 
L 516.045 53.114207 
L 522.428766 50.345894 
L 528.812532 45.879416 
L 535.196299 47.192212 
L 541.580065 42.244515 
L 547.963831 43.631113 
L 554.347597 41.709076 
L 560.731364 45.106414 
" clip-path="url(#p84b940d246)" style="fill: none; stroke: #64b5cd; stroke-width: 1.2; stroke-linecap: round"/>
   </g>
   <g id="line2d_71">
    <path d="M 471.358636 96.226991 
L 477.742403 93.391351 
L 484.126169 82.509645 
L 490.509935 81.960443 
L 496.893701 74.380472 
L 503.277468 70.722468 
L 509.661234 70.007153 
L 516.045 57.111135 
L 522.428766 62.634568 
L 528.812532 54.094786 
L 535.196299 58.260994 
L 541.580065 57.437438 
L 547.963831 48.274441 
L 554.347597 46.926874 
L 560.731364 46.383988 
" clip-path="url(#p84b940d246)" style="fill: none; stroke: #8172b3; stroke-width: 1.2; stroke-linecap: round"/>
   </g>
   <g id="line2d_72">
    <path d="M 471.358636 98.164401 
L 477.742403 89.663404 
L 484.126169 87.91178 
L 490.509935 75.561003 
L 496.893701 75.310922 
L 503.277468 71.16361 
L 509.661234 61.491258 
L 516.045 61.412524 
L 522.428766 59.954572 
L 528.812532 54.19435 
L 535.196299 59.310284 
L 541.580065 47.924529 
L 547.963831 52.308726 
L 554.347597 46.276754 
L 560.731364 49.086328 
" clip-path="url(#p84b940d246)" style="fill: none; stroke: #64b5cd; stroke-width: 1.2; stroke-linecap: round"/>
   </g>
   <g id="line2d_73">
    <path d="M 471.358636 68.721349 
L 477.742403 54.093038 
L 484.126169 44.963633 
L 490.509935 39.925213 
L 496.893701 38.471838 
L 503.277468 33.003921 
L 509.661234 33.236551 
L 516.045 33.055857 
L 522.428766 31.459153 
L 528.812532 32.156785 
L 535.196299 30.126843 
L 541.580065 28.332423 
L 547.963831 27.22355 
L 554.347597 29.017853 
L 560.731364 28.341024 
" clip-path="url(#p84b940d246)" style="fill: none; stroke: #8172b3; stroke-width: 1.2; stroke-linecap: round"/>
   </g>
   <g id="line2d_74">
    <path d="M 471.358636 95.839184 
L 477.742403 84.229155 
L 484.126169 76.404803 
L 490.509935 75.845177 
L 496.893701 70.104984 
L 503.277468 60.405734 
L 509.661234 58.923953 
L 516.045 50.933477 
L 522.428766 50.73783 
L 528.812532 51.039462 
L 535.196299 55.341282 
L 541.580065 61.028546 
L 547.963831 57.106865 
L 554.347597 53.874911 
L 560.731364 63.182153 
" clip-path="url(#p84b940d246)" style="fill: none; stroke: #8172b3; stroke-width: 1.2; stroke-linecap: round"/>
   </g>
   <g id="line2d_75">
    <path d="M 471.358636 35.662013 
L 477.742403 28.265342 
L 484.126169 26.456763 
L 490.509935 26.106558 
L 496.893701 25.88159 
L 503.277468 24.989363 
L 509.661234 24.651573 
L 516.045 24.85321 
L 522.428766 24.887514 
L 528.812532 24.494361 
L 535.196299 24.160932 
L 541.580065 24.225998 
L 547.963831 24.163561 
L 554.347597 24.057446 
L 560.731364 24.169093 
" clip-path="url(#p84b940d246)" style="fill: none; stroke: #8172b3; stroke-width: 1.2; stroke-linecap: round"/>
   </g>
   <g id="line2d_76">
    <path d="M 471.358636 98.415289 
L 477.742403 95.23921 
L 484.126169 84.836338 
L 490.509935 84.480231 
L 496.893701 77.400889 
L 503.277468 83.462396 
L 509.661234 76.282062 
L 516.045 75.676732 
L 522.428766 64.014724 
L 528.812532 75.240826 
L 535.196299 76.605111 
L 541.580065 90.494737 
L 547.963831 77.262309 
L 554.347597 53.973139 
L 560.731364 108.025293 
" clip-path="url(#p84b940d246)" style="fill: none; stroke: #64b5cd; stroke-width: 1.2; stroke-linecap: round"/>
   </g>
   <g id="patch_12">
    <path d="M 466.89 105.06 
L 466.89 23.56125 
" style="fill: none; stroke: #262626; stroke-linejoin: miter; stroke-linecap: square"/>
   </g>
   <g id="patch_13">
    <path d="M 466.89 105.06 
L 565.2 105.06 
" style="fill: none; stroke: #262626; stroke-linejoin: miter; stroke-linecap: square"/>
   </g>
   <g id="text_48">
    <text style="font-size: 9.6px; font-family: 'Arial'; text-anchor: middle; fill: #262626" x="516.045" y="17.56125" transform="rotate(-0 516.045 17.56125)">gc</text>
   </g>
  </g>
 </g>
 <defs>
  <clipPath id="p362bb09497">
   <rect x="42.99" y="23.56125" width="98.31" height="81.49875"/>
  </clipPath>
  <clipPath id="p36a29fcbca">
   <rect x="184.29" y="23.56125" width="98.31" height="81.49875"/>
  </clipPath>
  <clipPath id="pe397d503ed">
   <rect x="325.59" y="23.56125" width="98.31" height="81.49875"/>
  </clipPath>
  <clipPath id="p84b940d246">
   <rect x="466.89" y="23.56125" width="98.31" height="81.49875"/>
  </clipPath>
 </defs>
</svg>
