<?xml version="1.0" encoding="utf-8" standalone="no"?>
<!DOCTYPE svg PUBLIC "-//W3C//DTD SVG 1.1//EN"
  "http://www.w3.org/Graphics/SVG/1.1/DTD/svg11.dtd">
<svg xmlns:xlink="http://www.w3.org/1999/xlink" width="432pt" height="126pt" viewBox="0 0 432 126" xmlns="http://www.w3.org/2000/svg" version="1.1">
 <metadata>
  <rdf:RDF xmlns:dc="http://purl.org/dc/elements/1.1/" xmlns:cc="http://creativecommons.org/ns#" xmlns:rdf="http://www.w3.org/1999/02/22-rdf-syntax-ns#">
   <cc:Work>
    <dc:type rdf:resource="http://purl.org/dc/dcmitype/StillImage"/>
    <dc:date>2025-10-22T12:41:27.969212</dc:date>
    <dc:format>image/svg+xml</dc:format>
    <dc:creator>
     <cc:Agent>
      <dc:title>Matplotlib v3.10.6, https://matplotlib.org/</dc:title>
     </cc:Agent>
    </dc:creator>
   </cc:Work>
  </rdf:RDF>
 </metadata>
 <defs>
  <style type="text/css">*{stroke-linejoin: round; stroke-linecap: butt}</style>
 </defs>
 <g id="figure_1">
  <g id="patch_1">
   <path d="M 0 126 
L 432 126 
L 432 0 
L 0 0 
L 0 126 
z
" style="fill: none"/>
  </g>
  <g id="axes_1">
   <g id="patch_2">
    <path d="M 86.4 88.2 
L 172.8 88.2 
L 172.8 0 
L 86.4 0 
L 86.4 88.2 
z
" style="fill: none"/>
   </g>
   <g id="matplotlib.axis_1">
    <g id="xtick_1">
     <g id="line2d_1">
      <defs>
       <path id="m03c55a9eec" d="M 0 0 
L 0 4.8 
" style="stroke: #262626"/>
      </defs>
      <g>
       <use xlink:href="#m03c55a9eec" x="86.4" y="88.2" style="fill: #262626; stroke: #262626"/>
      </g>
     </g>
     <g id="text_1">
      <text style="font-size: 8px; font-family: 'Arial'; text-anchor: middle; fill: #262626" x="86.4" y="102.22625" transform="rotate(-0 86.4 102.22625)">0</text>
     </g>
    </g>
    <g id="xtick_2">
     <g id="line2d_2">
      <g>
       <use xlink:href="#m03c55a9eec" x="120.96" y="88.2" style="fill: #262626; stroke: #262626"/>
      </g>
     </g>
     <g id="text_2">
      <text style="font-size: 8px; font-family: 'Arial'; text-anchor: middle; fill: #262626" x="120.96" y="102.22625" transform="rotate(-0 120.96 102.22625)">200</text>
     </g>
    </g>
    <g id="xtick_3">
     <g id="line2d_3">
      <g>
       <use xlink:href="#m03c55a9eec" x="155.52" y="88.2" style="fill: #262626; stroke: #262626"/>
      </g>
     </g>
     <g id="text_3">
      <text style="font-size: 8px; font-family: 'Arial'; text-anchor: middle; fill: #262626" x="155.52" y="102.22625" transform="rotate(-0 155.52 102.22625)">400</text>
     </g>
    </g>
    <g id="text_4">
     <text style="font-size: 9px; font-family: 'Arial'; text-anchor: middle; fill: #262626" x="129.6" y="114.258281" transform="rotate(-0 129.6 114.258281)">group size</text>
    </g>
   </g>
   <g id="matplotlib.axis_2">
    <g id="ytick_1">
     <g id="line2d_4">
      <defs>
       <path id="mdc286676bf" d="M 0 0 
L -4.8 0 
" style="stroke: #262626"/>
      </defs>
      <g>
       <use xlink:href="#mdc286676bf" x="86.4" y="88.2" style="fill: #262626; stroke: #262626"/>
      </g>
     </g>
     <g id="text_5">
      <text style="font-size: 8px; font-family: 'Arial'; text-anchor: end; fill: #262626" x="78.1" y="91.063125" transform="rotate(-0 78.1 91.063125)">0.0</text>
     </g>
    </g>
    <g id="ytick_2">
     <g id="line2d_5">
      <g>
       <use xlink:href="#mdc286676bf" x="86.4" y="70.56" style="fill: #262626; stroke: #262626"/>
      </g>
     </g>
     <g id="text_6">
      <text style="font-size: 8px; font-family: 'Arial'; text-anchor: end; fill: #262626" x="78.1" y="73.423125" transform="rotate(-0 78.1 73.423125)">0.2</text>
     </g>
    </g>
    <g id="ytick_3">
     <g id="line2d_6">
      <g>
       <use xlink:href="#mdc286676bf" x="86.4" y="52.92" style="fill: #262626; stroke: #262626"/>
      </g>
     </g>
     <g id="text_7">
      <text style="font-size: 8px; font-family: 'Arial'; text-anchor: end; fill: #262626" x="78.1" y="55.783125" transform="rotate(-0 78.1 55.783125)">0.4</text>
     </g>
    </g>
    <g id="ytick_4">
     <g id="line2d_7">
      <g>
       <use xlink:href="#mdc286676bf" x="86.4" y="35.28" style="fill: #262626; stroke: #262626"/>
      </g>
     </g>
     <g id="text_8">
      <text style="font-size: 8px; font-family: 'Arial'; text-anchor: end; fill: #262626" x="78.1" y="38.143125" transform="rotate(-0 78.1 38.143125)">0.6</text>
     </g>
    </g>
    <g id="ytick_5">
     <g id="line2d_8">
      <g>
       <use xlink:href="#mdc286676bf" x="86.4" y="17.64" style="fill: #262626; stroke: #262626"/>
      </g>
     </g>
     <g id="text_9">
      <text style="font-size: 8px; font-family: 'Arial'; text-anchor: end; fill: #262626" x="78.1" y="20.503125" transform="rotate(-0 78.1 20.503125)">0.8</text>
     </g>
    </g>
    <g id="ytick_6">
     <g id="line2d_9">
      <g>
       <use xlink:href="#mdc286676bf" x="86.4" y="0" style="fill: #262626; stroke: #262626"/>
      </g>
     </g>
     <g id="text_10">
      <text style="font-size: 8px; font-family: 'Arial'; text-anchor: end; fill: #262626" x="78.1" y="2.863125" transform="rotate(-0 78.1 2.863125)">1.0</text>
     </g>
    </g>
    <g id="text_11">
     <!-- mean $R^2$ -->
     <g style="fill: #262626" transform="translate(61.19125 62.19) rotate(-90)">
      <text>
       <tspan x="0" y="-0.873438" style="font-size: 9px; font-family: 'Arial'; fill: #262626">m</tspan>
       <tspan x="7.49707" y="-0.873438" style="font-size: 9px; font-family: 'Arial'; fill: #262626">e</tspan>
       <tspan x="12.502441" y="-0.873438" style="font-size: 9px; font-family: 'Arial'; fill: #262626">a</tspan>
       <tspan x="17.507812" y="-0.873438" style="font-size: 9px; font-family: 'Arial'; fill: #262626">n</tspan>
       <tspan x="22.513184" y="-0.873438" style="font-size: 9px; font-family: 'Arial'; fill: #262626"> </tspan>
       <tspan x="25.013672" y="-0.873438" style="font-style: oblique; font-size: 9px; font-family: 'DejaVu Sans'; fill: #262626">R</tspan>
       <tspan x="31.89873" y="-4.31875" style="font-size: 6.3px; font-family: 'DejaVu Sans'; fill: #262626">2</tspan>
      </text>
     </g>
    </g>
   </g>
   <g id="line2d_10">
    <path d="M 90.72 12.611251 
L 95.04 6.596389 
L 99.36 5.529087 
L 103.68 4.248503 
L 108 2.99092 
L 112.32 3.172915 
L 116.64 2.212604 
L 120.96 2.043127 
L 125.28 1.508258 
L 129.6 2.199875 
L 133.92 1.286263 
L 138.24 1.939905 
L 142.56 0.77833 
L 146.88 1.473875 
L 151.2 2.19802 
" clip-path="url(#p945d1eba70)" style="fill: none; stroke: #1b9e77; stroke-width: 1.2; stroke-linecap: round"/>
   </g>
   <g id="line2d_11">
    <path d="M 90.72 52.236838 
L 95.04 32.277772 
L 99.36 23.043967 
L 103.68 8.893022 
L 108 12.085066 
L 112.32 9.880872 
L 116.64 5.620982 
L 120.96 5.917582 
L 125.28 3.62328 
L 129.6 4.180054 
L 133.92 3.920665 
L 138.24 5.32165 
L 142.56 4.499644 
L 146.88 3.639783 
L 151.2 4.876662 
" clip-path="url(#p945d1eba70)" style="fill: none; stroke: #d95f02; stroke-width: 1.2; stroke-linecap: round"/>
   </g>
   <g id="line2d_12">
    <path d="M 90.72 45.803669 
L 95.04 37.863894 
L 99.36 40.591045 
L 103.68 40.550453 
L 108 39.024999 
L 112.32 37.588444 
L 116.64 42.461412 
L 120.96 37.106232 
L 125.28 34.993217 
L 129.6 37.809017 
L 133.92 32.355952 
L 138.24 30.200631 
L 142.56 40.711583 
L 146.88 33.295572 
L 151.2 35.708517 
" clip-path="url(#p945d1eba70)" style="fill: none; stroke: #7570b3; stroke-width: 1.2; stroke-linecap: round"/>
   </g>
   <g id="patch_3">
    <path d="M 86.4 88.2 
L 86.4 0 
" style="fill: none; stroke: #262626; stroke-linejoin: miter; stroke-linecap: square"/>
   </g>
   <g id="patch_4">
    <path d="M 86.4 88.2 
L 172.8 88.2 
" style="fill: none; stroke: #262626; stroke-linejoin: miter; stroke-linecap: square"/>
   </g>
   <g id="legend_1">
    <g id="line2d_13">
     <path d="M 94.32 50.24175 
L 98.72 50.24175 
L 103.12 50.24175 
" style="fill: none; stroke: #1b9e77; stroke-width: 1.2; stroke-linecap: round"/>
    </g>
    <g id="text_12">
     <text style="font-size: 8.8px; font-family: 'Arial'; text-anchor: start; fill: #1b9e77" x="110.16" y="53.32175" transform="rotate(-0 110.16 53.32175)">SLIC</text>
    </g>
    <g id="line2d_14">
     <path d="M 94.32 62.796875 
L 98.72 62.796875 
L 103.12 62.796875 
" style="fill: none; stroke: #d95f02; stroke-width: 1.2; stroke-linecap: round"/>
    </g>
    <g id="text_13">
     <text style="font-size: 8.8px; font-family: 'Arial'; text-anchor: start; fill: #d95f02" x="110.16" y="65.876875" transform="rotate(-0 110.16 65.876875)">Granger</text>
    </g>
    <g id="line2d_15">
     <path d="M 94.32 75.347875 
L 98.72 75.347875 
L 103.12 75.347875 
" style="fill: none; stroke: #7570b3; stroke-width: 1.2; stroke-linecap: round"/>
    </g>
    <g id="text_14">
     <text style="font-size: 8.8px; font-family: 'Arial'; text-anchor: start; fill: #7570b3" x="110.16" y="78.427875" transform="rotate(-0 110.16 78.427875)">Latency</text>
    </g>
   </g>
  </g>
  <g id="axes_2">
   <g id="patch_5">
    <path d="M 216 88.2 
L 302.4 88.2 
L 302.4 0 
L 216 0 
L 216 88.2 
z
" style="fill: none"/>
   </g>
   <g id="matplotlib.axis_3">
    <g id="xtick_4">
     <g id="line2d_16">
      <g>
       <use xlink:href="#m03c55a9eec" x="230.4" y="88.2" style="fill: #262626; stroke: #262626"/>
      </g>
     </g>
     <g id="text_15">
      <text style="font-size: 8px; font-family: 'Arial'; text-anchor: middle; fill: #262626" x="230.4" y="102.22625" transform="rotate(-0 230.4 102.22625)">SLIC</text>
     </g>
    </g>
    <g id="xtick_5">
     <g id="line2d_17">
      <g>
       <use xlink:href="#m03c55a9eec" x="259.2" y="88.2" style="fill: #262626; stroke: #262626"/>
      </g>
     </g>
     <g id="text_16">
      <text style="font-size: 8px; font-family: 'Arial'; text-anchor: middle; fill: #262626" x="259.2" y="102.32375" transform="rotate(-0 259.2 102.32375)">Granger</text>
     </g>
    </g>
    <g id="xtick_6">
     <g id="line2d_18">
      <g>
       <use xlink:href="#m03c55a9eec" x="288" y="88.2" style="fill: #262626; stroke: #262626"/>
      </g>
     </g>
     <g id="text_17">
      <text style="font-size: 8px; font-family: 'Arial'; text-anchor: middle; fill: #262626" x="288" y="102.22625" transform="rotate(-0 288 102.22625)">Latency</text>
     </g>
    </g>
   </g>
   <g id="matplotlib.axis_4">
    <g id="ytick_7">
     <g id="line2d_19">
      <g>
       <use xlink:href="#mdc286676bf" x="216" y="88.2" style="fill: #262626; stroke: #262626"/>
      </g>
     </g>
     <g id="text_18">
      <text style="font-size: 8px; font-family: 'Arial'; text-anchor: end; fill: #262626" x="207.7" y="91.063125" transform="rotate(-0 207.7 91.063125)">0.0</text>
     </g>
    </g>
    <g id="ytick_8">
     <g id="line2d_20">
      <g>
       <use xlink:href="#mdc286676bf" x="216" y="70.56" style="fill: #262626; stroke: #262626"/>
      </g>
     </g>
     <g id="text_19">
      <text style="font-size: 8px; font-family: 'Arial'; text-anchor: end; fill: #262626" x="207.7" y="73.423125" transform="rotate(-0 207.7 73.423125)">0.2</text>
     </g>
    </g>
    <g id="ytick_9">
     <g id="line2d_21">
      <g>
       <use xlink:href="#mdc286676bf" x="216" y="52.92" style="fill: #262626; stroke: #262626"/>
      </g>
     </g>
     <g id="text_20">
      <text style="font-size: 8px; font-family: 'Arial'; text-anchor: end; fill: #262626" x="207.7" y="55.783125" transform="rotate(-0 207.7 55.783125)">0.4</text>
     </g>
    </g>
    <g id="ytick_10">
     <g id="line2d_22">
      <g>
       <use xlink:href="#mdc286676bf" x="216" y="35.28" style="fill: #262626; stroke: #262626"/>
      </g>
     </g>
     <g id="text_21">
      <text style="font-size: 8px; font-family: 'Arial'; text-anchor: end; fill: #262626" x="207.7" y="38.143125" transform="rotate(-0 207.7 38.143125)">0.6</text>
     </g>
    </g>
    <g id="ytick_11">
     <g id="line2d_23">
      <g>
       <use xlink:href="#mdc286676bf" x="216" y="17.64" style="fill: #262626; stroke: #262626"/>
      </g>
     </g>
     <g id="text_22">
      <text style="font-size: 8px; font-family: 'Arial'; text-anchor: end; fill: #262626" x="207.7" y="20.503125" transform="rotate(-0 207.7 20.503125)">0.8</text>
     </g>
    </g>
    <g id="ytick_12">
     <g id="line2d_24">
      <g>
       <use xlink:href="#mdc286676bf" x="216" y="0" style="fill: #262626; stroke: #262626"/>
      </g>
     </g>
     <g id="text_23">
      <text style="font-size: 8px; font-family: 'Arial'; text-anchor: end; fill: #262626" x="207.7" y="2.863125" transform="rotate(-0 207.7 2.863125)">1.0</text>
     </g>
    </g>
    <g id="text_24">
     <text style="font-size: 9px; font-family: 'Arial'; fill: #262626" transform="translate(180.997 72.359297) rotate(-90)">trials to reach </text>
     <!-- 75% max $R^2$  -->
     <g style="fill: #262626" transform="translate(190.79125 70.965) rotate(-90)">
      <text>
       <tspan x="0" y="-0.873438" style="font-size: 9px; font-family: 'Arial'; fill: #262626">7</tspan>
       <tspan x="5.005371" y="-0.873438" style="font-size: 9px; font-family: 'Arial'; fill: #262626">5</tspan>
       <tspan x="10.010742" y="-0.873438" style="font-size: 9px; font-family: 'Arial'; fill: #262626">%</tspan>
       <tspan x="18.013184" y="-0.873438" style="font-size: 9px; font-family: 'Arial'; fill: #262626"> </tspan>
       <tspan x="20.513672" y="-0.873438" style="font-size: 9px; font-family: 'Arial'; fill: #262626">m</tspan>
       <tspan x="28.010742" y="-0.873438" style="font-size: 9px; font-family: 'Arial'; fill: #262626">a</tspan>
       <tspan x="33.016113" y="-0.873438" style="font-size: 9px; font-family: 'Arial'; fill: #262626">x</tspan>
       <tspan x="37.516113" y="-0.873438" style="font-size: 9px; font-family: 'Arial'; fill: #262626"> </tspan>
       <tspan x="51.156006" y="-0.873438" style="font-size: 9px; font-family: 'Arial'; fill: #262626"> </tspan>
       <tspan x="40.016602" y="-0.873438" style="font-style: oblique; font-size: 9px; font-family: 'DejaVu Sans'; fill: #262626">R</tspan>
       <tspan x="46.90166" y="-4.31875" style="font-size: 6.3px; font-family: 'DejaVu Sans'; fill: #262626">2</tspan>
      </text>
     </g>
    </g>
   </g>
   <g id="patch_6">
    <path d="M 223.2 39.800075 
L 237.6 39.800075 
L 237.6 28.182883 
L 223.2 28.182883 
L 223.2 39.800075 
z
" clip-path="url(#pdc0decbc21)" style="fill: #808080; stroke: #1a1a1a; stroke-linejoin: miter"/>
   </g>
   <g id="line2d_25">
    <path d="M 230.4 39.800075 
L 230.4 40.23525 
" clip-path="url(#pdc0decbc21)" style="fill: none; stroke: #1a1a1a; stroke-linecap: round"/>
   </g>
   <g id="line2d_26">
    <path d="M 230.4 28.182883 
L 230.4 18.62356 
" clip-path="url(#pdc0decbc21)" style="fill: none; stroke: #1a1a1a; stroke-linecap: round"/>
   </g>
   <g id="line2d_27">
    <path d="M 226.8 40.23525 
L 234 40.23525 
" clip-path="url(#pdc0decbc21)" style="fill: none; stroke: #1a1a1a; stroke-linecap: round"/>
   </g>
   <g id="line2d_28">
    <path d="M 226.8 18.62356 
L 234 18.62356 
" clip-path="url(#pdc0decbc21)" style="fill: none; stroke: #1a1a1a; stroke-linecap: round"/>
   </g>
   <g id="line2d_29">
    <defs>
     <path id="m8c4cfd4203" d="M 0 3 
C 0.795609 3 1.55874 2.683901 2.12132 2.12132 
C 2.683901 1.55874 3 0.795609 3 0 
C 3 -0.795609 2.683901 -1.55874 2.12132 -2.12132 
C 1.55874 -2.683901 0.795609 -3 0 -3 
C -0.795609 -3 -1.55874 -2.683901 -2.12132 -2.12132 
C -2.683901 -1.55874 -3 -0.795609 -3 0 
C -3 0.795609 -2.683901 1.55874 -2.12132 2.12132 
C -1.55874 2.683901 -0.795609 3 0 3 
z
" style="stroke: #808080"/>
    </defs>
    <g clip-path="url(#pdc0decbc21)">
     <use xlink:href="#m8c4cfd4203" x="230.4" y="76.367079" style="fill-opacity: 0; stroke: #808080"/>
     <use xlink:href="#m8c4cfd4203" x="230.4" y="61.517537" style="fill-opacity: 0; stroke: #808080"/>
    </g>
   </g>
   <g id="patch_7">
    <path d="M 252 39.537376 
L 266.4 39.537376 
L 266.4 32.141386 
L 252 32.141386 
L 252 39.537376 
z
" clip-path="url(#pdc0decbc21)" style="fill: #808080; stroke: #1a1a1a; stroke-linejoin: miter"/>
   </g>
   <g id="line2d_30">
    <path d="M 259.2 39.537376 
L 259.2 43.290037 
" clip-path="url(#pdc0decbc21)" style="fill: none; stroke: #1a1a1a; stroke-linecap: round"/>
   </g>
   <g id="line2d_31">
    <path d="M 259.2 32.141386 
L 259.2 29.385752 
" clip-path="url(#pdc0decbc21)" style="fill: none; stroke: #1a1a1a; stroke-linecap: round"/>
   </g>
   <g id="line2d_32">
    <path d="M 255.6 43.290037 
L 262.8 43.290037 
" clip-path="url(#pdc0decbc21)" style="fill: none; stroke: #1a1a1a; stroke-linecap: round"/>
   </g>
   <g id="line2d_33">
    <path d="M 255.6 29.385752 
L 262.8 29.385752 
" clip-path="url(#pdc0decbc21)" style="fill: none; stroke: #1a1a1a; stroke-linecap: round"/>
   </g>
   <g id="line2d_34">
    <g clip-path="url(#pdc0decbc21)">
     <use xlink:href="#m8c4cfd4203" x="259.2" y="75.641245" style="fill-opacity: 0; stroke: #808080"/>
    </g>
   </g>
   <g id="patch_8">
    <path d="M 280.8 67.244573 
L 295.2 67.244573 
L 295.2 16.964689 
L 280.8 16.964689 
L 280.8 67.244573 
z
" clip-path="url(#pdc0decbc21)" style="fill: #808080; stroke: #1a1a1a; stroke-linejoin: miter"/>
   </g>
   <g id="line2d_35">
    <path d="M 288 67.244573 
L 288 72.864059 
" clip-path="url(#pdc0decbc21)" style="fill: none; stroke: #1a1a1a; stroke-linecap: round"/>
   </g>
   <g id="line2d_36">
    <path d="M 288 16.964689 
L 288 3.118452 
" clip-path="url(#pdc0decbc21)" style="fill: none; stroke: #1a1a1a; stroke-linecap: round"/>
   </g>
   <g id="line2d_37">
    <path d="M 284.4 72.864059 
L 291.6 72.864059 
" clip-path="url(#pdc0decbc21)" style="fill: none; stroke: #1a1a1a; stroke-linecap: round"/>
   </g>
   <g id="line2d_38">
    <path d="M 284.4 3.118452 
L 291.6 3.118452 
" clip-path="url(#pdc0decbc21)" style="fill: none; stroke: #1a1a1a; stroke-linecap: round"/>
   </g>
   <g id="line2d_39"/>
   <g id="line2d_40">
    <path d="M 223.2 31.485509 
L 237.6 31.485509 
" clip-path="url(#pdc0decbc21)" style="fill: none; stroke: #1a1a1a"/>
   </g>
   <g id="line2d_41">
    <path d="M 252 35.788109 
L 266.4 35.788109 
" clip-path="url(#pdc0decbc21)" style="fill: none; stroke: #1a1a1a"/>
   </g>
   <g id="line2d_42">
    <path d="M 280.8 39.560799 
L 295.2 39.560799 
" clip-path="url(#pdc0decbc21)" style="fill: none; stroke: #1a1a1a"/>
   </g>
   <g id="patch_9">
    <path d="M 216 88.2 
L 216 0 
" style="fill: none; stroke: #262626; stroke-linejoin: miter; stroke-linecap: square"/>
   </g>
   <g id="patch_10">
    <path d="M 216 88.2 
L 302.4 88.2 
" style="fill: none; stroke: #262626; stroke-linejoin: miter; stroke-linecap: square"/>
   </g>
  </g>
  <g id="axes_3">
   <g id="patch_11">
    <path d="M 345.6 88.2 
L 432 88.2 
L 432 0 
L 345.6 0 
L 345.6 88.2 
z
" style="fill: none"/>
   </g>
   <g id="matplotlib.axis_5">
    <g id="xtick_7">
     <g id="line2d_43">
      <g>
       <use xlink:href="#m03c55a9eec" x="345.6" y="88.2" style="fill: #262626; stroke: #262626"/>
      </g>
     </g>
     <g id="text_25">
      <text style="font-size: 8px; font-family: 'Arial'; text-anchor: middle; fill: #262626" x="345.6" y="102.22625" transform="rotate(-0 345.6 102.22625)">0</text>
     </g>
    </g>
    <g id="xtick_8">
     <g id="line2d_44">
      <g>
       <use xlink:href="#m03c55a9eec" x="374.4" y="88.2" style="fill: #262626; stroke: #262626"/>
      </g>
     </g>
     <g id="text_26">
      <text style="font-size: 8px; font-family: 'Arial'; text-anchor: middle; fill: #262626" x="374.4" y="102.22625" transform="rotate(-0 374.4 102.22625)">50</text>
     </g>
    </g>
    <g id="xtick_9">
     <g id="line2d_45">
      <g>
       <use xlink:href="#m03c55a9eec" x="403.2" y="88.2" style="fill: #262626; stroke: #262626"/>
      </g>
     </g>
     <g id="text_27">
      <text style="font-size: 8px; font-family: 'Arial'; text-anchor: middle; fill: #262626" x="403.2" y="102.22625" transform="rotate(-0 403.2 102.22625)">100</text>
     </g>
    </g>
    <g id="xtick_10">
     <g id="line2d_46">
      <g>
       <use xlink:href="#m03c55a9eec" x="432" y="88.2" style="fill: #262626; stroke: #262626"/>
      </g>
     </g>
     <g id="text_28">
      <text style="font-size: 8px; font-family: 'Arial'; text-anchor: middle; fill: #262626" x="432" y="102.22625" transform="rotate(-0 432 102.22625)">150</text>
     </g>
    </g>
    <g id="text_29">
     <text style="font-size: 9px; font-family: 'Arial'; text-anchor: middle; fill: #262626" x="388.8" y="114.367969" transform="rotate(-0 388.8 114.367969)">AUC (SD)</text>
    </g>
   </g>
   <g id="matplotlib.axis_6">
    <g id="ytick_13">
     <g id="line2d_47">
      <g>
       <use xlink:href="#mdc286676bf" x="345.6" y="88.2" style="fill: #262626; stroke: #262626"/>
      </g>
     </g>
     <g id="text_30">
      <text style="font-size: 8px; font-family: 'Arial'; text-anchor: end; fill: #262626" x="337.3" y="91.063125" transform="rotate(-0 337.3 91.063125)">0.0</text>
     </g>
    </g>
    <g id="ytick_14">
     <g id="line2d_48">
      <g>
       <use xlink:href="#mdc286676bf" x="345.6" y="70.56" style="fill: #262626; stroke: #262626"/>
      </g>
     </g>
     <g id="text_31">
      <text style="font-size: 8px; font-family: 'Arial'; text-anchor: end; fill: #262626" x="337.3" y="73.423125" transform="rotate(-0 337.3 73.423125)">0.2</text>
     </g>
    </g>
    <g id="ytick_15">
     <g id="line2d_49">
      <g>
       <use xlink:href="#mdc286676bf" x="345.6" y="52.92" style="fill: #262626; stroke: #262626"/>
      </g>
     </g>
     <g id="text_32">
      <text style="font-size: 8px; font-family: 'Arial'; text-anchor: end; fill: #262626" x="337.3" y="55.783125" transform="rotate(-0 337.3 55.783125)">0.4</text>
     </g>
    </g>
    <g id="ytick_16">
     <g id="line2d_50">
      <g>
       <use xlink:href="#mdc286676bf" x="345.6" y="35.28" style="fill: #262626; stroke: #262626"/>
      </g>
     </g>
     <g id="text_33">
      <text style="font-size: 8px; font-family: 'Arial'; text-anchor: end; fill: #262626" x="337.3" y="38.143125" transform="rotate(-0 337.3 38.143125)">0.6</text>
     </g>
    </g>
    <g id="ytick_17">
     <g id="line2d_51">
      <g>
       <use xlink:href="#mdc286676bf" x="345.6" y="17.64" style="fill: #262626; stroke: #262626"/>
      </g>
     </g>
     <g id="text_34">
      <text style="font-size: 8px; font-family: 'Arial'; text-anchor: end; fill: #262626" x="337.3" y="20.503125" transform="rotate(-0 337.3 20.503125)">0.8</text>
     </g>
    </g>
    <g id="ytick_18">
     <g id="line2d_52">
      <g>
       <use xlink:href="#mdc286676bf" x="345.6" y="0" style="fill: #262626; stroke: #262626"/>
      </g>
     </g>
     <g id="text_35">
      <text style="font-size: 8px; font-family: 'Arial'; text-anchor: end; fill: #262626" x="337.3" y="2.863125" transform="rotate(-0 337.3 2.863125)">1.0</text>
     </g>
    </g>
    <g id="text_36">
     <text style="font-size: 9px; font-family: 'Arial'; fill: #262626" transform="translate(310.597 72.359297) rotate(-90)">trials to reach </text>
     <!-- 75% max $R^2$ -->
     <g style="fill: #262626" transform="translate(320.39125 69.705) rotate(-90)">
      <text>
       <tspan x="0" y="-0.873438" style="font-size: 9px; font-family: 'Arial'; fill: #262626">7</tspan>
       <tspan x="5.005371" y="-0.873438" style="font-size: 9px; font-family: 'Arial'; fill: #262626">5</tspan>
       <tspan x="10.010742" y="-0.873438" style="font-size: 9px; font-family: 'Arial'; fill: #262626">%</tspan>
       <tspan x="18.013184" y="-0.873438" style="font-size: 9px; font-family: 'Arial'; fill: #262626"> </tspan>
       <tspan x="20.513672" y="-0.873438" style="font-size: 9px; font-family: 'Arial'; fill: #262626">m</tspan>
       <tspan x="28.010742" y="-0.873438" style="font-size: 9px; font-family: 'Arial'; fill: #262626">a</tspan>
       <tspan x="33.016113" y="-0.873438" style="font-size: 9px; font-family: 'Arial'; fill: #262626">x</tspan>
       <tspan x="37.516113" y="-0.873438" style="font-size: 9px; font-family: 'Arial'; fill: #262626"> </tspan>
       <tspan x="40.016602" y="-0.873438" style="font-style: oblique; font-size: 9px; font-family: 'DejaVu Sans'; fill: #262626">R</tspan>
       <tspan x="46.90166" y="-4.31875" style="font-size: 6.3px; font-family: 'DejaVu Sans'; fill: #262626">2</tspan>
      </text>
     </g>
    </g>
   </g>
   <g id="PathCollection_1">
    <defs>
     <path id="mcd70e79aa2" d="M 0 2.4 
C 0.636487 2.4 1.246992 2.147121 1.697056 1.697056 
C 2.147121 1.246992 2.4 0.636487 2.4 0 
C 2.4 -0.636487 2.147121 -1.246992 1.697056 -1.697056 
C 1.246992 -2.147121 0.636487 -2.4 0 -2.4 
C -0.636487 -2.4 -1.246992 -2.147121 -1.697056 -1.697056 
C -2.147121 -1.246992 -2.4 -0.636487 -2.4 0 
C -2.4 0.636487 -2.147121 1.246992 -1.697056 1.697056 
C -1.246992 2.147121 -0.636487 2.4 0 2.4 
z
" style="stroke: #1b9e77; stroke-width: 0.8"/>
    </defs>
    <g clip-path="url(#pfb7912e635)">
     <use xlink:href="#mcd70e79aa2" x="521.022738" y="76.367079" style="fill: #1b9e77; stroke: #1b9e77; stroke-width: 0.8"/>
     <use xlink:href="#mcd70e79aa2" x="460.473849" y="18.62356" style="fill: #1b9e77; stroke: #1b9e77; stroke-width: 0.8"/>
     <use xlink:href="#mcd70e79aa2" x="386.01834" y="27.642886" style="fill: #1b9e77; stroke: #1b9e77; stroke-width: 0.8"/>
     <use xlink:href="#mcd70e79aa2" x="422.839305" y="25.010922" style="fill: #1b9e77; stroke: #1b9e77; stroke-width: 0.8"/>
     <use xlink:href="#mcd70e79aa2" x="404.084844" y="40.23525" style="fill: #1b9e77; stroke: #1b9e77; stroke-width: 0.8"/>
     <use xlink:href="#mcd70e79aa2" x="408.601255" y="61.517537" style="fill: #1b9e77; stroke: #1b9e77; stroke-width: 0.8"/>
     <use xlink:href="#mcd70e79aa2" x="368.448078" y="38.49455" style="fill: #1b9e77; stroke: #1b9e77; stroke-width: 0.8"/>
     <use xlink:href="#mcd70e79aa2" x="379.531905" y="29.802875" style="fill: #1b9e77; stroke: #1b9e77; stroke-width: 0.8"/>
     <use xlink:href="#mcd70e79aa2" x="389.580545" y="31.973725" style="fill: #1b9e77; stroke: #1b9e77; stroke-width: 0.8"/>
     <use xlink:href="#mcd70e79aa2" x="368.45537" y="30.997294" style="fill: #1b9e77; stroke: #1b9e77; stroke-width: 0.8"/>
    </g>
   </g>
   <g id="PathCollection_2">
    <defs>
     <path id="m7e75b89338" d="M 0 2.4 
C 0.636487 2.4 1.246992 2.147121 1.697056 1.697056 
C 2.147121 1.246992 2.4 0.636487 2.4 0 
C 2.4 -0.636487 2.147121 -1.246992 1.697056 -1.697056 
C 1.246992 -2.147121 0.636487 -2.4 0 -2.4 
C -0.636487 -2.4 -1.246992 -2.147121 -1.697056 -1.697056 
C -2.147121 -1.246992 -2.4 -0.636487 -2.4 0 
C -2.4 0.636487 -2.147121 1.246992 -1.697056 1.697056 
C -1.246992 2.147121 -0.636487 2.4 0 2.4 
z
" style="stroke: #d95f02; stroke-width: 0.8"/>
    </defs>
    <g clip-path="url(#pfb7912e635)">
     <use xlink:href="#m7e75b89338" x="521.022738" y="39.586442" style="fill: #d95f02; stroke: #d95f02; stroke-width: 0.8"/>
     <use xlink:href="#m7e75b89338" x="460.473849" y="29.385752" style="fill: #d95f02; stroke: #d95f02; stroke-width: 0.8"/>
     <use xlink:href="#m7e75b89338" x="386.01834" y="37.31757" style="fill: #d95f02; stroke: #d95f02; stroke-width: 0.8"/>
     <use xlink:href="#m7e75b89338" x="422.839305" y="32.427901" style="fill: #d95f02; stroke: #d95f02; stroke-width: 0.8"/>
     <use xlink:href="#m7e75b89338" x="404.084844" y="34.258647" style="fill: #d95f02; stroke: #d95f02; stroke-width: 0.8"/>
     <use xlink:href="#m7e75b89338" x="408.601255" y="32.045881" style="fill: #d95f02; stroke: #d95f02; stroke-width: 0.8"/>
     <use xlink:href="#m7e75b89338" x="368.448078" y="43.290037" style="fill: #d95f02; stroke: #d95f02; stroke-width: 0.8"/>
     <use xlink:href="#m7e75b89338" x="379.531905" y="39.390179" style="fill: #d95f02; stroke: #d95f02; stroke-width: 0.8"/>
     <use xlink:href="#m7e75b89338" x="389.580545" y="75.641245" style="fill: #d95f02; stroke: #d95f02; stroke-width: 0.8"/>
     <use xlink:href="#m7e75b89338" x="368.45537" y="29.703398" style="fill: #d95f02; stroke: #d95f02; stroke-width: 0.8"/>
    </g>
   </g>
   <g id="PathCollection_3">
    <defs>
     <path id="m5a7061055d" d="M 0 2.4 
C 0.636487 2.4 1.246992 2.147121 1.697056 1.697056 
C 2.147121 1.246992 2.4 0.636487 2.4 0 
C 2.4 -0.636487 2.147121 -1.246992 1.697056 -1.697056 
C 1.246992 -2.147121 0.636487 -2.4 0 -2.4 
C -0.636487 -2.4 -1.246992 -2.147121 -1.697056 -1.697056 
C -2.147121 -1.246992 -2.4 -0.636487 -2.4 0 
C -2.4 0.636487 -2.147121 1.246992 -1.697056 1.697056 
C -1.246992 2.147121 -0.636487 2.4 0 2.4 
z
" style="stroke: #7570b3; stroke-width: 0.8"/>
    </defs>
    <g clip-path="url(#pfb7912e635)">
     <use xlink:href="#m5a7061055d" x="521.022738" y="72.596962" style="fill: #7570b3; stroke: #7570b3; stroke-width: 0.8"/>
     <use xlink:href="#m5a7061055d" x="460.473849" y="3.118452" style="fill: #7570b3; stroke: #7570b3; stroke-width: 0.8"/>
     <use xlink:href="#m5a7061055d" x="386.01834" y="72.864059" style="fill: #7570b3; stroke: #7570b3; stroke-width: 0.8"/>
     <use xlink:href="#m5a7061055d" x="422.839305" y="55.890213" style="fill: #7570b3; stroke: #7570b3; stroke-width: 0.8"/>
     <use xlink:href="#m5a7061055d" x="404.084844" y="67.662785" style="fill: #7570b3; stroke: #7570b3; stroke-width: 0.8"/>
     <use xlink:href="#m5a7061055d" x="408.601255" y="65.989937" style="fill: #7570b3; stroke: #7570b3; stroke-width: 0.8"/>
     <use xlink:href="#m5a7061055d" x="368.448078" y="16.247596" style="fill: #7570b3; stroke: #7570b3; stroke-width: 0.8"/>
     <use xlink:href="#m5a7061055d" x="379.531905" y="12.306341" style="fill: #7570b3; stroke: #7570b3; stroke-width: 0.8"/>
     <use xlink:href="#m5a7061055d" x="389.580545" y="19.11597" style="fill: #7570b3; stroke: #7570b3; stroke-width: 0.8"/>
     <use xlink:href="#m5a7061055d" x="368.45537" y="23.231386" style="fill: #7570b3; stroke: #7570b3; stroke-width: 0.8"/>
    </g>
   </g>
   <g id="patch_12">
    <path d="M 345.6 88.2 
L 345.6 0 
" style="fill: none; stroke: #262626; stroke-linejoin: miter; stroke-linecap: square"/>
   </g>
   <g id="patch_13">
    <path d="M 345.6 88.2 
L 432 88.2 
" style="fill: none; stroke: #262626; stroke-linejoin: miter; stroke-linecap: square"/>
   </g>
   <g id="legend_2">
    <g id="PathCollection_4">
     <defs>
      <path id="mbae4918a55" d="M 0 0 
C 0 0 0 0 0 0 
C 0 0 0 0 0 0 
C 0 0 0 0 0 0 
C 0 0 0 0 0 0 
C 0 0 0 0 0 0 
C 0 0 0 0 0 0 
C 0 0 0 0 0 0 
C 0 0 0 0 0 0 
z
" style="stroke: #1b9e77; stroke-width: 0.8"/>
     </defs>
     <g>
      <use xlink:href="#mbae4918a55" x="370.96" y="51.01175" style="fill: #1b9e77; stroke: #1b9e77; stroke-width: 0.8"/>
     </g>
    </g>
    <g id="text_37">
     <text style="font-size: 8.8px; font-family: 'Arial'; text-anchor: start; fill: #1b9e77" x="386.8" y="53.32175" transform="rotate(-0 386.8 53.32175)">SLIC</text>
    </g>
    <g id="PathCollection_5">
     <defs>
      <path id="mfcef4f858a" d="M 0 0 
C 0 0 0 0 0 0 
C 0 0 0 0 0 0 
C 0 0 0 0 0 0 
C 0 0 0 0 0 0 
C 0 0 0 0 0 0 
C 0 0 0 0 0 0 
C 0 0 0 0 0 0 
C 0 0 0 0 0 0 
z
" style="stroke: #d95f02; stroke-width: 0.8"/>
     </defs>
     <g>
      <use xlink:href="#mfcef4f858a" x="370.96" y="63.566875" style="fill: #d95f02; stroke: #d95f02; stroke-width: 0.8"/>
     </g>
    </g>
    <g id="text_38">
     <text style="font-size: 8.8px; font-family: 'Arial'; text-anchor: start; fill: #d95f02" x="386.8" y="65.876875" transform="rotate(-0 386.8 65.876875)">Granger</text>
    </g>
    <g id="PathCollection_6">
     <defs>
      <path id="mc61237cdd0" d="M 0 0 
C 0 0 0 0 0 0 
C 0 0 0 0 0 0 
C 0 0 0 0 0 0 
C 0 0 0 0 0 0 
C 0 0 0 0 0 0 
C 0 0 0 0 0 0 
C 0 0 0 0 0 0 
C 0 0 0 0 0 0 
z
" style="stroke: #7570b3; stroke-width: 0.8"/>
     </defs>
     <g>
      <use xlink:href="#mc61237cdd0" x="370.96" y="76.117875" style="fill: #7570b3; stroke: #7570b3; stroke-width: 0.8"/>
     </g>
    </g>
    <g id="text_39">
     <text style="font-size: 8.8px; font-family: 'Arial'; text-anchor: start; fill: #7570b3" x="386.8" y="78.427875" transform="rotate(-0 386.8 78.427875)">Latency</text>
    </g>
   </g>
  </g>
 </g>
 <defs>
  <clipPath id="p945d1eba70">
   <rect x="86.4" y="0" width="86.4" height="88.2"/>
  </clipPath>
  <clipPath id="pdc0decbc21">
   <rect x="216" y="0" width="86.4" height="88.2"/>
  </clipPath>
  <clipPath id="pfb7912e635">
   <rect x="345.6" y="0" width="86.4" height="88.2"/>
  </clipPath>
 </defs>
</svg>
