<?xml version="1.0" encoding="utf-8" standalone="no"?>
<!DOCTYPE svg PUBLIC "-//W3C//DTD SVG 1.1//EN"
  "http://www.w3.org/Graphics/SVG/1.1/DTD/svg11.dtd">
<svg xmlns:xlink="http://www.w3.org/1999/xlink" width="108pt" height="126pt" viewBox="0 0 108 126" xmlns="http://www.w3.org/2000/svg" version="1.1">
 <metadata>
  <rdf:RDF xmlns:dc="http://purl.org/dc/elements/1.1/" xmlns:cc="http://creativecommons.org/ns#" xmlns:rdf="http://www.w3.org/1999/02/22-rdf-syntax-ns#">
   <cc:Work>
    <dc:type rdf:resource="http://purl.org/dc/dcmitype/StillImage"/>
    <dc:date>2026-07-07T14:34:51.584603</dc:date>
    <dc:format>image/svg+xml</dc:format>
    <dc:creator>
     <cc:Agent>
      <dc:title>Matplotlib v3.10.7, https://matplotlib.org/</dc:title>
     </cc:Agent>
    </dc:creator>
   </cc:Work>
  </rdf:RDF>
 </metadata>
 <defs>
  <style type="text/css">*{stroke-linejoin: round; stroke-linecap: butt}</style>
 </defs>
 <g id="figure_1">
  <g id="patch_1">
   <path d="M 0 126 
L 108 126 
L 108 0 
L 0 0 
L 0 126 
z
" style="fill: none"/>
  </g>
  <g id="axes_1">
   <g id="patch_2">
    <path d="M 13.5 112.14 
L 97.2 112.14 
L 97.2 15.12 
L 13.5 15.12 
L 13.5 112.14 
z
" style="fill: none"/>
   </g>
   <g id="matplotlib.axis_1">
    <g id="xtick_1">
     <g id="line2d_1">
      <defs>
       <path id="m5c8c092049" d="M 0 0 
L 0 4.8 
" style="stroke: #262626"/>
      </defs>
      <g>
       <use xlink:href="#m5c8c092049" x="17.304545" y="112.14" style="fill: #262626; stroke: #262626"/>
      </g>
     </g>
     <g id="text_1">
      <text style="font-size: 8px; font-family: 'Arial'; text-anchor: middle; fill: #262626" x="17.304545" y="126.16625" transform="rotate(-0 17.304545 126.16625)">0</text>
     </g>
    </g>
    <g id="xtick_2">
     <g id="line2d_2">
      <g>
       <use xlink:href="#m5c8c092049" x="49.009091" y="112.14" style="fill: #262626; stroke: #262626"/>
      </g>
     </g>
     <g id="text_2">
      <text style="font-size: 8px; font-family: 'Arial'; text-anchor: middle; fill: #262626" x="49.009091" y="126.16625" transform="rotate(-0 49.009091 126.16625)">250</text>
     </g>
    </g>
    <g id="xtick_3">
     <g id="line2d_3">
      <g>
       <use xlink:href="#m5c8c092049" x="80.713636" y="112.14" style="fill: #262626; stroke: #262626"/>
      </g>
     </g>
     <g id="text_3">
      <text style="font-size: 8px; font-family: 'Arial'; text-anchor: middle; fill: #262626" x="80.713636" y="126.16625" transform="rotate(-0 80.713636 126.16625)">500</text>
     </g>
    </g>
    <g id="text_4">
     <text style="font-size: 9px; font-family: 'Arial'; text-anchor: middle; fill: #262626" x="55.35" y="138.198281" transform="rotate(-0 55.35 138.198281)">trials included</text>
    </g>
   </g>
   <g id="matplotlib.axis_2">
    <g id="ytick_1">
     <g id="line2d_4">
      <defs>
       <path id="m18eef987e7" d="M 0 0 
L -4.8 0 
" style="stroke: #262626"/>
      </defs>
      <g>
       <use xlink:href="#m18eef987e7" x="13.5" y="112.14" style="fill: #262626; stroke: #262626"/>
      </g>
     </g>
     <g id="text_5">
      <text style="font-size: 8px; font-family: 'Arial'; text-anchor: end; fill: #262626" x="5.2" y="115.003125" transform="rotate(-0 5.2 115.003125)">0.0</text>
     </g>
    </g>
    <g id="ytick_2">
     <g id="line2d_5">
      <g>
       <use xlink:href="#m18eef987e7" x="13.5" y="92.736" style="fill: #262626; stroke: #262626"/>
      </g>
     </g>
     <g id="text_6">
      <text style="font-size: 8px; font-family: 'Arial'; text-anchor: end; fill: #262626" x="5.2" y="95.599125" transform="rotate(-0 5.2 95.599125)">0.2</text>
     </g>
    </g>
    <g id="ytick_3">
     <g id="line2d_6">
      <g>
       <use xlink:href="#m18eef987e7" x="13.5" y="73.332" style="fill: #262626; stroke: #262626"/>
      </g>
     </g>
     <g id="text_7">
      <text style="font-size: 8px; font-family: 'Arial'; text-anchor: end; fill: #262626" x="5.2" y="76.195125" transform="rotate(-0 5.2 76.195125)">0.4</text>
     </g>
    </g>
    <g id="ytick_4">
     <g id="line2d_7">
      <g>
       <use xlink:href="#m18eef987e7" x="13.5" y="53.928" style="fill: #262626; stroke: #262626"/>
      </g>
     </g>
     <g id="text_8">
      <text style="font-size: 8px; font-family: 'Arial'; text-anchor: end; fill: #262626" x="5.2" y="56.791125" transform="rotate(-0 5.2 56.791125)">0.6</text>
     </g>
    </g>
    <g id="ytick_5">
     <g id="line2d_8">
      <g>
       <use xlink:href="#m18eef987e7" x="13.5" y="34.524" style="fill: #262626; stroke: #262626"/>
      </g>
     </g>
     <g id="text_9">
      <text style="font-size: 8px; font-family: 'Arial'; text-anchor: end; fill: #262626" x="5.2" y="37.387125" transform="rotate(-0 5.2 37.387125)">0.8</text>
     </g>
    </g>
    <g id="ytick_6">
     <g id="line2d_9">
      <g>
       <use xlink:href="#m18eef987e7" x="13.5" y="15.12" style="fill: #262626; stroke: #262626"/>
      </g>
     </g>
     <g id="text_10">
      <text style="font-size: 8px; font-family: 'Arial'; text-anchor: end; fill: #262626" x="5.2" y="17.983125" transform="rotate(-0 5.2 17.983125)">1.0</text>
     </g>
    </g>
    <g id="text_11">
     <text style="font-size: 9px; font-family: 'Arial'; text-anchor: middle; fill: #262626" x="-11.70875" y="63.63" transform="rotate(-90 -11.70875 63.63)">normalized corr.</text>
    </g>
   </g>
   <g id="FillBetweenPolyCollection_1">
    <path d="M 20.475 99.9432 
L 20.475 104.9328 
L 20.927922 91.7658 
L 21.154383 86.13864 
L 21.380844 78.37704 
L 21.380844 76.04856 
L 21.380844 76.04856 
L 21.154383 82.837535 
L 20.927922 89.8254 
L 20.475 99.9432 
z
" clip-path="url(#p4d77317caf)" style="fill: #1a1a1a; fill-opacity: 0.2; stroke: #1a1a1a; stroke-opacity: 0.2; stroke-width: 0.8"/>
    <path d="M 22.513149 69.69375 
L 22.513149 71.8767 
L 22.73961 68.481 
L 22.966071 65.0853 
L 22.966071 63.1449 
L 22.966071 63.1449 
L 22.73961 66.5406 
L 22.513149 69.69375 
z
" clip-path="url(#p4d77317caf)" style="fill: #1a1a1a; fill-opacity: 0.2; stroke: #1a1a1a; stroke-opacity: 0.2; stroke-width: 0.8"/>
    <path d="M 23.645455 59.7492 
L 23.645455 60.7194 
L 23.871916 58.779 
L 23.871916 56.8386 
L 23.871916 56.8386 
L 23.645455 59.7492 
z
" clip-path="url(#p4d77317caf)" style="fill: #1a1a1a; fill-opacity: 0.2; stroke: #1a1a1a; stroke-opacity: 0.2; stroke-width: 0.8"/>
    <path d="M 24.324838 53.928 
L 24.324838 54.8982 
L 24.324838 53.928 
L 24.324838 53.928 
z
" clip-path="url(#p4d77317caf)" style="fill: #1a1a1a; fill-opacity: 0.2; stroke: #1a1a1a; stroke-opacity: 0.2; stroke-width: 0.8"/>
    <path d="M 25.004221 49.556036 
L 25.004221 51.74505 
L 25.457143 48.1068 
L 25.457143 47.1366 
L 25.457143 47.1366 
L 25.004221 49.556036 
z
" clip-path="url(#p4d77317caf)" style="fill: #1a1a1a; fill-opacity: 0.2; stroke: #1a1a1a; stroke-opacity: 0.2; stroke-width: 0.8"/>
    <path d="M 26.589448 44.226 
L 26.589448 45.1962 
L 26.589448 44.226 
L 26.589448 44.226 
z
" clip-path="url(#p4d77317caf)" style="fill: #1a1a1a; fill-opacity: 0.2; stroke: #1a1a1a; stroke-opacity: 0.2; stroke-width: 0.8"/>
    <path d="M 28.174675 39.375 
L 28.174675 40.3452 
L 28.174675 39.375 
L 28.174675 39.375 
z
" clip-path="url(#p4d77317caf)" style="fill: #1a1a1a; fill-opacity: 0.2; stroke: #1a1a1a; stroke-opacity: 0.2; stroke-width: 0.8"/>
   </g>
   <g id="line2d_10">
    <path d="M 20.475 102.438 
L 20.927922 90.7956 
L 21.154383 84.4893 
L 21.380844 77.2128 
L 21.833766 74.3022 
L 22.060227 73.332 
L 22.513149 70.9065 
L 22.73961 67.5108 
L 22.966071 64.1151 
L 23.192532 61.6896 
L 23.645455 60.2343 
L 23.871916 57.8088 
L 24.098377 55.8684 
L 24.324838 54.4131 
L 24.77776 52.9578 
L 25.004221 50.5323 
L 25.457143 47.6217 
L 26.362987 46.1664 
L 26.589448 44.7111 
L 26.815909 43.2558 
L 27.268831 42.2856 
L 27.721753 41.3154 
L 28.174675 39.8601 
L 28.854058 38.4048 
L 29.080519 37.4346 
L 29.533442 36.4644 
L 29.986364 35.4942 
L 30.212825 34.524 
L 30.665747 33.5538 
L 31.571591 32.5836 
L 32.250974 31.6134 
L 34.062662 30.6432 
L 35.64789 29.673 
L 36.100812 28.7028 
L 37.233117 27.7326 
L 37.459578 26.7624 
L 38.591883 25.7922 
L 40.403571 24.822 
L 42.668182 23.8518 
L 44.47987 22.8816 
L 45.612175 21.9114 
L 48.78263 20.9412 
L 49.462013 19.971 
L 55.123539 19.0008 
L 57.841071 18.0306 
L 63.502597 17.0604 
L 73.693344 16.0902 
L 92.263149 15.12 
" clip-path="url(#p4d77317caf)" style="fill: none; stroke: #1a1a1a; stroke-width: 1.2; stroke-linecap: round"/>
   </g>
   <g id="line2d_11">
    <path d="M 61.690909 112.14 
L 61.690909 15.12 
" clip-path="url(#p4d77317caf)" style="fill: none; stroke: #90d0df; stroke-width: 1.2; stroke-linecap: round"/>
   </g>
   <g id="line2d_12">
    <path d="M 93.395455 112.14 
L 93.395455 15.12 
" clip-path="url(#p4d77317caf)" style="fill: none; stroke: #227fb1; stroke-width: 1.2; stroke-linecap: round"/>
   </g>
   <g id="LineCollection_1">
    <path d="M 40.403571 112.14 
L 40.403571 24.822 
" clip-path="url(#p4d77317caf)" style="fill: none; stroke-dasharray: 4.44,1.92; stroke-dashoffset: 0; stroke: #808080; stroke-width: 1.2"/>
   </g>
   <g id="LineCollection_2">
    <path d="M 17.304545 24.822 
L 40.403571 24.822 
" clip-path="url(#p4d77317caf)" style="fill: none; stroke-dasharray: 4.44,1.92; stroke-dashoffset: 0; stroke: #808080; stroke-width: 1.2"/>
   </g>
   <g id="patch_3">
    <path d="M 13.5 112.14 
L 13.5 15.12 
" style="fill: none; stroke: #262626; stroke-linejoin: miter; stroke-linecap: square"/>
   </g>
   <g id="patch_4">
    <path d="M 13.5 112.14 
L 97.2 112.14 
" style="fill: none; stroke: #262626; stroke-linejoin: miter; stroke-linecap: square"/>
   </g>
   <g id="text_12">
    <text style="font-size: 9.6px; font-family: 'Arial'; text-anchor: middle; fill: #262626" x="55.35" y="9.12" transform="rotate(-0 55.35 9.12)">trials</text>
   </g>
  </g>
 </g>
 <defs>
  <clipPath id="p4d77317caf">
   <rect x="13.5" y="15.12" width="83.7" height="97.02"/>
  </clipPath>
 </defs>
</svg>
